<svg width="570" height="510" viewBox="0 0 570 510" fill="none" xmlns="http://www.w3.org/2000/svg">
    <g>
<!--        <rect x="105.571" y="390.994" width="405.217" height="253.639" rx="126.82" transform="rotate(-44.1453 105.571 390.994)" fill="#DDEDAA"/>-->
<!--        <rect x="282.226" y="573" width="405.217" height="253.639" rx="126.82" transform="rotate(-134.145 282.226 573)" fill="#DDEDAA"/>-->
<!--        <rect x="138.651" y="425.074" width="279.913" height="206.145" transform="rotate(-44.1453 138.651 425.074)" fill="#DDEDAA"/>-->


        <rect x="0" y="0" width="490" height="306" rx="152" fill="#DDEDAA" transform="translate(-25, 70) rotate(45 245 153 )" />
        <rect x="0" y="0" width="490" height="306" rx="152" fill="#DDEDAA" transform="translate(106, 70) rotate(-45 245 153 )" />
        <rect x="5" y="5" width="279" height="306" fill="#DDEDAA" transform="translate(99, 70) rotate(-45 245 153 )" />
        <svg width="700" height="700" x="-50" y="300" overflow="visible">
<!--            <rect x="0" y="0" width="490" height="306" rx="152" transform="rotate(-45)" fill="#DDEDAA" />-->

            <!--            <rect x="5" y="5" width="279" height="306" fill="#DDEDAA"/>-->
        </svg>
    </g>
    <defs>

    </defs>
</svg>
