<svg width="64" height="64" viewBox="0 0 1310 1310" fill="none" xmlns="http://www.w3.org/2000/svg">
<mask id="mask0_350_2147" style="mask-type:alpha" maskUnits="userSpaceOnUse" x="0" y="0" width="1310" height="1310">
<circle cx="654.926" cy="654.926" r="654.926" fill="#D9EBAE"/>
</mask>
<g mask="url(#mask0_350_2147)">
<circle cx="654.926" cy="654.926" r="654.926" fill="#A7CDE0"/>
<path d="M314.756 1005.98C334.294 966.552 321.915 724.984 320.519 711.787L355.035 614.722L994.872 587.082C1002.25 648.578 871.319 813.669 877.181 869.098C880.927 904.51 874.112 914.795 890.487 945.091C907.621 976.788 931.708 1107.91 973.485 1228.94C973.485 1228.94 1078.43 1327.27 1079.36 1385.89C1080.29 1444.51 1243.49 1590.05 1271.59 1656.47C1299.69 1722.89 1326.87 1730.77 1431.73 1875.37L1257.18 1893.83L1155.3 1904.61L324.264 1992.5C308.323 1974.62 270.281 1915.47 245.643 1822C214.844 1705.15 197.906 1445.38 199.021 1381.21C200.137 1317.03 295.218 1045.42 314.756 1005.98Z" fill="#7A4A22"/>
<path d="M322.762 957.098L326.947 847.227C563.872 1234.26 784.554 1055.94 878.77 908.966L902.589 959.826C896.479 968.479 878.864 1004.51 871.421 1013.83C670.089 1361.81 427.001 1112.44 322.762 957.098Z" fill="#34946C" stroke="black" stroke-opacity="0.7"/>
<path d="M257.638 408.096C267.807 325.08 345.444 218.058 475.573 204.294C568.451 211.542 576.369 241.834 800.739 218.103C894.433 208.193 1216.87 419.477 920.169 752.453C775.052 915.313 778.711 1054.9 612.539 1051.39C539.296 1031.01 516.147 942.456 431.057 860.234C266.745 701.46 249.167 477.262 257.638 408.096Z" fill="#8F5525"/>
<path d="M529.222 469.906C527.043 430.525 505.657 371.075 437.541 448.331C442.45 466.575 467.66 496.432 529.222 469.906Z" fill="black" stroke="#754924" stroke-width="3"/>
<path d="M762.988 465.011C778.05 428.32 818.566 379.47 860.13 477.593C849.32 493.182 814.759 512.49 762.988 465.011Z" fill="black" stroke="#754924" stroke-width="3"/>
<path d="M550.698 521.976C726.076 361.971 453.746 302.698 401.644 308.209C404.528 310.573 382.012 296.94 367.869 287.76C325.443 260.22 455.884 198.382 492.076 191.885C528.269 185.388 603.352 222.807 657.501 211.742C795.572 182.192 864.422 200.532 896.616 255.857C930.669 278.945 952.494 335.849 925.832 332.836C523.247 287.34 739.941 517.974 748.873 527.705C757.806 537.436 860.802 614.619 892.437 664.653C917.745 704.68 835.747 809.436 791.585 856.811L634.813 918.765L472.457 853.198L392.254 717.556C375.505 633.92 375.32 681.981 550.698 521.976Z" fill="#B16C34"/>
<path d="M473.095 161.853C523.41 139.45 525.756 186.532 520.639 212.873C497.659 244.663 420.083 328.133 355.031 390.528C273.715 468.522 430.12 726.885 242.552 746.724C54.9829 766.562 114.707 359.898 128.197 313.099C138.989 275.659 204.397 286.356 263.198 269.461C323.116 263.124 410.2 189.857 473.095 161.853Z" fill="url(#paint0_linear_350_2147)"/>
<path d="M895.969 193.978C848.223 166.156 841.087 212.714 843.487 239.47C863.094 273.613 931.714 365.162 990.033 434.374C1062.93 520.89 881.046 760.559 1065.53 800.957C1250.02 841.354 1232.13 430.401 1223.49 382.379C1216.58 343.961 1150.45 347.39 1093.7 324.11C1034.77 311.205 955.652 228.755 895.969 193.978Z" fill="url(#paint1_linear_350_2147)"/>
<path d="M440.998 381.429C471.174 359.554 568.278 333.275 558.973 400.98C553.905 437.861 538.318 355.122 440.998 381.429Z" fill="#754924"/>
<path d="M877.38 411.247C851.93 379.877 757.631 321.236 748.334 389.373C743.271 426.489 782.862 352.504 877.38 411.247Z" fill="#754924"/>
<path d="M620.858 1010.97C525.66 1027.45 452.855 833.905 428.353 735.075C422.084 700.709 414.572 639.65 434.678 670.351C440.726 677.718 446.494 682.446 446.494 682.446C475.058 703.445 477.665 777.901 520.742 786.69C608.718 804.639 594.895 765.502 643.276 749.709C736.411 833.273 766.648 795.378 795.676 770.956C824.704 746.534 860.803 689.336 855.407 737.948C850.012 786.561 739.856 990.378 620.858 1010.97Z" fill="black" stroke="black"/>
<path d="M623.329 1037.4C510.118 1042.97 507.181 869.086 519.864 781.447C519.864 781.447 557.503 788.406 580.619 783.028C610.484 776.08 633.506 732.062 633.506 732.062C694.913 789.622 706.45 799.078 751.017 797.033C764.508 824.965 764.843 1030.44 623.329 1037.4Z" fill="#F36767"/>
<path opacity="0.8" d="M625.912 943.716C625.97 944.266 626.463 944.664 627.012 944.606C627.561 944.547 627.959 944.055 627.901 943.506L625.912 943.716ZM637.835 731.044C621.255 762.356 616.552 799.076 616.844 836.15C617.136 873.216 622.427 910.771 625.912 943.716L627.901 943.506C624.406 910.465 619.135 873.071 618.844 836.134C618.553 799.206 623.246 762.87 639.602 731.98L637.835 731.044Z" fill="#943A3A"/>
<path d="M707.008 654.895C637.789 822.355 574.737 691.126 544.746 640.029C534.421 622.439 538.301 564.148 630.993 558.845C685.979 555.699 752.969 591.316 707.008 654.895Z" fill="black" stroke="black"/>
<ellipse cx="496.545" cy="458.297" rx="10.4786" ry="10.6167" transform="rotate(-6.0376 496.545 458.297)" fill="#AFA0A0"/>
<ellipse cx="797.439" cy="463.839" rx="10.4784" ry="10.6167" transform="rotate(-6.0376 797.439 463.839)" fill="#AFA0A0"/>
<path d="M612.655 603.959C614.421 595.765 568.368 608.643 585.674 622.827C602.98 637.01 607.352 628.541 612.655 603.959Z" fill="#493C3C"/>
<path d="M649.193 605.433C645.752 597.79 693.48 600.749 679.525 618.239C665.569 635.729 659.521 628.362 649.193 605.433Z" fill="#493C3C"/>
<path d="M636.389 632.044C639.548 661.905 642.723 711.848 635.74 725.527" stroke="#493C3C" stroke-linecap="round"/>
</g>
<defs>
<linearGradient id="paint0_linear_350_2147" x1="295.347" y1="177.023" x2="354.352" y2="734.899" gradientUnits="userSpaceOnUse">
<stop stop-color="#AF7141"/>
<stop offset="1" stop-color="#794E2D"/>
</linearGradient>
<linearGradient id="paint1_linear_350_2147" x1="1071.17" y1="228.65" x2="951.324" y2="775.948" gradientUnits="userSpaceOnUse">
<stop stop-color="#AF7141"/>
<stop offset="1" stop-color="#764D2C"/>
</linearGradient>
</defs>
</svg>
