<svg width="273" height="331" viewBox="0 0 273 331" fill="none" xmlns="http://www.w3.org/2000/svg">
<path d="M192.947 69.2041C193.246 72.9805 192.702 74.6988 189.919 74.4904C186.619 74.2432 184.628 74.3205 184.198 70.2047C183.824 66.6277 184.685 62.9781 187.432 62.7604C190.178 62.5427 192.293 65.1888 192.947 69.2041Z" fill="#BD4F6C"/>
<path d="M203.305 72.3767C200.724 75.1502 197.996 76.8709 195.979 74.9941C193.962 73.1174 194.419 69.3476 196.999 66.5741C199.58 63.8006 202.867 63.4805 205.324 64.9504C207.341 66.8271 205.885 69.6032 203.305 72.3767Z" fill="#BD4F6C"/>
<path d="M211.004 77.9C208.938 81.0755 205.128 81.5646 203.182 80.2986C201.236 79.0325 202.548 76.5802 204.613 73.4047C206.679 70.2292 209.316 69.6595 211.262 70.9255C213.208 72.1915 213.069 74.7245 211.004 77.9Z" fill="#BD4F6C"/>
<ellipse cx="188.506" cy="89.3721" rx="13.4849" ry="10.367" transform="rotate(30.8886 188.506 89.3721)" fill="#BD4F6C"/>
<path d="M209.594 88.6503C206.634 89.4122 203.028 89.1693 203.279 86.9607C203.975 84.0023 204.629 83.3687 207.589 82.6069C210.549 81.845 212.362 82.1773 213.998 84.2019C215.634 86.2266 212.554 87.8885 209.594 88.6503Z" fill="#BD4F6C"/>
<path d="M197.763 77.9589C193.292 73.8294 188.111 76.9142 182.522 78.5724C187.456 83.4338 200.921 89.9875 200.938 89.5426C199.726 82.9138 201.885 81.7665 197.763 77.9589Z" fill="#BD4F6C"/>
<path d="M242.947 42.2041C243.246 45.9805 242.702 47.6988 239.919 47.4904C236.619 47.2432 234.628 47.3205 234.198 43.2047C233.824 39.6277 234.685 35.9781 237.432 35.7604C240.178 35.5427 242.293 38.1888 242.947 42.2041Z" fill="#BD4F6C"/>
<path d="M253.305 45.3767C250.724 48.1502 247.996 49.8709 245.979 47.9941C243.962 46.1174 244.419 42.3476 246.999 39.5741C249.58 36.8006 252.867 36.4805 255.324 37.9504C257.341 39.8271 255.885 42.6032 253.305 45.3767Z" fill="#BD4F6C"/>
<path d="M261.004 50.9C258.938 54.0755 255.128 54.5646 253.182 53.2986C251.236 52.0325 252.548 49.5802 254.613 46.4047C256.679 43.2292 259.316 42.6595 261.262 43.9255C263.208 45.1915 263.069 47.7245 261.004 50.9Z" fill="#BD4F6C"/>
<ellipse cx="238.506" cy="62.3721" rx="13.4849" ry="10.367" transform="rotate(30.8886 238.506 62.3721)" fill="#BD4F6C"/>
<path d="M259.594 61.6503C256.634 62.4122 253.028 62.1693 253.279 59.9607C253.975 57.0023 254.629 56.3687 257.589 55.6069C260.549 54.845 262.362 55.1773 263.998 57.2019C265.634 59.2266 262.554 60.8885 259.594 61.6503Z" fill="#BD4F6C"/>
<path d="M247.763 50.9589C243.292 46.8294 238.111 49.9142 232.522 51.5724C237.456 56.4338 250.921 62.9875 250.938 62.5426C249.726 55.9138 251.885 54.7665 247.763 50.9589Z" fill="#BD4F6C"/>
<path d="M130.947 92.2041C131.246 95.9805 130.702 97.6988 127.919 97.4904C124.619 97.2432 122.628 97.3205 122.198 93.2047C121.824 89.6277 122.685 85.9781 125.432 85.7604C128.178 85.5427 130.293 88.1888 130.947 92.2041Z" fill="#BD4F6C"/>
<path d="M141.305 95.3767C138.724 98.1502 135.996 99.8709 133.979 97.9941C131.962 96.1174 132.419 92.3476 134.999 89.5741C137.58 86.8006 140.867 86.4805 143.324 87.9504C145.341 89.8271 143.885 92.6032 141.305 95.3767Z" fill="#BD4F6C"/>
<path d="M149.004 100.9C146.938 104.076 143.128 104.565 141.182 103.299C139.236 102.033 140.548 99.5802 142.613 96.4047C144.679 93.2292 147.316 92.6595 149.262 93.9255C151.208 95.1915 151.069 97.7245 149.004 100.9Z" fill="#BD4F6C"/>
<ellipse cx="126.506" cy="112.372" rx="13.4849" ry="10.367" transform="rotate(30.8886 126.506 112.372)" fill="#BD4F6C"/>
<path d="M147.594 111.65C144.634 112.412 141.028 112.169 141.279 109.961C141.975 107.002 142.629 106.369 145.589 105.607C148.549 104.845 150.362 105.177 151.998 107.202C153.634 109.227 150.554 110.889 147.594 111.65Z" fill="#BD4F6C"/>
<path d="M135.763 100.959C131.292 96.8294 126.111 99.9142 120.522 101.572C125.456 106.434 138.921 112.988 138.938 112.543C137.726 105.914 139.885 104.767 135.763 100.959Z" fill="#BD4F6C"/>
<path d="M135.947 45.2041C136.246 48.9805 135.702 50.6988 132.919 50.4904C129.619 50.2432 127.628 50.3205 127.198 46.2047C126.824 42.6277 127.685 38.9781 130.432 38.7604C133.178 38.5427 135.293 41.1888 135.947 45.2041Z" fill="#BD4F6C"/>
<path d="M146.305 48.3767C143.724 51.1502 140.996 52.8709 138.979 50.9941C136.962 49.1174 137.419 45.3476 139.999 42.5741C142.58 39.8006 145.867 39.4805 148.324 40.9504C150.341 42.8271 148.885 45.6032 146.305 48.3767Z" fill="#BD4F6C"/>
<path d="M154.004 53.9C151.938 57.0755 148.128 57.5646 146.182 56.2986C144.236 55.0325 145.548 52.5802 147.613 49.4047C149.679 46.2292 152.316 45.6595 154.262 46.9255C156.208 48.1915 156.069 50.7245 154.004 53.9Z" fill="#BD4F6C"/>
<ellipse cx="131.506" cy="65.3721" rx="13.4849" ry="10.367" transform="rotate(30.8886 131.506 65.3721)" fill="#BD4F6C"/>
<path d="M152.594 64.6503C149.634 65.4122 146.028 65.1693 146.279 62.9607C146.975 60.0023 147.629 59.3687 150.589 58.6069C153.549 57.845 155.362 58.1773 156.998 60.2019C158.634 62.2266 155.554 63.8885 152.594 64.6503Z" fill="#BD4F6C"/>
<path d="M140.763 53.9589C136.292 49.8294 131.111 52.9142 125.522 54.5724C130.456 59.4338 143.921 65.9875 143.938 65.5426C142.726 58.9138 144.885 57.7665 140.763 53.9589Z" fill="#BD4F6C"/>
<path d="M82.9469 129.204C83.2463 132.981 82.7018 134.699 79.9191 134.49C76.6193 134.243 74.6279 134.321 74.1981 130.205C73.8245 126.628 74.6853 122.978 77.4318 122.76C80.1783 122.543 82.2933 125.189 82.9469 129.204Z" fill="#BD4F6C"/>
<path d="M93.3046 132.377C90.7241 135.15 87.9964 136.871 85.9793 134.994C83.9622 133.117 84.419 129.348 86.9995 126.574C89.58 123.801 92.867 123.48 95.3242 124.95C97.3413 126.827 95.8851 129.603 93.3046 132.377Z" fill="#BD4F6C"/>
<path d="M101.004 137.9C98.9379 141.076 95.1282 141.565 93.1821 140.299C91.236 139.033 92.5476 136.58 94.6134 133.405C96.6791 130.229 99.3161 129.659 101.262 130.925C103.208 132.191 103.069 134.724 101.004 137.9Z" fill="#BD4F6C"/>
<ellipse cx="78.506" cy="149.372" rx="13.4849" ry="10.367" transform="rotate(30.8886 78.506 149.372)" fill="#BD4F6C"/>
<path d="M99.5944 148.65C96.6344 149.412 93.0277 149.169 93.2789 146.961C93.9748 144.002 94.6289 143.369 97.589 142.607C100.549 141.845 102.362 142.177 103.998 144.202C105.634 146.227 102.554 147.889 99.5944 148.65Z" fill="#BD4F6C"/>
<path d="M87.7626 137.959C83.2919 133.829 78.1113 136.914 72.5222 138.572C77.4563 143.434 90.9214 149.988 90.9378 149.543C89.726 142.914 91.8848 141.767 87.7626 137.959Z" fill="#BD4F6C"/>
<path d="M30.9459 155.204C31.2453 158.981 30.7008 160.699 27.9181 160.49C24.6184 160.243 22.6269 160.321 22.1971 156.205C21.8235 152.628 22.6843 148.978 25.4308 148.76C28.1774 148.543 30.2923 151.189 30.9459 155.204Z" fill="#BD4F6C"/>
<path d="M41.3036 158.377C38.7231 161.15 35.9954 162.871 33.9783 160.994C31.9612 159.117 32.418 155.348 34.9985 152.574C37.579 149.801 40.866 149.48 43.3232 150.95C45.3403 152.827 43.8841 155.603 41.3036 158.377Z" fill="#BD4F6C"/>
<path d="M49.0027 163.9C46.9369 167.076 43.1272 167.565 41.1811 166.299C39.235 165.033 40.5466 162.58 42.6124 159.405C44.6782 156.229 47.3151 155.659 49.2612 156.925C51.2073 158.191 51.0684 160.724 49.0027 163.9Z" fill="#BD4F6C"/>
<ellipse cx="26.5051" cy="175.372" rx="13.4849" ry="10.367" transform="rotate(30.8886 26.5051 175.372)" fill="#BD4F6C"/>
<path d="M47.5934 174.65C44.6334 175.412 41.0267 175.169 41.2779 172.961C41.9739 170.002 42.628 169.369 45.588 168.607C48.548 167.845 50.3614 168.177 51.9971 170.202C53.6328 172.227 50.5534 173.889 47.5934 174.65Z" fill="#BD4F6C"/>
<path d="M35.7616 163.959C31.291 159.829 26.1104 162.914 20.5212 164.572C25.4553 169.434 38.9204 175.988 38.9368 175.543C37.725 168.914 39.8839 167.767 35.7616 163.959Z" fill="#BD4F6C"/>
<path d="M32.9469 107.204C33.2463 110.981 32.7018 112.699 29.9191 112.49C26.6193 112.243 24.6279 112.321 24.1981 108.205C23.8245 104.628 24.6853 100.978 27.4318 100.76C30.1783 100.543 32.2933 103.189 32.9469 107.204Z" fill="#BD4F6C"/>
<path d="M43.3046 110.377C40.7241 113.15 37.9964 114.871 35.9793 112.994C33.9622 111.117 34.419 107.348 36.9995 104.574C39.58 101.801 42.867 101.48 45.3242 102.95C47.3413 104.827 45.8851 107.603 43.3046 110.377Z" fill="#BD4F6C"/>
<path d="M51.0037 115.9C48.9379 119.076 45.1282 119.565 43.1821 118.299C41.236 117.033 42.5476 114.58 44.6134 111.405C46.6791 108.229 49.3161 107.659 51.2622 108.925C53.2083 110.191 53.0694 112.724 51.0037 115.9Z" fill="#BD4F6C"/>
<ellipse cx="28.506" cy="127.372" rx="13.4849" ry="10.367" transform="rotate(30.8886 28.506 127.372)" fill="#BD4F6C"/>
<path d="M49.5944 126.65C46.6344 127.412 43.0277 127.169 43.2789 124.961C43.9748 122.002 44.6289 121.369 47.589 120.607C50.549 119.845 52.3624 120.177 53.9981 122.202C55.6338 124.227 52.5544 125.889 49.5944 126.65Z" fill="#BD4F6C"/>
<path d="M37.7626 115.959C33.2919 111.829 28.1113 114.914 22.5222 116.572C27.4563 121.434 40.9214 127.988 40.9378 127.543C39.726 120.914 41.8848 119.767 37.7626 115.959Z" fill="#BD4F6C"/>
<path d="M68.7141 245.507C71.0683 248.475 71.5744 250.205 69.1482 251.583C66.2712 253.218 64.6612 254.392 62.0095 251.215C59.7049 248.454 58.3845 244.945 60.5431 243.233C62.7016 241.52 65.9328 242.538 68.7141 245.507Z" fill="#BD4F6C"/>
<path d="M79.0813 242.365C78.4856 246.106 77.1807 249.055 74.4598 248.622C71.739 248.189 70.0162 244.805 70.6119 241.064C71.2075 237.322 73.7577 235.224 76.617 235.074C79.3379 235.507 79.677 238.624 79.0813 242.365Z" fill="#BD4F6C"/>
<path d="M88.5515 242.657C88.6072 246.445 85.7174 248.975 83.396 249.009C81.0745 249.043 80.796 246.276 80.7402 242.488C80.6844 238.7 82.5558 236.757 84.8772 236.723C87.1986 236.689 88.4957 238.869 88.5515 242.657Z" fill="#BD4F6C"/>
<ellipse cx="76.2726" cy="264.724" rx="13.4849" ry="10.367" transform="rotate(-3 76.2726 264.724)" fill="#BD4F6C"/>
<path d="M93.3763 252.367C91.3439 254.65 88.2145 256.459 87.1916 254.486C86.1198 251.642 86.3094 250.751 88.3419 248.468C90.3743 246.185 92.0649 245.45 94.5516 246.219C97.0383 246.987 95.4087 250.084 93.3763 252.367Z" fill="#BD4F6C"/>
<path d="M77.594 250.089C71.5803 249.153 68.9998 254.603 65.2846 259.096C72.0912 260.38 86.9231 258.313 86.6887 257.934C81.9866 253.107 83.139 250.951 77.594 250.089Z" fill="#BD4F6C"/>
<path d="M68.7141 300.507C71.0683 303.475 71.5744 305.205 69.1482 306.583C66.2712 308.218 64.6612 309.392 62.0095 306.215C59.7049 303.454 58.3845 299.945 60.5431 298.233C62.7016 296.52 65.9328 297.538 68.7141 300.507Z" fill="#BD4F6C"/>
<path d="M79.0813 297.365C78.4856 301.106 77.1807 304.055 74.4598 303.622C71.739 303.189 70.0162 299.805 70.6119 296.064C71.2075 292.322 73.7577 290.224 76.617 290.074C79.3379 290.507 79.677 293.624 79.0813 297.365Z" fill="#BD4F6C"/>
<path d="M88.5515 297.657C88.6072 301.445 85.7174 303.975 83.396 304.009C81.0745 304.043 80.796 301.276 80.7402 297.488C80.6844 293.7 82.5558 291.757 84.8772 291.723C87.1986 291.689 88.4957 293.869 88.5515 297.657Z" fill="#BD4F6C"/>
<ellipse cx="76.2726" cy="319.724" rx="13.4849" ry="10.367" transform="rotate(-3 76.2726 319.724)" fill="#BD4F6C"/>
<path d="M93.3763 307.367C91.3439 309.65 88.2145 311.459 87.1916 309.486C86.1198 306.642 86.3094 305.751 88.3419 303.468C90.3743 301.185 92.0649 300.45 94.5516 301.219C97.0383 301.987 95.4087 305.084 93.3763 307.367Z" fill="#BD4F6C"/>
<path d="M77.594 305.089C71.5803 304.153 68.9998 309.603 65.2846 314.096C72.0912 315.38 86.9231 313.313 86.6887 312.934C81.9866 308.107 83.139 305.951 77.594 305.089Z" fill="#BD4F6C"/>
<path d="M19.7141 275.507C22.0683 278.475 22.5744 280.205 20.1482 281.583C17.2712 283.218 15.6612 284.392 13.0095 281.215C10.7049 278.454 9.38451 274.945 11.5431 273.233C13.7016 271.52 16.9328 272.538 19.7141 275.507Z" fill="#BD4F6C"/>
<path d="M30.0813 272.365C29.4856 276.106 28.1807 279.055 25.4598 278.622C22.739 278.189 21.0162 274.805 21.6119 271.064C22.2075 267.322 24.7577 265.224 27.617 265.074C30.3379 265.507 30.677 268.624 30.0813 272.365Z" fill="#BD4F6C"/>
<path d="M39.5515 272.657C39.6072 276.445 36.7174 278.975 34.396 279.009C32.0745 279.043 31.796 276.276 31.7402 272.488C31.6844 268.7 33.5558 266.757 35.8772 266.723C38.1986 266.689 39.4957 268.869 39.5515 272.657Z" fill="#BD4F6C"/>
<ellipse cx="27.2726" cy="294.724" rx="13.4849" ry="10.367" transform="rotate(-3 27.2726 294.724)" fill="#BD4F6C"/>
<path d="M44.3763 282.367C42.3439 284.65 39.2145 286.459 38.1916 284.486C37.1198 281.642 37.3094 280.751 39.3419 278.468C41.3743 276.185 43.0649 275.45 45.5516 276.219C48.0383 276.987 46.4087 280.084 44.3763 282.367Z" fill="#BD4F6C"/>
<path d="M28.594 280.089C22.5803 279.153 19.9998 284.603 16.2846 289.096C23.0912 290.38 37.9231 288.313 37.6887 287.934C32.9866 283.107 34.139 280.951 28.594 280.089Z" fill="#BD4F6C"/>
<path d="M12.3997 218.696C14.7539 221.664 15.2599 223.394 12.8337 224.773C9.95675 226.408 8.34672 227.582 5.695 224.405C3.39041 221.644 2.07005 218.135 4.22861 216.423C6.38716 214.71 9.6183 215.728 12.3997 218.696Z" fill="#BD4F6C"/>
<path d="M22.7668 215.555C22.1712 219.296 20.8663 222.245 18.1454 221.812C15.4245 221.379 13.7017 217.995 14.2974 214.254C14.8931 210.512 17.4432 208.414 20.3025 208.264C23.0234 208.697 23.3625 211.814 22.7668 215.555Z" fill="#BD4F6C"/>
<path d="M32.237 215.847C32.2928 219.635 29.4029 222.165 27.0815 222.199C24.7601 222.233 24.4815 219.466 24.4258 215.678C24.37 211.89 26.2413 209.947 28.5627 209.913C30.8842 209.879 32.1812 212.059 32.237 215.847Z" fill="#BD4F6C"/>
<ellipse cx="19.9582" cy="237.914" rx="13.4849" ry="10.367" transform="rotate(-3 19.9582 237.914)" fill="#BD4F6C"/>
<path d="M37.0619 225.557C35.0295 227.84 31.9001 229.649 30.8771 227.676C29.8053 224.832 29.995 223.941 32.0274 221.658C34.0598 219.375 35.7504 218.64 38.2371 219.409C40.7239 220.177 39.0943 223.274 37.0619 225.557Z" fill="#BD4F6C"/>
<path d="M21.2795 223.278C15.2658 222.343 12.6853 227.793 8.97018 232.286C15.7768 233.57 30.6087 231.502 30.3742 231.124C25.6722 226.297 26.8246 224.141 21.2795 223.278Z" fill="#BD4F6C"/>
<path d="M195.947 15.2041C196.246 18.9805 195.702 20.6988 192.919 20.4904C189.619 20.2432 187.628 20.3205 187.198 16.2047C186.824 12.6277 187.685 8.97811 190.432 8.76038C193.178 8.54265 195.293 11.1888 195.947 15.2041Z" fill="#BD4F6C"/>
<path d="M206.305 18.3767C203.724 21.1502 200.996 22.8709 198.979 20.9941C196.962 19.1174 197.419 15.3476 199.999 12.5741C202.58 9.80062 205.867 9.48046 208.324 10.9504C210.341 12.8271 208.885 15.6032 206.305 18.3767Z" fill="#BD4F6C"/>
<path d="M214.004 23.9C211.938 27.0755 208.128 27.5646 206.182 26.2986C204.236 25.0325 205.548 22.5802 207.613 19.4047C209.679 16.2292 212.316 15.6595 214.262 16.9255C216.208 18.1915 216.069 20.7245 214.004 23.9Z" fill="#BD4F6C"/>
<ellipse cx="191.506" cy="35.3721" rx="13.4849" ry="10.367" transform="rotate(30.8886 191.506 35.3721)" fill="#BD4F6C"/>
<path d="M212.594 34.6503C209.634 35.4122 206.028 35.1693 206.279 32.9607C206.975 30.0023 207.629 29.3687 210.589 28.6069C213.549 27.845 215.362 28.1773 216.998 30.2019C218.634 32.2266 215.554 33.8885 212.594 34.6503Z" fill="#BD4F6C"/>
<path d="M200.763 23.9589C196.292 19.8294 191.111 22.9142 185.522 24.5724C190.456 29.4338 203.921 35.9875 203.938 35.5426C202.726 28.9138 204.885 27.7665 200.763 23.9589Z" fill="#BD4F6C"/>
<path d="M80.9469 76.2041C81.2463 79.9805 80.7018 81.6988 77.9191 81.4904C74.6193 81.2432 72.6279 81.3205 72.1981 77.2047C71.8245 73.6277 72.6853 69.9781 75.4318 69.7604C78.1783 69.5427 80.2933 72.1888 80.9469 76.2041Z" fill="#BD4F6C"/>
<path d="M91.3046 79.3767C88.7241 82.1502 85.9964 83.8709 83.9793 81.9941C81.9622 80.1174 82.419 76.3476 84.9995 73.5741C87.58 70.8006 90.867 70.4805 93.3242 71.9504C95.3413 73.8271 93.8851 76.6032 91.3046 79.3767Z" fill="#BD4F6C"/>
<path d="M99.0037 84.9C96.9379 88.0755 93.1282 88.5646 91.1821 87.2986C89.236 86.0325 90.5476 83.5802 92.6134 80.4047C94.6791 77.2292 97.3161 76.6595 99.2622 77.9255C101.208 79.1915 101.069 81.7245 99.0037 84.9Z" fill="#BD4F6C"/>
<ellipse cx="76.506" cy="96.3721" rx="13.4849" ry="10.367" transform="rotate(30.8886 76.506 96.3721)" fill="#BD4F6C"/>
<path d="M97.5944 95.6503C94.6344 96.4122 91.0277 96.1693 91.2789 93.9607C91.9748 91.0023 92.6289 90.3687 95.589 89.6069C98.549 88.845 100.362 89.1773 101.998 91.2019C103.634 93.2266 100.554 94.8885 97.5944 95.6503Z" fill="#BD4F6C"/>
<path d="M85.7626 84.9589C81.2919 80.8294 76.1113 83.9142 70.5222 85.5724C75.4563 90.4338 88.9214 96.9875 88.9378 96.5426C87.726 89.9138 89.8848 88.7665 85.7626 84.9589Z" fill="#BD4F6C"/>
<path d="M56.7141 199.507C59.0683 202.475 59.5744 204.205 57.1482 205.583C54.2712 207.218 52.6612 208.392 50.0095 205.215C47.7049 202.454 46.3845 198.945 48.5431 197.233C50.7016 195.52 53.9328 196.538 56.7141 199.507Z" fill="#BD4F6C"/>
<path d="M67.0813 196.365C66.4856 200.106 65.1807 203.055 62.4598 202.622C59.739 202.189 58.0162 198.805 58.6119 195.064C59.2075 191.322 61.7577 189.224 64.617 189.074C67.3379 189.507 67.677 192.624 67.0813 196.365Z" fill="#BD4F6C"/>
<path d="M76.5515 196.657C76.6072 200.445 73.7174 202.975 71.396 203.009C69.0745 203.043 68.796 200.276 68.7402 196.488C68.6844 192.7 70.5558 190.757 72.8772 190.723C75.1986 190.689 76.4957 192.869 76.5515 196.657Z" fill="#BD4F6C"/>
<ellipse cx="64.2726" cy="218.724" rx="13.4849" ry="10.367" transform="rotate(-3 64.2726 218.724)" fill="#BD4F6C"/>
<path d="M81.3763 206.367C79.3439 208.65 76.2145 210.459 75.1916 208.486C74.1198 205.642 74.3094 204.751 76.3419 202.468C78.3743 200.185 80.0649 199.45 82.5516 200.219C85.0383 200.987 83.4087 204.084 81.3763 206.367Z" fill="#BD4F6C"/>
<path d="M65.594 204.089C59.5803 203.153 56.9998 208.603 53.2846 213.096C60.0912 214.38 74.9231 212.313 74.6887 211.934C69.9866 207.107 71.139 204.951 65.594 204.089Z" fill="#BD4F6C"/>
</svg>
