<svg width="339" height="501" viewBox="0 0 339 501" fill="none" xmlns="http://www.w3.org/2000/svg">
    <path d="M157.947 405.204C158.246 408.981 157.702 410.699 154.919 410.49C151.619 410.243 149.628 410.321 149.198 406.205C148.824 402.628 149.685 398.978 152.432 398.76C155.178 398.543 157.293 401.189 157.947 405.204Z"
          fill="#BD4F6C"/>
    <path d="M168.305 408.377C165.724 411.15 162.996 412.871 160.979 410.994C158.962 409.117 159.419 405.348 161.999 402.574C164.58 399.801 167.867 399.48 170.324 400.95C172.341 402.827 170.885 405.603 168.305 408.377Z"
          fill="#BD4F6C"/>
    <path d="M176.004 413.9C173.938 417.075 170.128 417.564 168.182 416.298C166.236 415.032 167.548 412.58 169.613 409.404C171.679 406.229 174.316 405.659 176.262 406.925C178.208 408.191 178.069 410.724 176.004 413.9Z"
          fill="#BD4F6C"/>
    <ellipse cx="153.506" cy="425.372" rx="13.4849" ry="10.367" transform="rotate(30.8886 153.506 425.372)"
             fill="#BD4F6C"/>
    <path d="M174.594 424.65C171.634 425.412 168.028 425.169 168.279 422.961C168.975 420.002 169.629 419.369 172.589 418.607C175.549 417.845 177.362 418.177 178.998 420.202C180.634 422.227 177.554 423.889 174.594 424.65Z"
          fill="#BD4F6C"/>
    <path d="M162.763 413.959C158.292 409.829 153.111 412.914 147.522 414.572C152.456 419.434 165.921 425.988 165.938 425.543C164.726 418.914 166.885 417.767 162.763 413.959Z"
          fill="#BD4F6C"/>
    <path d="M88.9469 460.204C89.2463 463.981 88.7018 465.699 85.9191 465.49C82.6193 465.243 80.6279 465.321 80.1981 461.205C79.8245 457.628 80.6853 453.978 83.4318 453.76C86.1783 453.543 88.2933 456.189 88.9469 460.204Z"
          fill="#BD4F6C"/>
    <path d="M99.3046 463.377C96.7241 466.15 93.9964 467.871 91.9793 465.994C89.9622 464.117 90.419 460.348 92.9995 457.574C95.58 454.801 98.867 454.48 101.324 455.95C103.341 457.827 101.885 460.603 99.3046 463.377Z"
          fill="#BD4F6C"/>
    <path d="M107.004 468.9C104.938 472.075 101.128 472.564 99.1821 471.298C97.236 470.032 98.5476 467.58 100.613 464.404C102.679 461.229 105.316 460.659 107.262 461.925C109.208 463.191 109.069 465.724 107.004 468.9Z"
          fill="#BD4F6C"/>
    <ellipse cx="84.506" cy="480.372" rx="13.4849" ry="10.367" transform="rotate(30.8886 84.506 480.372)"
             fill="#BD4F6C"/>
    <path d="M105.594 479.65C102.634 480.412 99.0277 480.169 99.2789 477.961C99.9748 475.002 100.629 474.369 103.589 473.607C106.549 472.845 108.362 473.177 109.998 475.202C111.634 477.227 108.554 478.889 105.594 479.65Z"
          fill="#BD4F6C"/>
    <path d="M93.7626 468.959C89.2919 464.829 84.1113 467.914 78.5222 469.572C83.4563 474.434 96.9214 480.988 96.9378 480.543C95.726 473.914 97.8848 472.767 93.7626 468.959Z"
          fill="#BD4F6C"/>
    <path d="M225.088 352.646C225.387 356.422 224.842 358.141 222.06 357.932C218.76 357.685 216.769 357.762 216.339 353.647C215.965 350.07 216.826 346.42 219.572 346.202C222.319 345.985 224.434 348.631 225.088 352.646Z"
          fill="#BD4F6C"/>
    <path d="M235.445 355.819C232.865 358.592 230.137 360.313 228.12 358.436C226.103 356.559 226.56 352.79 229.14 350.016C231.721 347.243 235.008 346.922 237.465 348.392C239.482 350.269 238.026 353.045 235.445 355.819Z"
          fill="#BD4F6C"/>
    <path d="M243.144 361.341C241.079 364.517 237.269 365.006 235.323 363.74C233.377 362.474 234.688 360.022 236.754 356.846C238.82 353.671 241.457 353.101 243.403 354.367C245.349 355.633 245.21 358.166 243.144 361.341Z"
          fill="#BD4F6C"/>
    <ellipse cx="220.647" cy="372.814" rx="13.4849" ry="10.367" transform="rotate(30.8886 220.647 372.814)"
             fill="#BD4F6C"/>
    <path d="M241.735 372.092C238.775 372.854 235.168 372.611 235.42 370.403C236.115 367.444 236.77 366.811 239.73 366.049C242.69 365.287 244.503 365.619 246.139 367.644C247.774 369.668 244.695 371.33 241.735 372.092Z"
          fill="#BD4F6C"/>
    <path d="M229.903 361.401C225.433 357.271 220.252 360.356 214.663 362.014C219.597 366.876 233.062 373.429 233.078 372.985C231.867 366.356 234.025 365.208 229.903 361.401Z"
          fill="#BD4F6C"/>
    <path d="M275.942 301.204C276.241 304.981 275.697 306.699 272.914 306.49C269.614 306.243 267.623 306.321 267.193 302.205C266.82 298.628 267.68 294.978 270.427 294.76C273.173 294.543 275.288 297.189 275.942 301.204Z"
          fill="#BD4F6C"/>
    <path d="M286.3 304.377C283.719 307.15 280.992 308.871 278.974 306.994C276.957 305.117 277.414 301.348 279.995 298.574C282.575 295.801 285.862 295.48 288.319 296.95C290.336 298.827 288.88 301.603 286.3 304.377Z"
          fill="#BD4F6C"/>
    <path d="M293.999 309.9C291.933 313.076 288.123 313.565 286.177 312.299C284.231 311.033 285.543 308.58 287.608 305.405C289.674 302.229 292.311 301.659 294.257 302.925C296.203 304.191 296.065 306.724 293.999 309.9Z"
          fill="#BD4F6C"/>
    <ellipse cx="271.501" cy="321.372" rx="13.4849" ry="10.367" transform="rotate(30.8886 271.501 321.372)"
             fill="#BD4F6C"/>
    <path d="M292.589 320.65C289.629 321.412 286.023 321.169 286.274 318.961C286.97 316.002 287.624 315.369 290.584 314.607C293.544 313.845 295.358 314.177 296.993 316.202C298.629 318.227 295.55 319.889 292.589 320.65Z"
          fill="#BD4F6C"/>
    <path d="M280.758 309.959C276.287 305.829 271.106 308.914 265.517 310.572C270.451 315.434 283.917 321.988 283.933 321.543C282.721 314.914 284.88 313.767 280.758 309.959Z"
          fill="#BD4F6C"/>
    <path d="M159.947 351.204C160.246 354.981 159.702 356.699 156.919 356.49C153.619 356.243 151.628 356.321 151.198 352.205C150.824 348.628 151.685 344.978 154.432 344.76C157.178 344.543 159.293 347.189 159.947 351.204Z"
          fill="#BD4F6C"/>
    <path d="M170.305 354.377C167.724 357.15 164.996 358.871 162.979 356.994C160.962 355.117 161.419 351.348 163.999 348.574C166.58 345.801 169.867 345.48 172.324 346.95C174.341 348.827 172.885 351.603 170.305 354.377Z"
          fill="#BD4F6C"/>
    <path d="M178.004 359.9C175.938 363.076 172.128 363.565 170.182 362.299C168.236 361.033 169.548 358.58 171.613 355.405C173.679 352.229 176.316 351.659 178.262 352.925C180.208 354.191 180.069 356.724 178.004 359.9Z"
          fill="#BD4F6C"/>
    <ellipse cx="155.506" cy="371.372" rx="13.4849" ry="10.367" transform="rotate(30.8886 155.506 371.372)"
             fill="#BD4F6C"/>
    <path d="M176.594 370.65C173.634 371.412 170.028 371.169 170.279 368.961C170.975 366.002 171.629 365.369 174.589 364.607C177.549 363.845 179.362 364.177 180.998 366.202C182.634 368.227 179.554 369.889 176.594 370.65Z"
          fill="#BD4F6C"/>
    <path d="M164.763 359.959C160.292 355.829 155.111 358.914 149.522 360.572C154.456 365.434 167.921 371.988 167.938 371.543C166.726 364.914 168.885 363.767 164.763 359.959Z"
          fill="#BD4F6C"/>
    <path d="M94.9469 398.204C95.2463 401.981 94.7018 403.699 91.9191 403.49C88.6193 403.243 86.6279 403.321 86.1981 399.205C85.8245 395.628 86.6853 391.978 89.4318 391.76C92.1783 391.543 94.2933 394.189 94.9469 398.204Z"
          fill="#BD4F6C"/>
    <path d="M105.305 401.377C102.724 404.15 99.9964 405.871 97.9793 403.994C95.9622 402.117 96.419 398.348 98.9995 395.574C101.58 392.801 104.867 392.48 107.324 393.95C109.341 395.827 107.885 398.603 105.305 401.377Z"
          fill="#BD4F6C"/>
    <path d="M113.004 406.9C110.938 410.076 107.128 410.565 105.182 409.299C103.236 408.033 104.548 405.58 106.613 402.405C108.679 399.229 111.316 398.659 113.262 399.925C115.208 401.191 115.069 403.724 113.004 406.9Z"
          fill="#BD4F6C"/>
    <ellipse cx="90.506" cy="418.372" rx="13.4849" ry="10.367" transform="rotate(30.8886 90.506 418.372)"
             fill="#BD4F6C"/>
    <path d="M111.594 417.65C108.634 418.412 105.028 418.169 105.279 415.961C105.975 413.002 106.629 412.369 109.589 411.607C112.549 410.845 114.362 411.177 115.998 413.202C117.634 415.227 114.554 416.889 111.594 417.65Z"
          fill="#BD4F6C"/>
    <path d="M99.7626 406.959C95.2919 402.829 90.1113 405.914 84.5222 407.572C89.4563 412.434 102.921 418.988 102.938 418.543C101.726 411.914 103.885 410.767 99.7626 406.959Z"
          fill="#BD4F6C"/>
    <path d="M218.942 307.204C219.241 310.981 218.697 312.699 215.914 312.49C212.614 312.243 210.623 312.321 210.193 308.205C209.82 304.628 210.68 300.978 213.427 300.76C216.173 300.543 218.288 303.189 218.942 307.204Z"
          fill="#BD4F6C"/>
    <path d="M229.3 310.377C226.719 313.15 223.992 314.871 221.974 312.994C219.957 311.117 220.414 307.348 222.995 304.574C225.575 301.801 228.862 301.48 231.319 302.95C233.336 304.827 231.88 307.603 229.3 310.377Z"
          fill="#BD4F6C"/>
    <path d="M236.999 315.9C234.933 319.075 231.123 319.564 229.177 318.298C227.231 317.032 228.543 314.58 230.608 311.404C232.674 308.229 235.311 307.659 237.257 308.925C239.203 310.191 239.065 312.724 236.999 315.9Z"
          fill="#BD4F6C"/>
    <ellipse cx="214.501" cy="327.372" rx="13.4849" ry="10.367" transform="rotate(30.8886 214.501 327.372)"
             fill="#BD4F6C"/>
    <path d="M235.589 326.65C232.629 327.412 229.023 327.169 229.274 324.961C229.97 322.002 230.624 321.369 233.584 320.607C236.544 319.845 238.358 320.177 239.993 322.202C241.629 324.227 238.55 325.889 235.589 326.65Z"
          fill="#BD4F6C"/>
    <path d="M223.758 315.959C219.287 311.829 214.106 314.914 208.517 316.572C213.451 321.434 226.917 327.988 226.933 327.543C225.721 320.914 227.88 319.767 223.758 315.959Z"
          fill="#BD4F6C"/>
    <path d="M254.942 263.204C255.241 266.981 254.697 268.699 251.914 268.49C248.614 268.243 246.623 268.321 246.193 264.205C245.82 260.628 246.68 256.978 249.427 256.76C252.173 256.543 254.288 259.189 254.942 263.204Z"
          fill="#BD4F6C"/>
    <path d="M265.3 266.377C262.719 269.15 259.992 270.871 257.974 268.994C255.957 267.117 256.414 263.348 258.995 260.574C261.575 257.801 264.862 257.48 267.319 258.95C269.336 260.827 267.88 263.603 265.3 266.377Z"
          fill="#BD4F6C"/>
    <path d="M272.999 271.9C270.933 275.076 267.123 275.565 265.177 274.299C263.231 273.033 264.543 270.58 266.608 267.405C268.674 264.229 271.311 263.659 273.257 264.925C275.203 266.191 275.065 268.724 272.999 271.9Z"
          fill="#BD4F6C"/>
    <ellipse cx="250.501" cy="283.372" rx="13.4849" ry="10.367" transform="rotate(30.8886 250.501 283.372)"
             fill="#BD4F6C"/>
    <path d="M271.589 282.65C268.629 283.412 265.023 283.169 265.274 280.961C265.97 278.002 266.624 277.369 269.584 276.607C272.544 275.845 274.358 276.177 275.993 278.202C277.629 280.227 274.55 281.889 271.589 282.65Z"
          fill="#BD4F6C"/>
    <path d="M259.758 271.959C255.287 267.829 250.106 270.914 244.517 272.572C249.451 277.434 262.917 283.988 262.933 283.543C261.721 276.914 263.88 275.767 259.758 271.959Z"
          fill="#BD4F6C"/>
    <path d="M295.45 239.826C297.73 242.851 298.193 244.592 295.734 245.911C292.818 247.475 291.18 248.609 288.607 245.368C286.371 242.551 285.137 239.01 287.337 237.352C289.537 235.693 292.742 236.789 295.45 239.826Z"
          fill="#BD4F6C"/>
    <path d="M305.891 236.939C305.204 240.665 303.827 243.581 301.118 243.081C298.408 242.581 296.769 239.156 297.457 235.431C298.144 231.705 300.745 229.67 303.607 229.59C306.316 230.09 306.579 233.214 305.891 236.939Z"
          fill="#BD4F6C"/>
    <path d="M315.351 237.464C315.314 241.252 312.363 243.711 310.041 243.688C307.72 243.665 307.509 240.892 307.546 237.104C307.584 233.316 309.502 231.419 311.824 231.442C314.145 231.465 315.388 233.676 315.351 237.464Z"
          fill="#BD4F6C"/>
    <ellipse cx="302.533" cy="259.224" rx="13.4849" ry="10.367" transform="rotate(-1.59271 302.533 259.224)"
             fill="#BD4F6C"/>
    <path d="M319.936 247.29C317.848 249.522 314.675 251.254 313.701 249.256C312.699 246.387 312.911 245.501 314.998 243.269C317.086 241.036 318.794 240.343 321.261 241.172C323.729 242.002 322.023 245.057 319.936 247.29Z"
          fill="#BD4F6C"/>
    <path d="M304.213 244.625C298.224 243.542 295.511 248.926 291.686 253.327C298.459 254.778 313.338 253.075 313.113 252.691C308.53 247.75 309.735 245.623 304.213 244.625Z"
          fill="#BD4F6C"/>
    <path d="M301.415 193.173C304.614 195.202 305.66 196.67 303.821 198.769C301.641 201.258 300.506 202.897 296.958 200.767C293.874 198.917 291.474 196.036 292.95 193.709C294.426 191.383 297.813 191.282 301.415 193.173Z"
          fill="#BD4F6C"/>
    <path d="M310.176 186.799C310.842 190.528 310.579 193.742 307.867 194.227C305.154 194.712 302.415 192.082 301.749 188.352C301.082 184.623 302.801 181.803 305.453 180.722C308.165 180.238 309.509 183.07 310.176 186.799Z"
          fill="#BD4F6C"/>
    <path d="M319.215 183.964C320.512 187.523 318.614 190.862 316.433 191.657C314.252 192.452 313.079 189.93 311.782 186.371C310.485 182.812 311.614 180.362 313.795 179.567C315.977 178.772 317.918 180.405 319.215 183.964Z"
          fill="#BD4F6C"/>
    <ellipse cx="314.869" cy="208.84" rx="13.4849" ry="10.367" transform="rotate(-22.1808 314.869 208.84)"
             fill="#BD4F6C"/>
    <path d="M326.963 191.549C325.794 194.373 323.432 197.11 321.818 195.582C319.871 193.249 319.758 192.345 320.927 189.521C322.097 186.697 323.452 185.447 326.053 185.356C328.654 185.265 328.133 188.725 326.963 191.549Z"
          fill="#BD4F6C"/>
    <path d="M311.307 194.583C305.32 195.676 304.673 201.67 302.641 207.134C309.491 206.111 322.821 199.285 322.475 199.005C316.448 195.991 316.828 193.576 311.307 194.583Z"
          fill="#BD4F6C"/>
    <path d="M248.498 205.262C252.286 205.319 253.946 206.023 253.477 208.774C252.921 212.035 252.811 214.025 248.673 214.066C245.076 214.102 241.524 212.902 241.565 210.147C241.606 207.393 244.44 205.536 248.498 205.262Z"
          fill="#BD4F6C"/>
    <path d="M252.63 195.248C255.149 198.077 256.606 200.955 254.548 202.786C252.49 204.618 248.78 203.809 246.261 200.98C243.742 198.15 243.732 194.847 245.426 192.539C247.484 190.707 250.111 192.418 252.63 195.248Z"
          fill="#BD4F6C"/>
    <path d="M258.852 188.103C261.82 190.458 261.948 194.297 260.505 196.115C259.062 197.934 256.744 196.397 253.776 194.042C250.809 191.687 250.49 189.009 251.933 187.19C253.376 185.371 255.885 185.748 258.852 188.103Z"
          fill="#BD4F6C"/>
    <ellipse cx="268.16" cy="211.579" rx="13.4849" ry="10.367" transform="rotate(-53.7192 268.16 211.579)"
             fill="#BD4F6C"/>
    <path d="M269.423 190.516C269.903 193.534 269.322 197.102 267.147 196.645C264.267 195.674 263.698 194.963 263.217 191.945C262.737 188.926 263.238 187.152 265.408 185.714C267.577 184.276 268.942 187.497 269.423 190.516Z"
          fill="#BD4F6C"/>
    <path d="M257.667 201.29C253.136 205.353 255.72 210.8 256.846 216.52C262.15 212.065 269.94 199.275 269.498 199.217C262.785 199.801 261.845 197.544 257.667 201.29Z"
          fill="#BD4F6C"/>
    <path d="M230.171 137.983C233.95 138.248 235.568 139.042 234.948 141.763C234.213 144.989 233.993 146.97 229.859 146.783C226.266 146.62 222.785 145.227 222.978 142.478C223.172 139.73 226.103 138.032 230.171 137.983Z"
          fill="#BD4F6C"/>
    <path d="M234.848 128.211C237.207 131.175 238.503 134.128 236.347 135.844C234.192 137.559 230.532 136.547 228.173 133.583C225.814 130.619 225.986 127.321 227.805 125.109C229.961 123.394 232.489 125.247 234.848 128.211Z"
          fill="#BD4F6C"/>
    <path d="M241.455 121.42C244.288 123.935 244.205 127.775 242.664 129.511C241.123 131.247 238.893 129.586 236.059 127.071C233.226 124.556 233.055 121.863 234.596 120.127C236.138 118.391 238.622 118.905 241.455 121.42Z"
          fill="#BD4F6C"/>
    <ellipse cx="249.454" cy="145.373" rx="13.4849" ry="10.367" transform="rotate(-50.5601 249.454 145.373)"
             fill="#BD4F6C"/>
    <path d="M251.876 124.411C252.189 127.452 251.413 130.982 249.266 130.405C246.444 129.277 245.915 128.536 245.602 125.496C245.288 122.456 245.887 120.712 248.132 119.395C250.377 118.079 251.563 121.371 251.876 124.411Z"
          fill="#BD4F6C"/>
    <path d="M239.545 134.521C234.796 138.328 237.077 143.91 237.885 149.683C243.426 145.527 251.909 133.186 251.472 133.104C244.736 133.316 243.923 131.011 239.545 134.521Z"
          fill="#BD4F6C"/>
    <path d="M182.124 154.801C185.903 155.066 187.521 155.86 186.901 158.581C186.166 161.807 185.946 163.788 181.812 163.601C178.219 163.439 174.738 162.045 174.932 159.297C175.125 156.548 178.056 154.85 182.124 154.801Z"
          fill="#BD4F6C"/>
    <path d="M186.801 145.029C189.16 147.993 190.456 150.947 188.301 152.662C186.145 154.378 182.485 153.366 180.126 150.401C177.767 147.437 177.939 144.139 179.758 141.928C181.914 140.212 184.442 142.065 186.801 145.029Z"
          fill="#BD4F6C"/>
    <path d="M193.408 138.238C196.241 140.753 196.158 144.593 194.617 146.329C193.076 148.065 190.846 146.404 188.013 143.889C185.18 141.374 185.008 138.681 186.55 136.945C188.091 135.209 190.575 135.723 193.408 138.238Z"
          fill="#BD4F6C"/>
    <ellipse cx="201.407" cy="162.191" rx="13.4849" ry="10.367" transform="rotate(-50.5601 201.407 162.191)"
             fill="#BD4F6C"/>
    <path d="M203.829 141.23C204.142 144.27 203.366 147.801 201.219 147.224C198.397 146.096 197.868 145.355 197.555 142.314C197.242 139.274 197.84 137.53 200.085 136.214C202.33 134.897 203.516 138.189 203.829 141.23Z"
          fill="#BD4F6C"/>
    <path d="M191.498 151.34C186.75 155.146 189.03 160.728 189.838 166.502C195.379 162.345 203.862 150.004 203.425 149.922C196.69 150.135 195.876 147.829 191.498 151.34Z"
          fill="#BD4F6C"/>
    <path d="M164.104 99.5412C167.883 99.8067 169.501 100.601 168.881 103.321C168.146 106.548 167.927 108.528 163.793 108.342C160.2 108.179 156.719 106.785 156.912 104.037C157.105 101.288 160.036 99.5905 164.104 99.5412Z"
          fill="#BD4F6C"/>
    <path d="M168.782 89.7694C171.141 92.7336 172.437 95.6868 170.281 97.4024C168.125 99.118 164.465 98.1058 162.106 95.1416C159.747 92.1774 159.919 88.8793 161.738 86.668C163.894 84.9524 166.423 86.8052 168.782 89.7694Z"
          fill="#BD4F6C"/>
    <path d="M175.388 82.9781C178.221 85.4931 178.138 89.3331 176.596 91.0694C175.055 92.8056 172.825 91.1439 169.992 88.6289C167.159 86.1139 166.988 83.4216 168.529 81.6854C170.07 79.9491 172.555 80.4631 175.388 82.9781Z"
          fill="#BD4F6C"/>
    <ellipse cx="183.387" cy="106.931" rx="13.4849" ry="10.367" transform="rotate(-50.5601 183.387 106.931)"
             fill="#BD4F6C"/>
    <path d="M185.81 85.97C186.123 89.0104 185.346 92.5409 183.2 91.9641C180.378 90.836 179.848 90.0949 179.535 87.0545C179.222 84.0141 179.82 82.2703 182.066 80.9538C184.311 79.6374 185.496 82.9296 185.81 85.97Z"
          fill="#BD4F6C"/>
    <path d="M173.478 96.0798C168.73 99.8867 171.01 105.468 171.819 111.242C177.36 107.086 185.843 94.7447 185.405 94.6623C178.67 94.8749 177.857 92.5695 173.478 96.0798Z"
          fill="#BD4F6C"/>
    <path d="M117.253 124.768C121.032 125.034 122.65 125.828 122.03 128.548C121.295 131.775 121.075 133.756 116.941 133.569C113.348 133.406 109.867 132.012 110.06 129.264C110.254 126.516 113.185 124.818 117.253 124.768Z"
          fill="#BD4F6C"/>
    <path d="M121.93 114.996C124.289 117.961 125.585 120.914 123.429 122.629C121.274 124.345 117.614 123.333 115.255 120.369C112.896 117.404 113.068 114.106 114.887 111.895C117.043 110.179 119.571 112.032 121.93 114.996Z"
          fill="#BD4F6C"/>
    <path d="M128.536 108.205C131.369 110.72 131.286 114.56 129.745 116.296C128.204 118.033 125.974 116.371 123.141 113.856C120.307 111.341 120.136 108.649 121.678 106.912C123.219 105.176 125.703 105.69 128.536 108.205Z"
          fill="#BD4F6C"/>
    <ellipse cx="136.536" cy="132.158" rx="13.4849" ry="10.367" transform="rotate(-50.5601 136.536 132.158)"
             fill="#BD4F6C"/>
    <path d="M138.958 111.197C139.271 114.237 138.495 117.768 136.348 117.191C133.526 116.063 132.997 115.322 132.684 112.282C132.37 109.241 132.969 107.497 135.214 106.181C137.459 104.864 138.645 108.157 138.958 111.197Z"
          fill="#BD4F6C"/>
    <path d="M126.627 121.307C121.878 125.114 124.159 130.695 124.967 136.469C130.508 132.313 138.991 119.972 138.554 119.889C131.819 120.102 131.005 117.797 126.627 121.307Z"
          fill="#BD4F6C"/>
    <path d="M51.1803 75.5148C54.9593 75.7803 56.5775 76.5743 55.9576 79.295C55.2226 82.5213 55.0029 84.5021 50.8689 84.3152C47.2761 84.1527 43.7951 82.7588 43.9882 80.0105C44.1813 77.2621 47.1125 75.5641 51.1803 75.5148Z"
          fill="#BD4F6C"/>
    <path d="M55.858 65.743C58.217 68.7072 59.5129 71.6604 57.3572 73.376C55.2014 75.0917 51.5414 74.0795 49.1824 71.1152C46.8235 68.151 46.9956 64.8529 48.8146 62.6416C50.9703 60.926 53.4991 62.7788 55.858 65.743Z"
          fill="#BD4F6C"/>
    <path d="M62.4648 58.9522C65.2978 61.4672 65.215 65.3072 63.6736 67.0435C62.1323 68.7797 59.9023 67.118 57.0692 64.603C54.2362 62.088 54.0649 59.3957 55.6062 57.6595C57.1475 55.9232 59.6317 56.4372 62.4648 58.9522Z"
          fill="#BD4F6C"/>
    <ellipse cx="70.4635" cy="82.905" rx="13.4849" ry="10.367" transform="rotate(-50.5601 70.4635 82.905)"
             fill="#BD4F6C"/>
    <path d="M72.8859 61.9437C73.1991 64.9841 72.4226 68.5145 70.2759 67.9377C67.4539 66.8096 66.9246 66.0686 66.6114 63.0282C66.2982 59.9878 66.8964 58.2439 69.1417 56.9275C71.3871 55.611 72.5727 58.9033 72.8859 61.9437Z"
          fill="#BD4F6C"/>
    <path d="M60.5545 72.0534C55.8062 75.8603 58.0864 81.442 58.895 87.2156C64.4361 83.0592 72.9191 70.7183 72.4816 70.6359C65.7462 70.8486 64.9328 68.5432 60.5545 72.0534Z"
          fill="#BD4F6C"/>
    <path d="M99.233 74.3136C103.012 74.5791 104.63 75.3731 104.01 78.0938C103.275 81.3202 103.056 83.3009 98.9217 83.114C95.3288 82.9515 91.8478 81.5576 92.0409 78.8093C92.234 76.0609 95.1653 74.3629 99.233 74.3136Z"
          fill="#BD4F6C"/>
    <path d="M103.911 64.5418C106.27 67.5061 107.566 70.4593 105.41 72.1749C103.254 73.8905 99.5941 72.8783 97.2352 69.9141C94.8762 66.9499 95.0484 63.6517 96.8673 61.4405C99.0231 59.7249 101.552 61.5776 103.911 64.5418Z"
          fill="#BD4F6C"/>
    <path d="M110.517 57.751C113.35 60.266 113.267 64.1061 111.725 65.8423C110.184 67.5786 107.954 65.9169 105.121 63.4019C102.288 60.8869 102.117 58.1945 103.658 56.4583C105.199 54.7221 107.683 55.236 110.517 57.751Z"
          fill="#BD4F6C"/>
    <ellipse cx="118.516" cy="81.7038" rx="13.4849" ry="10.367" transform="rotate(-50.5601 118.516 81.7038)"
             fill="#BD4F6C"/>
    <path d="M120.939 60.7425C121.252 63.7829 120.475 67.3133 118.329 66.7365C115.507 65.6084 114.977 64.8674 114.664 61.827C114.351 58.7866 114.949 57.0428 117.194 55.7263C119.44 54.4098 120.625 57.7021 120.939 60.7425Z"
          fill="#BD4F6C"/>
    <path d="M108.606 70.8527C103.858 74.6596 106.138 80.2413 106.947 86.0149C112.488 81.8585 120.971 69.5176 120.533 69.4352C113.798 69.6479 112.985 67.3425 108.606 70.8527Z"
          fill="#BD4F6C"/>
    <path d="M57.6149 28.7897C61.3939 29.0552 63.012 29.8492 62.3922 32.5699C61.6571 35.7962 61.4375 37.777 57.3035 37.5901C53.7107 37.4276 50.2297 36.0337 50.4228 33.2854C50.6158 30.537 53.5471 28.839 57.6149 28.7897Z"
          fill="#BD4F6C"/>
    <path d="M62.2926 19.0179C64.6516 21.9821 65.9475 24.9353 63.7917 26.651C61.6359 28.3666 57.976 27.3544 55.617 24.3902C53.258 21.4259 53.4302 18.1278 55.2491 15.9165C57.4049 14.2009 59.9336 16.0537 62.2926 19.0179Z"
          fill="#BD4F6C"/>
    <path d="M68.8984 12.2271C71.7314 14.7421 71.6486 18.5821 70.1072 20.3184C68.5659 22.0546 66.3359 20.3929 63.5028 17.8779C60.6698 15.3629 60.4985 12.6706 62.0398 10.9344C63.5811 9.19813 66.0653 9.71212 68.8984 12.2271Z"
          fill="#BD4F6C"/>
    <ellipse cx="76.898" cy="36.1799" rx="13.4849" ry="10.367" transform="rotate(-50.5601 76.898 36.1799)"
             fill="#BD4F6C"/>
    <path d="M79.3204 15.2186C79.6337 18.259 78.8572 21.7894 76.7105 21.2126C73.8885 20.0845 73.3592 19.3435 73.046 16.3031C72.7327 13.2627 73.3309 11.5188 75.5763 10.2024C77.8216 8.8859 79.0072 12.1782 79.3204 15.2186Z"
          fill="#BD4F6C"/>
    <path d="M66.9881 25.3288C62.2398 29.1357 64.52 34.7174 65.3286 40.491C70.8697 36.3346 79.3527 23.9937 78.9152 23.9113C72.1798 24.124 71.3663 21.8185 66.9881 25.3288Z"
          fill="#BD4F6C"/>
    <path d="M12.2755 16.0165C14.7907 18.8494 15.3919 20.5486 13.0459 22.0596C10.264 23.8514 8.72163 25.1134 5.89778 22.0884C3.4436 19.4594 1.93062 16.0285 3.99089 14.1993C6.05115 12.37 9.33375 13.2067 12.2755 16.0165Z"
          fill="#BD4F6C"/>
    <path d="M22.4524 12.3043C22.0651 16.0727 20.9258 19.0898 18.1851 18.8082C15.4444 18.5265 13.5365 15.2433 13.9238 11.4748C14.3111 7.70632 16.7409 5.46954 19.5875 5.16133C22.3282 5.44297 22.8396 8.5358 22.4524 12.3043Z"
          fill="#BD4F6C"/>
    <path d="M31.9245 12.0713C32.1903 15.8503 29.4453 18.5368 27.1293 18.6997C24.8134 18.8626 24.3817 16.1152 24.116 12.3362C23.8502 8.55723 25.6109 6.51321 27.9268 6.35033C30.2428 6.18745 31.6588 8.29231 31.9245 12.0713Z"
          fill="#BD4F6C"/>
    <ellipse cx="20.8887" cy="34.7854" rx="13.4849" ry="10.367" transform="rotate(-6.17951 20.8887 34.7854)"
             fill="#BD4F6C"/>
    <path d="M37.2805 21.4987C35.3779 23.8908 32.3536 25.8709 31.2228 23.9573C29.9949 21.1772 30.1349 20.2774 32.0376 17.8853C33.9402 15.4933 35.5875 14.6653 38.113 15.2949C40.6385 15.9244 39.1832 19.1067 37.2805 21.4987Z"
          fill="#BD4F6C"/>
    <path d="M21.3952 20.0991C15.3389 19.4989 13.0646 25.083 9.6044 29.775C16.4717 30.6799 31.1661 27.7929 30.9111 27.4281C25.9485 22.8692 26.9795 20.6525 21.3952 20.0991Z"
          fill="#BD4F6C"/>
</svg>
