<svg width="412" height="606" viewBox="0 0 412 606" fill="none" xmlns="http://www.w3.org/2000/svg">
<path d="M55.9332 276.92C63.9377 264.468 68.3848 183.534 68.3848 179.087L83.5042 147.959L300.515 161.3C300.811 182.052 250.709 232.451 250.709 251.128C250.709 263.06 248.041 266.247 252.488 276.92C257.14 288.086 260.59 332.631 270.374 374.432C270.374 374.432 302.293 410.897 300.515 430.463C298.736 450.03 348.64 504.283 355.755 527.407C362.87 550.531 371.764 554.112 402.003 605.993H342.414H307.63H23.9153C19.1719 599.471 8.44006 578.422 3.4595 546.404C-2.76621 506.382 0.791335 419.222 3.4595 397.877C6.12766 376.531 47.9288 289.371 55.9332 276.92Z" fill="#7A4A22"/>
<path d="M60.3802 260.911L65.7165 224.446C131.887 361.767 212.762 310.124 249.82 264.468L256.045 282.256C253.674 284.924 246.44 296.309 243.594 299.155C163.193 408.016 90.0264 316.349 60.3802 260.911Z" fill="#34946C" stroke="black" stroke-opacity="0.7"/>
<path d="M57.9983 75.6718C64.3958 48.3667 94.4295 15.4399 138.855 15.4399C169.955 21.1285 171.546 31.5018 248.146 31.5018C280.133 31.5018 381.449 113.273 269.387 213.773C214.576 262.929 210.827 309.572 154.849 302.545C130.848 293.172 126.195 262.848 100.403 232.45C50.5967 173.751 52.6681 98.4215 57.9983 75.6718Z" fill="#8F5525"/>
<path d="M147.484 105.841C148.155 92.6412 143.057 72.0769 117.301 95.4201C118.307 101.673 125.752 112.511 147.484 105.841Z" fill="black"/>
<path d="M226.585 112.448C232.98 100.753 248.404 85.9026 258.933 120.065C254.727 124.879 242.368 130.095 226.585 112.448Z" fill="black"/>
<path d="M152.876 123.949C217.802 76.8116 127.974 47.4618 110.186 47.4618C111.075 48.3512 103.96 43.0149 99.5132 39.4573C86.1724 28.7847 132.421 12.7757 144.872 11.8863C157.323 10.9969 181.337 26.1125 200.014 24.3338C247.685 19.3532 270.276 27.8914 279.169 47.4618C289.842 56.3557 295.178 76.0872 286.285 74.1435C151.987 44.7937 216.912 129.285 219.581 132.843C222.249 136.401 254.267 165.75 263.16 183.538C270.276 197.768 238.851 229.786 222.249 244.016L167.107 259.136L114.633 231.565L92.3982 183.538C89.73 155.078 87.9512 171.087 152.876 123.949Z" fill="#B16C34"/>
<path d="M139.536 1.20974C157.323 -4.48234 156.434 11.2895 153.766 19.8869C144.872 29.6702 115.7 54.751 91.5087 73.2502C61.2696 96.3743 104.849 187.981 40.8136 187.981C-23.2223 187.981 11.4638 54.5731 17.6895 39.4535C22.6701 27.3579 44.3712 33.2278 64.8271 29.6703C85.283 29.6703 117.301 8.32484 139.536 1.20974Z" fill="url(#paint0_linear_80_395)"/>
<path d="M281.16 26.8191C266.033 15.8652 261.961 31.1282 261.816 40.129C267.217 52.1974 287.116 85.1229 304.334 110.242C325.857 141.641 255.889 215.096 316.734 235.06C377.578 255.024 386.212 117.451 385.01 101.144C384.049 88.0982 361.599 86.91 343.272 77.1524C323.836 70.7751 300.068 40.5115 281.16 26.8191Z" fill="url(#paint1_linear_80_395)"/>
<path d="M120.858 73.2484C131.828 67.0227 165.551 61.688 159.992 83.9216C156.963 96.0328 154.655 67.912 120.858 73.2484Z" fill="#754924"/>
<path d="M267.126 98.5648C259.654 87.2144 229.91 64.3498 224.339 86.7275C221.304 98.9172 237.313 75.6588 267.126 98.5648Z" fill="#754924"/>
<path d="M159.102 289.371C126.373 291.506 108.704 224.446 103.96 190.649C103.071 178.976 102.715 158.365 108.407 169.304C110.186 171.972 111.965 173.751 111.965 173.751C120.859 181.755 119.08 206.658 133.31 211.105C162.372 220.187 159.102 206.658 176.001 203.1C204.461 234.229 216.023 222.667 226.696 215.552C237.368 208.437 251.599 190.649 248.041 206.658C244.483 222.667 200.014 286.703 159.102 289.371Z" fill="black" stroke="black"/>
<path d="M158.993 298.265C120.571 296.131 125.789 238.083 133.201 209.326C133.201 209.326 145.66 212.972 153.657 211.995C163.988 210.732 173.332 196.875 173.332 196.875C192.009 218.22 195.567 221.778 210.687 222.667C214.244 232.45 207.02 300.933 158.993 298.265Z" fill="#F36767"/>
<path opacity="0.8" d="M162.549 267.137C162.549 267.689 162.997 268.137 163.549 268.137C164.101 268.137 164.549 267.689 164.549 267.137L162.549 267.137ZM174.285 196.312C167.479 206.294 164.562 218.492 163.332 230.907C162.103 243.312 162.549 256.068 162.549 267.137L164.549 267.137C164.549 255.971 164.106 243.379 165.322 231.104C166.538 218.838 169.402 207.023 175.937 197.438L174.285 196.312Z" fill="#943A3A"/>
<path d="M200.903 173.751C171.554 227.114 154.952 181.163 146.651 163.078C143.793 156.853 147.184 137.565 178.669 139.065C197.346 139.955 218.691 154.185 200.903 173.751Z" fill="black" stroke="black"/>
<circle cx="136.867" cy="100.821" r="3.55755" fill="#AFA0A0"/>
<circle cx="238.258" cy="113.273" r="3.55755" fill="#AFA0A0"/>
<path d="M170.866 153.452C171.755 150.784 155.747 153.452 161.083 158.789C166.42 164.125 168.198 161.457 170.866 153.452Z" fill="#493C3C"/>
<path d="M183.152 155.231C182.263 152.563 198.271 155.231 192.935 160.567C187.598 165.904 185.82 163.236 183.152 155.231Z" fill="#493C3C"/>
<path d="M177.877 163.647C177.877 173.709 177.166 190.464 174.32 194.776" stroke="#493C3C" stroke-linecap="round"/>
<path d="M25.694 529.506C-2.76639 493.93 43.4817 475.253 50.5968 501.935C71.4424 580.106 97.9227 488.123 104.85 470.806C122.637 426.337 124.416 476.143 119.08 501.935C113.743 527.727 132.421 529.506 200.014 486.815C267.607 444.125 201.793 541.068 168.885 566.86C142.56 587.494 153.766 599.744 162.66 605.673H98.6238V584.648C97.7344 565.971 54.1544 565.081 25.694 529.506Z" fill="#9F5F29"/>
<defs>
<linearGradient id="paint0_linear_80_395" x1="78.9822" y1="0" x2="78.9822" y2="187.981" gradientUnits="userSpaceOnUse">
<stop stop-color="#AF7141"/>
<stop offset="1" stop-color="#794E2D"/>
</linearGradient>
<linearGradient id="paint1_linear_80_395" x1="339.073" y1="44.5479" x2="280.467" y2="223.16" gradientUnits="userSpaceOnUse">
<stop stop-color="#AF7141"/>
<stop offset="1" stop-color="#764D2C"/>
</linearGradient>
</defs>
</svg>
