<svg width="1494" height="561" viewBox="0 0 1494 561" fill="none" xmlns="http://www.w3.org/2000/svg">
<rect x="22" y="96" width="1447" height="465" fill="#148985"/>
<path d="M10 93.3911C56 35.3911 52.5 69.2244 45 93.3911L67 67.3912V93.3911C73.5 88.0578 87.4 76.3912 91 72.3912C94.6 68.3912 109.167 88.0579 116 98.3912L138 67.3912L153.5 110.891C158.667 91.0579 169 52.9912 169 59.3912C169 65.7912 177 104.391 181 122.891C179 83.7247 177.4 11.5914 187 36.3913C196.6 61.1912 203 109.725 205 130.891C201.5 72.0582 197.8 -34.3084 211 10.8914C227.5 67.3912 232.5 140.891 238.5 135.891C244.5 130.891 261 72.3912 268.5 72.3912C276 72.3912 280 134.891 288 122.891C296 110.891 292 51.3912 300 59.3912C308 67.3912 313 124.892 316.5 117.891C320 110.891 326.5 51.3912 326.5 59.3912V98.3912C332.167 83.7245 343.6 56.9911 344 67.3912C344.5 80.3914 330.5 123.391 344 110.891C357.5 98.3912 368 71.3914 379 77.3914C387.8 82.1914 389.333 90.0579 389 93.3911C396.333 85.7245 412 71.7914 416 77.3914C421 84.3914 425 98.3912 429.5 98.3912C434 98.3912 447 83.3914 452 83.3914C456 83.3914 471.667 93.3913 479 98.3912C479.667 89.7245 482.9 72.3912 490.5 72.3912C498.1 72.3912 510.667 86.3911 516 93.3911L582 77.3914L589 110.891L607 67.3912L622.5 110.891C626.667 92.8912 635.2 59.9911 636 72.3912C637 87.8914 638.5 116.891 641 110.891C643.5 104.891 642.5 61.3911 650.5 72.3912C658.5 83.3914 652.5 113.392 663.5 103.391C674.5 93.3911 692.5 67.3911 693.5 72.3912C694.3 76.3913 705.167 99.7246 710.5 110.891L731 67.3912C732.833 79.3912 740.1 102.391 754.5 98.3912C768.9 94.3911 784.5 82.7246 790.5 77.3914C795.5 86.058 806.9 102.391 812.5 98.3912C818.1 94.3911 830.833 82.7246 836.5 77.3914C837 82.7246 840.1 93.3911 848.5 93.3911C859 93.3911 881 71.3914 884.5 77.3914C887.3 82.1914 894.667 101.725 898 110.891L916 77.3914L931.5 110.891C929.167 91.0578 925.9 54.5911 931.5 67.3912C937.1 80.1913 944.833 96.7247 948 103.391C944.667 86.058 939 52.9912 943 59.3912C948 67.3912 948 142.391 953 122.891C957 107.291 963.333 79.3913 966 67.3912C964.333 87.5579 962 126.891 966 122.891C971 117.891 983.5 65.8914 988 77.3914C989.942 82.3544 990.225 88.1227 989.839 93.1418C993.711 72.3461 999.622 45.1169 1002 50.8914C1003.58 54.7195 1005.33 70.3484 1006.8 87.0545C1005.61 71.2975 1004.39 55.4403 1003.46 43.5963C1002.96 41.6333 1002.5 37.4448 1002 28.8914C1001.37 18.2145 1002.14 26.934 1003.46 43.5963C1004.73 48.6331 1006.26 39.0187 1009.5 50.8914C1013.1 64.0912 1014 88.0579 1014 98.3912C1018.17 79.7246 1026.7 44.0915 1027.5 50.8914C1028.3 57.6912 1027.83 98.3913 1027.5 117.891C1033.5 94.058 1046.2 48.9912 1049 59.3912C1052.5 72.3912 1037 134.891 1055 122.891C1073 110.891 1082 36.3912 1087 67.3912C1092 98.3912 1108.5 68.3915 1110 83.3914C1111.05 93.9357 1110.64 107.569 1110.19 115.131C1110.3 115.102 1110.41 115.074 1110.52 115.046C1114.05 95.9517 1120.84 63.5877 1123.5 67.3912C1126.3 71.3912 1132.33 89.7245 1135 98.3912C1134.17 81.2245 1134.5 50.9911 1142.5 67.3912C1150.5 83.7913 1154.83 98.2247 1156 103.391C1141.76 107.052 1126.54 110.953 1110.52 115.046C1110.34 116.032 1110.16 116.983 1110 117.891C1110.06 117.103 1110.12 116.175 1110.19 115.131C886.934 172.17 509.62 266.249 485 262.891C452 258.391 117 240.891 104 217.891C93.6 199.491 30.3333 133.891 0 103.391L10 98.3912V93.3911Z" fill="#148985"/>
<path d="M47 93.3911C93 35.3911 89.5 69.2244 82 93.3911L104 67.3912V93.3911C110.5 88.0578 124.4 76.3912 128 72.3912C131.6 68.3912 146.167 88.0579 153 98.3912L175 67.3912L190.5 110.891C195.667 91.0579 206 52.9912 206 59.3912C206 65.7912 214 104.391 218 122.891C216 83.7247 214.4 11.5914 224 36.3913C233.6 61.1912 240 109.725 242 130.891C238.5 72.0582 234.8 -34.3084 248 10.8914C264.5 67.3912 269.5 140.891 275.5 135.891C281.5 130.891 298 72.3912 305.5 72.3912C313 72.3912 317 134.891 325 122.891C333 110.891 329 51.3912 337 59.3912C345 67.3912 350 124.892 353.5 117.891C357 110.891 363.5 51.3912 363.5 59.3912V98.3912C369.167 83.7245 380.6 56.9911 381 67.3912C381.5 80.3914 367.5 123.391 381 110.891C394.5 98.3912 405 71.3914 416 77.3914C424.8 82.1914 426.333 90.0579 426 93.3911C433.333 85.7245 449 71.7914 453 77.3914C458 84.3914 462 98.3912 466.5 98.3912C471 98.3912 484 83.3914 489 83.3914C493 83.3914 508.667 93.3913 516 98.3912C516.667 89.7245 519.9 72.3912 527.5 72.3912C535.1 72.3912 547.667 86.3911 553 93.3911L619 77.3914L626 110.891L644 67.3912L659.5 110.891C663.667 92.8912 672.2 59.9911 673 72.3912C674 87.8914 675.5 116.891 678 110.891C680.5 104.891 679.5 61.3911 687.5 72.3912C695.5 83.3914 689.5 113.392 700.5 103.391C711.5 93.3911 729.5 67.3911 730.5 72.3912C731.3 76.3913 742.167 99.7246 747.5 110.891L768 67.3912C769.833 79.3912 777.1 102.391 791.5 98.3912C805.9 94.3911 821.5 82.7246 827.5 77.3914C832.5 86.058 843.9 102.391 849.5 98.3912C855.1 94.3911 867.833 82.7246 873.5 77.3914C874 82.7246 877.1 93.3911 885.5 93.3911C896 93.3911 918 71.3914 921.5 77.3914C924.3 82.1914 931.667 101.725 935 110.891L953 77.3914L968.5 110.891C966.167 91.0578 962.9 54.5911 968.5 67.3912C974.1 80.1913 981.833 96.7247 985 103.391C981.667 86.058 976 52.9912 980 59.3912C985 67.3912 985 142.391 990 122.891C994 107.291 1000.33 79.3913 1003 67.3912C1001.33 87.5579 999 126.891 1003 122.891C1008 117.891 1020.5 65.8914 1025 77.3914C1026.94 82.3544 1027.23 88.1227 1026.84 93.1418C1030.71 72.3461 1036.62 45.1169 1039 50.8914C1040.58 54.7195 1042.33 70.3484 1043.8 87.0545C1042.61 71.2975 1041.39 55.4403 1040.46 43.5963C1039.96 41.6333 1039.5 37.4448 1039 28.8914C1038.37 18.2145 1039.14 26.934 1040.46 43.5963C1041.73 48.6331 1043.26 39.0187 1046.5 50.8914C1050.1 64.0912 1051 88.0579 1051 98.3912C1055.17 79.7246 1063.7 44.0915 1064.5 50.8914C1065.3 57.6912 1064.83 98.3913 1064.5 117.891C1070.5 94.058 1083.2 48.9912 1086 59.3912C1089.5 72.3912 1074 134.891 1092 122.891C1110 110.891 1119 36.3912 1124 67.3912C1129 98.3912 1145.5 68.3915 1147 83.3914C1148.05 93.9357 1147.64 107.569 1147.19 115.131C1147.3 115.102 1147.41 115.074 1147.52 115.046C1151.05 95.9517 1157.84 63.5877 1160.5 67.3912C1163.3 71.3912 1169.33 89.7245 1172 98.3912C1171.17 81.2245 1171.5 50.9911 1179.5 67.3912C1187.5 83.7913 1191.83 98.2247 1193 103.391C1178.76 107.052 1163.54 110.953 1147.52 115.046C1147.34 116.032 1147.16 116.983 1147 117.891C1147.06 117.103 1147.12 116.175 1147.19 115.131C923.934 172.17 546.62 266.249 522 262.891C489 258.391 154 240.891 141 217.891C130.6 199.491 67.3333 133.891 37 103.391L47 98.3912V93.3911Z" fill="#148985"/>
<path d="M1373.41 110.372C1333.9 72.8782 1336.9 94.7494 1343.35 110.372L1324.45 93.5644V110.372C1318.86 106.924 1306.92 99.3823 1303.83 96.7966C1300.74 94.2108 1288.23 106.924 1282.36 113.604L1263.46 93.5644L1250.14 121.685C1245.71 108.863 1236.83 84.2556 1236.83 88.3928C1236.83 92.5301 1229.96 117.483 1226.52 129.442C1228.24 104.123 1229.61 57.4931 1221.37 73.5248C1213.12 89.5564 1207.62 120.93 1205.91 134.613C1208.91 96.5813 1212.09 27.8217 1200.75 57.0406C1186.58 93.5644 1182.28 141.078 1177.13 137.846C1171.98 134.613 1157.8 96.7966 1151.36 96.7966C1144.92 96.7966 1141.48 137.199 1134.61 129.442C1127.74 121.685 1131.17 83.2213 1124.3 88.3928C1117.43 93.5644 1113.13 130.735 1110.13 126.21C1107.12 121.685 1101.54 83.2213 1101.54 88.3928V113.604C1096.67 104.123 1086.85 86.8413 1086.51 93.5644C1086.08 101.968 1098.1 129.765 1086.51 121.685C1074.91 113.604 1065.89 96.1502 1056.44 100.029C1048.88 103.132 1047.56 108.217 1047.85 110.372C1041.55 105.416 1028.09 96.4088 1024.66 100.029C1020.36 104.554 1016.93 113.604 1013.06 113.604C1009.2 113.604 998.029 103.908 993.734 103.908C990.298 103.908 976.84 110.372 970.541 113.604C969.968 108.002 967.191 96.7966 960.662 96.7966C954.134 96.7966 943.339 105.847 938.758 110.372L882.064 100.029L876.051 121.685L860.589 93.5644L847.275 121.685C843.695 110.049 836.365 88.7806 835.678 96.7966C834.819 106.816 833.531 125.563 831.383 121.685C829.236 117.806 830.095 89.6856 823.223 96.7966C816.351 103.908 821.505 123.301 812.056 116.836C802.607 110.372 787.145 93.5643 786.286 96.7966C785.599 99.3824 776.264 114.466 771.683 121.685L754.074 93.5644C752.499 101.322 746.257 116.19 733.887 113.604C721.518 111.018 708.117 103.476 702.963 100.029C698.668 105.631 688.876 116.19 684.065 113.604C679.255 111.018 668.317 103.476 663.449 100.029C663.02 103.476 660.357 110.372 653.141 110.372C644.122 110.372 625.224 96.1502 622.218 100.029C619.812 103.132 613.484 115.759 610.621 121.685L595.159 100.029L581.845 121.685C583.849 108.863 586.655 85.2899 581.845 93.5644C577.034 101.839 570.391 112.527 567.671 116.836C570.535 105.631 575.402 84.2556 571.966 88.3928C567.671 93.5644 567.671 142.047 563.376 129.442C559.94 119.357 554.5 101.322 552.209 93.5644C553.641 106.601 555.645 132.028 552.209 129.442C547.914 126.21 537.177 92.5948 533.311 100.029C531.643 103.237 531.4 106.966 531.732 110.211C528.406 96.7674 523.328 79.1654 521.286 82.8982C519.931 85.3729 518.423 95.4759 517.159 106.275C518.185 96.0894 519.231 85.8388 520.035 78.1824C520.462 76.9134 520.854 74.2058 521.286 68.6765C521.824 61.7746 521.168 67.4112 520.035 78.1824C518.942 81.4384 517.624 75.2233 514.843 82.8982C511.751 91.4311 510.978 106.924 510.978 113.604C507.398 101.537 500.068 78.5025 499.381 82.8982C498.694 87.2939 499.095 113.604 499.381 126.21C494.227 110.803 483.318 81.6699 480.913 88.3928C477.906 96.7966 491.221 137.199 475.759 129.442C460.297 121.685 452.566 73.5247 448.271 93.5644C443.976 113.604 429.802 94.211 428.514 103.908C427.608 110.724 427.963 119.537 428.353 124.425C428.258 124.407 428.163 124.389 428.068 124.37C425.039 112.027 419.205 91.1056 416.917 93.5644C414.512 96.1501 409.33 108.002 407.039 113.604C407.755 102.507 407.468 82.9627 400.596 93.5644C393.724 104.166 390.002 113.496 389 116.836C401.232 119.202 414.308 121.725 428.068 124.37C428.224 125.008 428.373 125.622 428.514 126.21C428.462 125.7 428.407 125.1 428.353 124.425C620.127 161.298 944.238 222.114 965.387 219.943C993.734 217.034 1281.5 205.722 1292.66 190.854C1301.6 178.959 1355.94 136.553 1382 116.836L1373.41 113.604V110.372Z" fill="#148985"/>
<path d="M1489.32 85.3717C1467.79 47.8782 1469.43 69.7494 1472.94 85.3717L1462.64 68.5644V85.3717C1459.6 81.9241 1453.1 74.3823 1451.41 71.7966C1449.73 69.2108 1442.91 81.9241 1439.71 88.604L1429.42 68.5644L1422.16 96.6845C1419.75 83.8634 1414.91 59.2556 1414.91 63.3928C1414.91 67.5301 1411.17 92.4827 1409.29 104.442C1410.23 79.123 1410.98 32.4931 1406.49 48.5248C1401.99 64.5564 1399 95.9304 1398.06 109.613C1399.7 71.5813 1401.43 2.82167 1395.25 32.0406C1387.53 68.5644 1385.19 116.078 1382.38 112.846C1379.58 109.613 1371.85 71.7966 1368.34 71.7966C1364.83 71.7966 1362.96 112.199 1359.22 104.442C1355.47 96.6845 1357.35 58.2213 1353.6 63.3928C1349.86 68.5644 1347.52 105.735 1345.88 101.21C1344.24 96.6845 1341.2 58.2213 1341.2 63.3928V88.604C1338.55 79.1229 1333.2 61.8413 1333.01 68.5644C1332.78 76.9682 1339.33 104.765 1333.01 96.6845C1326.69 88.604 1321.78 71.1502 1316.63 75.0289C1312.51 78.1318 1311.79 83.217 1311.95 85.3717C1308.52 80.4158 1301.19 71.4088 1299.31 75.0289C1296.97 79.5539 1295.1 88.604 1293 88.604C1290.89 88.604 1284.81 78.9075 1282.47 78.9075C1280.6 78.9075 1273.26 85.3718 1269.83 88.604C1269.52 83.0015 1268.01 71.7966 1264.45 71.7966C1260.89 71.7966 1255.01 80.8467 1252.52 85.3717L1221.63 75.0289L1218.35 96.6845L1209.93 68.5644L1202.67 96.6845C1200.72 85.0486 1196.73 63.7806 1196.36 71.7966C1195.89 81.8165 1195.19 100.563 1194.02 96.6845C1192.85 92.806 1193.31 64.6856 1189.57 71.7966C1185.83 78.9075 1188.63 98.3009 1183.49 91.8363C1178.34 85.3717 1169.91 68.5643 1169.45 71.7966C1169.07 74.3824 1163.99 89.466 1161.49 96.6845L1151.9 68.5644C1151.04 76.3217 1147.64 91.1898 1140.9 88.604C1134.16 86.0182 1126.86 78.4765 1124.05 75.0289C1121.71 80.6313 1116.38 91.1898 1113.76 88.604C1111.13 86.0182 1105.18 78.4765 1102.52 75.0289C1102.29 78.4765 1100.84 85.3717 1096.91 85.3717C1091.99 85.3717 1081.7 71.1502 1080.06 75.0289C1078.75 78.1318 1075.3 90.7588 1073.74 96.6845L1065.32 75.0289L1058.06 96.6845C1059.16 83.8634 1060.69 60.2899 1058.06 68.5644C1055.44 76.8389 1051.82 87.5267 1050.34 91.8363C1051.9 80.6313 1054.55 59.2556 1052.68 63.3928C1050.34 68.5644 1050.34 117.047 1048 104.442C1046.13 94.3574 1043.17 76.3217 1041.92 68.5644C1042.7 81.6009 1043.79 107.028 1041.92 104.442C1039.58 101.21 1033.73 67.5948 1031.62 75.0289C1030.71 78.2371 1030.58 81.9659 1030.76 85.2104C1028.95 71.7673 1026.18 54.1654 1025.07 57.8982C1024.33 60.3729 1023.51 70.476 1022.82 81.2754C1023.38 71.0894 1023.95 60.8386 1024.39 53.1822C1024.62 51.9132 1024.84 49.2055 1025.07 43.6765C1025.36 36.7746 1025.01 42.4111 1024.39 53.1822C1023.79 56.4386 1023.08 50.2231 1021.56 57.8982C1019.88 66.4311 1019.46 81.9241 1019.46 88.604C1017.51 76.5372 1013.51 53.5025 1013.14 57.8982C1012.76 62.2939 1012.98 88.6041 1013.14 101.21C1010.33 85.8028 1004.39 56.6699 1003.08 63.3928C1001.44 71.7966 1008.69 112.199 1000.27 104.442C991.843 96.6845 987.632 48.5247 985.292 68.5644C982.952 88.604 975.23 69.211 974.528 78.9075C974.034 85.7238 974.227 94.5366 974.44 99.4251C974.388 99.4068 974.336 99.3885 974.285 99.3702C972.634 87.027 969.456 66.1056 968.21 68.5644C966.899 71.1501 964.076 83.0015 962.828 88.604C963.218 77.5068 963.062 57.9627 959.318 68.5644C955.574 79.1661 953.546 88.4964 953 91.8363C959.664 94.2025 966.788 96.7245 974.285 99.3702C974.37 100.008 974.451 100.622 974.528 101.21C974.499 100.7 974.47 100.1 974.44 99.4251C1078.92 136.298 1255.5 197.114 1267.02 194.943C1282.47 192.034 1439.24 180.722 1445.33 165.854C1450.2 153.959 1479.8 111.553 1494 91.8363L1489.32 88.604V85.3717Z" fill="#148985"/>
</svg>
