<svg width="303" height="420" viewBox="0 0 303 420" fill="none" xmlns="http://www.w3.org/2000/svg">
<path d="M64.6135 291.751C72.5809 267.215 86.9674 238.822 95.6937 226.198L209.516 214.464C254.134 226.838 282.49 319.38 293.113 356.716L70.6526 360.076C64.5821 345.853 57.715 312.994 64.6135 291.751Z" fill="#D9D9D9"/>
<path d="M59.1151 167.378C85.2341 151.51 77.9503 101.057 76.697 94.9147C84.012 91.4148 101.148 88.947 111.17 107.075C123.697 129.736 59.1151 167.378 59.1151 167.378Z" fill="#E4E4E4"/>
<path d="M242.754 126.246C242.754 194.891 201.055 250.539 149.617 250.539C98.1788 250.539 56.4798 194.891 56.4798 126.246C56.4798 57.6016 98.1788 1.95398 149.617 1.95398C201.055 1.95398 242.754 57.6016 242.754 126.246Z" fill="#E4E4E4"/>
<path d="M140.166 110.037C133.763 124.644 98.8742 149.14 91.6855 159.898L113.973 183.811L143.83 197L187.227 186.309L209.515 168.642C207.942 165.471 165.8 122.81 164.722 110.037C163.374 94.0711 168.468 64.161 186.665 58.0464C204.862 51.9318 228.317 39.0883 228.991 30.2562C229.665 21.424 193.702 2.13174 150.232 0.0935505C106.763 -1.94464 70.5551 29.9619 77.9685 33.3589C83.8993 36.0765 125.625 46.6507 131.354 65.1243C137.757 85.7665 144.112 101.033 140.166 110.037Z" fill="#D9D9D9"/>
<path d="M145.725 178.51C137.211 178.51 102.267 148.95 141.431 145.576C190.386 141.357 164.881 178.249 145.725 178.51C160.081 211.715 198.815 162.149 209.297 168.888C218.968 175.105 179.78 235.461 145.725 235.461C118.481 235.461 83.408 175.105 91.5335 160.95C98.2591 155.937 121.745 191.51 137.211 189.057C142.525 188.214 145.724 180.62 145.725 178.51Z" fill="black"/>
<path d="M145.725 178.51C137.211 178.51 102.267 148.95 141.431 145.576C190.386 141.357 164.881 178.249 145.725 178.51ZM145.725 178.51C145.724 180.62 142.525 188.214 137.211 189.057C121.745 191.51 98.2591 155.937 91.5335 160.95C83.408 175.105 118.481 235.461 145.725 235.461C179.78 235.461 218.968 175.105 209.297 168.888C198.815 162.149 160.081 211.715 145.725 178.51Z" stroke="black"/>
<path d="M177.034 206.115C166.962 207.763 159.548 204.743 156.051 201.996C153.177 199.737 147.658 193.756 145.559 193.755C143.264 193.754 137.237 200.527 130.871 201.996C124.223 203.53 117.255 199.847 116.183 204.057C105.691 237.016 135.068 257.615 151.854 257.615C168.641 257.615 189.624 204.055 177.034 206.115Z" fill="#F27F7F"/>
<path d="M140.185 156.113C140.775 154.343 130.153 156.113 133.694 159.654C137.235 163.195 138.415 161.425 140.185 156.113Z" fill="#4F4F4F"/>
<path d="M153.025 156.113C152.435 154.343 163.058 156.113 159.517 159.654C155.976 163.195 154.795 161.425 153.025 156.113Z" fill="#4F4F4F"/>
<path d="M146.612 155.419C144.539 164.226 145.748 173.378 145.748 178.559" stroke="#4F4F4F" stroke-linecap="round"/>
<g opacity="0.34" filter="url(#filter0_d_218_863)">
<path d="M145.664 240.189C146.058 240.918 146.968 241.19 147.697 240.796C148.426 240.402 148.697 239.492 148.304 238.763L145.664 240.189ZM144.041 193.298C141.23 199.374 140.014 208.051 140.281 216.635C140.547 225.221 142.305 233.973 145.664 240.189L148.304 238.763C145.247 233.106 143.537 224.868 143.279 216.542C143.021 208.212 144.222 200.052 146.764 194.558L144.041 193.298Z" fill="#AC3D3D"/>
</g>
<path d="M80.6671 95.9621C88.3677 89.2049 104.262 62.9138 118.612 77.3978C121.776 80.5916 95.6098 39.5925 80.6671 95.9621Z" fill="#C0C0C0"/>
<path d="M226.616 98.0089C219.806 90.6957 207.129 63.3941 191.408 76.5419C187.941 79.4411 218.241 41.0402 226.616 98.0089Z" fill="#C0C0C0"/>
<path d="M112.158 1.21356C126.741 -4.49649 126.012 11.3251 123.824 19.9497C116.533 29.7638 92.616 54.9238 72.7827 73.4815C47.9912 96.6786 83.7201 188.575 31.2203 188.575C-21.2795 188.575 7.15789 54.7454 12.262 39.5781C16.3454 27.4442 34.137 33.3327 50.9078 29.7639C67.6786 29.7639 93.9285 8.35112 112.158 1.21356Z" fill="url(#paint0_linear_218_863)"/>
<path d="M193.558 2.15579C179.426 -4.01635 179.873 12.4631 181.863 21.4743C188.812 31.8039 211.724 58.3671 230.763 77.9941C254.561 102.528 218.166 197.618 269.385 198.442C320.604 199.265 295.1 59.5221 290.375 43.6551C286.594 30.9614 269.138 36.8113 252.836 32.8336C236.474 32.5705 211.223 9.87097 193.558 2.15579Z" fill="url(#paint1_linear_218_863)"/>
<path d="M219.071 103.269C214.733 111.097 214.215 131.129 181.125 119.647C176.569 83.8126 203.509 71.8972 219.071 103.269Z" fill="#EDEDED" stroke="#787878" stroke-width="0.2"/>
<circle cx="10.7311" cy="10.7311" r="10.7311" transform="matrix(-1 0 0 1 208.061 95.7852)" fill="#0E9393"/>
<circle cx="194.341" cy="109.041" r="2.52497" fill="black"/>
<circle cx="195.737" cy="110.407" r="0.863437" fill="#FDFDFD"/>
<path d="M89.6568 101.748C93.9651 109.523 94.4796 129.419 127.346 118.015C131.871 82.4226 105.114 70.5877 89.6568 101.748Z" fill="#EDEDED" stroke="#787878" stroke-width="0.2"/>
<circle cx="111.251" cy="104.973" r="10.6586" fill="#0E9393"/>
<circle cx="2.50791" cy="2.50791" r="2.50791" transform="matrix(-1 0 0 1 116.728 104.972)" fill="black"/>
<circle cx="0.857602" cy="0.857602" r="0.857602" transform="matrix(-1 0 0 1 116.778 107.636)" fill="#FDFDFD"/>
<path d="M149.094 345.574C149.094 369.081 131.542 388.138 109.891 388.138C88.2396 388.138 70.6877 369.081 70.6877 345.574C70.6877 322.067 88.2396 303.01 109.891 303.01C131.542 303.01 149.094 322.067 149.094 345.574Z" fill="#AEAEAE"/>
<path d="M149.094 345.574C149.094 369.081 131.542 388.138 109.891 388.138C88.2396 388.138 70.6877 369.081 70.6877 345.574C70.6877 322.067 88.2396 303.01 109.891 303.01C131.542 303.01 149.094 322.067 149.094 345.574Z" stroke="black"/>
<ellipse cx="104.291" cy="362.375" rx="42.5637" ry="45.9239" fill="#E7E7E7"/>
<circle cx="77.4091" cy="392.618" r="15.6813" fill="#E7E7E7"/>
<circle cx="99.8087" cy="403.819" r="15.6813" fill="#E7E7E7"/>
<circle cx="126.691" cy="399.338" r="15.6813" fill="#E7E7E7"/>
<circle cx="146.853" cy="376.936" r="15.6813" fill="#E7E7E7"/>
<path d="M190.172 341.638C190.172 365.146 207.724 384.202 229.376 384.202C251.027 384.202 268.579 365.146 268.579 341.638C268.579 318.131 251.027 299.075 229.376 299.075C207.724 299.075 190.172 318.131 190.172 341.638Z" fill="#AEAEAE"/>
<path d="M190.172 341.638C190.172 365.146 207.724 384.202 229.376 384.202C251.027 384.202 268.579 365.146 268.579 341.638C268.579 318.131 251.027 299.075 229.376 299.075C207.724 299.075 190.172 318.131 190.172 341.638Z" stroke="black"/>
<ellipse cx="42.5637" cy="45.9239" rx="42.5637" ry="45.9239" transform="matrix(-1 0 0 1 286.502 308.035)" fill="#E7E7E7"/>
<circle cx="15.6813" cy="15.6813" r="15.6813" transform="matrix(-1 0 0 1 286.502 368.521)" fill="#E7E7E7"/>
<circle cx="15.6813" cy="15.6813" r="15.6813" transform="matrix(-1 0 0 1 264.099 379.722)" fill="#E7E7E7"/>
<circle cx="15.6813" cy="15.6813" r="15.6813" transform="matrix(-1 0 0 1 237.217 375.241)" fill="#E7E7E7"/>
<circle cx="15.6813" cy="15.6813" r="15.6813" transform="matrix(-1 0 0 1 217.055 352.839)" fill="#E7E7E7"/>
<defs>
<filter id="filter0_d_218_863" x="136.245" y="193.298" width="16.2395" height="55.6785" filterUnits="userSpaceOnUse" color-interpolation-filters="sRGB">
<feFlood flood-opacity="0" result="BackgroundImageFix"/>
<feColorMatrix in="SourceAlpha" type="matrix" values="0 0 0 0 0 0 0 0 0 0 0 0 0 0 0 0 0 0 127 0" result="hardAlpha"/>
<feOffset dy="4"/>
<feGaussianBlur stdDeviation="2"/>
<feComposite in2="hardAlpha" operator="out"/>
<feColorMatrix type="matrix" values="0 0 0 0 0 0 0 0 0 0 0 0 0 0 0 0 0 0 0.25 0"/>
<feBlend mode="normal" in2="BackgroundImageFix" result="effect1_dropShadow_218_863"/>
<feBlend mode="normal" in="SourceGraphic" in2="effect1_dropShadow_218_863" result="shape"/>
</filter>
<linearGradient id="paint0_linear_218_863" x1="62.5128" y1="0" x2="62.5128" y2="188.575" gradientUnits="userSpaceOnUse">
<stop stop-color="#D8D8D8"/>
<stop offset="1" stop-color="#A6A6A6"/>
</linearGradient>
<linearGradient id="paint1_linear_218_863" x1="242.012" y1="1.67155" x2="238.856" y2="197.951" gradientUnits="userSpaceOnUse">
<stop stop-color="#D9D9D9"/>
<stop offset="1" stop-color="#A6A6A6"/>
</linearGradient>
</defs>
</svg>
