<svg width="279" height="178" viewBox="0 0 279 178" fill="none" xmlns="http://www.w3.org/2000/svg">
<path d="M5.31945 174.888L8.8487 165.909H9.34314L12.4291 174.956C12.6678 175.67 12.8269 176.186 12.9065 176.504C12.9974 176.129 13.1565 175.619 13.3839 174.973L16.521 165.671H17.3735L13.1281 177.932H12.6507L9.49658 168.919C9.45112 168.772 9.39997 168.625 9.34314 168.477C9.29767 168.33 9.25789 168.199 9.22379 168.086C9.18969 167.973 9.15559 167.876 9.12149 167.797L9.0533 167.593C9.04193 167.536 9.03625 167.502 9.03625 167.491C8.89985 167.899 8.72367 168.369 8.50771 168.902L4.94436 177.932H4.46698L0.187545 165.671H1.09117L4.21123 174.82C4.35899 175.228 4.47834 175.597 4.56927 175.925C4.67157 176.254 4.7284 176.436 4.73977 176.47C4.7966 176.209 4.98983 175.682 5.31945 174.888Z" fill="white"/>
<path d="M19.6929 177.83V166.794H24.8589V167.474H20.4771V171.487H24.4326V172.15H20.4771V177.116H25.0294V177.83H19.6929Z" fill="white"/>
<path d="M26.9337 165.671H27.8373V166.505L27.1213 167.814H26.7291L26.9337 166.777V165.671Z" fill="white"/>
<path d="M30.4987 177.83V166.845C31.4762 166.765 32.3059 166.726 32.9879 166.726C34.0336 166.726 34.8974 166.998 35.5794 167.542C36.2614 168.075 36.6024 168.84 36.6024 169.838C36.6024 170.506 36.4092 171.124 36.0227 171.691C35.6363 172.258 35.1986 172.717 34.7099 173.069C36.0625 174.86 36.8979 175.931 37.2162 176.282C37.8641 176.951 38.5688 177.331 39.3303 177.422L39.3133 177.949C38.6768 177.938 38.1596 177.847 37.7618 177.677C37.3639 177.496 36.9661 177.195 36.5683 176.776C36.1818 176.356 35.3237 175.228 33.9938 173.392C33.0731 173.392 32.1695 173.363 31.2829 173.307V177.83H30.4987ZM33.5676 172.745C34.0109 172.745 34.4883 172.451 34.9997 171.861C35.5112 171.272 35.767 170.586 35.767 169.804C35.767 169.021 35.4999 168.426 34.9656 168.018C34.4314 167.61 33.7381 167.406 32.8856 167.406C32.4309 167.406 31.8967 167.429 31.2829 167.474V172.66C32.1013 172.717 32.8629 172.745 33.5676 172.745Z" fill="white"/>
<path d="M40.8716 177.83V166.794H46.0376V167.474H41.6558V171.487H45.6113V172.15H41.6558V177.116H46.2081V177.83H40.8716Z" fill="white"/>
<path d="M59.0365 177.252C60.4914 177.252 61.6564 176.861 62.5317 176.078C63.4182 175.296 63.8615 174.117 63.8615 172.541C63.8615 170.966 63.3614 169.713 62.3612 168.783C61.3723 167.854 60.1504 167.389 58.6955 167.389C57.6612 167.389 56.8655 167.412 56.3086 167.457V177.133C56.9906 177.212 57.8999 177.252 59.0365 177.252ZM58.6955 166.692C60.4005 166.692 61.8213 167.219 62.9579 168.273C64.1059 169.316 64.6799 170.739 64.6799 172.541C64.6799 174.344 64.1514 175.699 63.0943 176.606C62.0486 177.513 60.696 177.966 59.0365 177.966C57.8885 177.966 56.7064 177.909 55.4902 177.796V166.794C56.3995 166.726 57.4679 166.692 58.6955 166.692Z" fill="white"/>
<path d="M72.9874 178C71.4075 178 70.0833 177.45 69.0149 176.351C67.9464 175.251 67.4122 173.907 67.4122 172.32C67.4122 170.722 67.9464 169.373 69.0149 168.273C70.0833 167.173 71.4075 166.624 72.9874 166.624C74.5673 166.624 75.8915 167.173 76.9599 168.273C78.0284 169.373 78.5626 170.722 78.5626 172.32C78.5626 173.907 78.0284 175.251 76.9599 176.351C75.8915 177.45 74.5673 178 72.9874 178ZM72.9874 167.321C71.6234 167.321 70.4868 167.803 69.5775 168.766C68.6796 169.73 68.2306 170.915 68.2306 172.32C68.2306 173.715 68.6796 174.894 69.5775 175.857C70.4868 176.81 71.6234 177.286 72.9874 177.286C74.3627 177.286 75.4994 176.81 76.3973 175.857C77.2952 174.894 77.7442 173.715 77.7442 172.32C77.7442 170.915 77.2952 169.73 76.3973 168.766C75.4994 167.803 74.3627 167.321 72.9874 167.321Z" fill="white"/>
<path d="M86.6007 167.321C85.339 167.321 84.2762 167.803 83.4124 168.766C82.5599 169.719 82.1337 170.892 82.1337 172.286C82.1337 173.681 82.6167 174.865 83.5829 175.84C84.549 176.804 85.6857 177.286 86.9928 177.286C88.3113 177.286 89.3343 177.133 90.0617 176.827V172.286H90.846V177.184C89.9594 177.728 88.7034 178 87.078 178C85.4526 178 84.083 177.45 82.9691 176.351C81.8552 175.251 81.2983 173.902 81.2983 172.303C81.2983 170.694 81.7984 169.344 82.7986 168.256C83.8102 167.168 85.1117 166.624 86.7029 166.624C87.9873 166.624 89.2433 166.822 90.4709 167.219L90.2663 167.865C89.0842 167.502 87.8623 167.321 86.6007 167.321Z" fill="white"/>
<path d="M100.711 177.83V166.862C101.564 166.771 102.462 166.726 103.405 166.726C104.36 166.726 105.167 166.981 105.826 167.491C106.486 167.99 106.815 168.749 106.815 169.77C106.815 170.79 106.366 171.629 105.468 172.286C104.57 172.933 103.508 173.256 102.28 173.256C102.223 173.256 102.161 173.256 102.092 173.256V172.711C102.138 172.711 102.178 172.711 102.212 172.711C103.223 172.711 104.104 172.445 104.854 171.912C105.605 171.379 105.98 170.688 105.98 169.838C105.98 168.987 105.713 168.369 105.178 167.984C104.656 167.599 103.962 167.406 103.098 167.406C102.644 167.406 102.109 167.429 101.496 167.474V177.83H100.711Z" fill="white"/>
<path d="M109.719 177.83V166.794H114.885V167.474H110.503V171.487H114.459V172.15H110.503V177.116H115.056V177.83H109.719Z" fill="white"/>
<path d="M123.087 178C121.507 178 120.183 177.45 119.114 176.351C118.046 175.251 117.512 173.907 117.512 172.32C117.512 170.722 118.046 169.373 119.114 168.273C120.183 167.173 121.507 166.624 123.087 166.624C124.667 166.624 125.991 167.173 127.06 168.273C128.128 169.373 128.662 170.722 128.662 172.32C128.662 173.907 128.128 175.251 127.06 176.351C125.991 177.45 124.667 178 123.087 178ZM123.087 167.321C121.723 167.321 120.586 167.803 119.677 168.766C118.779 169.73 118.33 170.915 118.33 172.32C118.33 173.715 118.779 174.894 119.677 175.857C120.586 176.81 121.723 177.286 123.087 177.286C124.462 177.286 125.599 176.81 126.497 175.857C127.395 174.894 127.844 173.715 127.844 172.32C127.844 170.915 127.395 169.73 126.497 168.766C125.599 167.803 124.462 167.321 123.087 167.321Z" fill="white"/>
<path d="M132.08 177.83V166.862C132.932 166.771 133.83 166.726 134.774 166.726C135.728 166.726 136.535 166.981 137.195 167.491C137.854 167.99 138.184 168.749 138.184 169.77C138.184 170.79 137.735 171.629 136.837 172.286C135.939 172.933 134.876 173.256 133.648 173.256C133.592 173.256 133.529 173.256 133.461 173.256V172.711C133.506 172.711 133.546 172.711 133.58 172.711C134.592 172.711 135.473 172.445 136.223 171.912C136.973 171.379 137.348 170.688 137.348 169.838C137.348 168.987 137.081 168.369 136.547 167.984C136.024 167.599 135.331 167.406 134.467 167.406C134.012 167.406 133.478 167.429 132.864 167.474V177.83H132.08Z" fill="white"/>
<path d="M141.087 177.83V166.794H141.872V177.116H146.952V177.83H141.087Z" fill="white"/>
<path d="M149.279 177.83V166.794H154.445V167.474H150.064V171.487H154.019V172.15H150.064V177.116H154.616V177.83H149.279Z" fill="white"/>
<path d="M46.0479 70.9251C43.9262 70.5944 41.6387 70.4291 39.1855 70.4291C38.9203 70.4291 38.2904 70.4291 37.2958 70.4291C36.3013 70.4952 33.848 70.5614 29.9361 70.6275C29.8035 67.0564 29.7372 63.9152 29.7372 61.2039L29.041 39.3808L27.8476 41.6623C26.853 43.4478 26.0574 44.7043 25.4606 45.4317C24.9302 46.1592 24.3335 46.5229 23.6704 46.5229C22.2117 46.4568 20.4878 44.0761 18.4987 39.3808C18.4324 40.0421 18.3993 40.9018 18.3993 41.9599C18.4656 43.018 18.4987 43.8446 18.4987 44.4398V46.9197C18.4987 53.3343 18.7971 61.0716 19.3938 70.1315C16.5428 70.5944 13.6586 70.8259 10.7412 70.8259L3.97822 70.6275H2.58584C2.38693 70.6275 2.25433 70.5944 2.18802 70.5283C2.12172 70.5283 2.08857 70.4622 2.08857 70.3299L1.98911 69.2388C1.8565 66.7258 1.7902 61.5676 1.7902 53.7642C1.7902 44.6382 1.88966 27.3781 2.08857 1.98392C3.08312 1.65326 4.11083 1.42181 5.17169 1.28955C6.29885 1.15728 7.89014 1.09115 9.94555 1.09115L14.8189 1.19035C16.2776 1.19035 17.3716 1.15728 18.1009 1.09115C18.9629 2.08311 19.7254 3.33959 20.3884 4.8606C21.0514 6.3816 22.278 9.48974 24.0682 14.185C24.1345 14.0528 24.3335 13.3914 24.665 12.2011C25.0628 11.0107 26.6209 7.1421 29.3394 0.595174C30.2013 0.793567 31.3285 0.892764 32.7209 0.892764C33.7817 0.892764 35.5719 0.826632 38.0915 0.694368L46.4457 0.495979L46.0479 70.9251Z" fill="white"/>
<path d="M65.8372 70.8259C64.246 70.6275 62.721 70.5283 61.2623 70.5283C60.2677 70.5283 58.9085 70.5944 57.1846 70.7267L53.0075 70.8259C51.6814 70.8259 50.1564 70.7267 48.4325 70.5283C50.0238 65.7669 53.0738 57.5667 57.5824 45.9277L61.6601 35.6113C60.9971 32.9661 60.1683 30.387 59.1737 27.8741C58.1792 25.295 56.9194 22.253 55.3944 18.748C53.6042 14.3173 52.245 10.9115 51.3167 8.53085C50.4548 6.15015 49.6923 3.63718 49.0293 0.991958C50.289 1.05809 52.245 0.958891 54.8971 0.694368C57.0188 0.429845 58.577 0.297584 59.5715 0.297584C61.8922 0.297584 63.815 0.727433 65.34 1.58713C65.9367 4.03396 66.8318 7.07597 68.0253 10.7132C69.285 14.3503 70.4785 17.5907 71.6057 20.4344C71.9372 19.7731 72.998 16.7641 74.7882 11.4075C76.7773 5.45578 77.9045 2.21537 78.1697 1.68633C81.8164 0.958891 85.43 0.595174 89.0104 0.595174C91.1984 0.595174 93.1212 0.727435 94.7788 0.991958C93.1875 6.94371 91.2316 12.6971 88.9109 18.2521C86.5903 23.7409 83.4409 30.6515 79.4627 38.984C76.2801 45.4648 73.6279 51.152 71.5062 56.0457C69.3845 60.8732 67.4948 65.8 65.8372 70.8259Z" fill="white"/>
<path d="M170.019 8.63005C173.136 13.5237 175.191 18.4504 176.186 23.4102V23.311C176.716 24.9643 177.047 27.1135 177.18 29.7588C177.047 31.7427 176.981 33.2306 176.981 34.2226L176.882 35.8097C176.882 36.2726 176.815 37.8267 176.683 40.4719C176.55 43.1172 176.219 45.7293 175.688 48.3084C174.428 52.0117 172.671 55.6489 170.417 59.22C168.229 62.7249 165.61 66.3621 162.56 70.1315C156.991 70.2638 152.416 70.3299 148.835 70.3299L141.674 70.4291L133.917 70.5283C132.723 61.8652 132.127 50.9536 132.127 37.7936C132.127 32.0403 132.16 27.7418 132.226 24.8982C132.292 22.3191 132.326 17.8883 132.326 11.6059C132.326 10.0188 132.259 7.63808 132.127 4.46381L132.027 1.48794L132.723 1.38874C136.238 0.462914 140.315 0 144.956 0L147.542 0.0991946H150.228C151.09 0.165324 152.416 0.198389 154.206 0.198389C155.996 0.198389 157.322 0.165324 158.184 0.0991946C160.637 0.7605 162.991 1.95085 165.245 3.67025C167.5 5.32351 169.29 7.2413 170.616 9.42361L170.019 8.63005ZM160.969 36.1073C160.969 34.917 160.836 33.7597 160.571 32.6355C160.041 29.858 159.411 27.6095 158.681 25.8901C157.952 24.1046 156.825 22.9473 155.3 22.4183H155.499C153.907 22.286 152.714 22.2199 151.918 22.2199C150.592 22.2199 149.73 22.286 149.333 22.4183C149.465 24.799 149.531 27.0474 149.531 29.1636V31.7427L149.432 34.421C149.366 35.942 149.333 38.2235 149.333 41.2655C149.333 44.1752 149.299 46.3906 149.233 47.9116C150.228 48.3084 150.924 48.5068 151.322 48.5068H152.615C153.675 48.5068 154.438 48.4076 154.902 48.2092C155.963 47.9447 157.156 46.7543 158.482 44.6382C160.14 42.1252 160.969 39.2816 160.969 36.1073Z" fill="white"/>
<path d="M224.264 17.5577C224.463 19.6077 224.563 21.6908 224.563 23.807L224.463 25.5925V27.3781C224.331 29.5604 224.264 32.7677 224.264 37.0001C224.264 41.6954 224.165 45.2664 223.966 47.7132L223.668 50.9867C223.336 56.3433 221.977 60.9063 219.59 64.6757C218.596 66.0645 217.104 67.2879 215.115 68.346C213.125 69.4041 210.937 70.2638 208.551 70.9251C206.097 71.6525 203.213 72.0162 199.898 72.0162C198.373 72.0162 197.312 71.9832 196.715 71.917C193.466 71.6525 190.549 70.9582 187.963 69.8339C185.444 68.6436 183.587 66.9242 182.394 64.6757C180.802 61.6999 179.94 57.9635 179.808 53.4666L179.609 50.2923C179.543 49.7633 179.509 48.6721 179.509 47.0189C179.178 41.5962 179.012 36.4049 179.012 31.4451C179.012 28.4031 179.112 25.3611 179.311 22.3191C179.509 19.0126 180.073 15.8052 181.001 12.6971C181.996 9.52281 183.488 6.74532 185.477 4.36462L187.665 3.17427C191.908 1.12422 196.55 0.0991946 201.589 0.0991946C204.771 0.0991946 207.755 0.529044 210.54 1.38874C213.391 2.18231 215.877 3.37266 217.999 4.9598C220.319 7.07598 221.844 9.15909 222.574 11.2091C223.369 13.3253 223.933 15.4415 224.264 17.5577ZM208.849 28.37L208.451 23.2118C208.318 21.3602 207.854 19.74 207.059 18.3512C206.329 16.8964 205.368 15.8713 204.174 15.2762C203.644 15.0778 203.114 14.9786 202.583 14.9786C200.992 14.9786 199.434 15.5076 197.909 16.5657C197.113 17.227 196.317 18.1859 195.522 19.4424C194.792 20.6327 194.229 21.8562 193.831 23.1126C193.168 26.0224 192.837 29.7257 192.837 34.2226C192.837 36.471 192.87 38.1574 192.936 39.2816V39.1824C193.201 40.505 193.4 42.2575 193.533 44.4398L193.632 45.8285C193.897 49.135 194.262 51.5819 194.726 53.169V53.0698C195.323 54.3924 196.185 55.4175 197.312 56.1449C198.505 56.8062 199.765 57.1368 201.091 57.1368C202.152 57.1368 203.213 56.9054 204.274 56.4425C205.401 55.9134 206.362 55.186 207.158 54.2602C207.821 53.4005 208.219 52.673 208.352 52.0779C208.551 51.4827 208.65 50.5569 208.65 49.3004C208.65 48.1762 208.683 47.3495 208.749 46.8205L208.849 45.5309L208.948 43.6462V42.2575L209.048 40.3727V35.6113L208.849 28.866V28.37Z" fill="white"/>
<path d="M257.522 34.1234C260.373 34.1234 263.589 34.2557 267.169 34.5202L270.352 34.7186L272.043 34.8178L272.242 36.9009C272.308 37.6283 272.441 39.2155 272.64 41.6623C272.838 44.043 272.938 46.093 272.938 47.8124C272.938 51.1851 272.673 54.5247 272.142 57.8312C271.678 60.8071 270.518 63.3201 268.661 65.3701C266.805 67.4202 264.451 68.9742 261.6 70.0323C256.76 71.4872 252.284 72.2146 248.173 72.2146C244.991 72.2146 242.107 71.7187 239.521 70.7267C234.283 68.4121 230.868 64.3782 229.277 58.6248C228.813 56.8393 228.415 54.5247 228.083 51.6811C228.083 52.4085 227.719 46.4898 226.989 33.925C226.989 31.8088 227.023 30.1225 227.089 28.866C227.221 22.9143 227.553 18.5496 228.083 15.7721C229.012 10.4817 231.167 6.58 234.548 4.06703C237.068 2.21538 240.515 0.958893 244.891 0.297584C246.416 0.0991946 247.975 0 249.566 0C256.196 0 261.633 1.68633 265.877 5.05899C270.12 8.36552 272.242 13.0939 272.242 19.244L272.043 22.4183V23.807C271.579 23.8732 271.015 23.9062 270.352 23.9062C269.689 23.9062 269.092 23.9062 268.562 23.9062H263.788C261.268 23.9062 258.848 23.774 256.528 23.5094C254.936 18.0867 253.146 15.3754 251.157 15.3754C250.826 15.3754 250.461 15.3423 250.063 15.2762C249.665 15.21 249.301 15.177 248.969 15.177C247.908 15.177 246.98 15.5738 246.184 16.3673C246.118 16.4335 245.886 17.227 245.488 18.748C244.228 22.9143 243.598 29.0644 243.598 37.1985C243.598 41.2324 243.731 44.572 243.996 47.2173C244.46 51.648 245.356 54.4586 246.682 55.6489C247.345 56.0457 247.875 56.3102 248.273 56.4425C249.002 56.5086 249.864 56.4755 250.859 56.3433C251.92 56.1449 252.848 55.8804 253.643 55.5497C254.771 55.0868 255.5 54.0287 255.832 52.3754C256.03 51.5819 256.229 50.5569 256.428 49.3004C256.627 48.0439 256.693 47.2834 256.627 47.0189H254.24C251.787 47.1511 249.897 46.9527 248.571 46.4237C248.439 45.035 248.372 43.3156 248.372 41.2655V40.1743C248.372 39.9098 248.372 39.48 248.372 38.8848C248.439 38.2235 248.372 37.0001 248.173 35.2146C248.704 35.2146 249.831 35.0823 251.555 34.8178C254.207 34.3549 256.196 34.1234 257.522 34.1234Z" fill="white"/>
<path d="M45.0534 86.1162C44.6555 91.4728 43.5947 102.517 41.8708 119.248C40.4121 133.995 39.2849 145.865 38.4893 154.859C37.6273 155.124 36.4007 155.256 34.8094 155.256C33.2845 155.322 30.9307 155.355 27.7481 155.355C26.9525 154.363 26.2894 153.14 25.759 151.685C25.2949 150.164 24.7976 148.279 24.2672 146.031C23.6041 143.319 23.1068 141.567 22.7753 140.773C20.5873 148.444 19.2281 153.14 18.6976 154.859C16.5759 155.256 14.5205 155.454 12.5314 155.454C10.6749 155.454 8.91785 155.322 7.26026 155.057L6.66352 150.594C4.93963 140.343 3.48094 129.597 2.28748 118.355C1.16031 107.047 0.397822 96.2011 0 85.8186C2.58584 85.3557 5.23799 85.1243 7.95644 85.1243L12.4319 85.2235C14.2884 85.3557 15.8797 85.4219 17.2058 85.4219C17.471 88.3977 17.6036 93.7543 17.6036 101.492V103.376C17.6036 111.444 17.8025 117.231 18.2004 120.736C18.4656 119.81 18.7971 118.355 19.1949 116.371C19.5264 114.453 19.8911 112.833 20.2889 111.51C20.6868 110.188 21.3166 109.03 22.1786 108.039C24.3003 109.427 25.9247 113.66 27.0519 120.736L27.3503 107.543C27.6155 97.0939 27.9139 89.9518 28.2454 86.1162C30.7649 85.5211 33.616 85.2235 36.7986 85.2235C39.3844 85.2235 41.9039 85.3557 44.3572 85.6202L45.0534 86.1162Z" fill="white"/>
<path d="M88.5465 155.454C86.4248 155.917 84.1373 156.149 81.6841 156.149C78.7667 156.149 75.5841 155.785 72.1364 155.057C71.6722 153.801 70.9429 151.156 69.9483 147.122C68.9538 143.022 68.1581 140.31 67.5614 138.988L65.5723 138.888L63.8815 138.988C63.6163 139.781 63.1854 141.732 62.5886 144.84C62.1245 147.419 61.6604 149.535 61.1962 151.189C60.7321 152.776 60.0691 154.231 59.2071 155.553C58.5441 155.686 57.5495 155.752 56.2235 155.752C55.6267 155.752 54.3338 155.686 52.3447 155.553C46.5763 155.289 43.3605 155.157 42.6975 155.157C42.6975 154.826 42.7638 154.065 42.8964 152.875C43.029 151.619 43.2279 150.23 43.4932 148.709L45.6812 136.21C47.4051 125.96 49.0295 117.032 50.5545 109.427C52.1458 101.822 54.2012 93.7874 56.7207 85.3227C57.649 85.1904 58.9088 85.1243 60.5001 85.1243H61.0968C65.4065 85.1243 69.6168 84.9589 73.7276 84.6283C74.5233 87.7364 75.2526 90.8115 75.9157 93.8535C76.5787 96.8294 77.1754 99.5077 77.7059 101.888C79.8276 111.081 81.2531 117.198 81.9825 120.24L88.5465 155.454ZM67.7603 126.291C66.3016 113.064 65.6054 106.451 65.6717 106.451L65.5723 105.459C65.5723 105.459 65.506 106.253 65.3734 107.84C65.1745 112.8 64.8761 116.735 64.4783 119.644L63.5832 126.291H67.7603Z" fill="white"/>
<path d="M133.659 148.014C133.725 148.808 133.758 149.965 133.758 151.486C133.758 152.875 133.626 153.867 133.361 154.462C133.162 154.991 132.83 155.322 132.366 155.454C131.902 155.586 131.106 155.653 129.979 155.653H129.283L127.692 155.553L125.106 155.653C120.995 155.785 114.928 155.851 106.905 155.851C99.2805 155.851 93.2137 155.818 88.705 155.752V153.47C89.1692 142.559 89.4012 131.581 89.4012 120.537C89.4012 117.297 89.3349 111.709 89.2023 103.773V97.7222C89.136 96.5979 89.1028 94.5809 89.1028 91.6712L89.0034 85.2235C89.9316 84.8928 91.2246 84.6283 92.8822 84.4299C94.5397 84.1654 96.1973 84.0331 97.8549 84.0331C99.7114 84.0331 101.568 84.1654 103.424 84.4299C105.281 84.6944 106.773 85.0581 107.9 85.521C107.767 90.2825 107.701 94.085 107.701 96.9286C107.701 100.896 107.767 106.848 107.9 114.784C107.966 118.752 107.999 124.604 107.999 132.342V138.789C110.187 138.789 112.873 138.888 116.055 139.087L121.326 139.285C124.111 139.484 126.73 139.583 129.183 139.583C130.907 139.583 132.432 139.517 133.758 139.384C133.758 140.905 133.725 141.897 133.659 142.36V142.261C133.526 144.047 133.493 145.336 133.559 146.13L133.659 148.014Z" fill="white"/>
<path d="M180.098 154.958C177.91 155.487 175.557 155.752 173.037 155.752C171.777 155.752 170.02 155.686 167.766 155.553C167.037 155.487 165.677 155.454 163.688 155.454C161.898 153.338 160.307 150.99 158.914 148.411C157.522 145.766 155.964 142.493 154.24 138.591C153.909 137.93 153.61 137.202 153.345 136.409C153.146 135.549 153.047 135.053 153.047 134.921L152.748 133.73L152.35 132.441C152.35 135.813 152.417 140.013 152.549 145.039C152.682 149.139 152.748 152.412 152.748 154.859C150.361 155.52 147.576 155.851 144.394 155.851C141.145 155.851 138.095 155.52 135.244 154.859C134.979 149.106 134.846 142.592 134.846 135.317C134.846 127.448 134.946 119.611 135.145 111.808C135.343 103.872 135.443 95.0439 135.443 85.3227C137.631 85.2565 140.714 85.2896 144.692 85.4219C145.952 85.488 148.306 85.521 151.754 85.521C151.82 88.034 151.853 94.1842 151.853 103.971V105.955C154.041 102.45 155.831 99.2762 157.224 96.4326C159.544 92.0019 161.765 88.2985 163.887 85.3227L170.451 85.4219C173.833 85.2896 177.015 85.4549 179.999 85.9178C179.203 88.6953 178.109 91.4728 176.717 94.2503C175.325 96.9617 173.369 100.5 170.849 104.864L170.252 105.856C167.733 109.824 165.313 114.387 162.992 119.545L180.098 154.958Z" fill="white"/>
<path d="M225.846 146.328C225.846 149.701 225.482 152.71 224.752 155.355C221.835 155.355 217.525 155.421 211.823 155.553L198.795 155.653C192.894 155.653 186.992 155.454 181.091 155.057C181.158 152.941 181.058 144.708 180.793 130.358C180.594 122.224 180.495 115.974 180.495 111.61C180.495 102.55 180.727 94.118 181.191 86.3146L189.943 86.017C199.756 85.6203 207.248 85.4219 212.42 85.4219C216.862 85.4219 221.172 85.5872 225.349 85.9178C225.614 87.3066 225.747 88.9268 225.747 90.7784C225.747 91.7704 225.681 93.3906 225.548 95.639C225.415 97.7552 225.349 99.4085 225.349 100.599C221.371 101.459 216.929 101.888 212.022 101.888L199.093 101.988C198.761 105.096 198.596 107.675 198.596 109.725C198.596 111.312 198.795 112.701 199.192 113.891L205.756 113.098C206.685 113.098 208.077 113.164 209.934 113.296L211.226 113.395C211.558 115.379 211.724 117.528 211.724 119.843L211.525 127.779C209.403 128.374 206.552 128.671 202.972 128.671L200.386 128.572C199.922 128.572 199.623 128.638 199.491 128.77L199.093 133.929C199.093 136.64 199.226 138.888 199.491 140.674C202.939 140.674 206.287 140.773 209.536 140.972C210.663 141.038 212.055 141.104 213.713 141.17C215.37 141.236 217.326 141.269 219.581 141.269L225.648 141.071C225.78 144.113 225.846 145.865 225.846 146.328Z" fill="white"/>
<path d="M268.557 136.706C271.209 140.74 273.331 144.146 274.922 146.923C276.58 149.701 277.939 152.511 279 155.355H277.409C276.613 155.355 274.823 155.421 272.038 155.553C269.253 155.686 267.032 155.752 265.375 155.752C264.446 155.752 263.054 155.686 261.197 155.553L259.507 155.454C255.197 145.667 251.351 138.326 247.97 133.433V136.012C247.97 140.112 248.202 145.402 248.666 151.883V151.784C248.732 152.247 248.766 153.04 248.766 154.165C246.511 155.223 242.798 155.752 237.627 155.752L235.24 155.653H229.968C229.239 155.653 228.874 149.668 228.874 137.698C228.874 126.853 228.775 116.007 228.576 105.162C228.377 94.2503 228.079 87.7034 227.681 85.521L230.366 85.1243C234.344 84.5952 237.626 84.1984 240.212 83.9339C242.798 83.6694 245.45 83.5371 248.169 83.5371C251.086 83.5371 253.573 83.6694 255.628 83.9339C259.474 84.3968 263.054 85.7194 266.369 87.9018C269.751 90.0841 272.436 92.7624 274.425 95.9366C276.48 99.1109 277.508 102.384 277.508 105.757C277.508 108.997 276.447 112.535 274.326 116.371C273 118.752 271.242 120.736 269.054 122.323C266.866 123.91 264.247 124.869 261.197 125.199C262.988 128.374 265.076 131.68 267.463 135.119C267.927 135.913 268.292 136.442 268.557 136.706ZM254.236 111.411C255.164 111.147 255.893 110.485 256.424 109.427C256.954 108.369 257.219 107.113 257.219 105.658C257.219 102.946 256.556 101.194 255.23 100.4C254.368 99.8714 253.473 99.5407 252.545 99.4085C251.683 99.2762 250.688 99.2101 249.561 99.2101L245.285 99.9045C245.417 101.888 245.483 103.575 245.483 104.963C245.483 108.535 245.583 110.717 245.782 111.51C246.909 111.643 248.301 111.709 249.959 111.709C251.484 111.709 252.91 111.61 254.236 111.411Z" fill="white"/>
<path d="M104.867 34.5487C105.172 38.3818 104.617 40.1258 101.786 39.9143C98.4276 39.6635 96.401 39.7419 95.9636 35.5643C95.5834 31.9336 96.4594 28.2293 99.2544 28.0083C102.049 27.7873 104.202 30.4732 104.867 34.5487Z" fill="white"/>
<path d="M115.408 37.7689C112.782 40.5841 110.006 42.3305 107.954 40.4257C105.901 38.5208 106.366 34.6944 108.992 31.8793C111.618 29.0642 114.963 28.7392 117.464 30.2312C119.516 32.1361 118.034 34.9538 115.408 37.7689Z" fill="white"/>
<path d="M123.242 43.375C121.14 46.5982 117.263 47.0945 115.283 45.8095C113.302 44.5245 114.637 42.0354 116.739 38.8122C118.841 35.589 121.525 35.0108 123.505 36.2958C125.486 37.5808 125.345 40.1518 123.242 43.375Z" fill="white"/>
<path d="M112.124 62.0458C109.133 67.033 101.436 67.93 94.9317 64.0493C88.4277 60.1686 85.58 52.9798 88.5712 47.9926C91.5624 43.0054 99.2599 42.1084 105.764 45.9891C112.268 49.8698 115.116 57.0586 112.124 62.0458Z" fill="white"/>
<path d="M121.804 54.2863C118.792 55.0596 115.121 54.813 115.377 52.5713C116.085 49.5685 116.751 48.9254 119.763 48.1522C122.775 47.3789 124.621 47.7162 126.285 49.7712C127.95 51.8262 124.816 53.5131 121.804 54.2863Z" fill="white"/>
<path d="M109.768 43.4351C105.219 39.2437 99.9467 42.3748 94.2589 44.0578C99.2801 48.9922 112.983 55.6442 113 55.1926C111.767 48.4643 113.963 47.2998 109.768 43.4351Z" fill="white"/>
</svg>
