<svg width="134" height="87" viewBox="0 0 134 87" fill="none" xmlns="http://www.w3.org/2000/svg">
<path d="M30.5167 83.5315L32.1865 79.2943H32.4204L33.8804 83.5636C33.9934 83.9006 34.0687 84.144 34.1063 84.2938C34.1493 84.1173 34.2246 83.8765 34.3322 83.5716L35.8164 79.182H36.2197L34.2112 84.9679H33.9853L32.493 80.7147C32.4715 80.6452 32.4473 80.5756 32.4204 80.5061C32.3989 80.4365 32.3801 80.375 32.3639 80.3215C32.3478 80.268 32.3317 80.2225 32.3155 80.1851L32.2833 80.0888C32.2779 80.062 32.2752 80.046 32.2752 80.0406C32.2107 80.2332 32.1273 80.4553 32.0252 80.7067L30.3393 84.9679H30.1134L28.0887 79.182H28.5163L29.9924 83.4994C30.0623 83.692 30.1188 83.8658 30.1618 84.021C30.2102 84.1761 30.2371 84.2617 30.2425 84.2778C30.2694 84.1547 30.3608 83.9059 30.5167 83.5315Z" fill="white"/>
<path d="M37.3171 84.9197V79.7116H39.7612V80.0326H37.6881V81.9265H39.5595V82.2395H37.6881V84.5827H39.8419V84.9197H37.3171Z" fill="white"/>
<path d="M40.7428 79.182H41.1704V79.5752L40.8316 80.1931H40.646L40.7428 79.7036V79.182Z" fill="white"/>
<path d="M42.4295 84.9197V79.7357C42.8919 79.6982 43.2845 79.6795 43.6072 79.6795C44.1019 79.6795 44.5106 79.8079 44.8333 80.0647C45.1559 80.3162 45.3173 80.6773 45.3173 81.1481C45.3173 81.4637 45.2258 81.7553 45.043 82.0228C44.8602 82.2903 44.6531 82.507 44.4219 82.6728C45.0618 83.5181 45.4571 84.0236 45.6077 84.1895C45.9142 84.5051 46.2476 84.6844 46.6079 84.7272L46.5998 84.9759C46.2987 84.9706 46.054 84.9278 45.8658 84.8475C45.6776 84.7619 45.4893 84.6202 45.3011 84.4222C45.1183 84.2243 44.7123 83.692 44.0831 82.8253C43.6475 82.8253 43.22 82.8119 42.8005 82.7851V84.9197H42.4295ZM43.8814 82.5203C44.0912 82.5203 44.317 82.3812 44.559 82.103C44.801 81.8248 44.922 81.5012 44.922 81.132C44.922 80.7629 44.7956 80.482 44.5429 80.2894C44.2901 80.0968 43.9621 80.0005 43.5588 80.0005C43.3437 80.0005 43.0909 80.0112 42.8005 80.0326V82.4802C43.1877 82.507 43.548 82.5203 43.8814 82.5203Z" fill="white"/>
<path d="M47.3371 84.9197V79.7116H49.7812V80.0326H47.7081V81.9265H49.5796V82.2395H47.7081V84.5827H49.8619V84.9197H47.3371Z" fill="white"/>
<path d="M55.9312 84.6469C56.6196 84.6469 57.1708 84.4623 57.5849 84.0932C58.0043 83.7241 58.214 83.1677 58.214 82.424C58.214 81.6804 57.9774 81.0892 57.5042 80.6505C57.0364 80.2118 56.4583 79.9925 55.7699 79.9925C55.2806 79.9925 54.9041 80.0032 54.6406 80.0246V84.5907C54.9633 84.6282 55.3935 84.6469 55.9312 84.6469ZM55.7699 79.6635C56.5766 79.6635 57.2488 79.9122 57.7865 80.4098C58.3297 80.902 58.6012 81.5734 58.6012 82.424C58.6012 83.2747 58.3512 83.914 57.8511 84.342C57.3563 84.77 56.7164 84.9839 55.9312 84.9839C55.3881 84.9839 54.8288 84.9572 54.2534 84.9037V79.7116C54.6836 79.6795 55.1891 79.6635 55.7699 79.6635Z" fill="white"/>
<path d="M62.5317 85C61.7842 85 61.1577 84.7405 60.6522 84.2216C60.1467 83.7027 59.894 83.0687 59.894 82.3197C59.894 81.5654 60.1467 80.9287 60.6522 80.4098C61.1577 79.8909 61.7842 79.6314 62.5317 79.6314C63.2792 79.6314 63.9057 79.8909 64.4111 80.4098C64.9166 80.9287 65.1694 81.5654 65.1694 82.3197C65.1694 83.0687 64.9166 83.7027 64.4111 84.2216C63.9057 84.7405 63.2792 85 62.5317 85ZM62.5317 79.9604C61.8864 79.9604 61.3486 80.1878 60.9184 80.6425C60.4936 81.0973 60.2811 81.6563 60.2811 82.3197C60.2811 82.9777 60.4936 83.5341 60.9184 83.9889C61.3486 84.4383 61.8864 84.663 62.5317 84.663C63.1824 84.663 63.7201 84.4383 64.145 83.9889C64.5698 83.5341 64.7822 82.9777 64.7822 82.3197C64.7822 81.6563 64.5698 81.0973 64.145 80.6425C63.7201 80.1878 63.1824 79.9604 62.5317 79.9604Z" fill="white"/>
<path d="M68.9724 79.9604C68.3754 79.9604 67.8726 80.1878 67.4639 80.6425C67.0606 81.0919 66.8589 81.6456 66.8589 82.3037C66.8589 82.9617 67.0875 83.5208 67.5446 83.9808C68.0017 84.4356 68.5395 84.663 69.1579 84.663C69.7817 84.663 70.2657 84.5907 70.6098 84.4463V82.3037H70.9809V84.6148C70.5614 84.8716 69.9672 85 69.1982 85C68.4292 85 67.7812 84.7405 67.2542 84.2216C66.7272 83.7027 66.4637 83.066 66.4637 82.3117C66.4637 81.552 66.7003 80.9154 67.1735 80.4018C67.6521 79.8882 68.2679 79.6314 69.0208 79.6314C69.6284 79.6314 70.2226 79.725 70.8034 79.9123L70.7066 80.2172C70.1474 80.046 69.5693 79.9604 68.9724 79.9604Z" fill="white"/>
<path d="M75.6484 84.9197V79.7437C76.0517 79.7009 76.4766 79.6795 76.9229 79.6795C77.3746 79.6795 77.7564 79.7999 78.0683 80.0406C78.3802 80.276 78.5362 80.6345 78.5362 81.116C78.5362 81.5975 78.3238 81.9934 77.8989 82.3037C77.4741 82.6086 76.9713 82.7611 76.3905 82.7611C76.3636 82.7611 76.334 82.7611 76.3018 82.7611V82.5043C76.3233 82.5043 76.3421 82.5043 76.3582 82.5043C76.8369 82.5043 77.2536 82.3785 77.6085 82.1271C77.9635 81.8757 78.1409 81.5493 78.1409 81.1481C78.1409 80.7468 78.0146 80.4553 77.7618 80.2734C77.5144 80.0915 77.1864 80.0005 76.7777 80.0005C76.5626 80.0005 76.3098 80.0112 76.0195 80.0326V84.9197H75.6484Z" fill="white"/>
<path d="M79.9101 84.9197V79.7116H82.3542V80.0326H80.2811V81.9265H82.1525V82.2395H80.2811V84.5827H82.4349V84.9197H79.9101Z" fill="white"/>
<path d="M86.2347 85C85.4872 85 84.8607 84.7405 84.3552 84.2216C83.8497 83.7027 83.597 83.0687 83.597 82.3197C83.597 81.5654 83.8497 80.9287 84.3552 80.4098C84.8607 79.8909 85.4872 79.6314 86.2347 79.6314C86.9822 79.6314 87.6087 79.8909 88.1142 80.4098C88.6197 80.9287 88.8724 81.5654 88.8724 82.3197C88.8724 83.0687 88.6197 83.7027 88.1142 84.2216C87.6087 84.7405 86.9822 85 86.2347 85ZM86.2347 79.9604C85.5894 79.9604 85.0516 80.1878 84.6214 80.6425C84.1966 81.0973 83.9842 81.6563 83.9842 82.3197C83.9842 82.9777 84.1966 83.5341 84.6214 83.9889C85.0516 84.4383 85.5894 84.663 86.2347 84.663C86.8854 84.663 87.4232 84.4383 87.848 83.9889C88.2728 83.5341 88.4853 82.9777 88.4853 82.3197C88.4853 81.6563 88.2728 81.0973 87.848 80.6425C87.4232 80.1878 86.8854 79.9604 86.2347 79.9604Z" fill="white"/>
<path d="M90.4894 84.9197V79.7437C90.8927 79.7009 91.3175 79.6795 91.7639 79.6795C92.2156 79.6795 92.5974 79.7999 92.9093 80.0406C93.2212 80.276 93.3772 80.6345 93.3772 81.116C93.3772 81.5975 93.1648 81.9934 92.7399 82.3037C92.3151 82.6086 91.8123 82.7611 91.2315 82.7611C91.2046 82.7611 91.175 82.7611 91.1428 82.7611V82.5043C91.1643 82.5043 91.1831 82.5043 91.1992 82.5043C91.6778 82.5043 92.0946 82.3785 92.4495 82.1271C92.8045 81.8757 92.9819 81.5493 92.9819 81.1481C92.9819 80.7468 92.8555 80.4553 92.6028 80.2734C92.3554 80.0915 92.0274 80.0005 91.6187 80.0005C91.4036 80.0005 91.1508 80.0112 90.8604 80.0326V84.9197H90.4894Z" fill="white"/>
<path d="M94.7511 84.9197V79.7116H95.1221V84.5827H97.5259V84.9197H94.7511Z" fill="white"/>
<path d="M98.6267 84.9197V79.7116H101.071V80.0326H98.9978V81.9265H100.869V82.2395H98.9978V84.5827H101.152V84.9197H98.6267Z" fill="white"/>
<path d="M22.7861 34.4703C21.7823 34.3142 20.7 34.2362 19.5394 34.2362C19.4139 34.2362 19.1159 34.2362 18.6453 34.2362C18.1748 34.2674 17.0141 34.2986 15.1633 34.3298C15.1006 32.6446 15.0692 31.1622 15.0692 29.8827L14.7398 19.5842L14.1752 20.6609C13.7046 21.5035 13.3282 22.0964 13.0459 22.4397C12.7949 22.783 12.5126 22.9546 12.1989 22.9546C11.5088 22.9234 10.6932 21.7999 9.75209 19.5842C9.72072 19.8963 9.70503 20.302 9.70503 20.8013C9.7364 21.3006 9.75209 21.6907 9.75209 21.9716V23.1419C9.75209 26.169 9.89325 29.8203 10.1756 34.0958C8.82669 34.3142 7.46212 34.4235 6.08186 34.4235L2.88217 34.3298H2.22341C2.1293 34.3298 2.06656 34.3142 2.03519 34.283C2.00382 34.283 1.98814 34.2518 1.98814 34.1894L1.94108 33.6745C1.87835 32.4886 1.84698 30.0544 1.84698 26.3719C1.84698 22.0652 1.89403 13.92 1.98814 1.93623C2.45868 1.78019 2.94491 1.67097 3.44682 1.60855C3.9801 1.54613 4.73297 1.51493 5.70542 1.51493L8.01108 1.56174C8.70121 1.56174 9.21881 1.54613 9.56387 1.51493C9.97167 1.98304 10.3324 2.57599 10.6461 3.29376C10.9598 4.01154 11.5401 5.4783 12.3871 7.69405C12.4185 7.63164 12.5126 7.31956 12.6695 6.75782C12.8577 6.19608 13.5949 4.37043 14.881 1.28087C15.2888 1.37449 15.8221 1.4213 16.4808 1.4213C16.9828 1.4213 17.8297 1.3901 19.0218 1.32768L22.9743 1.23406L22.7861 34.4703Z" fill="white"/>
<path d="M32.1488 34.4235C31.3959 34.3298 30.6744 34.283 29.9843 34.283C29.5138 34.283 28.8707 34.3142 28.0551 34.3766L26.0788 34.4235C25.4514 34.4235 24.7299 34.3766 23.9143 34.283C24.6672 32.0361 26.1102 28.1663 28.2433 22.6738L30.1725 17.8053C29.8588 16.557 29.4667 15.3399 28.9962 14.154C28.5256 12.9369 27.9296 11.5014 27.2081 9.84739C26.3611 7.75647 25.7181 6.14927 25.2789 5.02579C24.8711 3.90232 24.5103 2.71642 24.1966 1.46812C24.7927 1.49932 25.7181 1.45251 26.9728 1.32768C27.9767 1.20285 28.7138 1.14043 29.1844 1.14043C30.2823 1.14043 31.192 1.34328 31.9135 1.74898C32.1959 2.90367 32.6193 4.33922 33.184 6.05565C33.78 7.77207 34.3447 9.30125 34.8779 10.6432C35.0348 10.3311 35.5367 8.91115 36.3837 6.38333C37.3248 3.57464 37.858 2.04546 37.9835 1.79579C39.7088 1.45251 41.4185 1.28087 43.1124 1.28087C44.1476 1.28087 45.0573 1.34328 45.8416 1.46812C45.0887 4.27681 44.1633 6.99188 43.0654 9.61333C41.9674 12.2036 40.4774 15.4648 38.5952 19.3969C37.0895 22.4553 35.8347 25.1392 34.8309 27.4485C33.8271 29.7267 32.933 32.0517 32.1488 34.4235Z" fill="white"/>
<path d="M81.4392 5.07261C82.9136 7.38198 83.886 9.70695 84.3566 12.0475V12.0007C84.6075 12.7809 84.7644 13.7952 84.8271 15.0435C84.7644 15.9797 84.733 16.6819 84.733 17.15L84.686 17.899C84.686 18.1174 84.6546 18.8508 84.5918 20.0991C84.5291 21.3474 84.3723 22.5801 84.1213 23.7972C83.5253 25.5449 82.694 27.2613 81.6274 28.9465C80.5922 30.6005 79.3531 32.3169 77.9101 34.0958C75.2751 34.1582 73.1106 34.1894 71.4167 34.1894L68.0288 34.2362L64.3585 34.283C63.7939 30.1948 63.5116 25.0455 63.5116 18.8352C63.5116 16.1201 63.5272 14.0916 63.5586 12.7497C63.59 11.5326 63.6057 9.44168 63.6057 6.47695C63.6057 5.72797 63.5743 4.60449 63.5116 3.10652L63.4645 1.70217L63.7939 1.65536C65.4565 1.21845 67.3857 1 69.5816 1L70.805 1.04681H72.0754C72.4832 1.07802 73.1106 1.09362 73.9576 1.09362C74.8046 1.09362 75.432 1.07802 75.8398 1.04681C77.0004 1.35889 78.114 1.92063 79.1806 2.73203C80.2472 3.51222 81.0941 4.41724 81.7215 5.4471L81.4392 5.07261ZM77.1573 18.0394C77.1573 17.4777 77.0945 16.9315 76.9691 16.401C76.7181 15.0903 76.4201 14.0292 76.075 13.2178C75.73 12.3752 75.1967 11.8291 74.4752 11.5794H74.5693C73.8164 11.517 73.2518 11.4858 72.8753 11.4858C72.248 11.4858 71.8401 11.517 71.6519 11.5794C71.7147 12.7029 71.746 13.764 71.746 14.7626V15.9797L71.699 17.2436C71.6676 17.9614 71.6519 19.0381 71.6519 20.4736C71.6519 21.8467 71.6363 22.8922 71.6049 23.61C72.0754 23.7972 72.4048 23.8909 72.593 23.8909H73.2047C73.7066 23.8909 74.0674 23.844 74.287 23.7504C74.7889 23.6256 75.3535 23.0638 75.9809 22.0652C76.7652 20.8793 77.1573 19.5374 77.1573 18.0394Z" fill="white"/>
<path d="M107.104 9.28565C107.198 10.2531 107.245 11.2361 107.245 12.2348L107.198 13.0774V13.92C107.135 14.9498 107.104 16.4634 107.104 18.4607C107.104 20.6765 107.057 22.3617 106.962 23.5164L106.821 25.0611C106.664 27.589 106.021 29.7423 104.892 31.5211C104.422 32.1765 103.716 32.7538 102.775 33.2532C101.834 33.7525 100.798 34.1582 99.6691 34.4703C98.5084 34.8135 97.1438 34.9852 95.5753 34.9852C94.8538 34.9852 94.3519 34.9696 94.0696 34.9384C92.5325 34.8135 91.1522 34.4859 89.9288 33.9553C88.7368 33.3936 87.8584 32.5822 87.2938 31.5211C86.5409 30.1168 86.1331 28.3536 86.0704 26.2314L85.9763 24.7335C85.9449 24.4838 85.9292 23.9689 85.9292 23.1887C85.7724 20.6296 85.6939 18.1798 85.6939 15.8393C85.6939 14.4037 85.741 12.9682 85.8351 11.5326C85.9292 9.97222 86.1959 8.45864 86.635 6.99188C87.1056 5.49391 87.8114 4.18319 88.7525 3.05971L89.7877 2.49797C91.7953 1.53053 93.9912 1.04681 96.3753 1.04681C97.881 1.04681 99.2926 1.24966 100.61 1.65536C101.959 2.02985 103.135 2.59159 104.139 3.34058C105.237 4.33923 105.959 5.32227 106.304 6.28971C106.68 7.28835 106.947 8.287 107.104 9.28565ZM99.8102 14.3881L99.622 11.9539C99.5593 11.0801 99.3397 10.3155 98.9632 9.66014C98.6182 8.97357 98.1633 8.48985 97.5987 8.20898C97.3477 8.11536 97.0968 8.06854 96.8458 8.06854C96.0929 8.06854 95.3557 8.31821 94.6342 8.81753C94.2578 9.12961 93.8814 9.58212 93.5049 10.1751C93.1599 10.7368 92.8932 11.3141 92.705 11.9071C92.3913 13.2802 92.2345 15.0279 92.2345 17.15C92.2345 18.211 92.2502 19.0068 92.2815 19.5374V19.4906C92.407 20.1147 92.5011 20.9417 92.5639 21.9716L92.6109 22.6269C92.7364 24.1873 92.9089 25.342 93.1285 26.091V26.0442C93.4108 26.6683 93.8186 27.1521 94.3519 27.4953C94.9166 27.8074 95.5126 27.9635 96.14 27.9635C96.6419 27.9635 97.1438 27.8542 97.6457 27.6358C98.179 27.3861 98.6339 27.0428 99.0103 26.6059C99.324 26.2002 99.5122 25.8569 99.5749 25.5761C99.6691 25.2952 99.7161 24.8583 99.7161 24.2653C99.7161 23.7348 99.7318 23.3447 99.7632 23.0951L99.8102 22.4865L99.8573 21.5971V20.9417L99.9043 20.0523V17.8053L99.8102 14.6222V14.3881Z" fill="white"/>
<path d="M122.838 17.1032C124.187 17.1032 125.709 17.1656 127.403 17.2904L128.908 17.384L129.708 17.4309L129.803 18.4139C129.834 18.7572 129.897 19.5062 129.991 20.6609C130.085 21.7843 130.132 22.7518 130.132 23.5632C130.132 25.1548 130.006 26.7308 129.755 28.2911C129.536 29.6955 128.987 30.8814 128.109 31.8488C127.23 32.8163 126.117 33.5496 124.768 34.049C122.478 34.7355 120.36 35.0788 118.415 35.0788C116.91 35.0788 115.545 34.8448 114.322 34.3766C111.843 33.2844 110.228 31.3807 109.475 28.6656C109.255 27.823 109.067 26.7308 108.91 25.3888C108.91 25.7321 108.738 22.939 108.393 17.0096C108.393 16.0109 108.409 15.2151 108.44 14.6222C108.503 11.8135 108.659 9.75376 108.91 8.44304C109.35 5.94642 110.369 4.10517 111.969 2.91927C113.161 2.04546 114.792 1.45251 116.863 1.14043C117.584 1.04681 118.321 1 119.074 1C122.211 1 124.783 1.7958 126.791 3.38739C128.799 4.94778 129.803 7.17913 129.803 10.0814L129.708 11.5794V12.2348C129.489 12.266 129.222 12.2816 128.908 12.2816C128.595 12.2816 128.312 12.2816 128.062 12.2816H125.803C124.611 12.2816 123.466 12.2192 122.368 12.0943C121.615 9.53531 120.768 8.25579 119.827 8.25579C119.67 8.25579 119.498 8.24019 119.309 8.20898C119.121 8.17777 118.949 8.16217 118.792 8.16217C118.29 8.16217 117.851 8.34941 117.474 8.72391C117.443 8.75511 117.333 9.12961 117.145 9.84739C116.549 11.8135 116.251 14.7158 116.251 18.5543C116.251 20.458 116.314 22.034 116.439 23.2823C116.659 25.3732 117.082 26.6995 117.71 27.2613C118.023 27.4485 118.274 27.5734 118.462 27.6358C118.807 27.667 119.215 27.6514 119.686 27.589C120.188 27.4953 120.627 27.3705 121.003 27.2145C121.537 26.996 121.882 26.4967 122.039 25.7165C122.133 25.342 122.227 24.8583 122.321 24.2653C122.415 23.6724 122.446 23.3135 122.415 23.1887H121.286C120.125 23.2511 119.231 23.1575 118.604 22.9078C118.541 22.2524 118.509 21.441 118.509 20.4736V19.9587C118.509 19.8339 118.509 19.631 118.509 19.3501C118.541 19.0381 118.509 18.4607 118.415 17.6181C118.666 17.6181 119.2 17.5557 120.015 17.4309C121.27 17.2124 122.211 17.1032 122.838 17.1032Z" fill="white"/>
<path d="M22.3156 41.6391C22.1274 44.1669 21.6254 49.3786 20.8098 57.2742C20.1197 64.2335 19.5864 69.8353 19.21 74.0795C18.8022 74.2044 18.2218 74.2668 17.469 74.2668C16.7475 74.298 15.6339 74.3136 14.1281 74.3136C13.7517 73.8455 13.438 73.2681 13.187 72.5816C12.9675 71.8638 12.7322 70.9744 12.4812 69.9133C12.1675 68.6338 11.9323 67.8068 11.7754 67.4323C10.7402 71.0524 10.0972 73.2681 9.8462 74.0795C8.84237 74.2668 7.86992 74.3604 6.92883 74.3604C6.05049 74.3604 5.2192 74.298 4.43496 74.1732L4.15263 72.0666C3.33703 67.2294 2.6469 62.1582 2.08225 56.8529C1.54897 51.5164 1.18822 46.3983 1 41.4987C2.22341 41.2802 3.47819 41.171 4.76434 41.171L6.88178 41.2178C7.76013 41.2802 8.51299 41.3114 9.14038 41.3114C9.26586 42.7158 9.3286 45.2436 9.3286 48.8949V49.7843C9.3286 53.5917 9.42271 56.3223 9.61093 57.9764C9.7364 57.5394 9.89325 56.8529 10.0815 55.9166C10.2383 55.0116 10.4108 54.247 10.5991 53.6229C10.7873 52.9987 11.0853 52.4526 11.4931 51.9845C12.4969 52.6398 13.2655 54.6371 13.7988 57.9764L13.9399 51.7504C14.0654 46.8196 14.2066 43.4492 14.3634 41.6391C15.5554 41.3582 16.9043 41.2178 18.4101 41.2178C19.6335 41.2178 20.8255 41.2802 21.9862 41.4051L22.3156 41.6391Z" fill="white"/>
<path d="M42.893 74.3604C41.8892 74.5789 40.8069 74.6881 39.6462 74.6881C38.266 74.6881 36.7602 74.5164 35.129 74.1732C34.9094 73.5802 34.5644 72.3319 34.0938 70.4282C33.6233 68.4934 33.2469 67.2138 32.9645 66.5897L32.0234 66.5429L31.2235 66.5897C31.098 66.9642 30.8941 67.8848 30.6118 69.3516C30.3922 70.5687 30.1726 71.5673 29.9531 72.3475C29.7335 73.0965 29.4198 73.7831 29.012 74.4072C28.6983 74.4696 28.2277 74.5008 27.6003 74.5008C27.318 74.5008 26.7063 74.4696 25.7652 74.4072C23.0361 74.2824 21.5147 74.22 21.201 74.22C21.201 74.0639 21.2323 73.705 21.2951 73.1433C21.3578 72.5504 21.4519 71.895 21.5774 71.1772L22.6126 65.279C23.4282 60.4418 24.1968 56.2287 24.9183 52.6398C25.6711 49.051 26.6436 45.2592 27.8356 41.2646C28.2748 41.2022 28.8708 41.171 29.6237 41.171H29.906C31.945 41.171 33.937 41.093 35.8819 40.9369C36.2583 42.4037 36.6034 43.8549 36.9171 45.2904C37.2308 46.6948 37.5131 47.9587 37.7641 49.0822C38.7679 53.42 39.4423 56.3067 39.7874 57.7423L42.893 74.3604ZM33.0586 60.5978C32.3685 54.3563 32.0391 51.2355 32.0705 51.2355L32.0234 50.7674C32.0234 50.7674 31.9921 51.1419 31.9293 51.8909C31.8352 54.2314 31.6941 56.0883 31.5058 57.4614L31.0824 60.5978H33.0586Z" fill="white"/>
<path d="M64.2365 70.8495C64.2678 71.224 64.2835 71.7702 64.2835 72.4879C64.2835 73.1433 64.2208 73.6114 64.0953 73.8923C64.0012 74.1419 63.8444 74.298 63.6248 74.3604C63.4052 74.4228 63.0288 74.454 62.4955 74.454H62.1661L61.4132 74.4072L60.1898 74.454C58.2449 74.5164 55.3746 74.5476 51.5789 74.5476C47.9714 74.5476 45.1011 74.532 42.968 74.5008V73.4242C43.1875 68.2749 43.2973 63.0944 43.2973 57.8827C43.2973 56.3536 43.266 53.7165 43.2032 49.9716V47.1161C43.1719 46.5855 43.1562 45.6337 43.1562 44.2606L43.1091 41.2178C43.5483 41.0618 44.16 40.9369 44.9442 40.8433C45.7285 40.7185 46.5127 40.6561 47.297 40.6561C48.1753 40.6561 49.0536 40.7185 49.932 40.8433C50.8103 40.9682 51.5161 41.1398 52.0494 41.3582C51.9867 43.6052 51.9553 45.3997 51.9553 46.7416C51.9553 48.614 51.9867 51.4227 52.0494 55.1677C52.0808 57.0401 52.0965 59.802 52.0965 63.4533V66.4961C53.1317 66.4961 54.4021 66.5429 55.9079 66.6365L58.4018 66.7301C59.7193 66.8237 60.9584 66.8706 62.119 66.8706C62.9346 66.8706 63.6561 66.8393 64.2835 66.7769C64.2835 67.4947 64.2678 67.9628 64.2365 68.1813V68.1345C64.1737 68.9771 64.1581 69.5856 64.1894 69.9601L64.2365 70.8495Z" fill="white"/>
<path d="M86.2079 74.1263C85.1727 74.376 84.0591 74.5008 82.867 74.5008C82.271 74.5008 81.4397 74.4696 80.3731 74.4072C80.0281 74.376 79.385 74.3604 78.4439 74.3604C77.5969 73.3618 76.8441 72.2539 76.1853 71.0368C75.5266 69.7885 74.7894 68.2437 73.9738 66.4024C73.8169 66.0904 73.6758 65.7471 73.5503 65.3726C73.4562 64.9669 73.4091 64.7328 73.4091 64.6704L73.268 64.1087L73.0797 63.5001C73.0797 65.0917 73.1111 67.0734 73.1738 69.4452C73.2366 71.3801 73.268 72.9248 73.268 74.0795C72.1386 74.3916 70.8211 74.5476 69.3154 74.5476C67.7783 74.5476 66.3353 74.3916 64.9864 74.0795C64.8609 71.3645 64.7982 68.2905 64.7982 64.8577C64.7982 61.1439 64.8452 57.4458 64.9394 53.7633C65.0335 50.0184 65.0805 45.8522 65.0805 41.2646C66.1157 41.2334 67.5744 41.249 69.4566 41.3114C70.0526 41.3426 71.1662 41.3582 72.7974 41.3582C72.8288 42.5441 72.8445 45.4465 72.8445 50.0652V51.0014C73.8797 49.3474 74.7266 47.8495 75.3854 46.5075C76.4833 44.4166 77.5342 42.669 78.538 41.2646L81.6436 41.3114C83.2435 41.249 84.7492 41.327 86.1608 41.5455C85.7844 42.8562 85.2668 44.1669 84.608 45.4777C83.9493 46.7572 83.0239 48.4268 81.8318 50.4865L81.5495 50.9546C80.3575 52.8271 79.2125 54.9804 78.1145 57.4146L86.2079 74.1263Z" fill="white"/>
<path d="M107.852 70.0537C107.852 71.6453 107.68 73.0653 107.334 74.3136C105.954 74.3136 103.915 74.3448 101.217 74.4072L95.0533 74.454C92.2614 74.454 89.4696 74.3604 86.6777 74.1732C86.709 73.1745 86.662 69.2891 86.5365 62.5171C86.4424 58.6785 86.3953 55.7294 86.3953 53.6697C86.3953 49.3942 86.5051 45.4153 86.7247 41.7327L90.8655 41.5923C95.5082 41.4051 99.0529 41.3114 101.5 41.3114C103.602 41.3114 105.641 41.3895 107.617 41.5455C107.742 42.2009 107.805 42.9654 107.805 43.8393C107.805 44.3074 107.774 45.072 107.711 46.133C107.648 47.1317 107.617 47.9119 107.617 48.4736C105.735 48.8793 103.633 49.0822 101.312 49.0822L95.1945 49.129C95.0376 50.5957 94.9592 51.8128 94.9592 52.7803C94.9592 53.5293 95.0533 54.1846 95.2415 54.7464L98.3471 54.3719C98.7863 54.3719 99.445 54.4031 100.323 54.4655L100.935 54.5123C101.092 55.4485 101.17 56.4628 101.17 57.555L101.076 61.3C100.072 61.5808 98.7236 61.7213 97.0296 61.7213L95.8062 61.6745C95.5866 61.6745 95.4454 61.7057 95.3827 61.7681L95.1945 64.2023C95.1945 65.4818 95.2572 66.5429 95.3827 67.3855C97.0139 67.3855 98.5981 67.4323 100.135 67.5259C100.668 67.5571 101.327 67.5883 102.111 67.6195C102.896 67.6507 103.821 67.6664 104.888 67.6664L107.758 67.5727C107.821 69.0083 107.852 69.8353 107.852 70.0537Z" fill="white"/>
<path d="M128.059 65.513C129.314 67.4167 130.318 69.0239 131.071 70.3346C131.855 71.6453 132.498 72.9717 133 74.3136H132.247C131.871 74.3136 131.024 74.3448 129.706 74.4072C128.389 74.4696 127.338 74.5008 126.554 74.5008C126.114 74.5008 125.456 74.4696 124.577 74.4072L123.777 74.3604C121.738 69.7417 119.919 66.2776 118.319 63.9682V65.1853C118.319 67.1202 118.429 69.6168 118.648 72.6752V72.6284C118.68 72.8468 118.696 73.2213 118.696 73.7518C117.629 74.2512 115.872 74.5008 113.425 74.5008L112.296 74.454H109.802C109.457 74.454 109.285 71.6297 109.285 65.9811C109.285 60.8631 109.238 55.745 109.143 50.6269C109.049 45.4777 108.908 42.3881 108.72 41.3582L109.99 41.171C111.873 40.9213 113.425 40.7341 114.649 40.6093C115.872 40.4844 117.127 40.422 118.413 40.422C119.793 40.422 120.97 40.4844 121.942 40.6093C123.762 40.8277 125.456 41.4519 127.024 42.4817C128.624 43.5116 129.894 44.7755 130.835 46.2735C131.808 47.7714 132.294 49.3162 132.294 50.9078C132.294 52.437 131.792 54.1066 130.788 55.9166C130.161 57.0401 129.33 57.9764 128.295 58.7253C127.259 59.4743 126.02 59.9268 124.577 60.0829C125.424 61.5808 126.412 63.1412 127.542 64.764C127.761 65.1385 127.934 65.3882 128.059 65.513ZM121.283 53.5761C121.723 53.4512 122.068 53.1392 122.319 52.6398C122.57 52.1405 122.695 51.5476 122.695 50.861C122.695 49.5815 122.381 48.7545 121.754 48.38C121.346 48.1303 120.923 47.9743 120.484 47.9119C120.076 47.8495 119.605 47.8182 119.072 47.8182L117.049 48.1459C117.111 49.0822 117.143 49.878 117.143 50.5333C117.143 52.2185 117.19 53.2484 117.284 53.6229C117.817 53.6853 118.476 53.7165 119.26 53.7165C119.982 53.7165 120.656 53.6697 121.283 53.5761Z" fill="white"/>
<path d="M50.6144 17.3039C50.7586 19.1128 50.4964 19.9358 49.1566 19.836C47.5679 19.7176 46.6091 19.7546 46.4021 17.7832C46.2223 16.0698 46.6367 14.3217 47.9591 14.2174C49.2815 14.1131 50.2998 15.3806 50.6144 17.3039Z" fill="white"/>
<path d="M55.6018 18.8235C54.3594 20.152 53.0461 20.9762 52.0749 20.0773C51.1037 19.1783 51.3236 17.3727 52.5661 16.0442C53.8085 14.7157 55.3911 14.5623 56.5742 15.2664C57.5454 16.1653 56.8443 17.4951 55.6018 18.8235Z" fill="white"/>
<path d="M59.3082 21.4691C58.3136 22.9901 56.4793 23.2244 55.5423 22.618C54.6053 22.0116 55.2368 20.8369 56.2314 19.3159C57.226 17.7948 58.4956 17.522 59.4326 18.1284C60.3697 18.7348 60.3028 19.9481 59.3082 21.4691Z" fill="white"/>
<path d="M54.0481 30.28C52.6329 32.6335 48.9911 33.0568 45.9139 31.2255C42.8368 29.3942 41.4894 26.0017 42.9047 23.6482C44.3199 21.2947 50.1526 20.3122 52.0965 21.4691C55.1737 23.3004 55.4633 27.9265 54.0481 30.28Z" fill="white"/>
<path d="M58.6277 26.6183C57.2025 26.9832 55.466 26.8668 55.587 25.8089C55.922 24.3919 56.237 24.0884 57.6621 23.7235C59.0873 23.3586 59.9604 23.5177 60.748 24.4875C61.5355 25.4573 60.0529 26.2534 58.6277 26.6183Z" fill="white"/>
<path d="M30.5167 83.5315L32.1865 79.2943H32.4204L33.8804 83.5636C33.9934 83.9006 34.0687 84.144 34.1063 84.2938C34.1493 84.1173 34.2246 83.8765 34.3322 83.5716L35.8164 79.182H36.2197L34.2112 84.9679H33.9853L32.493 80.7147C32.4715 80.6452 32.4473 80.5756 32.4204 80.5061C32.3989 80.4365 32.3801 80.375 32.3639 80.3215C32.3478 80.268 32.3317 80.2225 32.3155 80.1851L32.2833 80.0888C32.2779 80.062 32.2752 80.046 32.2752 80.0406C32.2107 80.2332 32.1273 80.4553 32.0252 80.7067L30.3393 84.9679H30.1134L28.0887 79.182H28.5163L29.9924 83.4994C30.0623 83.692 30.1188 83.8658 30.1618 84.021C30.2102 84.1761 30.2371 84.2617 30.2425 84.2778C30.2694 84.1547 30.3608 83.9059 30.5167 83.5315Z" stroke="#BD4F6C"/>
<path d="M37.3171 84.9197V79.7116H39.7612V80.0326H37.6881V81.9265H39.5595V82.2395H37.6881V84.5827H39.8419V84.9197H37.3171Z" stroke="#BD4F6C"/>
<path d="M40.7428 79.182H41.1704V79.5752L40.8316 80.1931H40.646L40.7428 79.7036V79.182Z" stroke="#BD4F6C"/>
<path d="M42.4295 84.9197V79.7357C42.8919 79.6982 43.2845 79.6795 43.6072 79.6795C44.1019 79.6795 44.5106 79.8079 44.8333 80.0647C45.1559 80.3162 45.3173 80.6773 45.3173 81.1481C45.3173 81.4637 45.2258 81.7553 45.043 82.0228C44.8602 82.2903 44.6531 82.507 44.4219 82.6728C45.0618 83.5181 45.4571 84.0236 45.6077 84.1895C45.9142 84.5051 46.2476 84.6844 46.6079 84.7272L46.5998 84.9759C46.2987 84.9706 46.054 84.9278 45.8658 84.8475C45.6776 84.7619 45.4893 84.6202 45.3011 84.4222C45.1183 84.2243 44.7123 83.692 44.0831 82.8253C43.6475 82.8253 43.22 82.8119 42.8005 82.7851V84.9197H42.4295ZM43.8814 82.5203C44.0912 82.5203 44.317 82.3812 44.559 82.103C44.801 81.8248 44.922 81.5012 44.922 81.132C44.922 80.7629 44.7956 80.482 44.5429 80.2894C44.2901 80.0968 43.9621 80.0005 43.5588 80.0005C43.3437 80.0005 43.0909 80.0112 42.8005 80.0326V82.4802C43.1877 82.507 43.548 82.5203 43.8814 82.5203Z" stroke="#BD4F6C"/>
<path d="M47.3371 84.9197V79.7116H49.7812V80.0326H47.7081V81.9265H49.5796V82.2395H47.7081V84.5827H49.8619V84.9197H47.3371Z" stroke="#BD4F6C"/>
<path d="M55.9312 84.6469C56.6196 84.6469 57.1708 84.4623 57.5849 84.0932C58.0043 83.7241 58.214 83.1677 58.214 82.424C58.214 81.6804 57.9774 81.0892 57.5042 80.6505C57.0364 80.2118 56.4583 79.9925 55.7699 79.9925C55.2806 79.9925 54.9041 80.0032 54.6406 80.0246V84.5907C54.9633 84.6282 55.3935 84.6469 55.9312 84.6469ZM55.7699 79.6635C56.5766 79.6635 57.2488 79.9122 57.7865 80.4098C58.3297 80.902 58.6012 81.5734 58.6012 82.424C58.6012 83.2747 58.3512 83.914 57.8511 84.342C57.3563 84.77 56.7164 84.9839 55.9312 84.9839C55.3881 84.9839 54.8288 84.9572 54.2534 84.9037V79.7116C54.6836 79.6795 55.1891 79.6635 55.7699 79.6635Z" stroke="#BD4F6C"/>
<path d="M62.5317 85C61.7842 85 61.1577 84.7405 60.6522 84.2216C60.1467 83.7027 59.894 83.0687 59.894 82.3197C59.894 81.5654 60.1467 80.9287 60.6522 80.4098C61.1577 79.8909 61.7842 79.6314 62.5317 79.6314C63.2792 79.6314 63.9057 79.8909 64.4111 80.4098C64.9166 80.9287 65.1694 81.5654 65.1694 82.3197C65.1694 83.0687 64.9166 83.7027 64.4111 84.2216C63.9057 84.7405 63.2792 85 62.5317 85ZM62.5317 79.9604C61.8864 79.9604 61.3486 80.1878 60.9184 80.6425C60.4936 81.0973 60.2811 81.6563 60.2811 82.3197C60.2811 82.9777 60.4936 83.5341 60.9184 83.9889C61.3486 84.4383 61.8864 84.663 62.5317 84.663C63.1824 84.663 63.7201 84.4383 64.145 83.9889C64.5698 83.5341 64.7822 82.9777 64.7822 82.3197C64.7822 81.6563 64.5698 81.0973 64.145 80.6425C63.7201 80.1878 63.1824 79.9604 62.5317 79.9604Z" stroke="#BD4F6C"/>
<path d="M68.9724 79.9604C68.3754 79.9604 67.8726 80.1878 67.4639 80.6425C67.0606 81.0919 66.8589 81.6456 66.8589 82.3037C66.8589 82.9617 67.0875 83.5208 67.5446 83.9808C68.0017 84.4356 68.5395 84.663 69.1579 84.663C69.7817 84.663 70.2657 84.5907 70.6098 84.4463V82.3037H70.9809V84.6148C70.5614 84.8716 69.9672 85 69.1982 85C68.4292 85 67.7812 84.7405 67.2542 84.2216C66.7272 83.7027 66.4637 83.066 66.4637 82.3117C66.4637 81.552 66.7003 80.9154 67.1735 80.4018C67.6521 79.8882 68.2679 79.6314 69.0208 79.6314C69.6284 79.6314 70.2226 79.725 70.8034 79.9123L70.7066 80.2172C70.1474 80.046 69.5693 79.9604 68.9724 79.9604Z" stroke="#BD4F6C"/>
<path d="M75.6484 84.9197V79.7437C76.0517 79.7009 76.4766 79.6795 76.9229 79.6795C77.3746 79.6795 77.7564 79.7999 78.0683 80.0406C78.3802 80.276 78.5362 80.6345 78.5362 81.116C78.5362 81.5975 78.3238 81.9934 77.8989 82.3037C77.4741 82.6086 76.9713 82.7611 76.3905 82.7611C76.3636 82.7611 76.334 82.7611 76.3018 82.7611V82.5043C76.3233 82.5043 76.3421 82.5043 76.3582 82.5043C76.8369 82.5043 77.2536 82.3785 77.6085 82.1271C77.9635 81.8757 78.1409 81.5493 78.1409 81.1481C78.1409 80.7468 78.0146 80.4553 77.7618 80.2734C77.5144 80.0915 77.1864 80.0005 76.7777 80.0005C76.5626 80.0005 76.3098 80.0112 76.0195 80.0326V84.9197H75.6484Z" stroke="#BD4F6C"/>
<path d="M79.9101 84.9197V79.7116H82.3542V80.0326H80.2811V81.9265H82.1525V82.2395H80.2811V84.5827H82.4349V84.9197H79.9101Z" stroke="#BD4F6C"/>
<path d="M86.2347 85C85.4872 85 84.8607 84.7405 84.3552 84.2216C83.8497 83.7027 83.597 83.0687 83.597 82.3197C83.597 81.5654 83.8497 80.9287 84.3552 80.4098C84.8607 79.8909 85.4872 79.6314 86.2347 79.6314C86.9822 79.6314 87.6087 79.8909 88.1142 80.4098C88.6197 80.9287 88.8724 81.5654 88.8724 82.3197C88.8724 83.0687 88.6197 83.7027 88.1142 84.2216C87.6087 84.7405 86.9822 85 86.2347 85ZM86.2347 79.9604C85.5894 79.9604 85.0516 80.1878 84.6214 80.6425C84.1966 81.0973 83.9842 81.6563 83.9842 82.3197C83.9842 82.9777 84.1966 83.5341 84.6214 83.9889C85.0516 84.4383 85.5894 84.663 86.2347 84.663C86.8854 84.663 87.4232 84.4383 87.848 83.9889C88.2728 83.5341 88.4853 82.9777 88.4853 82.3197C88.4853 81.6563 88.2728 81.0973 87.848 80.6425C87.4232 80.1878 86.8854 79.9604 86.2347 79.9604Z" stroke="#BD4F6C"/>
<path d="M90.4894 84.9197V79.7437C90.8927 79.7009 91.3175 79.6795 91.7639 79.6795C92.2156 79.6795 92.5974 79.7999 92.9093 80.0406C93.2212 80.276 93.3772 80.6345 93.3772 81.116C93.3772 81.5975 93.1648 81.9934 92.7399 82.3037C92.3151 82.6086 91.8123 82.7611 91.2315 82.7611C91.2046 82.7611 91.175 82.7611 91.1428 82.7611V82.5043C91.1643 82.5043 91.1831 82.5043 91.1992 82.5043C91.6778 82.5043 92.0946 82.3785 92.4495 82.1271C92.8045 81.8757 92.9819 81.5493 92.9819 81.1481C92.9819 80.7468 92.8555 80.4553 92.6028 80.2734C92.3554 80.0915 92.0274 80.0005 91.6187 80.0005C91.4036 80.0005 91.1508 80.0112 90.8604 80.0326V84.9197H90.4894Z" stroke="#BD4F6C"/>
<path d="M94.7511 84.9197V79.7116H95.1221V84.5827H97.5259V84.9197H94.7511Z" stroke="#BD4F6C"/>
<path d="M98.6267 84.9197V79.7116H101.071V80.0326H98.9978V81.9265H100.869V82.2395H98.9978V84.5827H101.152V84.9197H98.6267Z" stroke="#BD4F6C"/>
<path d="M22.7861 34.4703C21.7823 34.3142 20.7 34.2362 19.5394 34.2362C19.4139 34.2362 19.1159 34.2362 18.6453 34.2362C18.1748 34.2674 17.0141 34.2986 15.1633 34.3298C15.1006 32.6446 15.0692 31.1622 15.0692 29.8827L14.7398 19.5842L14.1752 20.6609C13.7046 21.5035 13.3282 22.0964 13.0459 22.4397C12.7949 22.783 12.5126 22.9546 12.1989 22.9546C11.5088 22.9234 10.6932 21.7999 9.75209 19.5842C9.72072 19.8963 9.70503 20.302 9.70503 20.8013C9.7364 21.3006 9.75209 21.6907 9.75209 21.9716V23.1419C9.75209 26.169 9.89325 29.8203 10.1756 34.0958C8.82669 34.3142 7.46212 34.4235 6.08186 34.4235L2.88217 34.3298H2.22341C2.1293 34.3298 2.06656 34.3142 2.03519 34.283C2.00382 34.283 1.98814 34.2518 1.98814 34.1894L1.94108 33.6745C1.87835 32.4886 1.84698 30.0544 1.84698 26.3719C1.84698 22.0652 1.89403 13.92 1.98814 1.93623C2.45868 1.78019 2.94491 1.67097 3.44682 1.60855C3.9801 1.54613 4.73297 1.51493 5.70542 1.51493L8.01108 1.56174C8.70121 1.56174 9.21881 1.54613 9.56387 1.51493C9.97167 1.98304 10.3324 2.57599 10.6461 3.29376C10.9598 4.01154 11.5401 5.4783 12.3871 7.69405C12.4185 7.63164 12.5126 7.31956 12.6695 6.75782C12.8577 6.19608 13.5949 4.37043 14.881 1.28087C15.2888 1.37449 15.8221 1.4213 16.4808 1.4213C16.9828 1.4213 17.8297 1.3901 19.0218 1.32768L22.9743 1.23406L22.7861 34.4703Z" stroke="#BD4F6C"/>
<path d="M32.1488 34.4235C31.3959 34.3298 30.6744 34.283 29.9843 34.283C29.5138 34.283 28.8707 34.3142 28.0551 34.3766L26.0788 34.4235C25.4514 34.4235 24.7299 34.3766 23.9143 34.283C24.6672 32.0361 26.1102 28.1663 28.2433 22.6738L30.1725 17.8053C29.8588 16.557 29.4667 15.3399 28.9962 14.154C28.5256 12.9369 27.9296 11.5014 27.2081 9.84739C26.3611 7.75647 25.7181 6.14927 25.2789 5.02579C24.8711 3.90232 24.5103 2.71642 24.1966 1.46812C24.7927 1.49932 25.7181 1.45251 26.9728 1.32768C27.9767 1.20285 28.7138 1.14043 29.1844 1.14043C30.2823 1.14043 31.192 1.34328 31.9135 1.74898C32.1959 2.90367 32.6193 4.33922 33.184 6.05565C33.78 7.77207 34.3447 9.30125 34.8779 10.6432C35.0348 10.3311 35.5367 8.91115 36.3837 6.38333C37.3248 3.57464 37.858 2.04546 37.9835 1.79579C39.7088 1.45251 41.4185 1.28087 43.1124 1.28087C44.1476 1.28087 45.0573 1.34328 45.8416 1.46812C45.0887 4.27681 44.1633 6.99188 43.0654 9.61333C41.9674 12.2036 40.4774 15.4648 38.5952 19.3969C37.0895 22.4553 35.8347 25.1392 34.8309 27.4485C33.8271 29.7267 32.933 32.0517 32.1488 34.4235Z" stroke="#BD4F6C"/>
<path d="M81.4392 5.07261C82.9136 7.38198 83.886 9.70695 84.3566 12.0475V12.0007C84.6075 12.7809 84.7644 13.7952 84.8271 15.0435C84.7644 15.9797 84.733 16.6819 84.733 17.15L84.686 17.899C84.686 18.1174 84.6546 18.8508 84.5918 20.0991C84.5291 21.3474 84.3723 22.5801 84.1213 23.7972C83.5253 25.5449 82.694 27.2613 81.6274 28.9465C80.5922 30.6005 79.3531 32.3169 77.9101 34.0958C75.2751 34.1582 73.1106 34.1894 71.4167 34.1894L68.0288 34.2362L64.3585 34.283C63.7939 30.1948 63.5116 25.0455 63.5116 18.8352C63.5116 16.1201 63.5272 14.0916 63.5586 12.7497C63.59 11.5326 63.6057 9.44168 63.6057 6.47695C63.6057 5.72797 63.5743 4.60449 63.5116 3.10652L63.4645 1.70217L63.7939 1.65536C65.4565 1.21845 67.3857 1 69.5816 1L70.805 1.04681H72.0754C72.4832 1.07802 73.1106 1.09362 73.9576 1.09362C74.8046 1.09362 75.432 1.07802 75.8398 1.04681C77.0004 1.35889 78.114 1.92063 79.1806 2.73203C80.2472 3.51222 81.0941 4.41724 81.7215 5.4471L81.4392 5.07261ZM77.1573 18.0394C77.1573 17.4777 77.0945 16.9315 76.9691 16.401C76.7181 15.0903 76.4201 14.0292 76.075 13.2178C75.73 12.3752 75.1967 11.8291 74.4752 11.5794H74.5693C73.8164 11.517 73.2518 11.4858 72.8753 11.4858C72.248 11.4858 71.8401 11.517 71.6519 11.5794C71.7147 12.7029 71.746 13.764 71.746 14.7626V15.9797L71.699 17.2436C71.6676 17.9614 71.6519 19.0381 71.6519 20.4736C71.6519 21.8467 71.6363 22.8922 71.6049 23.61C72.0754 23.7972 72.4048 23.8909 72.593 23.8909H73.2047C73.7066 23.8909 74.0674 23.844 74.287 23.7504C74.7889 23.6256 75.3535 23.0638 75.9809 22.0652C76.7652 20.8793 77.1573 19.5374 77.1573 18.0394Z" stroke="#BD4F6C"/>
<path d="M107.104 9.28565C107.198 10.2531 107.245 11.2361 107.245 12.2348L107.198 13.0774V13.92C107.135 14.9498 107.104 16.4634 107.104 18.4607C107.104 20.6765 107.057 22.3617 106.962 23.5164L106.821 25.0611C106.664 27.589 106.021 29.7423 104.892 31.5211C104.422 32.1765 103.716 32.7538 102.775 33.2532C101.834 33.7525 100.798 34.1582 99.6691 34.4703C98.5084 34.8135 97.1438 34.9852 95.5753 34.9852C94.8538 34.9852 94.3519 34.9696 94.0696 34.9384C92.5325 34.8135 91.1522 34.4859 89.9288 33.9553C88.7368 33.3936 87.8584 32.5822 87.2938 31.5211C86.5409 30.1168 86.1331 28.3536 86.0704 26.2314L85.9763 24.7335C85.9449 24.4838 85.9292 23.9689 85.9292 23.1887C85.7724 20.6296 85.6939 18.1798 85.6939 15.8393C85.6939 14.4037 85.741 12.9682 85.8351 11.5326C85.9292 9.97222 86.1959 8.45864 86.635 6.99188C87.1056 5.49391 87.8114 4.18319 88.7525 3.05971L89.7877 2.49797C91.7953 1.53053 93.9912 1.04681 96.3753 1.04681C97.881 1.04681 99.2926 1.24966 100.61 1.65536C101.959 2.02985 103.135 2.59159 104.139 3.34058C105.237 4.33923 105.959 5.32227 106.304 6.28971C106.68 7.28835 106.947 8.287 107.104 9.28565ZM99.8102 14.3881L99.622 11.9539C99.5593 11.0801 99.3397 10.3155 98.9632 9.66014C98.6182 8.97357 98.1633 8.48985 97.5987 8.20898C97.3477 8.11536 97.0968 8.06854 96.8458 8.06854C96.0929 8.06854 95.3557 8.31821 94.6342 8.81753C94.2578 9.12961 93.8814 9.58212 93.5049 10.1751C93.1599 10.7368 92.8932 11.3141 92.705 11.9071C92.3913 13.2802 92.2345 15.0279 92.2345 17.15C92.2345 18.211 92.2502 19.0068 92.2815 19.5374V19.4906C92.407 20.1147 92.5011 20.9417 92.5639 21.9716L92.6109 22.6269C92.7364 24.1873 92.9089 25.342 93.1285 26.091V26.0442C93.4108 26.6683 93.8186 27.1521 94.3519 27.4953C94.9166 27.8074 95.5126 27.9635 96.14 27.9635C96.6419 27.9635 97.1438 27.8542 97.6457 27.6358C98.179 27.3861 98.6339 27.0428 99.0103 26.6059C99.324 26.2002 99.5122 25.8569 99.5749 25.5761C99.6691 25.2952 99.7161 24.8583 99.7161 24.2653C99.7161 23.7348 99.7318 23.3447 99.7632 23.0951L99.8102 22.4865L99.8573 21.5971V20.9417L99.9043 20.0523V17.8053L99.8102 14.6222V14.3881Z" stroke="#BD4F6C"/>
<path d="M122.838 17.1032C124.187 17.1032 125.709 17.1656 127.403 17.2904L128.908 17.384L129.708 17.4309L129.803 18.4139C129.834 18.7572 129.897 19.5062 129.991 20.6609C130.085 21.7843 130.132 22.7518 130.132 23.5632C130.132 25.1548 130.006 26.7308 129.755 28.2911C129.536 29.6955 128.987 30.8814 128.109 31.8488C127.23 32.8163 126.117 33.5496 124.768 34.049C122.478 34.7355 120.36 35.0788 118.415 35.0788C116.91 35.0788 115.545 34.8448 114.322 34.3766C111.843 33.2844 110.228 31.3807 109.475 28.6656C109.255 27.823 109.067 26.7308 108.91 25.3888C108.91 25.7321 108.738 22.939 108.393 17.0096C108.393 16.0109 108.409 15.2151 108.44 14.6222C108.503 11.8135 108.659 9.75376 108.91 8.44304C109.35 5.94642 110.369 4.10517 111.969 2.91927C113.161 2.04546 114.792 1.45251 116.863 1.14043C117.584 1.04681 118.321 1 119.074 1C122.211 1 124.783 1.7958 126.791 3.38739C128.799 4.94778 129.803 7.17913 129.803 10.0814L129.708 11.5794V12.2348C129.489 12.266 129.222 12.2816 128.908 12.2816C128.595 12.2816 128.312 12.2816 128.062 12.2816H125.803C124.611 12.2816 123.466 12.2192 122.368 12.0943C121.615 9.53531 120.768 8.25579 119.827 8.25579C119.67 8.25579 119.498 8.24019 119.309 8.20898C119.121 8.17777 118.949 8.16217 118.792 8.16217C118.29 8.16217 117.851 8.34941 117.474 8.72391C117.443 8.75511 117.333 9.12961 117.145 9.84739C116.549 11.8135 116.251 14.7158 116.251 18.5543C116.251 20.458 116.314 22.034 116.439 23.2823C116.659 25.3732 117.082 26.6995 117.71 27.2613C118.023 27.4485 118.274 27.5734 118.462 27.6358C118.807 27.667 119.215 27.6514 119.686 27.589C120.188 27.4953 120.627 27.3705 121.003 27.2145C121.537 26.996 121.882 26.4967 122.039 25.7165C122.133 25.342 122.227 24.8583 122.321 24.2653C122.415 23.6724 122.446 23.3135 122.415 23.1887H121.286C120.125 23.2511 119.231 23.1575 118.604 22.9078C118.541 22.2524 118.509 21.441 118.509 20.4736V19.9587C118.509 19.8339 118.509 19.631 118.509 19.3501C118.541 19.0381 118.509 18.4607 118.415 17.6181C118.666 17.6181 119.2 17.5557 120.015 17.4309C121.27 17.2124 122.211 17.1032 122.838 17.1032Z" stroke="#BD4F6C"/>
<path d="M22.3156 41.6391C22.1274 44.1669 21.6254 49.3786 20.8098 57.2742C20.1197 64.2335 19.5864 69.8353 19.21 74.0795C18.8022 74.2044 18.2218 74.2668 17.469 74.2668C16.7475 74.298 15.6339 74.3136 14.1281 74.3136C13.7517 73.8455 13.438 73.2681 13.187 72.5816C12.9675 71.8638 12.7322 70.9744 12.4812 69.9133C12.1675 68.6338 11.9323 67.8068 11.7754 67.4323C10.7402 71.0524 10.0972 73.2681 9.8462 74.0795C8.84237 74.2668 7.86992 74.3604 6.92883 74.3604C6.05049 74.3604 5.2192 74.298 4.43496 74.1732L4.15263 72.0666C3.33703 67.2294 2.6469 62.1582 2.08225 56.8529C1.54897 51.5164 1.18822 46.3983 1 41.4987C2.22341 41.2802 3.47819 41.171 4.76434 41.171L6.88178 41.2178C7.76013 41.2802 8.51299 41.3114 9.14038 41.3114C9.26586 42.7158 9.3286 45.2436 9.3286 48.8949V49.7843C9.3286 53.5917 9.42271 56.3223 9.61093 57.9764C9.7364 57.5394 9.89325 56.8529 10.0815 55.9166C10.2383 55.0116 10.4108 54.247 10.5991 53.6229C10.7873 52.9987 11.0853 52.4526 11.4931 51.9845C12.4969 52.6398 13.2655 54.6371 13.7988 57.9764L13.9399 51.7504C14.0654 46.8196 14.2066 43.4492 14.3634 41.6391C15.5554 41.3582 16.9043 41.2178 18.4101 41.2178C19.6335 41.2178 20.8255 41.2802 21.9862 41.4051L22.3156 41.6391Z" stroke="#BD4F6C"/>
<path d="M42.893 74.3604C41.8892 74.5789 40.8069 74.6881 39.6462 74.6881C38.266 74.6881 36.7602 74.5164 35.129 74.1732C34.9094 73.5802 34.5644 72.3319 34.0938 70.4282C33.6233 68.4934 33.2469 67.2138 32.9645 66.5897L32.0234 66.5429L31.2235 66.5897C31.098 66.9642 30.8941 67.8848 30.6118 69.3516C30.3922 70.5687 30.1726 71.5673 29.9531 72.3475C29.7335 73.0965 29.4198 73.7831 29.012 74.4072C28.6983 74.4696 28.2277 74.5008 27.6003 74.5008C27.318 74.5008 26.7063 74.4696 25.7652 74.4072C23.0361 74.2824 21.5147 74.22 21.201 74.22C21.201 74.0639 21.2323 73.705 21.2951 73.1433C21.3578 72.5504 21.4519 71.895 21.5774 71.1772L22.6126 65.279C23.4282 60.4418 24.1968 56.2287 24.9183 52.6398C25.6711 49.051 26.6436 45.2592 27.8356 41.2646C28.2748 41.2022 28.8708 41.171 29.6237 41.171H29.906C31.945 41.171 33.937 41.093 35.8819 40.9369C36.2583 42.4037 36.6034 43.8549 36.9171 45.2904C37.2308 46.6948 37.5131 47.9587 37.7641 49.0822C38.7679 53.42 39.4423 56.3067 39.7874 57.7423L42.893 74.3604ZM33.0586 60.5978C32.3685 54.3563 32.0391 51.2355 32.0705 51.2355L32.0234 50.7674C32.0234 50.7674 31.9921 51.1419 31.9293 51.8909C31.8352 54.2314 31.6941 56.0883 31.5058 57.4614L31.0824 60.5978H33.0586Z" stroke="#BD4F6C"/>
<path d="M64.2365 70.8495C64.2678 71.224 64.2835 71.7702 64.2835 72.4879C64.2835 73.1433 64.2208 73.6114 64.0953 73.8923C64.0012 74.1419 63.8444 74.298 63.6248 74.3604C63.4052 74.4228 63.0288 74.454 62.4955 74.454H62.1661L61.4132 74.4072L60.1898 74.454C58.2449 74.5164 55.3746 74.5476 51.5789 74.5476C47.9714 74.5476 45.1011 74.532 42.968 74.5008V73.4242C43.1875 68.2749 43.2973 63.0944 43.2973 57.8827C43.2973 56.3536 43.266 53.7165 43.2032 49.9716V47.1161C43.1719 46.5855 43.1562 45.6337 43.1562 44.2606L43.1091 41.2178C43.5483 41.0618 44.16 40.9369 44.9442 40.8433C45.7285 40.7185 46.5127 40.6561 47.297 40.6561C48.1753 40.6561 49.0536 40.7185 49.932 40.8433C50.8103 40.9682 51.5161 41.1398 52.0494 41.3582C51.9867 43.6052 51.9553 45.3997 51.9553 46.7416C51.9553 48.614 51.9867 51.4227 52.0494 55.1677C52.0808 57.0401 52.0965 59.802 52.0965 63.4533V66.4961C53.1317 66.4961 54.4021 66.5429 55.9079 66.6365L58.4018 66.7301C59.7193 66.8237 60.9584 66.8706 62.119 66.8706C62.9346 66.8706 63.6561 66.8393 64.2835 66.7769C64.2835 67.4947 64.2678 67.9628 64.2365 68.1813V68.1345C64.1737 68.9771 64.1581 69.5856 64.1894 69.9601L64.2365 70.8495Z" stroke="#BD4F6C"/>
<path d="M86.2079 74.1263C85.1727 74.376 84.0591 74.5008 82.867 74.5008C82.271 74.5008 81.4397 74.4696 80.3731 74.4072C80.0281 74.376 79.385 74.3604 78.4439 74.3604C77.5969 73.3618 76.8441 72.2539 76.1853 71.0368C75.5266 69.7885 74.7894 68.2437 73.9738 66.4024C73.8169 66.0904 73.6758 65.7471 73.5503 65.3726C73.4562 64.9669 73.4091 64.7328 73.4091 64.6704L73.268 64.1087L73.0797 63.5001C73.0797 65.0917 73.1111 67.0734 73.1738 69.4452C73.2366 71.3801 73.268 72.9248 73.268 74.0795C72.1386 74.3916 70.8211 74.5476 69.3154 74.5476C67.7783 74.5476 66.3353 74.3916 64.9864 74.0795C64.8609 71.3645 64.7982 68.2905 64.7982 64.8577C64.7982 61.1439 64.8452 57.4458 64.9394 53.7633C65.0335 50.0184 65.0805 45.8522 65.0805 41.2646C66.1157 41.2334 67.5744 41.249 69.4566 41.3114C70.0526 41.3426 71.1662 41.3582 72.7974 41.3582C72.8288 42.5441 72.8445 45.4465 72.8445 50.0652V51.0014C73.8797 49.3474 74.7266 47.8495 75.3854 46.5075C76.4833 44.4166 77.5342 42.669 78.538 41.2646L81.6436 41.3114C83.2435 41.249 84.7492 41.327 86.1608 41.5455C85.7844 42.8562 85.2668 44.1669 84.608 45.4777C83.9493 46.7572 83.0239 48.4268 81.8318 50.4865L81.5495 50.9546C80.3575 52.8271 79.2125 54.9804 78.1145 57.4146L86.2079 74.1263Z" stroke="#BD4F6C"/>
<path d="M107.852 70.0537C107.852 71.6453 107.68 73.0653 107.334 74.3136C105.954 74.3136 103.915 74.3448 101.217 74.4072L95.0533 74.454C92.2614 74.454 89.4696 74.3604 86.6777 74.1732C86.709 73.1745 86.662 69.2891 86.5365 62.5171C86.4424 58.6785 86.3953 55.7294 86.3953 53.6697C86.3953 49.3942 86.5051 45.4153 86.7247 41.7327L90.8655 41.5923C95.5082 41.4051 99.0529 41.3114 101.5 41.3114C103.602 41.3114 105.641 41.3895 107.617 41.5455C107.742 42.2009 107.805 42.9654 107.805 43.8393C107.805 44.3074 107.774 45.072 107.711 46.133C107.648 47.1317 107.617 47.9119 107.617 48.4736C105.735 48.8793 103.633 49.0822 101.312 49.0822L95.1945 49.129C95.0376 50.5957 94.9592 51.8128 94.9592 52.7803C94.9592 53.5293 95.0533 54.1846 95.2415 54.7464L98.3471 54.3719C98.7863 54.3719 99.445 54.4031 100.323 54.4655L100.935 54.5123C101.092 55.4485 101.17 56.4628 101.17 57.555L101.076 61.3C100.072 61.5808 98.7236 61.7213 97.0296 61.7213L95.8062 61.6745C95.5866 61.6745 95.4454 61.7057 95.3827 61.7681L95.1945 64.2023C95.1945 65.4818 95.2572 66.5429 95.3827 67.3855C97.0139 67.3855 98.5981 67.4323 100.135 67.5259C100.668 67.5571 101.327 67.5883 102.111 67.6195C102.896 67.6507 103.821 67.6664 104.888 67.6664L107.758 67.5727C107.821 69.0083 107.852 69.8353 107.852 70.0537Z" stroke="#BD4F6C"/>
<path d="M128.059 65.513C129.314 67.4167 130.318 69.0239 131.071 70.3346C131.855 71.6453 132.498 72.9717 133 74.3136H132.247C131.871 74.3136 131.024 74.3448 129.706 74.4072C128.389 74.4696 127.338 74.5008 126.554 74.5008C126.114 74.5008 125.456 74.4696 124.577 74.4072L123.777 74.3604C121.738 69.7417 119.919 66.2776 118.319 63.9682V65.1853C118.319 67.1202 118.429 69.6168 118.648 72.6752V72.6284C118.68 72.8468 118.696 73.2213 118.696 73.7518C117.629 74.2512 115.872 74.5008 113.425 74.5008L112.296 74.454H109.802C109.457 74.454 109.285 71.6297 109.285 65.9811C109.285 60.8631 109.238 55.745 109.143 50.6269C109.049 45.4777 108.908 42.3881 108.72 41.3582L109.99 41.171C111.873 40.9213 113.425 40.7341 114.649 40.6093C115.872 40.4844 117.127 40.422 118.413 40.422C119.793 40.422 120.97 40.4844 121.942 40.6093C123.762 40.8277 125.456 41.4519 127.024 42.4817C128.624 43.5116 129.894 44.7755 130.835 46.2735C131.808 47.7714 132.294 49.3162 132.294 50.9078C132.294 52.437 131.792 54.1066 130.788 55.9166C130.161 57.0401 129.33 57.9764 128.295 58.7253C127.259 59.4743 126.02 59.9268 124.577 60.0829C125.424 61.5808 126.412 63.1412 127.542 64.764C127.761 65.1385 127.934 65.3882 128.059 65.513ZM121.283 53.5761C121.723 53.4512 122.068 53.1392 122.319 52.6398C122.57 52.1405 122.695 51.5476 122.695 50.861C122.695 49.5815 122.381 48.7545 121.754 48.38C121.346 48.1303 120.923 47.9743 120.484 47.9119C120.076 47.8495 119.605 47.8182 119.072 47.8182L117.049 48.1459C117.111 49.0822 117.143 49.878 117.143 50.5333C117.143 52.2185 117.19 53.2484 117.284 53.6229C117.817 53.6853 118.476 53.7165 119.26 53.7165C119.982 53.7165 120.656 53.6697 121.283 53.5761Z" stroke="#BD4F6C"/>
<path d="M50.6144 17.3039C50.7586 19.1128 50.4964 19.9358 49.1566 19.836C47.5679 19.7176 46.6091 19.7546 46.4021 17.7832C46.2223 16.0698 46.6367 14.3217 47.9591 14.2174C49.2815 14.1131 50.2998 15.3806 50.6144 17.3039Z" stroke="#BD4F6C"/>
<path d="M55.6018 18.8235C54.3594 20.152 53.0461 20.9762 52.0749 20.0773C51.1037 19.1783 51.3236 17.3727 52.5661 16.0442C53.8085 14.7157 55.3911 14.5623 56.5742 15.2664C57.5454 16.1653 56.8443 17.4951 55.6018 18.8235Z" stroke="#BD4F6C"/>
<path d="M59.3082 21.4691C58.3136 22.9901 56.4793 23.2244 55.5423 22.618C54.6053 22.0116 55.2368 20.8369 56.2314 19.3159C57.226 17.7948 58.4956 17.522 59.4326 18.1284C60.3697 18.7348 60.3028 19.9481 59.3082 21.4691Z" stroke="#BD4F6C"/>
<path d="M54.0481 30.28C52.6329 32.6335 48.9911 33.0568 45.9139 31.2255C42.8368 29.3942 41.4894 26.0017 42.9047 23.6482C44.3199 21.2947 50.1526 20.3122 52.0965 21.4691C55.1737 23.3004 55.4633 27.9265 54.0481 30.28Z" stroke="#BD4F6C"/>
<path d="M58.6277 26.6183C57.2025 26.9832 55.466 26.8668 55.587 25.8089C55.922 24.3919 56.237 24.0884 57.6621 23.7235C59.0873 23.3586 59.9604 23.5177 60.748 24.4875C61.5355 25.4573 60.0529 26.2534 58.6277 26.6183Z" stroke="#BD4F6C"/>
</svg>
