<svg width="653" height="425" viewBox="0 0 653 425" fill="none" xmlns="http://www.w3.org/2000/svg">
<path d="M8 66C8 35.072 33.0721 10 64 10H545C575.928 10 601 35.0721 601 66V369C601 399.928 575.928 425 545 425H64C33.0721 425 8 399.928 8 369V66Z" fill="#BD4F6C"/>
<rect x="1" y="1" width="591" height="407" rx="55" fill="#DDEDAA" stroke="#BD4F6C" stroke-width="2"/>
<path d="M252.872 71.6364C252.872 74.3329 252.361 76.6269 251.339 78.5185C250.325 80.41 248.94 81.8549 247.185 82.853C245.439 83.843 243.475 84.3381 241.293 84.3381C239.096 84.3381 237.124 83.839 235.377 82.8409C233.63 81.8428 232.25 80.398 231.236 78.5064C230.222 76.6148 229.714 74.3248 229.714 71.6364C229.714 68.9399 230.222 66.6458 231.236 64.7543C232.25 62.8627 233.63 61.4219 235.377 60.4318C237.124 59.4337 239.096 58.9347 241.293 58.9347C243.475 58.9347 245.439 59.4337 247.185 60.4318C248.94 61.4219 250.325 62.8627 251.339 64.7543C252.361 66.6458 252.872 68.9399 252.872 71.6364ZM247.572 71.6364C247.572 69.8897 247.31 68.4167 246.787 67.2173C246.272 66.018 245.543 65.1084 244.602 64.4886C243.66 63.8688 242.557 63.5589 241.293 63.5589C240.03 63.5589 238.927 63.8688 237.985 64.4886C237.043 65.1084 236.311 66.018 235.788 67.2173C235.272 68.4167 235.015 69.8897 235.015 71.6364C235.015 73.383 235.272 74.8561 235.788 76.0554C236.311 77.2547 237.043 78.1643 237.985 78.7841C238.927 79.4039 240.03 79.7138 241.293 79.7138C242.557 79.7138 243.66 79.4039 244.602 78.7841C245.543 78.1643 246.272 77.2547 246.787 76.0554C247.31 74.8561 247.572 73.383 247.572 71.6364ZM279.468 71.6364C279.468 74.3329 278.957 76.6269 277.934 78.5185C276.92 80.41 275.536 81.8549 273.781 82.853C272.034 83.843 270.07 84.3381 267.889 84.3381C265.692 84.3381 263.72 83.839 261.973 82.8409C260.226 81.8428 258.846 80.398 257.831 78.5064C256.817 76.6148 256.31 74.3248 256.31 71.6364C256.31 68.9399 256.817 66.6458 257.831 64.7543C258.846 62.8627 260.226 61.4219 261.973 60.4318C263.72 59.4337 265.692 58.9347 267.889 58.9347C270.07 58.9347 272.034 59.4337 273.781 60.4318C275.536 61.4219 276.92 62.8627 277.934 64.7543C278.957 66.6458 279.468 68.9399 279.468 71.6364ZM274.167 71.6364C274.167 69.8897 273.906 68.4167 273.383 67.2173C272.867 66.018 272.139 65.1084 271.197 64.4886C270.256 63.8688 269.153 63.5589 267.889 63.5589C266.625 63.5589 265.523 63.8688 264.581 64.4886C263.639 65.1084 262.907 66.018 262.383 67.2173C261.868 68.4167 261.611 69.8897 261.611 71.6364C261.611 73.383 261.868 74.8561 262.383 76.0554C262.907 77.2547 263.639 78.1643 264.581 78.7841C265.523 79.4039 266.625 79.7138 267.889 79.7138C269.153 79.7138 270.256 79.4039 271.197 78.7841C272.139 78.1643 272.867 77.2547 273.383 76.0554C273.906 74.8561 274.167 73.383 274.167 71.6364ZM283.341 84V59.2727H293.096C294.972 59.2727 296.569 59.6309 297.89 60.3473C299.21 61.0556 300.216 62.0417 300.908 63.3054C301.608 64.5611 301.958 66.0099 301.958 67.652C301.958 69.294 301.604 70.7429 300.896 71.9986C300.188 73.2543 299.161 74.2322 297.817 74.9325C296.481 75.6328 294.863 75.983 292.963 75.983H286.745V71.7933H292.118C293.124 71.7933 293.953 71.6203 294.605 71.2741C295.266 70.92 295.757 70.433 296.078 69.8132C296.408 69.1854 296.574 68.465 296.574 67.652C296.574 66.831 296.408 66.1146 296.078 65.5028C295.757 64.883 295.266 64.4041 294.605 64.0661C293.945 63.7199 293.108 63.5469 292.094 63.5469H288.569V84H283.341ZM318.768 66.3842C318.672 65.4103 318.257 64.6536 317.525 64.1143C316.792 63.575 315.798 63.3054 314.542 63.3054C313.689 63.3054 312.969 63.4261 312.381 63.6676C311.794 63.901 311.343 64.227 311.029 64.6456C310.723 65.0642 310.57 65.5391 310.57 66.0703C310.554 66.513 310.647 66.8994 310.848 67.2294C311.057 67.5594 311.343 67.8452 311.705 68.0866C312.067 68.3201 312.486 68.5253 312.961 68.7024C313.436 68.8714 313.943 69.0163 314.482 69.1371L316.704 69.6683C317.782 69.9098 318.772 70.2318 319.674 70.6342C320.575 71.0367 321.356 71.5317 322.016 72.1193C322.676 72.7069 323.187 73.3991 323.55 74.196C323.92 74.9929 324.109 75.9065 324.117 76.9368C324.109 78.45 323.723 79.7621 322.958 80.8729C322.201 81.9756 321.107 82.8329 319.674 83.4446C318.249 84.0483 316.531 84.3501 314.518 84.3501C312.522 84.3501 310.783 84.0443 309.302 83.4325C307.829 82.8208 306.678 81.9152 305.849 80.7159C305.028 79.5085 304.598 78.0154 304.557 76.2365H309.616C309.673 77.0656 309.91 77.7578 310.329 78.3132C310.755 78.8606 311.323 79.2751 312.031 79.5568C312.747 79.8305 313.556 79.9673 314.458 79.9673C315.343 79.9673 316.112 79.8385 316.764 79.581C317.424 79.3234 317.935 78.9652 318.297 78.5064C318.66 78.0476 318.841 77.5204 318.841 76.9247C318.841 76.3693 318.676 75.9025 318.346 75.5241C318.024 75.1458 317.549 74.8239 316.921 74.5582C316.301 74.2926 315.541 74.0511 314.639 73.8338L311.947 73.1577C309.862 72.6506 308.216 71.8577 307.008 70.7791C305.801 69.7005 305.201 68.2476 305.209 66.4205C305.201 64.9233 305.6 63.6153 306.405 62.4964C307.218 61.3776 308.332 60.5043 309.749 59.8764C311.166 59.2486 312.776 58.9347 314.579 58.9347C316.414 58.9347 318.016 59.2486 319.384 59.8764C320.76 60.5043 321.831 61.3776 322.596 62.4964C323.36 63.6153 323.755 64.9112 323.779 66.3842H318.768ZM333.683 59.2727L333.212 76.5866H328.793L328.31 59.2727H333.683ZM331.002 84.3139C330.205 84.3139 329.521 84.0322 328.95 83.4688C328.378 82.8973 328.096 82.2131 328.104 81.4162C328.096 80.6274 328.378 79.9512 328.95 79.3878C329.521 78.8243 330.205 78.5426 331.002 78.5426C331.767 78.5426 332.439 78.8243 333.018 79.3878C333.598 79.9512 333.892 80.6274 333.9 81.4162C333.892 81.9474 333.751 82.4344 333.477 82.8771C333.212 83.3118 332.862 83.6619 332.427 83.9276C331.992 84.1851 331.517 84.3139 331.002 84.3139Z" fill="#BD4F6C"/>
<path d="M74.9917 177L68.2303 152.273H71.2729L76.4405 172.412H76.682L81.9462 152.273H85.3269L90.5911 172.412H90.8326L96.0002 152.273H99.0428L92.2814 177H89.1905L83.7331 157.295H83.54L78.0826 177H74.9917ZM108.436 177.386C106.649 177.386 105.108 176.992 103.812 176.203C102.524 175.406 101.53 174.295 100.83 172.871C100.137 171.438 99.7914 169.772 99.7914 167.872C99.7914 165.973 100.137 164.298 100.83 162.849C101.53 161.393 102.504 160.258 103.752 159.445C105.007 158.624 106.472 158.213 108.146 158.213C109.112 158.213 110.066 158.374 111.008 158.696C111.95 159.018 112.807 159.541 113.58 160.266C114.352 160.982 114.968 161.932 115.427 163.115C115.886 164.298 116.115 165.755 116.115 167.486V168.693H101.82V166.23H113.218C113.218 165.184 113.008 164.25 112.59 163.429C112.179 162.608 111.592 161.96 110.827 161.485C110.07 161.01 109.177 160.773 108.146 160.773C107.012 160.773 106.03 161.054 105.2 161.618C104.379 162.173 103.748 162.898 103.305 163.791C102.862 164.685 102.641 165.643 102.641 166.665V168.307C102.641 169.707 102.882 170.895 103.365 171.869C103.856 172.835 104.536 173.571 105.406 174.078C106.275 174.577 107.285 174.827 108.436 174.827C109.185 174.827 109.861 174.722 110.465 174.513C111.076 174.295 111.604 173.973 112.046 173.547C112.489 173.112 112.831 172.573 113.073 171.929L115.825 172.702C115.536 173.635 115.049 174.456 114.365 175.165C113.68 175.865 112.835 176.412 111.829 176.807C110.823 177.193 109.692 177.386 108.436 177.386ZM122.961 152.273V154.446C122.961 155.106 122.84 155.81 122.599 156.559C122.365 157.299 122.019 158.02 121.561 158.72C121.11 159.412 120.562 160.016 119.919 160.531L118.373 159.276C118.88 158.551 119.319 157.799 119.689 157.018C120.067 156.229 120.257 155.388 120.257 154.494V152.273H122.961ZM125.995 177V158.455H128.748V161.256H128.941C129.279 160.338 129.891 159.594 130.776 159.022C131.661 158.451 132.659 158.165 133.77 158.165C133.98 158.165 134.241 158.169 134.555 158.177C134.869 158.185 135.106 158.197 135.267 158.213V161.111C135.171 161.087 134.949 161.05 134.603 161.002C134.265 160.946 133.907 160.918 133.529 160.918C132.627 160.918 131.822 161.107 131.114 161.485C130.414 161.855 129.858 162.371 129.448 163.031C129.045 163.683 128.844 164.427 128.844 165.264V177H125.995ZM145.856 177.386C144.069 177.386 142.528 176.992 141.232 176.203C139.944 175.406 138.95 174.295 138.25 172.871C137.557 171.438 137.211 169.772 137.211 167.872C137.211 165.973 137.557 164.298 138.25 162.849C138.95 161.393 139.924 160.258 141.172 159.445C142.427 158.624 143.892 158.213 145.566 158.213C146.532 158.213 147.486 158.374 148.428 158.696C149.37 159.018 150.227 159.541 151 160.266C151.772 160.982 152.388 161.932 152.847 163.115C153.306 164.298 153.535 165.755 153.535 167.486V168.693H139.24V166.23H150.637C150.637 165.184 150.428 164.25 150.01 163.429C149.599 162.608 149.011 161.96 148.247 161.485C147.49 161.01 146.597 160.773 145.566 160.773C144.431 160.773 143.449 161.054 142.62 161.618C141.799 162.173 141.167 162.898 140.725 163.791C140.282 164.685 140.061 165.643 140.061 166.665V168.307C140.061 169.707 140.302 170.895 140.785 171.869C141.276 172.835 141.956 173.571 142.826 174.078C143.695 174.577 144.705 174.827 145.856 174.827C146.605 174.827 147.281 174.722 147.885 174.513C148.496 174.295 149.024 173.973 149.466 173.547C149.909 173.112 150.251 172.573 150.493 171.929L153.245 172.702C152.956 173.635 152.469 174.456 151.784 175.165C151.1 175.865 150.255 176.412 149.249 176.807C148.243 177.193 147.112 177.386 145.856 177.386ZM171.634 177L165.983 158.455H168.978L172.986 172.653H173.179L177.14 158.455H180.182L184.094 172.605H184.287L188.296 158.455H191.29L185.64 177H182.838L178.782 162.753H178.492L174.435 177H171.634ZM201.96 177.386C200.286 177.386 198.817 176.988 197.553 176.191C196.298 175.394 195.316 174.279 194.607 172.847C193.907 171.414 193.557 169.74 193.557 167.824C193.557 165.892 193.907 164.206 194.607 162.765C195.316 161.324 196.298 160.205 197.553 159.408C198.817 158.612 200.286 158.213 201.96 158.213C203.635 158.213 205.1 158.612 206.355 159.408C207.619 160.205 208.601 161.324 209.301 162.765C210.01 164.206 210.364 165.892 210.364 167.824C210.364 169.74 210.01 171.414 209.301 172.847C208.601 174.279 207.619 175.394 206.355 176.191C205.1 176.988 203.635 177.386 201.96 177.386ZM201.96 174.827C203.232 174.827 204.279 174.501 205.1 173.849C205.921 173.197 206.528 172.339 206.923 171.277C207.317 170.214 207.514 169.063 207.514 167.824C207.514 166.584 207.317 165.429 206.923 164.359C206.528 163.288 205.921 162.423 205.1 161.763C204.279 161.103 203.232 160.773 201.96 160.773C200.689 160.773 199.642 161.103 198.821 161.763C198 162.423 197.392 163.288 196.998 164.359C196.604 165.429 196.406 166.584 196.406 167.824C196.406 169.063 196.604 170.214 196.998 171.277C197.392 172.339 198 173.197 198.821 173.849C199.642 174.501 200.689 174.827 201.96 174.827ZM214.713 177V158.455H217.466V161.256H217.659C217.998 160.338 218.609 159.594 219.495 159.022C220.38 158.451 221.378 158.165 222.489 158.165C222.698 158.165 222.96 158.169 223.274 158.177C223.588 158.185 223.825 158.197 223.986 158.213V161.111C223.89 161.087 223.668 161.05 223.322 161.002C222.984 160.946 222.626 160.918 222.248 160.918C221.346 160.918 220.541 161.107 219.833 161.485C219.132 161.855 218.577 162.371 218.167 163.031C217.764 163.683 217.563 164.427 217.563 165.264V177H214.713ZM230.02 170.239L229.972 166.713H230.551L238.665 158.455H242.191L233.546 167.196H233.304L230.02 170.239ZM227.364 177V152.273H230.213V177H227.364ZM239.148 177L231.904 167.824L233.932 165.844L242.77 177H239.148ZM245.858 177V158.455H248.707V177H245.858ZM247.307 155.364C246.751 155.364 246.272 155.174 245.87 154.796C245.476 154.418 245.278 153.963 245.278 153.432C245.278 152.901 245.476 152.446 245.87 152.067C246.272 151.689 246.751 151.5 247.307 151.5C247.862 151.5 248.337 151.689 248.732 152.067C249.134 152.446 249.335 152.901 249.335 153.432C249.335 153.963 249.134 154.418 248.732 154.796C248.337 155.174 247.862 155.364 247.307 155.364ZM256.776 165.844V177H253.926V158.455H256.679V161.352H256.921C257.355 160.411 258.015 159.654 258.901 159.082C259.786 158.503 260.929 158.213 262.33 158.213C263.585 158.213 264.684 158.471 265.626 158.986C266.568 159.493 267.3 160.266 267.823 161.304C268.347 162.334 268.608 163.638 268.608 165.216V177H265.759V165.409C265.759 163.952 265.38 162.817 264.624 162.004C263.867 161.183 262.829 160.773 261.509 160.773C260.599 160.773 259.786 160.97 259.07 161.364C258.361 161.759 257.802 162.334 257.392 163.091C256.981 163.848 256.776 164.765 256.776 165.844ZM281.301 184.341C279.924 184.341 278.741 184.164 277.751 183.81C276.761 183.464 275.936 183.005 275.276 182.433C274.624 181.87 274.105 181.266 273.718 180.622L275.988 179.028C276.246 179.366 276.572 179.753 276.966 180.188C277.361 180.63 277.9 181.013 278.584 181.335C279.276 181.665 280.182 181.83 281.301 181.83C282.798 181.83 284.033 181.467 285.007 180.743C285.981 180.018 286.468 178.884 286.468 177.338V173.571H286.227C286.018 173.909 285.72 174.328 285.333 174.827C284.955 175.318 284.408 175.756 283.691 176.143C282.983 176.521 282.025 176.71 280.818 176.71C279.321 176.71 277.976 176.356 276.785 175.648C275.602 174.939 274.664 173.909 273.972 172.557C273.288 171.205 272.946 169.562 272.946 167.631C272.946 165.731 273.28 164.077 273.948 162.668C274.616 161.252 275.546 160.157 276.737 159.384C277.928 158.603 279.305 158.213 280.866 158.213C282.074 158.213 283.031 158.414 283.74 158.817C284.456 159.211 285.003 159.662 285.382 160.169C285.768 160.668 286.066 161.079 286.275 161.401H286.565V158.455H289.318V177.531C289.318 179.125 288.956 180.421 288.231 181.419C287.515 182.425 286.549 183.162 285.333 183.629C284.126 184.103 282.782 184.341 281.301 184.341ZM281.204 174.151C282.347 174.151 283.313 173.889 284.102 173.366C284.891 172.843 285.49 172.09 285.901 171.108C286.311 170.126 286.517 168.951 286.517 167.582C286.517 166.246 286.315 165.067 285.913 164.045C285.511 163.022 284.915 162.222 284.126 161.642C283.337 161.062 282.363 160.773 281.204 160.773C279.997 160.773 278.991 161.079 278.186 161.69C277.389 162.302 276.789 163.123 276.387 164.153C275.992 165.184 275.795 166.327 275.795 167.582C275.795 168.87 275.996 170.009 276.399 170.999C276.809 171.981 277.413 172.754 278.21 173.317C279.015 173.873 280.013 174.151 281.204 174.151ZM311.63 177.386C309.956 177.386 308.487 176.988 307.223 176.191C305.968 175.394 304.986 174.279 304.277 172.847C303.577 171.414 303.227 169.74 303.227 167.824C303.227 165.892 303.577 164.206 304.277 162.765C304.986 161.324 305.968 160.205 307.223 159.408C308.487 158.612 309.956 158.213 311.63 158.213C313.305 158.213 314.77 158.612 316.025 159.408C317.289 160.205 318.271 161.324 318.971 162.765C319.68 164.206 320.034 165.892 320.034 167.824C320.034 169.74 319.68 171.414 318.971 172.847C318.271 174.279 317.289 175.394 316.025 176.191C314.77 176.988 313.305 177.386 311.63 177.386ZM311.63 174.827C312.902 174.827 313.949 174.501 314.77 173.849C315.591 173.197 316.198 172.339 316.593 171.277C316.987 170.214 317.184 169.063 317.184 167.824C317.184 166.584 316.987 165.429 316.593 164.359C316.198 163.288 315.591 162.423 314.77 161.763C313.949 161.103 312.902 160.773 311.63 160.773C310.359 160.773 309.312 161.103 308.491 161.763C307.67 162.423 307.062 163.288 306.668 164.359C306.274 165.429 306.076 166.584 306.076 167.824C306.076 169.063 306.274 170.214 306.668 171.277C307.062 172.339 307.67 173.197 308.491 173.849C309.312 174.501 310.359 174.827 311.63 174.827ZM327.233 165.844V177H324.383V158.455H327.136V161.352H327.378C327.812 160.411 328.472 159.654 329.358 159.082C330.243 158.503 331.386 158.213 332.787 158.213C334.042 158.213 335.141 158.471 336.083 158.986C337.025 159.493 337.757 160.266 338.28 161.304C338.804 162.334 339.065 163.638 339.065 165.216V177H336.216V165.409C336.216 163.952 335.837 162.817 335.081 162.004C334.324 161.183 333.286 160.773 331.966 160.773C331.056 160.773 330.243 160.97 329.527 161.364C328.818 161.759 328.259 162.334 327.849 163.091C327.438 163.848 327.233 164.765 327.233 165.844ZM354.221 177V152.273H357.07V161.401H357.312C357.521 161.079 357.811 160.668 358.181 160.169C358.559 159.662 359.099 159.211 359.799 158.817C360.507 158.414 361.465 158.213 362.673 158.213C364.234 158.213 365.611 158.603 366.802 159.384C367.993 160.165 368.923 161.272 369.591 162.705C370.259 164.137 370.593 165.828 370.593 167.776C370.593 169.74 370.259 171.442 369.591 172.883C368.923 174.316 367.997 175.426 366.814 176.215C365.631 176.996 364.266 177.386 362.721 177.386C361.53 177.386 360.576 177.189 359.859 176.795C359.143 176.392 358.592 175.937 358.205 175.43C357.819 174.915 357.521 174.489 357.312 174.151H356.974V177H354.221ZM357.022 167.727C357.022 169.128 357.227 170.363 357.638 171.434C358.048 172.496 358.648 173.33 359.437 173.933C360.226 174.529 361.192 174.827 362.335 174.827C363.526 174.827 364.52 174.513 365.317 173.885C366.122 173.249 366.725 172.396 367.128 171.325C367.538 170.247 367.744 169.047 367.744 167.727C367.744 166.423 367.542 165.248 367.14 164.202C366.746 163.147 366.146 162.314 365.341 161.702C364.544 161.083 363.542 160.773 362.335 160.773C361.175 160.773 360.201 161.067 359.413 161.654C358.624 162.234 358.028 163.047 357.626 164.093C357.223 165.131 357.022 166.343 357.022 167.727ZM374.952 177V158.455H377.705V161.256H377.898C378.236 160.338 378.848 159.594 379.733 159.022C380.618 158.451 381.616 158.165 382.727 158.165C382.937 158.165 383.198 158.169 383.512 158.177C383.826 158.185 384.063 158.197 384.224 158.213V161.111C384.128 161.087 383.906 161.05 383.56 161.002C383.222 160.946 382.864 160.918 382.486 160.918C381.584 160.918 380.779 161.107 380.071 161.485C379.371 161.855 378.815 162.371 378.405 163.031C378.002 163.683 377.801 164.427 377.801 165.264V177H374.952ZM387.602 177V158.455H390.452V177H387.602ZM389.051 155.364C388.496 155.364 388.017 155.174 387.614 154.796C387.22 154.418 387.023 153.963 387.023 153.432C387.023 152.901 387.22 152.446 387.614 152.067C388.017 151.689 388.496 151.5 389.051 151.5C389.606 151.5 390.081 151.689 390.476 152.067C390.878 152.446 391.079 152.901 391.079 153.432C391.079 153.963 390.878 154.418 390.476 154.796C390.081 155.174 389.606 155.364 389.051 155.364ZM398.52 165.844V177H395.67V158.455H398.423V161.352H398.665C399.099 160.411 399.759 159.654 400.645 159.082C401.53 158.503 402.673 158.213 404.074 158.213C405.33 158.213 406.428 158.471 407.37 158.986C408.312 159.493 409.044 160.266 409.567 161.304C410.091 162.334 410.352 163.638 410.352 165.216V177H407.503V165.409C407.503 163.952 407.125 162.817 406.368 162.004C405.611 161.183 404.573 160.773 403.253 160.773C402.343 160.773 401.53 160.97 400.814 161.364C400.106 161.759 399.546 162.334 399.136 163.091C398.725 163.848 398.52 164.765 398.52 165.844ZM415.559 177V158.455H418.409V177H415.559ZM417.008 155.364C416.453 155.364 415.974 155.174 415.571 154.796C415.177 154.418 414.98 153.963 414.98 153.432C414.98 152.901 415.177 152.446 415.571 152.067C415.974 151.689 416.453 151.5 417.008 151.5C417.563 151.5 418.038 151.689 418.433 152.067C418.835 152.446 419.036 152.901 419.036 153.432C419.036 153.963 418.835 154.418 418.433 154.796C418.038 155.174 417.563 155.364 417.008 155.364ZM426.477 165.844V177H423.627V158.455H426.38V161.352H426.622C427.056 160.411 427.717 159.654 428.602 159.082C429.487 158.503 430.63 158.213 432.031 158.213C433.287 158.213 434.385 158.471 435.327 158.986C436.269 159.493 437.001 160.266 437.525 161.304C438.048 162.334 438.309 163.638 438.309 165.216V177H435.46V165.409C435.46 163.952 435.082 162.817 434.325 162.004C433.568 161.183 432.53 160.773 431.21 160.773C430.3 160.773 429.487 160.97 428.771 161.364C428.063 161.759 427.503 162.334 427.093 163.091C426.682 163.848 426.477 164.765 426.477 165.844ZM451.002 184.341C449.626 184.341 448.442 184.164 447.452 183.81C446.462 183.464 445.637 183.005 444.977 182.433C444.325 181.87 443.806 181.266 443.42 180.622L445.689 179.028C445.947 179.366 446.273 179.753 446.667 180.188C447.062 180.63 447.601 181.013 448.285 181.335C448.978 181.665 449.883 181.83 451.002 181.83C452.499 181.83 453.735 181.467 454.709 180.743C455.683 180.018 456.17 178.884 456.17 177.338V173.571H455.928C455.719 173.909 455.421 174.328 455.035 174.827C454.656 175.318 454.109 175.756 453.393 176.143C452.684 176.521 451.726 176.71 450.519 176.71C449.022 176.71 447.678 176.356 446.486 175.648C445.303 174.939 444.365 173.909 443.673 172.557C442.989 171.205 442.647 169.562 442.647 167.631C442.647 165.731 442.981 164.077 443.649 162.668C444.317 161.252 445.247 160.157 446.438 159.384C447.629 158.603 449.006 158.213 450.567 158.213C451.775 158.213 452.733 158.414 453.441 158.817C454.157 159.211 454.705 159.662 455.083 160.169C455.469 160.668 455.767 161.079 455.976 161.401H456.266V158.455H459.019V177.531C459.019 179.125 458.657 180.421 457.932 181.419C457.216 182.425 456.25 183.162 455.035 183.629C453.827 184.103 452.483 184.341 451.002 184.341ZM450.905 174.151C452.048 174.151 453.014 173.889 453.803 173.366C454.592 172.843 455.192 172.09 455.602 171.108C456.013 170.126 456.218 168.951 456.218 167.582C456.218 166.246 456.017 165.067 455.614 164.045C455.212 163.022 454.616 162.222 453.827 161.642C453.038 161.062 452.064 160.773 450.905 160.773C449.698 160.773 448.692 161.079 447.887 161.69C447.09 162.302 446.49 163.123 446.088 164.153C445.693 165.184 445.496 166.327 445.496 167.582C445.496 168.87 445.698 170.009 446.1 170.999C446.51 171.981 447.114 172.754 447.911 173.317C448.716 173.873 449.714 174.151 450.905 174.151ZM475.633 183.955C475.15 183.955 474.719 183.914 474.341 183.834C473.962 183.761 473.701 183.689 473.556 183.616L474.28 181.105C474.973 181.282 475.584 181.347 476.116 181.298C476.647 181.25 477.118 181.013 477.528 180.586C477.947 180.167 478.329 179.487 478.675 178.545L479.206 177.097L472.349 158.455H475.439L480.559 173.233H480.752L485.871 158.455H488.962L481.09 179.705C480.736 180.662 480.297 181.455 479.774 182.083C479.251 182.719 478.643 183.19 477.951 183.496C477.267 183.802 476.494 183.955 475.633 183.955ZM499.593 177.386C497.919 177.386 496.45 176.988 495.186 176.191C493.931 175.394 492.949 174.279 492.24 172.847C491.54 171.414 491.19 169.74 491.19 167.824C491.19 165.892 491.54 164.206 492.24 162.765C492.949 161.324 493.931 160.205 495.186 159.408C496.45 158.612 497.919 158.213 499.593 158.213C501.267 158.213 502.732 158.612 503.988 159.408C505.252 160.205 506.234 161.324 506.934 162.765C507.642 164.206 507.997 165.892 507.997 167.824C507.997 169.74 507.642 171.414 506.934 172.847C506.234 174.279 505.252 175.394 503.988 176.191C502.732 176.988 501.267 177.386 499.593 177.386ZM499.593 174.827C500.865 174.827 501.911 174.501 502.732 173.849C503.553 173.197 504.161 172.339 504.556 171.277C504.95 170.214 505.147 169.063 505.147 167.824C505.147 166.584 504.95 165.429 504.556 164.359C504.161 163.288 503.553 162.423 502.732 161.763C501.911 161.103 500.865 160.773 499.593 160.773C498.321 160.773 497.275 161.103 496.454 161.763C495.633 162.423 495.025 163.288 494.631 164.359C494.236 165.429 494.039 166.584 494.039 167.824C494.039 169.063 494.236 170.214 494.631 171.277C495.025 172.339 495.633 173.197 496.454 173.849C497.275 174.501 498.321 174.827 499.593 174.827ZM524.034 169.418V158.455H526.883V177H524.034V173.861H523.841C523.406 174.803 522.73 175.603 521.812 176.263C520.895 176.915 519.735 177.241 518.335 177.241C517.176 177.241 516.145 176.988 515.244 176.481C514.342 175.966 513.634 175.193 513.119 174.163C512.604 173.124 512.346 171.816 512.346 170.239V158.455H515.196V170.045C515.196 171.398 515.574 172.476 516.331 173.281C517.095 174.086 518.069 174.489 519.252 174.489C519.961 174.489 520.681 174.308 521.414 173.945C522.154 173.583 522.774 173.028 523.273 172.279C523.78 171.531 524.034 170.577 524.034 169.418ZM50.1074 225.341C48.731 225.341 47.5478 225.164 46.5577 224.81C45.5676 224.464 44.7426 224.005 44.0826 223.433C43.4306 222.87 42.9114 222.266 42.525 221.622L44.7949 220.028C45.0525 220.366 45.3785 220.753 45.7729 221.188C46.1673 221.63 46.7066 222.013 47.3908 222.335C48.083 222.665 48.9886 222.83 50.1074 222.83C51.6046 222.83 52.8401 222.467 53.8141 221.743C54.7881 221.018 55.275 219.884 55.275 218.338V214.571H55.0336C54.8243 214.909 54.5265 215.328 54.1401 215.827C53.7618 216.318 53.2144 216.756 52.498 217.143C51.7897 217.521 50.8319 217.71 49.6245 217.71C48.1273 217.71 46.7831 217.356 45.5918 216.648C44.4086 215.939 43.4708 214.909 42.7786 213.557C42.0944 212.205 41.7523 210.562 41.7523 208.631C41.7523 206.731 42.0864 205.077 42.7544 203.668C43.4225 202.252 44.3522 201.157 45.5435 200.384C46.7348 199.603 48.1112 199.213 49.6728 199.213C50.8801 199.213 51.838 199.414 52.5463 199.817C53.2627 200.211 53.8101 200.662 54.1884 201.169C54.5748 201.668 54.8726 202.079 55.0819 202.401H55.3716V199.455H58.1245V218.531C58.1245 220.125 57.7623 221.421 57.0378 222.419C56.3214 223.425 55.3555 224.162 54.1401 224.629C52.9327 225.103 51.5885 225.341 50.1074 225.341ZM50.0108 215.151C51.1538 215.151 52.1197 214.889 52.9086 214.366C53.6974 213.843 54.2971 213.09 54.7076 212.108C55.1181 211.126 55.3233 209.951 55.3233 208.582C55.3233 207.246 55.1221 206.067 54.7196 205.045C54.3172 204.022 53.7215 203.222 52.9327 202.642C52.1439 202.062 51.1699 201.773 50.0108 201.773C48.8034 201.773 47.7973 202.079 46.9924 202.69C46.1955 203.302 45.5958 204.123 45.1934 205.153C44.7989 206.184 44.6017 207.327 44.6017 208.582C44.6017 209.87 44.803 211.009 45.2054 211.999C45.6159 212.981 46.2196 213.754 47.0165 214.317C47.8214 214.873 48.8195 215.151 50.0108 215.151ZM63.3404 218V199.455H66.0932V202.256H66.2864C66.6245 201.338 67.2362 200.594 68.1216 200.022C69.007 199.451 70.0051 199.165 71.1159 199.165C71.3252 199.165 71.5868 199.169 71.9007 199.177C72.2147 199.185 72.4521 199.197 72.6131 199.213V202.111C72.5165 202.087 72.2952 202.05 71.949 202.002C71.611 201.946 71.2528 201.918 70.8745 201.918C69.973 201.918 69.168 202.107 68.4597 202.485C67.7594 202.855 67.204 203.371 66.7935 204.031C66.391 204.683 66.1898 205.427 66.1898 206.264V218H63.3404ZM83.2019 218.386C81.415 218.386 79.8735 217.992 78.5776 217.203C77.2897 216.406 76.2956 215.295 75.5953 213.871C74.9031 212.438 74.557 210.772 74.557 208.872C74.557 206.973 74.9031 205.298 75.5953 203.849C76.2956 202.393 77.2696 201.258 78.5172 200.445C79.7729 199.624 81.2379 199.213 82.9121 199.213C83.878 199.213 84.8319 199.374 85.7736 199.696C86.7154 200.018 87.5726 200.541 88.3453 201.266C89.1181 201.982 89.7338 202.932 90.1927 204.115C90.6515 205.298 90.8809 206.755 90.8809 208.486V209.693H76.5854V207.23H87.9831C87.9831 206.184 87.7739 205.25 87.3553 204.429C86.9448 203.608 86.3572 202.96 85.5925 202.485C84.8359 202.01 83.9424 201.773 82.9121 201.773C81.7772 201.773 80.7952 202.054 79.9661 202.618C79.1451 203.173 78.5132 203.898 78.0705 204.791C77.6278 205.685 77.4064 206.643 77.4064 207.665V209.307C77.4064 210.707 77.6479 211.895 78.1309 212.869C78.6219 213.835 79.302 214.571 80.1713 215.078C81.0407 215.577 82.0508 215.827 83.2019 215.827C83.9505 215.827 84.6266 215.722 85.2303 215.513C85.842 215.295 86.3693 214.973 86.812 214.547C87.2547 214.112 87.5968 213.573 87.8382 212.929L90.5911 213.702C90.3013 214.635 89.8143 215.456 89.1301 216.165C88.446 216.865 87.6008 217.412 86.5946 217.807C85.5885 218.193 84.4576 218.386 83.2019 218.386ZM100.673 218.435C99.4976 218.435 98.431 218.213 97.4732 217.771C96.5153 217.32 95.7547 216.672 95.1912 215.827C94.6278 214.973 94.3461 213.943 94.3461 212.736C94.3461 211.673 94.5553 210.812 94.9739 210.152C95.3925 209.484 95.9519 208.961 96.6522 208.582C97.3525 208.204 98.1252 207.922 98.9703 207.737C99.8236 207.544 100.681 207.391 101.542 207.278C102.669 207.134 103.583 207.025 104.283 206.952C104.991 206.872 105.506 206.739 105.828 206.554C106.158 206.369 106.323 206.047 106.323 205.588V205.491C106.323 204.3 105.997 203.375 105.345 202.714C104.701 202.054 103.723 201.724 102.411 201.724C101.051 201.724 99.9846 202.022 99.2118 202.618C98.4391 203.214 97.8958 203.849 97.5819 204.526L94.8773 203.56C95.3603 202.433 96.0042 201.555 96.8091 200.928C97.6221 200.292 98.5075 199.849 99.4654 199.599C100.431 199.342 101.381 199.213 102.315 199.213C102.91 199.213 103.595 199.286 104.367 199.43C105.148 199.567 105.901 199.853 106.625 200.288C107.358 200.722 107.965 201.378 108.448 202.256C108.931 203.133 109.173 204.308 109.173 205.781V218H106.323V215.489H106.178C105.985 215.891 105.663 216.322 105.213 216.781C104.762 217.239 104.162 217.63 103.414 217.952C102.665 218.274 101.751 218.435 100.673 218.435ZM101.107 215.875C102.234 215.875 103.184 215.654 103.957 215.211C104.738 214.768 105.325 214.197 105.72 213.496C106.122 212.796 106.323 212.06 106.323 211.287V208.679C106.203 208.824 105.937 208.957 105.526 209.077C105.124 209.19 104.657 209.291 104.126 209.379C103.603 209.46 103.092 209.532 102.593 209.597C102.102 209.653 101.703 209.701 101.397 209.741C100.657 209.838 99.9644 209.995 99.3205 210.212C98.6846 210.422 98.1694 210.74 97.775 211.166C97.3887 211.585 97.1955 212.156 97.1955 212.881C97.1955 213.871 97.5617 214.619 98.2942 215.126C99.0347 215.625 99.9725 215.875 101.107 215.875ZM122.439 199.455V201.869H112.828V199.455H122.439ZM115.629 195.011H118.479V212.688C118.479 213.492 118.595 214.096 118.829 214.499C119.07 214.893 119.376 215.159 119.746 215.295C120.125 215.424 120.523 215.489 120.942 215.489C121.256 215.489 121.513 215.473 121.714 215.44C121.916 215.4 122.077 215.368 122.197 215.344L122.777 217.903C122.584 217.976 122.314 218.048 121.968 218.121C121.622 218.201 121.183 218.241 120.652 218.241C119.847 218.241 119.058 218.068 118.286 217.722C117.521 217.376 116.885 216.849 116.378 216.141C115.879 215.432 115.629 214.539 115.629 213.46V195.011ZM136.288 224.955V199.455H139.04V202.401H139.379C139.588 202.079 139.878 201.668 140.248 201.169C140.626 200.662 141.165 200.211 141.866 199.817C142.574 199.414 143.532 199.213 144.739 199.213C146.301 199.213 147.677 199.603 148.869 200.384C150.06 201.165 150.99 202.272 151.658 203.705C152.326 205.137 152.66 206.828 152.66 208.776C152.66 210.74 152.326 212.442 151.658 213.883C150.99 215.316 150.064 216.426 148.881 217.215C147.697 217.996 146.333 218.386 144.788 218.386C143.596 218.386 142.643 218.189 141.926 217.795C141.21 217.392 140.658 216.937 140.272 216.43C139.886 215.915 139.588 215.489 139.379 215.151H139.137V224.955H136.288ZM139.089 208.727C139.089 210.128 139.294 211.363 139.705 212.434C140.115 213.496 140.715 214.33 141.504 214.933C142.292 215.529 143.258 215.827 144.401 215.827C145.593 215.827 146.587 215.513 147.384 214.885C148.188 214.249 148.792 213.396 149.195 212.325C149.605 211.247 149.81 210.047 149.81 208.727C149.81 207.423 149.609 206.248 149.207 205.202C148.812 204.147 148.213 203.314 147.408 202.702C146.611 202.083 145.609 201.773 144.401 201.773C143.242 201.773 142.268 202.067 141.479 202.654C140.691 203.234 140.095 204.047 139.692 205.093C139.29 206.131 139.089 207.343 139.089 208.727ZM168.694 210.418V199.455H171.543V218H168.694V214.861H168.501C168.066 215.803 167.39 216.603 166.472 217.263C165.555 217.915 164.396 218.241 162.995 218.241C161.836 218.241 160.806 217.988 159.904 217.481C159.003 216.966 158.294 216.193 157.779 215.163C157.264 214.124 157.006 212.816 157.006 211.239V199.455H159.856V211.045C159.856 212.398 160.234 213.476 160.991 214.281C161.755 215.086 162.729 215.489 163.913 215.489C164.621 215.489 165.341 215.308 166.074 214.945C166.814 214.583 167.434 214.028 167.933 213.279C168.44 212.531 168.694 211.577 168.694 210.418ZM176.762 224.955V199.455H179.515V202.401H179.853C180.062 202.079 180.352 201.668 180.722 201.169C181.101 200.662 181.64 200.211 182.34 199.817C183.049 199.414 184.007 199.213 185.214 199.213C186.776 199.213 188.152 199.603 189.343 200.384C190.535 201.165 191.464 202.272 192.132 203.705C192.8 205.137 193.134 206.828 193.134 208.776C193.134 210.74 192.8 212.442 192.132 213.883C191.464 215.316 190.539 216.426 189.355 217.215C188.172 217.996 186.808 218.386 185.262 218.386C184.071 218.386 183.117 218.189 182.401 217.795C181.684 217.392 181.133 216.937 180.747 216.43C180.36 215.915 180.062 215.489 179.853 215.151H179.612V224.955H176.762ZM179.563 208.727C179.563 210.128 179.769 211.363 180.179 212.434C180.59 213.496 181.189 214.33 181.978 214.933C182.767 215.529 183.733 215.827 184.876 215.827C186.067 215.827 187.061 215.513 187.858 214.885C188.663 214.249 189.267 213.396 189.669 212.325C190.08 211.247 190.285 210.047 190.285 208.727C190.285 207.423 190.084 206.248 189.681 205.202C189.287 204.147 188.687 203.314 187.882 202.702C187.085 202.083 186.083 201.773 184.876 201.773C183.717 201.773 182.743 202.067 181.954 202.654C181.165 203.234 180.57 204.047 180.167 205.093C179.765 206.131 179.563 207.343 179.563 208.727ZM197.481 224.955V199.455H200.234V202.401H200.572C200.781 202.079 201.071 201.668 201.441 201.169C201.82 200.662 202.359 200.211 203.059 199.817C203.767 199.414 204.725 199.213 205.933 199.213C207.494 199.213 208.871 199.603 210.062 200.384C211.253 201.165 212.183 202.272 212.851 203.705C213.519 205.137 213.853 206.828 213.853 208.776C213.853 210.74 213.519 212.442 212.851 213.883C212.183 215.316 211.257 216.426 210.074 217.215C208.891 217.996 207.526 218.386 205.981 218.386C204.79 218.386 203.836 218.189 203.119 217.795C202.403 217.392 201.852 216.937 201.465 216.43C201.079 215.915 200.781 215.489 200.572 215.151H200.33V224.955H197.481ZM200.282 208.727C200.282 210.128 200.487 211.363 200.898 212.434C201.308 213.496 201.908 214.33 202.697 214.933C203.486 215.529 204.452 215.827 205.595 215.827C206.786 215.827 207.78 215.513 208.577 214.885C209.382 214.249 209.985 213.396 210.388 212.325C210.798 211.247 211.004 210.047 211.004 208.727C211.004 207.423 210.802 206.248 210.4 205.202C210.006 204.147 209.406 203.314 208.601 202.702C207.804 202.083 206.802 201.773 205.595 201.773C204.436 201.773 203.462 202.067 202.673 202.654C201.884 203.234 201.288 204.047 200.886 205.093C200.483 206.131 200.282 207.343 200.282 208.727ZM219.371 224.955C218.888 224.955 218.457 224.914 218.079 224.834C217.701 224.761 217.439 224.689 217.294 224.616L218.019 222.105C218.711 222.282 219.323 222.347 219.854 222.298C220.385 222.25 220.856 222.013 221.267 221.586C221.685 221.167 222.067 220.487 222.414 219.545L222.945 218.097L216.087 199.455H219.178L224.297 214.233H224.49L229.61 199.455H232.7L224.828 220.705C224.474 221.662 224.035 222.455 223.512 223.083C222.989 223.719 222.381 224.19 221.689 224.496C221.005 224.802 220.232 224.955 219.371 224.955ZM257.711 210.418V199.455H260.561V218H257.711V214.861H257.518C257.084 215.803 256.407 216.603 255.49 217.263C254.572 217.915 253.413 218.241 252.013 218.241C250.854 218.241 249.823 217.988 248.922 217.481C248.02 216.966 247.312 216.193 246.797 215.163C246.282 214.124 246.024 212.816 246.024 211.239V199.455H248.873V211.045C248.873 212.398 249.252 213.476 250.008 214.281C250.773 215.086 251.747 215.489 252.93 215.489C253.639 215.489 254.359 215.308 255.091 214.945C255.832 214.583 256.452 214.028 256.951 213.279C257.458 212.531 257.711 211.577 257.711 210.418ZM265.78 224.955V199.455H268.533V202.401H268.871C269.08 202.079 269.37 201.668 269.74 201.169C270.118 200.662 270.658 200.211 271.358 199.817C272.066 199.414 273.024 199.213 274.232 199.213C275.793 199.213 277.17 199.603 278.361 200.384C279.552 201.165 280.482 202.272 281.15 203.705C281.818 205.137 282.152 206.828 282.152 208.776C282.152 210.74 281.818 212.442 281.15 213.883C280.482 215.316 279.556 216.426 278.373 217.215C277.19 217.996 275.825 218.386 274.28 218.386C273.089 218.386 272.135 218.189 271.418 217.795C270.702 217.392 270.151 216.937 269.764 216.43C269.378 215.915 269.08 215.489 268.871 215.151H268.629V224.955H265.78ZM268.581 208.727C268.581 210.128 268.786 211.363 269.197 212.434C269.607 213.496 270.207 214.33 270.996 214.933C271.785 215.529 272.75 215.827 273.893 215.827C275.085 215.827 276.079 215.513 276.876 214.885C277.681 214.249 278.284 213.396 278.687 212.325C279.097 211.247 279.303 210.047 279.303 208.727C279.303 207.423 279.101 206.248 278.699 205.202C278.304 204.147 277.705 203.314 276.9 202.702C276.103 202.083 275.101 201.773 273.893 201.773C272.734 201.773 271.76 202.067 270.972 202.654C270.183 203.234 269.587 204.047 269.185 205.093C268.782 206.131 268.581 207.343 268.581 208.727ZM293.501 218.386C291.956 218.386 290.592 217.996 289.408 217.215C288.225 216.426 287.299 215.316 286.631 213.883C285.963 212.442 285.629 210.74 285.629 208.776C285.629 206.828 285.963 205.137 286.631 203.705C287.299 202.272 288.229 201.165 289.42 200.384C290.612 199.603 291.988 199.213 293.55 199.213C294.757 199.213 295.711 199.414 296.411 199.817C297.12 200.211 297.659 200.662 298.029 201.169C298.407 201.668 298.701 202.079 298.911 202.401H299.152V193.273H302.001V218H299.249V215.151H298.911C298.701 215.489 298.403 215.915 298.017 216.43C297.631 216.937 297.079 217.392 296.363 217.795C295.647 218.189 294.693 218.386 293.501 218.386ZM293.888 215.827C295.031 215.827 295.997 215.529 296.786 214.933C297.574 214.33 298.174 213.496 298.585 212.434C298.995 211.363 299.2 210.128 299.2 208.727C299.2 207.343 298.999 206.131 298.597 205.093C298.194 204.047 297.598 203.234 296.81 202.654C296.021 202.067 295.047 201.773 293.888 201.773C292.68 201.773 291.674 202.083 290.869 202.702C290.072 203.314 289.473 204.147 289.07 205.202C288.676 206.248 288.479 207.423 288.479 208.727C288.479 210.047 288.68 211.247 289.082 212.325C289.493 213.396 290.097 214.249 290.893 214.885C291.698 215.513 292.696 215.827 293.888 215.827ZM313.073 218.435C311.898 218.435 310.831 218.213 309.874 217.771C308.916 217.32 308.155 216.672 307.592 215.827C307.028 214.973 306.746 213.943 306.746 212.736C306.746 211.673 306.956 210.812 307.374 210.152C307.793 209.484 308.352 208.961 309.053 208.582C309.753 208.204 310.526 207.922 311.371 207.737C312.224 207.544 313.081 207.391 313.942 207.278C315.069 207.134 315.983 207.025 316.683 206.952C317.392 206.872 317.907 206.739 318.229 206.554C318.559 206.369 318.724 206.047 318.724 205.588V205.491C318.724 204.3 318.398 203.375 317.746 202.714C317.102 202.054 316.124 201.724 314.812 201.724C313.451 201.724 312.385 202.022 311.612 202.618C310.839 203.214 310.296 203.849 309.982 204.526L307.278 203.56C307.761 202.433 308.405 201.555 309.21 200.928C310.022 200.292 310.908 199.849 311.866 199.599C312.832 199.342 313.781 199.213 314.715 199.213C315.311 199.213 315.995 199.286 316.768 199.43C317.549 199.567 318.301 199.853 319.026 200.288C319.758 200.722 320.366 201.378 320.849 202.256C321.332 203.133 321.573 204.308 321.573 205.781V218H318.724V215.489H318.579C318.386 215.891 318.064 216.322 317.613 216.781C317.162 217.239 316.563 217.63 315.814 217.952C315.065 218.274 314.152 218.435 313.073 218.435ZM313.508 215.875C314.635 215.875 315.585 215.654 316.357 215.211C317.138 214.768 317.726 214.197 318.12 213.496C318.522 212.796 318.724 212.06 318.724 211.287V208.679C318.603 208.824 318.337 208.957 317.927 209.077C317.524 209.19 317.058 209.291 316.526 209.379C316.003 209.46 315.492 209.532 314.993 209.597C314.502 209.653 314.103 209.701 313.798 209.741C313.057 209.838 312.365 209.995 311.721 210.212C311.085 210.422 310.57 210.74 310.175 211.166C309.789 211.585 309.596 212.156 309.596 212.881C309.596 213.871 309.962 214.619 310.695 215.126C311.435 215.625 312.373 215.875 313.508 215.875ZM334.839 199.455V201.869H325.229V199.455H334.839ZM328.03 195.011H330.879V212.688C330.879 213.492 330.996 214.096 331.229 214.499C331.471 214.893 331.777 215.159 332.147 215.295C332.525 215.424 332.924 215.489 333.342 215.489C333.656 215.489 333.914 215.473 334.115 215.44C334.316 215.4 334.477 215.368 334.598 215.344L335.177 217.903C334.984 217.976 334.715 218.048 334.368 218.121C334.022 218.201 333.584 218.241 333.052 218.241C332.247 218.241 331.459 218.068 330.686 217.722C329.921 217.376 329.285 216.849 328.778 216.141C328.279 215.432 328.03 214.539 328.03 213.46V195.011ZM346.702 218.386C344.915 218.386 343.374 217.992 342.078 217.203C340.79 216.406 339.796 215.295 339.095 213.871C338.403 212.438 338.057 210.772 338.057 208.872C338.057 206.973 338.403 205.298 339.095 203.849C339.796 202.393 340.77 201.258 342.017 200.445C343.273 199.624 344.738 199.213 346.412 199.213C347.378 199.213 348.332 199.374 349.274 199.696C350.215 200.018 351.073 200.541 351.845 201.266C352.618 201.982 353.234 202.932 353.693 204.115C354.151 205.298 354.381 206.755 354.381 208.486V209.693H340.085V207.23H351.483C351.483 206.184 351.274 205.25 350.855 204.429C350.445 203.608 349.857 202.96 349.093 202.485C348.336 202.01 347.442 201.773 346.412 201.773C345.277 201.773 344.295 202.054 343.466 202.618C342.645 203.173 342.013 203.898 341.57 204.791C341.128 205.685 340.906 206.643 340.906 207.665V209.307C340.906 210.707 341.148 211.895 341.631 212.869C342.122 213.835 342.802 214.571 343.671 215.078C344.541 215.577 345.551 215.827 346.702 215.827C347.45 215.827 348.127 215.722 348.73 215.513C349.342 215.295 349.869 214.973 350.312 214.547C350.755 214.112 351.097 213.573 351.338 212.929L354.091 213.702C353.801 214.635 353.314 215.456 352.63 216.165C351.946 216.865 351.101 217.412 350.095 217.807C349.088 218.193 347.958 218.386 346.702 218.386ZM371.852 203.608L369.292 204.332C369.131 203.906 368.894 203.491 368.58 203.089C368.274 202.678 367.855 202.34 367.324 202.075C366.793 201.809 366.113 201.676 365.284 201.676C364.149 201.676 363.203 201.938 362.446 202.461C361.698 202.976 361.323 203.632 361.323 204.429C361.323 205.137 361.581 205.697 362.096 206.107C362.611 206.518 363.416 206.86 364.511 207.134L367.264 207.81C368.922 208.212 370.157 208.828 370.97 209.657C371.783 210.478 372.19 211.536 372.19 212.832C372.19 213.895 371.884 214.845 371.272 215.682C370.669 216.519 369.823 217.179 368.737 217.662C367.65 218.145 366.386 218.386 364.945 218.386C363.054 218.386 361.488 217.976 360.249 217.155C359.009 216.334 358.224 215.134 357.894 213.557L360.599 212.881C360.856 213.879 361.343 214.627 362.06 215.126C362.784 215.625 363.73 215.875 364.897 215.875C366.225 215.875 367.28 215.593 368.061 215.03C368.849 214.458 369.244 213.774 369.244 212.977C369.244 212.333 369.018 211.794 368.568 211.359C368.117 210.917 367.425 210.587 366.491 210.369L363.4 209.645C361.702 209.242 360.454 208.619 359.657 207.773C358.868 206.92 358.474 205.854 358.474 204.574C358.474 203.527 358.768 202.602 359.355 201.797C359.951 200.992 360.76 200.36 361.782 199.901C362.812 199.442 363.98 199.213 365.284 199.213C367.119 199.213 368.56 199.616 369.606 200.42C370.66 201.225 371.409 202.288 371.852 203.608ZM401.206 199.455L394.348 218H391.451L384.593 199.455H387.684L392.803 214.233H392.996L398.115 199.455H401.206ZM404.967 218V199.455H407.817V218H404.967ZM406.416 196.364C405.861 196.364 405.382 196.174 404.979 195.796C404.585 195.418 404.388 194.963 404.388 194.432C404.388 193.901 404.585 193.446 404.979 193.067C405.382 192.689 405.861 192.5 406.416 192.5C406.972 192.5 407.446 192.689 407.841 193.067C408.243 193.446 408.445 193.901 408.445 194.432C408.445 194.963 408.243 195.418 407.841 195.796C407.446 196.174 406.972 196.364 406.416 196.364ZM418.493 218.435C417.318 218.435 416.251 218.213 415.294 217.771C414.336 217.32 413.575 216.672 413.012 215.827C412.448 214.973 412.166 213.943 412.166 212.736C412.166 211.673 412.376 210.812 412.794 210.152C413.213 209.484 413.772 208.961 414.472 208.582C415.173 208.204 415.945 207.922 416.791 207.737C417.644 207.544 418.501 207.391 419.362 207.278C420.489 207.134 421.403 207.025 422.103 206.952C422.811 206.872 423.327 206.739 423.649 206.554C423.979 206.369 424.144 206.047 424.144 205.588V205.491C424.144 204.3 423.818 203.375 423.166 202.714C422.522 202.054 421.544 201.724 420.232 201.724C418.871 201.724 417.805 202.022 417.032 202.618C416.259 203.214 415.716 203.849 415.402 204.526L412.698 203.56C413.181 202.433 413.825 201.555 414.629 200.928C415.442 200.292 416.328 199.849 417.286 199.599C418.252 199.342 419.201 199.213 420.135 199.213C420.731 199.213 421.415 199.286 422.188 199.43C422.968 199.567 423.721 199.853 424.445 200.288C425.178 200.722 425.786 201.378 426.269 202.256C426.752 203.133 426.993 204.308 426.993 205.781V218H424.144V215.489H423.999C423.806 215.891 423.484 216.322 423.033 216.781C422.582 217.239 421.982 217.63 421.234 217.952C420.485 218.274 419.572 218.435 418.493 218.435ZM418.928 215.875C420.055 215.875 421.004 215.654 421.777 215.211C422.558 214.768 423.146 214.197 423.54 213.496C423.942 212.796 424.144 212.06 424.144 211.287V208.679C424.023 208.824 423.757 208.957 423.347 209.077C422.944 209.19 422.477 209.291 421.946 209.379C421.423 209.46 420.912 209.532 420.413 209.597C419.922 209.653 419.523 209.701 419.218 209.741C418.477 209.838 417.785 209.995 417.141 210.212C416.505 210.422 415.99 210.74 415.595 211.166C415.209 211.585 415.016 212.156 415.016 212.881C415.016 213.871 415.382 214.619 416.115 215.126C416.855 215.625 417.793 215.875 418.928 215.875ZM447.214 218.435C446.039 218.435 444.972 218.213 444.014 217.771C443.056 217.32 442.296 216.672 441.732 215.827C441.169 214.973 440.887 213.943 440.887 212.736C440.887 211.673 441.096 210.812 441.515 210.152C441.933 209.484 442.493 208.961 443.193 208.582C443.893 208.204 444.666 207.922 445.511 207.737C446.365 207.544 447.222 207.391 448.083 207.278C449.21 207.134 450.124 207.025 450.824 206.952C451.532 206.872 452.047 206.739 452.369 206.554C452.699 206.369 452.864 206.047 452.864 205.588V205.491C452.864 204.3 452.538 203.375 451.886 202.714C451.242 202.054 450.264 201.724 448.952 201.724C447.592 201.724 446.526 202.022 445.753 202.618C444.98 203.214 444.437 203.849 444.123 204.526L441.418 203.56C441.901 202.433 442.545 201.555 443.35 200.928C444.163 200.292 445.049 199.849 446.006 199.599C446.972 199.342 447.922 199.213 448.856 199.213C449.451 199.213 450.136 199.286 450.908 199.43C451.689 199.567 452.442 199.853 453.166 200.288C453.899 200.722 454.506 201.378 454.989 202.256C455.472 203.133 455.714 204.308 455.714 205.781V218H452.864V215.489H452.719C452.526 215.891 452.204 216.322 451.754 216.781C451.303 217.239 450.703 217.63 449.955 217.952C449.206 218.274 448.292 218.435 447.214 218.435ZM447.648 215.875C448.775 215.875 449.725 215.654 450.498 215.211C451.279 214.768 451.866 214.197 452.261 213.496C452.663 212.796 452.864 212.06 452.864 211.287V208.679C452.744 208.824 452.478 208.957 452.067 209.077C451.665 209.19 451.198 209.291 450.667 209.379C450.144 209.46 449.633 209.532 449.134 209.597C448.643 209.653 448.244 209.701 447.938 209.741C447.198 209.838 446.505 209.995 445.862 210.212C445.226 210.422 444.71 210.74 444.316 211.166C443.93 211.585 443.737 212.156 443.737 212.881C443.737 213.871 444.103 214.619 444.835 215.126C445.576 215.625 446.513 215.875 447.648 215.875ZM470.863 218V193.273H473.713V202.401H473.954C474.164 202.079 474.453 201.668 474.824 201.169C475.202 200.662 475.741 200.211 476.442 199.817C477.15 199.414 478.108 199.213 479.315 199.213C480.877 199.213 482.253 199.603 483.444 200.384C484.636 201.165 485.565 202.272 486.233 203.705C486.902 205.137 487.236 206.828 487.236 208.776C487.236 210.74 486.902 212.442 486.233 213.883C485.565 215.316 484.64 216.426 483.456 217.215C482.273 217.996 480.909 218.386 479.363 218.386C478.172 218.386 477.218 218.189 476.502 217.795C475.786 217.392 475.234 216.937 474.848 216.43C474.461 215.915 474.164 215.489 473.954 215.151H473.616V218H470.863ZM473.665 208.727C473.665 210.128 473.87 211.363 474.28 212.434C474.691 213.496 475.291 214.33 476.079 214.933C476.868 215.529 477.834 215.827 478.977 215.827C480.168 215.827 481.162 215.513 481.959 214.885C482.764 214.249 483.368 213.396 483.77 212.325C484.181 211.247 484.386 210.047 484.386 208.727C484.386 207.423 484.185 206.248 483.782 205.202C483.388 204.147 482.788 203.314 481.983 202.702C481.187 202.083 480.184 201.773 478.977 201.773C477.818 201.773 476.844 202.067 476.055 202.654C475.266 203.234 474.671 204.047 474.268 205.093C473.866 206.131 473.665 207.343 473.665 208.727ZM494.444 193.273V218H491.594V193.273H494.444ZM507.197 218.386C505.522 218.386 504.054 217.988 502.79 217.191C501.534 216.394 500.552 215.279 499.844 213.847C499.143 212.414 498.793 210.74 498.793 208.824C498.793 206.892 499.143 205.206 499.844 203.765C500.552 202.324 501.534 201.205 502.79 200.408C504.054 199.612 505.522 199.213 507.197 199.213C508.871 199.213 510.336 199.612 511.592 200.408C512.855 201.205 513.837 202.324 514.538 203.765C515.246 205.206 515.6 206.892 515.6 208.824C515.6 210.74 515.246 212.414 514.538 213.847C513.837 215.279 512.855 216.394 511.592 217.191C510.336 217.988 508.871 218.386 507.197 218.386ZM507.197 215.827C508.469 215.827 509.515 215.501 510.336 214.849C511.157 214.197 511.765 213.339 512.159 212.277C512.554 211.214 512.751 210.063 512.751 208.824C512.751 207.584 512.554 206.429 512.159 205.359C511.765 204.288 511.157 203.423 510.336 202.763C509.515 202.103 508.469 201.773 507.197 201.773C505.925 201.773 504.879 202.103 504.058 202.763C503.237 203.423 502.629 204.288 502.234 205.359C501.84 206.429 501.643 207.584 501.643 208.824C501.643 210.063 501.84 211.214 502.234 212.277C502.629 213.339 503.237 214.197 504.058 214.849C504.879 215.501 505.925 215.827 507.197 215.827ZM527.436 225.341C526.059 225.341 524.876 225.164 523.886 224.81C522.896 224.464 522.071 224.005 521.411 223.433C520.759 222.87 520.24 222.266 519.853 221.622L522.123 220.028C522.381 220.366 522.707 220.753 523.101 221.188C523.495 221.63 524.035 222.013 524.719 222.335C525.411 222.665 526.317 222.83 527.436 222.83C528.933 222.83 530.168 222.467 531.142 221.743C532.116 221.018 532.603 219.884 532.603 218.338V214.571H532.362C532.152 214.909 531.855 215.328 531.468 215.827C531.09 216.318 530.543 216.756 529.826 217.143C529.118 217.521 528.16 217.71 526.953 217.71C525.455 217.71 524.111 217.356 522.92 216.648C521.737 215.939 520.799 214.909 520.107 213.557C519.423 212.205 519.08 210.562 519.08 208.631C519.08 206.731 519.414 205.077 520.083 203.668C520.751 202.252 521.68 201.157 522.872 200.384C524.063 199.603 525.439 199.213 527.001 199.213C528.208 199.213 529.166 199.414 529.874 199.817C530.591 200.211 531.138 200.662 531.517 201.169C531.903 201.668 532.201 202.079 532.41 202.401H532.7V199.455H535.453V218.531C535.453 220.125 535.09 221.421 534.366 222.419C533.65 223.425 532.684 224.162 531.468 224.629C530.261 225.103 528.917 225.341 527.436 225.341ZM527.339 215.151C528.482 215.151 529.448 214.889 530.237 214.366C531.026 213.843 531.625 213.09 532.036 212.108C532.446 211.126 532.651 209.951 532.651 208.582C532.651 207.246 532.45 206.067 532.048 205.045C531.645 204.022 531.05 203.222 530.261 202.642C529.472 202.062 528.498 201.773 527.339 201.773C526.132 201.773 525.125 202.079 524.32 202.69C523.524 203.302 522.924 204.123 522.521 205.153C522.127 206.184 521.93 207.327 521.93 208.582C521.93 209.87 522.131 211.009 522.534 211.999C522.944 212.981 523.548 213.754 524.345 214.317C525.15 214.873 526.148 215.151 527.339 215.151ZM542.745 218.193C542.15 218.193 541.638 217.98 541.212 217.553C540.785 217.127 540.572 216.616 540.572 216.02C540.572 215.424 540.785 214.913 541.212 214.487C541.638 214.06 542.15 213.847 542.745 213.847C543.341 213.847 543.852 214.06 544.279 214.487C544.705 214.913 544.919 215.424 544.919 216.02C544.919 216.414 544.818 216.777 544.617 217.107C544.423 217.437 544.162 217.702 543.832 217.903C543.51 218.097 543.148 218.193 542.745 218.193ZM163.727 300L156.966 275.273H160.008L165.176 295.412H165.417L170.682 275.273H174.062L179.326 295.412H179.568L184.736 275.273H187.778L181.017 300H177.926L172.468 280.295H172.275L166.818 300H163.727ZM194.853 300.435C193.678 300.435 192.612 300.213 191.654 299.771C190.696 299.32 189.935 298.672 189.372 297.827C188.808 296.973 188.527 295.943 188.527 294.736C188.527 293.673 188.736 292.812 189.155 292.152C189.573 291.484 190.133 290.961 190.833 290.582C191.533 290.204 192.306 289.922 193.151 289.737C194.004 289.544 194.861 289.391 195.723 289.278C196.85 289.134 197.763 289.025 198.464 288.952C199.172 288.872 199.687 288.739 200.009 288.554C200.339 288.369 200.504 288.047 200.504 287.588V287.491C200.504 286.3 200.178 285.375 199.526 284.714C198.882 284.054 197.904 283.724 196.592 283.724C195.232 283.724 194.165 284.022 193.392 284.618C192.62 285.214 192.076 285.849 191.763 286.526L189.058 285.56C189.541 284.433 190.185 283.555 190.99 282.928C191.803 282.292 192.688 281.849 193.646 281.599C194.612 281.342 195.562 281.213 196.495 281.213C197.091 281.213 197.775 281.286 198.548 281.43C199.329 281.567 200.081 281.853 200.806 282.288C201.538 282.722 202.146 283.378 202.629 284.256C203.112 285.133 203.353 286.308 203.353 287.781V300H200.504V297.489H200.359C200.166 297.891 199.844 298.322 199.393 298.781C198.942 299.239 198.343 299.63 197.594 299.952C196.846 300.274 195.932 300.435 194.853 300.435ZM195.288 297.875C196.415 297.875 197.365 297.654 198.138 297.211C198.918 296.768 199.506 296.197 199.9 295.496C200.303 294.796 200.504 294.06 200.504 293.287V290.679C200.383 290.824 200.118 290.957 199.707 291.077C199.305 291.19 198.838 291.291 198.307 291.379C197.783 291.46 197.272 291.532 196.773 291.597C196.282 291.653 195.884 291.701 195.578 291.741C194.837 291.838 194.145 291.995 193.501 292.212C192.865 292.422 192.35 292.74 191.956 293.166C191.569 293.585 191.376 294.156 191.376 294.881C191.376 295.871 191.742 296.619 192.475 297.126C193.215 297.625 194.153 297.875 195.288 297.875ZM216.62 281.455V283.869H207.009V281.455H216.62ZM209.81 277.011H212.659V294.688C212.659 295.492 212.776 296.096 213.009 296.499C213.251 296.893 213.557 297.159 213.927 297.295C214.305 297.424 214.704 297.489 215.122 297.489C215.436 297.489 215.694 297.473 215.895 297.44C216.096 297.4 216.257 297.368 216.378 297.344L216.958 299.903C216.764 299.976 216.495 300.048 216.149 300.121C215.803 300.201 215.364 300.241 214.833 300.241C214.028 300.241 213.239 300.068 212.466 299.722C211.701 299.376 211.066 298.849 210.559 298.141C210.059 297.432 209.81 296.539 209.81 295.46V277.011ZM228.241 300.386C226.502 300.386 225.005 299.976 223.749 299.155C222.494 298.334 221.528 297.203 220.851 295.762C220.175 294.321 219.837 292.675 219.837 290.824C219.837 288.94 220.183 287.278 220.876 285.837C221.576 284.388 222.55 283.258 223.797 282.445C225.053 281.624 226.518 281.213 228.192 281.213C229.496 281.213 230.672 281.455 231.718 281.938C232.764 282.42 233.622 283.097 234.29 283.966C234.958 284.835 235.372 285.849 235.533 287.009H232.684C232.467 286.163 231.984 285.415 231.235 284.763C230.494 284.103 229.496 283.773 228.241 283.773C227.13 283.773 226.156 284.062 225.319 284.642C224.49 285.214 223.842 286.022 223.375 287.069C222.916 288.107 222.687 289.327 222.687 290.727C222.687 292.16 222.912 293.408 223.363 294.47C223.822 295.533 224.466 296.358 225.295 296.945C226.132 297.533 227.114 297.827 228.241 297.827C228.981 297.827 229.653 297.698 230.257 297.44C230.861 297.183 231.372 296.812 231.79 296.33C232.209 295.847 232.507 295.267 232.684 294.591H235.533C235.372 295.686 234.974 296.672 234.338 297.549C233.71 298.418 232.877 299.111 231.839 299.626C230.808 300.133 229.609 300.386 228.241 300.386ZM242.548 288.844V300H239.699V275.273H242.548V284.352H242.79C243.224 283.394 243.876 282.634 244.746 282.07C245.623 281.499 246.79 281.213 248.247 281.213C249.511 281.213 250.618 281.467 251.567 281.974C252.517 282.473 253.254 283.241 253.777 284.28C254.308 285.31 254.574 286.622 254.574 288.216V300H251.724V288.409C251.724 286.936 251.342 285.797 250.577 284.992C249.821 284.179 248.77 283.773 247.426 283.773C246.492 283.773 245.655 283.97 244.915 284.364C244.182 284.759 243.603 285.334 243.176 286.091C242.757 286.848 242.548 287.765 242.548 288.844ZM277.415 281.455V283.869H267.804V281.455H277.415ZM270.605 277.011H273.454V294.688C273.454 295.492 273.571 296.096 273.804 296.499C274.046 296.893 274.352 297.159 274.722 297.295C275.1 297.424 275.499 297.489 275.917 297.489C276.231 297.489 276.489 297.473 276.69 297.44C276.891 297.4 277.052 297.368 277.173 297.344L277.753 299.903C277.559 299.976 277.29 300.048 276.944 300.121C276.598 300.201 276.159 300.241 275.628 300.241C274.823 300.241 274.034 300.068 273.261 299.722C272.496 299.376 271.861 298.849 271.353 298.141C270.854 297.432 270.605 296.539 270.605 295.46V277.011ZM284.949 288.844V300H282.099V275.273H284.949V284.352H285.19C285.625 283.394 286.277 282.634 287.146 282.07C288.023 281.499 289.191 281.213 290.647 281.213C291.911 281.213 293.018 281.467 293.968 281.974C294.918 282.473 295.654 283.241 296.177 284.28C296.709 285.31 296.974 286.622 296.974 288.216V300H294.125V288.409C294.125 286.936 293.742 285.797 292.978 284.992C292.221 284.179 291.171 283.773 289.826 283.773C288.893 283.773 288.056 283.97 287.315 284.364C286.583 284.759 286.003 285.334 285.576 286.091C285.158 286.848 284.949 287.765 284.949 288.844ZM302.187 300V281.455H305.036V300H302.187ZM303.636 278.364C303.081 278.364 302.602 278.174 302.199 277.796C301.805 277.418 301.608 276.963 301.608 276.432C301.608 275.901 301.805 275.446 302.199 275.067C302.602 274.689 303.081 274.5 303.636 274.5C304.191 274.5 304.666 274.689 305.061 275.067C305.463 275.446 305.664 275.901 305.664 276.432C305.664 276.963 305.463 277.418 305.061 277.796C304.666 278.174 304.191 278.364 303.636 278.364ZM323.392 285.608L320.832 286.332C320.671 285.906 320.434 285.491 320.12 285.089C319.814 284.678 319.395 284.34 318.864 284.075C318.333 283.809 317.653 283.676 316.824 283.676C315.689 283.676 314.743 283.938 313.986 284.461C313.238 284.976 312.863 285.632 312.863 286.429C312.863 287.137 313.121 287.697 313.636 288.107C314.151 288.518 314.956 288.86 316.051 289.134L318.804 289.81C320.462 290.212 321.697 290.828 322.51 291.657C323.323 292.478 323.73 293.536 323.73 294.832C323.73 295.895 323.424 296.845 322.812 297.682C322.209 298.519 321.363 299.179 320.277 299.662C319.19 300.145 317.926 300.386 316.486 300.386C314.594 300.386 313.028 299.976 311.789 299.155C310.549 298.334 309.764 297.134 309.434 295.557L312.139 294.881C312.397 295.879 312.883 296.627 313.6 297.126C314.324 297.625 315.27 297.875 316.437 297.875C317.765 297.875 318.82 297.593 319.601 297.03C320.389 296.458 320.784 295.774 320.784 294.977C320.784 294.333 320.558 293.794 320.108 293.359C319.657 292.917 318.965 292.587 318.031 292.369L314.94 291.645C313.242 291.242 311.994 290.619 311.197 289.773C310.408 288.92 310.014 287.854 310.014 286.574C310.014 285.527 310.308 284.602 310.895 283.797C311.491 282.992 312.3 282.36 313.322 281.901C314.352 281.442 315.52 281.213 316.824 281.213C318.659 281.213 320.1 281.616 321.146 282.42C322.2 283.225 322.949 284.288 323.392 285.608ZM350.718 285.608L348.158 286.332C347.997 285.906 347.76 285.491 347.446 285.089C347.14 284.678 346.722 284.34 346.19 284.075C345.659 283.809 344.979 283.676 344.15 283.676C343.015 283.676 342.069 283.938 341.312 284.461C340.564 284.976 340.19 285.632 340.19 286.429C340.19 287.137 340.447 287.697 340.962 288.107C341.477 288.518 342.282 288.86 343.377 289.134L346.13 289.81C347.788 290.212 349.024 290.828 349.837 291.657C350.65 292.478 351.056 293.536 351.056 294.832C351.056 295.895 350.75 296.845 350.138 297.682C349.535 298.519 348.69 299.179 347.603 299.662C346.516 300.145 345.253 300.386 343.812 300.386C341.92 300.386 340.355 299.976 339.115 299.155C337.875 298.334 337.091 297.134 336.761 295.557L339.465 294.881C339.723 295.879 340.21 296.627 340.926 297.126C341.65 297.625 342.596 297.875 343.763 297.875C345.092 297.875 346.146 297.593 346.927 297.03C347.716 296.458 348.11 295.774 348.11 294.977C348.11 294.333 347.885 293.794 347.434 293.359C346.983 292.917 346.291 292.587 345.357 292.369L342.266 291.645C340.568 291.242 339.32 290.619 338.523 289.773C337.735 288.92 337.34 287.854 337.34 286.574C337.34 285.527 337.634 284.602 338.222 283.797C338.817 282.992 339.626 282.36 340.648 281.901C341.679 281.442 342.846 281.213 344.15 281.213C345.985 281.213 347.426 281.616 348.472 282.42C349.527 283.225 350.275 284.288 350.718 285.608ZM355.345 306.955V281.455H358.098V284.401H358.436C358.645 284.079 358.935 283.668 359.305 283.169C359.684 282.662 360.223 282.211 360.923 281.817C361.632 281.414 362.59 281.213 363.797 281.213C365.359 281.213 366.735 281.603 367.926 282.384C369.118 283.165 370.047 284.272 370.715 285.705C371.383 287.137 371.717 288.828 371.717 290.776C371.717 292.74 371.383 294.442 370.715 295.883C370.047 297.316 369.122 298.426 367.938 299.215C366.755 299.996 365.391 300.386 363.845 300.386C362.654 300.386 361.7 300.189 360.984 299.795C360.267 299.392 359.716 298.937 359.33 298.43C358.943 297.915 358.645 297.489 358.436 297.151H358.195V306.955H355.345ZM358.146 290.727C358.146 292.128 358.352 293.363 358.762 294.434C359.173 295.496 359.772 296.33 360.561 296.933C361.35 297.529 362.316 297.827 363.459 297.827C364.65 297.827 365.644 297.513 366.441 296.885C367.246 296.249 367.85 295.396 368.252 294.325C368.663 293.247 368.868 292.047 368.868 290.727C368.868 289.423 368.667 288.248 368.264 287.202C367.87 286.147 367.27 285.314 366.465 284.702C365.668 284.083 364.666 283.773 363.459 283.773C362.3 283.773 361.326 284.067 360.537 284.654C359.748 285.234 359.153 286.047 358.75 287.093C358.348 288.131 358.146 289.343 358.146 290.727ZM381.521 300.435C380.346 300.435 379.28 300.213 378.322 299.771C377.364 299.32 376.603 298.672 376.04 297.827C375.476 296.973 375.195 295.943 375.195 294.736C375.195 293.673 375.404 292.812 375.823 292.152C376.241 291.484 376.801 290.961 377.501 290.582C378.201 290.204 378.974 289.922 379.819 289.737C380.672 289.544 381.529 289.391 382.391 289.278C383.518 289.134 384.431 289.025 385.131 288.952C385.84 288.872 386.355 288.739 386.677 288.554C387.007 288.369 387.172 288.047 387.172 287.588V287.491C387.172 286.3 386.846 285.375 386.194 284.714C385.55 284.054 384.572 283.724 383.26 283.724C381.9 283.724 380.833 284.022 380.06 284.618C379.288 285.214 378.744 285.849 378.43 286.526L375.726 285.56C376.209 284.433 376.853 283.555 377.658 282.928C378.471 282.292 379.356 281.849 380.314 281.599C381.28 281.342 382.23 281.213 383.163 281.213C383.759 281.213 384.443 281.286 385.216 281.43C385.997 281.567 386.749 281.853 387.474 282.288C388.206 282.722 388.814 283.378 389.297 284.256C389.78 285.133 390.021 286.308 390.021 287.781V300H387.172V297.489H387.027C386.834 297.891 386.512 298.322 386.061 298.781C385.61 299.239 385.011 299.63 384.262 299.952C383.514 300.274 382.6 300.435 381.521 300.435ZM381.956 297.875C383.083 297.875 384.033 297.654 384.805 297.211C385.586 296.768 386.174 296.197 386.568 295.496C386.971 294.796 387.172 294.06 387.172 293.287V290.679C387.051 290.824 386.786 290.957 386.375 291.077C385.973 291.19 385.506 291.291 384.975 291.379C384.451 291.46 383.94 291.532 383.441 291.597C382.95 291.653 382.552 291.701 382.246 291.741C381.505 291.838 380.813 291.995 380.169 292.212C379.533 292.422 379.018 292.74 378.624 293.166C378.237 293.585 378.044 294.156 378.044 294.881C378.044 295.871 378.41 296.619 379.143 297.126C379.883 297.625 380.821 297.875 381.956 297.875ZM402.756 300.386C401.018 300.386 399.521 299.976 398.265 299.155C397.009 298.334 396.043 297.203 395.367 295.762C394.691 294.321 394.353 292.675 394.353 290.824C394.353 288.94 394.699 287.278 395.391 285.837C396.092 284.388 397.065 283.258 398.313 282.445C399.569 281.624 401.034 281.213 402.708 281.213C404.012 281.213 405.187 281.455 406.234 281.938C407.28 282.42 408.137 283.097 408.805 283.966C409.473 284.835 409.888 285.849 410.049 287.009H407.199C406.982 286.163 406.499 285.415 405.751 284.763C405.01 284.103 404.012 283.773 402.756 283.773C401.646 283.773 400.672 284.062 399.834 284.642C399.005 285.214 398.357 286.022 397.891 287.069C397.432 288.107 397.202 289.327 397.202 290.727C397.202 292.16 397.428 293.408 397.878 294.47C398.337 295.533 398.981 296.358 399.81 296.945C400.647 297.533 401.629 297.827 402.756 297.827C403.497 297.827 404.169 297.698 404.773 297.44C405.376 297.183 405.887 296.812 406.306 296.33C406.725 295.847 407.022 295.267 407.199 294.591H410.049C409.888 295.686 409.489 296.672 408.854 297.549C408.226 298.418 407.393 299.111 406.354 299.626C405.324 300.133 404.125 300.386 402.756 300.386ZM421.99 300.386C420.203 300.386 418.662 299.992 417.366 299.203C416.078 298.406 415.084 297.295 414.383 295.871C413.691 294.438 413.345 292.772 413.345 290.872C413.345 288.973 413.691 287.298 414.383 285.849C415.084 284.393 416.058 283.258 417.305 282.445C418.561 281.624 420.026 281.213 421.7 281.213C422.666 281.213 423.62 281.374 424.562 281.696C425.503 282.018 426.361 282.541 427.133 283.266C427.906 283.982 428.522 284.932 428.981 286.115C429.44 287.298 429.669 288.755 429.669 290.486V291.693H415.373V289.23H426.771C426.771 288.184 426.562 287.25 426.143 286.429C425.733 285.608 425.145 284.96 424.381 284.485C423.624 284.01 422.73 283.773 421.7 283.773C420.565 283.773 419.583 284.054 418.754 284.618C417.933 285.173 417.301 285.898 416.859 286.791C416.416 287.685 416.195 288.643 416.195 289.665V291.307C416.195 292.707 416.436 293.895 416.919 294.869C417.41 295.835 418.09 296.571 418.959 297.078C419.829 297.577 420.839 297.827 421.99 297.827C422.739 297.827 423.415 297.722 424.018 297.513C424.63 297.295 425.157 296.973 425.6 296.547C426.043 296.112 426.385 295.573 426.626 294.929L429.379 295.702C429.089 296.635 428.602 297.456 427.918 298.165C427.234 298.865 426.389 299.412 425.383 299.807C424.377 300.193 423.246 300.386 421.99 300.386ZM436.08 300.193C435.485 300.193 434.973 299.98 434.547 299.553C434.12 299.127 433.907 298.616 433.907 298.02C433.907 297.424 434.12 296.913 434.547 296.487C434.973 296.06 435.485 295.847 436.08 295.847C436.676 295.847 437.187 296.06 437.614 296.487C438.04 296.913 438.253 297.424 438.253 298.02C438.253 298.414 438.153 298.777 437.952 299.107C437.758 299.437 437.497 299.702 437.167 299.903C436.845 300.097 436.483 300.193 436.08 300.193Z" fill="#BD4F6C"/>
</svg>
