<svg width="152" height="196" viewBox="0 0 152 196" fill="none" xmlns="http://www.w3.org/2000/svg">
<path d="M39.2039 136.284C42.9948 125.411 49.6873 112.877 53.7027 107.327L104.612 103.181C124.406 109.131 136.175 150.702 140.558 167.467L41.2445 166.835C38.6715 160.429 35.9217 145.699 39.2039 136.284Z" fill="#D9A75D"/>
<path d="M128.185 68.2395C111.395 94.8064 112.252 121.187 84.9497 125.325C57.6472 129.463 57.5312 121.235 33.2881 85.707C21.457 68.3684 25.4279 9.22237 72.917 10.2422C108.909 11.0149 117.621 24.5107 119.998 30.2578C128.556 50.9466 125.541 50.7956 128.185 68.2395Z" fill="url(#paint0_linear_129_2)"/>
<path d="M2.83303 64.4524C1.45968 58.4699 18.4437 36.8412 28.9518 28.3026C41.1481 28.5644 37.3435 74.619 31.3099 93.3408C25.2762 112.063 4.54971 71.9306 2.83303 64.4524Z" fill="url(#paint1_linear_129_2)"/>
<path d="M149.688 63.6043C151.405 57.6881 134.394 35.3296 123.655 26.3349C110.741 26.0576 112.731 72.2366 118.287 91.2072C123.843 110.178 147.542 70.9996 149.688 63.6043Z" fill="url(#paint2_linear_129_2)"/>
<path d="M41.5397 42.0541C43.1 36.686 50.815 32.6961 57.646 32.8428" stroke="black" stroke-width="3" stroke-linecap="round"/>
<path d="M111.584 39.7928C107.937 32.9991 102.002 29.8711 95.4319 30.6614" stroke="black" stroke-width="3" stroke-linecap="round"/>
<circle cx="56.1266" cy="46.8902" r="5" transform="rotate(1.22988 56.1266 46.8902)" fill="black"/>
<circle cx="97.16" cy="45.7707" r="5" transform="rotate(1.22988 97.16 45.7707)" fill="black"/>
<path d="M64.7596 64.0794L70.0184 54.5295C72.2154 50.2821 77.2438 51.4637 81.0324 51.5451C84.0819 51.6107 88.4598 58.6832 88.7541 64.5945L64.7596 64.0794Z" fill="url(#paint3_linear_129_2)"/>
<ellipse opacity="0.4" cx="79.2517" cy="87.896" rx="22" ry="16.5" transform="rotate(1.22988 79.2517 87.896)" fill="#DBDBDB"/>
<path d="M95.6665 92.0433C87.385 105.069 69.6889 98.4871 63.1418 92.8453L76.8855 81.6375C86.2668 79.505 95.6665 92.0433 95.6665 92.0433Z" fill="black"/>
<path d="M81.8174 110.233C67.278 112.303 69.2009 95.0742 71.9798 86.2011L78.5543 81.3795L85.6051 84.5085C90.4006 92.2209 96.3567 108.163 81.8174 110.233Z" fill="#F05B5B"/>
<path d="M80.5194 100.669C80.6483 100.913 80.9508 101.007 81.195 100.878C81.4392 100.749 81.5327 100.447 81.4038 100.202L80.5194 100.669ZM78.8386 82.867C78.7078 85.0471 78.6327 88.5414 78.8323 91.9531C78.932 93.659 79.1009 95.3526 79.3681 96.8551C79.6338 98.3494 80.0028 99.6904 80.5194 100.669L81.4038 100.202C80.9593 99.3602 80.6122 98.1394 80.3527 96.68C80.0946 95.229 79.9289 93.5771 79.8306 91.8947C79.6338 88.5296 79.7079 85.0755 79.8368 82.9269L78.8386 82.867Z" fill="#CB4747"/>
<path d="M76.9531 78.5056C82.4518 78.6237 91.0459 67.9 87.2223 66.062C81.7772 63.4446 71.258 64.2186 66.727 65.6221C61.0173 67.3907 72.954 78.4198 76.9531 78.5056Z" fill="black"/>
<path d="M76.9531 78.5056C82.4518 78.6237 91.0459 67.9 87.2223 66.062C81.7772 63.4446 71.258 64.2186 66.727 65.6221C61.0173 67.3907 72.954 78.4198 76.9531 78.5056ZM76.9531 78.5056C80.671 83.9198 95.3246 94.0023 106.285 86.6364M78.3987 81.038C74.4518 86.2876 66.8773 95.8921 56.2429 88.0626" stroke="black" stroke-width="4" stroke-linecap="round"/>
<path d="M64.6936 160.337C64.4683 170.828 56.4525 179.165 46.7898 178.957C37.127 178.75 29.4764 170.077 29.7016 159.586C29.9269 149.095 37.9426 140.758 47.6054 140.966C57.2682 141.173 64.9188 149.846 64.6936 160.337Z" fill="#DCB273"/>
<path d="M64.6936 160.337C64.4683 170.828 56.4525 179.165 46.7898 178.957C37.127 178.75 29.4764 170.077 29.7016 159.586C29.9269 149.095 37.9426 140.758 47.6054 140.966C57.2682 141.173 64.9188 149.846 64.6936 160.337Z" stroke="black"/>
<ellipse cx="44.5372" cy="167.406" rx="19" ry="20.5" transform="rotate(1.22988 44.5372 167.406)" fill="#F7C780"/>
<circle cx="32.2502" cy="180.645" r="7" transform="rotate(1.22988 32.2502 180.645)" fill="#F7C780"/>
<circle cx="42.1406" cy="185.859" r="7" transform="rotate(1.22988 42.1406 185.859)" fill="#F7C780"/>
<circle cx="54.1807" cy="184.117" r="7" transform="rotate(1.22988 54.1807 184.117)" fill="#F7C780"/>
<circle cx="63.3933" cy="174.312" r="7" transform="rotate(1.22988 63.3933 174.312)" fill="#F7C780"/>
<path d="M104.813 155.197C104.588 165.688 112.239 174.361 121.901 174.568C131.564 174.776 139.58 166.439 139.805 155.948C140.03 145.457 132.38 136.784 122.717 136.577C113.054 136.369 105.038 144.706 104.813 155.197Z" fill="#DCB273"/>
<path d="M104.813 155.197C104.588 165.688 112.239 174.361 121.901 174.568C131.564 174.776 139.58 166.439 139.805 155.948C140.03 145.457 132.38 136.784 122.717 136.577C113.054 136.369 105.038 144.706 104.813 155.197Z" stroke="black"/>
<ellipse cx="19" cy="20.5" rx="19" ry="20.5" transform="matrix(-0.99977 -0.0214638 -0.0214638 0.99977 148.125 141.123)" fill="#F7C780"/>
<circle cx="7" cy="7" r="7" transform="matrix(-0.99977 -0.0214638 -0.0214638 0.99977 147.546 168.117)" fill="#F7C780"/>
<circle cx="7" cy="7" r="7" transform="matrix(-0.99977 -0.0214638 -0.0214638 0.99977 137.441 172.901)" fill="#F7C780"/>
<circle cx="7" cy="7" r="7" transform="matrix(-0.99977 -0.0214638 -0.0214638 0.99977 125.486 170.644)" fill="#F7C780"/>
<circle cx="7" cy="7" r="7" transform="matrix(-0.99977 -0.0214638 -0.0214638 0.99977 116.703 160.453)" fill="#F7C780"/>
<circle cx="57.5" cy="48.5" r="1.5" fill="#DBDBDB"/>
<circle cx="97.5" cy="47.5" r="1.5" fill="#DBDBDB"/>
<defs>
<linearGradient id="paint0_linear_129_2" x1="82.9791" y1="7.45751" x2="63.9824" y2="123.577" gradientUnits="userSpaceOnUse">
<stop stop-color="#F7B85B"/>
<stop offset="1" stop-color="#DAAD6B"/>
</linearGradient>
<linearGradient id="paint1_linear_129_2" x1="20.0276" y1="51.1163" x2="19.0188" y2="98.1055" gradientUnits="userSpaceOnUse">
<stop stop-color="#F3B75E"/>
<stop offset="1" stop-color="#AD9470"/>
</linearGradient>
<linearGradient id="paint2_linear_129_2" x1="132.098" y1="49.0213" x2="131.079" y2="96.5104" gradientUnits="userSpaceOnUse">
<stop stop-color="#F4B85D"/>
<stop offset="1" stop-color="#AD9470"/>
</linearGradient>
<linearGradient id="paint3_linear_129_2" x1="77.0359" y1="51.34" x2="76.7568" y2="64.337" gradientUnits="userSpaceOnUse">
<stop stop-color="#EEB561"/>
<stop offset="1" stop-color="#D6A457"/>
</linearGradient>
</defs>
</svg>
