<svg width="152" height="196" viewBox="0 0 152 196" fill="none" xmlns="http://www.w3.org/2000/svg">    <g class="small-brown-dog-paws" filter="">        <g class="small-dog-left-paw">            <ellipse cx="44.5372" cy="167.406" rx="19" ry="20.5" transform="rotate(1.22988 44.5372 167.406)"                     fill="#F7C780"/>            <circle cx="32.2502" cy="180.645" r="7" transform="rotate(1.22988 32.2502 180.645)" fill="#F7C780"/>            <circle cx="42.1406" cy="185.859" r="7" transform="rotate(1.22988 42.1406 185.859)" fill="#F7C780"/>            <circle cx="54.1807" cy="184.117" r="7" transform="rotate(1.22988 54.1807 184.117)" fill="#F7C780"/>            <circle cx="63.3933" cy="174.312" r="7" transform="rotate(1.22988 63.3933 174.312)" fill="#F7C780"/>        </g>        <g class="small-dog-right-paw">            <ellipse cx="19" cy="20.5" rx="19" ry="20.5"                     transform="matrix(-0.99977 -0.0214638 -0.0214638 0.99977 148.125 141.123)" fill="#F7C780"/>            <circle cx="7" cy="7" r="7" transform="matrix(-0.99977 -0.0214638 -0.0214638 0.99977 147.546 168.117)"                    fill="#F7C780"/>            <circle cx="7" cy="7" r="7" transform="matrix(-0.99977 -0.0214638 -0.0214638 0.99977 137.441 172.901)"                    fill="#F7C780"/>            <circle cx="7" cy="7" r="7" transform="matrix(-0.99977 -0.0214638 -0.0214638 0.99977 125.486 170.644)"                    fill="#F7C780"/>            <circle cx="7" cy="7" r="7" transform="matrix(-0.99977 -0.0214638 -0.0214638 0.99977 116.703 160.453)"                    fill="#F7C780"/>        </g>    </g>    <defs>        <linearGradient id="paint0_linear_129_2" x1="82.9791" y1="7.45751" x2="63.9824" y2="123.577"                        gradientUnits="userSpaceOnUse">            <stop stop-color="#F7B85B"/>            <stop offset="1" stop-color="#DAAD6B"/>        </linearGradient>        <linearGradient id="paint1_linear_129_2" x1="20.0276" y1="51.1163" x2="19.0188" y2="98.1055"                        gradientUnits="userSpaceOnUse">            <stop stop-color="#F3B75E"/>            <stop offset="1" stop-color="#AD9470"/>        </linearGradient>        <linearGradient id="paint2_linear_129_2" x1="132.098" y1="49.0213" x2="131.079" y2="96.5104"                        gradientUnits="userSpaceOnUse">            <stop stop-color="#F4B85D"/>            <stop offset="1" stop-color="#AD9470"/>        </linearGradient>        <linearGradient id="paint3_linear_129_2" x1="77.0359" y1="51.34" x2="76.7568" y2="64.337"                        gradientUnits="userSpaceOnUse">            <stop stop-color="#EEB561"/>            <stop offset="1" stop-color="#D6A457"/>        </linearGradient>    </defs></svg>