<svg width="543" height="337" viewBox="0 0 543 337" fill="none" xmlns="http://www.w3.org/2000/svg">
<g filter="url(#filter0_d_276_1790)">
<g filter="url(#filter1_d_276_1790)">
<rect x="4" width="535" height="329" rx="142" fill="#DDEDAA"/>
<rect x="4.5" y="0.5" width="534" height="328" rx="141.5" stroke="#BD4F6C"/>
</g>
<path d="M204.957 146.544C204.957 146.598 204.944 146.719 204.917 146.906C204.89 147.094 204.836 147.295 204.755 147.51C204.621 147.939 204.285 148.717 203.747 149.844L203.868 150.005C204.056 150.22 204.218 150.435 204.352 150.649C204.513 150.837 204.594 150.998 204.594 151.132C204.594 151.454 204.5 151.722 204.312 151.937C204.15 152.125 203.828 152.393 203.344 152.742C202.913 153.01 202.537 153.212 202.214 153.346C201.891 153.507 201.542 153.587 201.165 153.587C200.95 153.587 200.681 153.493 200.359 153.305C200.063 153.118 199.794 152.903 199.552 152.662C199.041 152.957 198.382 153.185 197.575 153.346C196.769 153.507 195.989 153.56 195.236 153.507C193.811 153.399 192.641 153.158 191.726 152.782C190.839 152.407 189.992 151.83 189.185 151.052C188.11 150.059 187.397 148.932 187.047 147.671C186.725 146.383 186.563 144.8 186.563 142.922V137.328C186.563 135.477 186.617 133.8 186.725 132.297C186.859 130.795 187.101 129.413 187.451 128.152C187.854 126.971 188.849 126.005 190.436 125.254C192.049 124.503 193.958 124.127 196.164 124.127C197.777 124.127 199.027 124.221 199.915 124.409C200.802 124.597 201.609 125.053 202.335 125.777C203.061 126.475 203.747 127.602 204.392 129.158C205.092 131.278 205.441 134.309 205.441 138.254C205.441 139.971 205.401 141.366 205.32 142.439C205.266 143.029 205.239 143.472 205.239 143.767C205.186 145.001 205.092 145.9 204.957 146.464V146.544ZM199.108 144.331C199.135 144.036 199.149 143.633 199.149 143.123L199.189 141.554V138.535C199.189 137.06 199.095 135.423 198.906 133.625C198.826 132.606 198.57 131.841 198.14 131.331C197.737 130.795 197.038 130.526 196.043 130.526C195.155 130.526 194.51 130.593 194.106 130.728C193.73 130.862 193.461 131.117 193.3 131.492C193.165 131.868 193.071 132.512 193.017 133.424C192.829 135.517 192.735 137.462 192.735 139.26V141.232L192.695 142.399C192.695 144.116 192.802 145.364 193.017 146.142V146.101C193.555 147.523 194.577 148.234 196.083 148.234L195.841 148.033C195.76 147.926 195.545 147.698 195.195 147.349C194.711 146.759 194.469 146.262 194.469 145.86C194.469 145.645 194.55 145.471 194.711 145.337C194.873 145.176 195.101 145.001 195.397 144.814C195.397 144.814 195.397 144.827 195.397 144.854C195.397 144.854 195.411 144.84 195.437 144.814C195.599 144.76 195.908 144.518 196.365 144.089C196.742 143.714 197.226 143.526 197.817 143.526C198.221 143.526 198.53 143.62 198.745 143.807C198.96 143.995 199.081 144.17 199.108 144.331Z" fill="#BD4F6C"/>
<path d="M216.66 151.615L216.579 151.655H216.619C215.974 152.085 215.234 152.433 214.401 152.702C213.567 152.943 212.72 153.064 211.859 153.064C210.085 153.064 208.713 152.635 207.745 151.776C206.992 151.105 206.616 148.892 206.616 145.136C206.616 144.036 206.643 142.359 206.696 140.105C206.75 138.173 206.777 136.791 206.777 135.96C206.777 135.047 206.75 134.028 206.696 132.901C208.122 132.686 209.574 132.606 211.053 132.659H212.949C213.002 133.464 213.029 135.02 213.029 137.328C213.029 138.83 213.056 140.172 213.11 141.352C213.137 141.701 213.15 142.157 213.15 142.721C213.258 144.518 213.581 145.645 214.118 146.101C214.333 146.209 214.629 146.262 215.006 146.262C215.49 146.262 215.907 146.088 216.256 145.739C216.633 145.39 216.848 144.814 216.902 144.009C216.955 143.257 216.982 142.707 216.982 142.359C216.982 141.446 216.942 140.507 216.861 139.541C216.834 139.219 216.808 138.75 216.781 138.133C216.754 137.489 216.74 136.925 216.74 136.442C216.74 135.047 216.808 133.894 216.942 132.981C217.641 132.794 218.206 132.686 218.636 132.659C219.066 132.606 219.55 132.592 220.088 132.619C220.33 132.646 220.747 132.659 221.339 132.659C221.957 132.659 222.562 132.633 223.154 132.579C223.154 135.799 223.167 138.186 223.194 139.743C223.248 143.231 223.275 145.873 223.275 147.671C223.275 148.959 223.248 150.81 223.194 153.225L222.226 153.185C221.661 153.185 221.137 153.198 220.653 153.225C219.846 153.305 219.013 153.346 218.152 153.346C217.211 153.346 216.74 153.252 216.74 153.064C216.686 152.715 216.66 152.246 216.66 151.655V151.615Z" fill="#BD4F6C"/>
<path d="M230.987 144.129C231.014 145.015 231.054 145.672 231.108 146.101C231.189 146.504 231.377 146.933 231.673 147.389C231.888 147.792 232.17 148.1 232.52 148.315C232.87 148.53 233.233 148.637 233.609 148.637C234.174 148.637 234.631 148.342 234.981 147.752C235.33 147.134 235.478 146.236 235.424 145.055C236.204 145.162 237.038 145.189 237.925 145.136L241.717 145.337C241.717 146.544 241.623 147.765 241.435 148.999C241.273 150.233 240.951 151.172 240.466 151.816C239.929 152.568 239.149 153.077 238.127 153.346C237.132 153.641 235.962 153.788 234.618 153.788C234.107 153.788 233.394 153.762 232.48 153.708C232.049 153.681 231.417 153.668 230.584 153.668C229.75 153.56 228.917 153.265 228.083 152.782C226.792 151.763 225.837 150.314 225.219 148.436C224.6 146.558 224.291 144.518 224.291 142.318C224.291 140.011 224.614 137.891 225.259 135.96C225.797 134.752 226.792 133.813 228.244 133.142C229.696 132.472 231.31 132.136 233.085 132.136C234.053 132.136 234.994 132.243 235.908 132.458C237.979 132.861 239.485 133.84 240.426 135.396C241.394 136.925 241.878 138.763 241.878 140.91C241.878 141.259 241.851 141.862 241.798 142.721C241.287 142.855 240.117 142.989 238.288 143.123C236.46 143.231 234.752 143.284 233.165 143.284H230.987V144.129ZM234.94 136.885C234.537 136.644 234.174 136.523 233.851 136.523C232.91 136.523 232.238 136.738 231.834 137.167C231.431 137.596 231.189 138.2 231.108 138.978C231.081 139.085 231.068 139.206 231.068 139.34C231.068 139.501 231.149 139.595 231.31 139.622C231.471 139.649 231.875 139.649 232.52 139.622H234.295L235.505 139.662H236.029C236.11 139.689 236.164 139.689 236.191 139.662C236.218 139.635 236.231 139.582 236.231 139.501V139.34C236.231 138.777 236.123 138.28 235.908 137.851C235.72 137.422 235.451 137.113 235.102 136.925L234.94 136.885Z" fill="#BD4F6C"/>
<path d="M248.911 144.129C248.937 145.015 248.978 145.672 249.032 146.101C249.112 146.504 249.3 146.933 249.596 147.389C249.811 147.792 250.094 148.1 250.443 148.315C250.793 148.53 251.156 148.637 251.532 148.637C252.097 148.637 252.554 148.342 252.904 147.752C253.253 147.134 253.401 146.236 253.348 145.055C254.127 145.162 254.961 145.189 255.849 145.136L259.64 145.337C259.64 146.544 259.546 147.765 259.358 148.999C259.197 150.233 258.874 151.172 258.39 151.816C257.852 152.568 257.072 153.077 256.05 153.346C255.055 153.641 253.885 153.788 252.541 153.788C252.03 153.788 251.317 153.762 250.403 153.708C249.973 153.681 249.341 153.668 248.507 153.668C247.674 153.56 246.84 153.265 246.006 152.782C244.715 151.763 243.761 150.314 243.142 148.436C242.524 146.558 242.215 144.518 242.215 142.318C242.215 140.011 242.537 137.891 243.183 135.96C243.72 134.752 244.715 133.813 246.168 133.142C247.62 132.472 249.233 132.136 251.008 132.136C251.976 132.136 252.917 132.243 253.832 132.458C255.902 132.861 257.408 133.84 258.349 135.396C259.318 136.925 259.802 138.763 259.802 140.91C259.802 141.259 259.775 141.862 259.721 142.721C259.21 142.855 258.04 142.989 256.212 143.123C254.383 143.231 252.675 143.284 251.089 143.284H248.911V144.129ZM252.864 136.885C252.46 136.644 252.097 136.523 251.774 136.523C250.833 136.523 250.161 136.738 249.758 137.167C249.354 137.596 249.112 138.2 249.032 138.978C249.005 139.085 248.991 139.206 248.991 139.34C248.991 139.501 249.072 139.595 249.233 139.622C249.395 139.649 249.798 139.649 250.443 139.622H252.218L253.428 139.662H253.953C254.033 139.689 254.087 139.689 254.114 139.662C254.141 139.635 254.154 139.582 254.154 139.501V139.34C254.154 138.777 254.047 138.28 253.832 137.851C253.643 137.422 253.374 137.113 253.025 136.925L252.864 136.885Z" fill="#BD4F6C"/>
<path d="M267.358 134.39C267.385 134.39 267.385 134.39 267.358 134.39C267.358 134.363 267.372 134.35 267.399 134.35C268.044 133.92 268.783 133.585 269.617 133.344C270.478 133.075 271.325 132.941 272.158 132.941C273.933 132.941 275.305 133.37 276.273 134.229C277.026 134.9 277.402 137.113 277.402 140.87C277.402 141.97 277.375 143.646 277.321 145.9C277.268 147.832 277.241 149.214 277.241 150.046C277.241 150.958 277.268 151.977 277.321 153.104C275.842 153.319 274.39 153.399 272.965 153.346H271.069C271.015 152.541 270.989 150.985 270.989 148.677V146.665C270.989 145.35 270.962 144.398 270.908 143.807L270.868 143.566V143.284C270.814 142.533 270.747 141.943 270.666 141.513C270.612 141.084 270.437 140.682 270.141 140.306C269.873 139.93 269.442 139.743 268.851 139.743C268.42 139.743 268.03 139.93 267.681 140.306C267.331 140.682 267.143 141.245 267.116 141.996C267.089 142.399 267.076 143.016 267.076 143.848C267.076 144.518 267.103 145.498 267.156 146.786C267.21 148.127 267.237 149.133 267.237 149.804C267.237 151.011 267.183 152.085 267.076 153.024C266.35 153.212 265.758 153.319 265.301 153.346C264.871 153.399 264.387 153.413 263.849 153.386C263.607 153.359 263.217 153.346 262.679 153.346C262.061 153.346 261.455 153.373 260.864 153.426C260.864 150.207 260.85 147.819 260.824 146.262C260.77 142.774 260.743 140.132 260.743 138.334C260.743 137.019 260.77 135.155 260.824 132.74C261.684 132.847 262.356 132.901 262.84 132.901C263.298 132.901 263.741 132.874 264.172 132.82L264.857 132.74C265.449 132.686 265.906 132.659 266.229 132.659C266.874 132.659 267.224 132.753 267.278 132.941C267.331 133.263 267.358 133.733 267.358 134.35V134.39Z" fill="#BD4F6C"/>
<path d="M295.642 139.541C294.97 139.649 294.217 139.702 293.384 139.702C292.12 139.702 290.748 139.555 289.269 139.26C289.296 139.152 289.31 138.978 289.31 138.736C289.31 138.173 289.135 137.703 288.785 137.328C288.436 136.952 287.925 136.791 287.252 136.845C286.849 136.979 286.513 137.207 286.244 137.529C286.002 137.824 285.881 138.16 285.881 138.535C285.881 138.965 286.002 139.367 286.244 139.743C286.486 140.118 286.836 140.4 287.293 140.588H287.252C289.269 140.883 290.896 141.232 292.133 141.634C293.37 142.037 294.311 142.654 294.957 143.485C295.683 144.666 296.046 145.847 296.046 147.027C296.046 147.913 295.831 148.959 295.4 150.166C294.782 151.454 293.774 152.407 292.375 153.024C291.004 153.641 289.417 153.936 287.615 153.909C284.684 154.016 282.331 153.426 280.556 152.138C278.808 150.85 277.934 149.013 277.934 146.625C279.01 146.491 280.113 146.423 281.242 146.423L285.114 146.504C285.141 147.148 285.397 147.684 285.881 148.114C286.365 148.516 286.903 148.717 287.494 148.717C287.925 148.717 288.301 148.556 288.624 148.234C288.946 147.886 289.094 147.43 289.068 146.866C289.148 146.169 288.933 145.686 288.422 145.417C287.911 145.122 287.145 144.867 286.123 144.653L285.518 144.532C284.415 144.29 283.582 144.049 283.017 143.807C281.538 143.244 280.382 142.439 279.548 141.393C278.741 140.319 278.338 139.206 278.338 138.052C278.338 136.818 278.755 135.664 279.588 134.591C280.422 133.518 281.551 132.78 282.977 132.378C283.945 132.109 285.356 131.975 287.212 131.975C289.175 131.975 290.95 132.163 292.537 132.539C293.827 133.075 294.769 133.947 295.36 135.155C295.979 136.335 296.288 137.73 296.288 139.34L295.642 139.541Z" fill="#BD4F6C"/>
<path d="M324.459 133.344C324.459 133.853 324.446 134.216 324.419 134.43C324.23 135.96 323.639 137.368 322.644 138.656C321.649 139.944 320.412 140.963 318.933 141.715C317.454 142.439 315.894 142.801 314.254 142.801C314.173 142.801 314.065 142.815 313.931 142.842C313.797 142.842 313.635 142.828 313.447 142.801C313.474 143.123 313.474 143.445 313.447 143.767C313.447 144.089 313.447 144.384 313.447 144.653V152.823L313.003 152.863C312.277 153.077 311.013 153.185 309.212 153.185C307.867 153.185 306.63 153.118 305.501 152.984C305.393 150.381 305.339 145.86 305.339 139.421V134.551C305.339 130.178 305.299 126.998 305.218 125.013C307.289 124.422 309.454 124.127 311.712 124.127C315.181 124.127 318.126 124.865 320.546 126.341C322.993 127.79 324.298 130.11 324.459 133.303V133.344ZM316.472 131.532C316.042 131.157 315.571 130.915 315.06 130.808C314.55 130.701 314.025 130.647 313.487 130.647C312.976 130.62 312.586 130.607 312.318 130.607C312.344 131.036 312.358 131.761 312.358 132.78V133.142C312.358 133.947 312.371 134.618 312.398 135.155C312.452 135.664 312.546 136.12 312.681 136.523H313.245C313.434 136.523 313.823 136.523 314.415 136.523C315.034 136.523 315.558 136.442 315.988 136.281C316.445 136.121 316.795 135.852 317.037 135.477C317.306 135.02 317.44 134.497 317.44 133.907C317.44 133.183 317.225 132.512 316.795 131.895L316.472 131.532Z" fill="#BD4F6C"/>
<path d="M341.748 132.82C341.748 132.954 341.761 133.183 341.788 133.505C341.842 133.826 341.869 134.122 341.869 134.39C341.842 135.088 341.829 136.134 341.829 137.529C341.829 139.407 341.842 140.816 341.869 141.755V144.17L341.909 146.584C341.909 148.167 341.869 149.791 341.788 151.454V151.857C341.788 152.286 341.735 152.621 341.627 152.863C341.519 153.077 341.237 153.225 340.78 153.305H335.657C335.039 153.118 334.729 152.755 334.729 152.219V151.937C334.057 152.366 333.317 152.715 332.511 152.984C331.704 153.225 330.924 153.346 330.171 153.346C328.746 153.346 327.536 152.769 326.541 151.615C325.573 150.461 324.847 149.039 324.363 147.349C323.879 145.632 323.637 143.968 323.637 142.359C323.637 140.588 323.959 138.991 324.605 137.569C325.25 136.12 326.137 134.98 327.267 134.148C328.396 133.317 329.647 132.887 331.018 132.861C331.852 132.861 332.632 132.928 333.358 133.062C334.084 133.196 334.541 133.357 334.729 133.545C334.729 133.411 334.702 133.236 334.649 133.022C334.595 132.807 334.608 132.646 334.689 132.539C334.743 132.485 334.931 132.458 335.254 132.458C335.738 132.458 336.37 132.498 337.15 132.579C337.956 132.633 338.467 132.673 338.682 132.7L341.224 132.82H341.748ZM329.808 143.164C329.808 144.344 330.077 145.337 330.615 146.142C331.153 146.92 331.879 147.309 332.793 147.309C333.385 147.309 333.815 147.148 334.084 146.826C334.353 146.504 334.514 146.075 334.568 145.538C334.649 145.001 334.689 144.196 334.689 143.123V142.077C334.689 140.923 334.662 140.145 334.608 139.743C334.581 139.313 334.46 139.032 334.245 138.897C334.057 138.736 333.707 138.656 333.196 138.656C332.336 138.656 331.637 138.897 331.099 139.38C330.561 139.837 330.212 140.4 330.05 141.071C329.889 141.607 329.808 142.305 329.808 143.164Z" fill="#BD4F6C"/>
<path d="M350.242 133.786C350.377 133.759 350.538 133.706 350.726 133.625C350.942 133.518 351.143 133.437 351.332 133.384C352.461 133.035 353.927 132.861 355.728 132.861C357.046 132.861 357.705 132.928 357.705 133.062L357.664 135.155L357.705 140.588L356.616 140.226L354.276 139.662C353.631 139.582 353.053 139.541 352.542 139.541C351.708 139.541 351.076 139.743 350.646 140.145C350.216 140.548 350.014 141.245 350.041 142.238C350.148 145.538 350.202 149.133 350.202 153.024C349.503 153.212 348.925 153.319 348.468 153.346C348.01 153.399 347.432 153.413 346.733 153.386C346.464 153.359 346.034 153.346 345.442 153.346C344.797 153.346 344.178 153.373 343.587 153.426C343.587 150.207 343.573 147.819 343.546 146.262C343.493 142.774 343.466 140.132 343.466 138.334C343.466 137.019 343.493 135.155 343.546 132.74C344.407 132.847 345.079 132.901 345.563 132.901C346.262 132.901 346.948 132.861 347.621 132.78C348.266 132.7 348.898 132.659 349.516 132.659C349.974 132.659 350.202 132.7 350.202 132.78L350.242 133.746V133.786Z" fill="#BD4F6C"/>
<path d="M370.539 143.848C372.824 147.389 374.653 150.529 376.025 153.265L373.604 153.346C372.529 153.399 371.682 153.426 371.063 153.426C369.853 153.426 368.966 153.359 368.401 153.225C368.239 152.957 367.809 152.165 367.11 150.85L366.586 149.844C366.29 149.335 366.142 149.053 366.142 148.999L365.174 147.108V148.194L365.214 149.482C365.214 151.092 365.12 152.366 364.932 153.305C364.609 153.279 363.708 153.265 362.229 153.265C361.422 153.319 360.75 153.346 360.212 153.346C359.675 153.346 359.083 153.292 358.438 153.185C358.33 150.394 358.276 147.242 358.276 143.727C358.276 141.661 358.303 138.589 358.357 134.511C358.411 130.379 358.438 126.757 358.438 123.644C359.54 123.644 360.306 123.631 360.737 123.604H361.745L362.794 123.564L364.165 123.644L365.133 123.685V133.585L365.093 134.551C365.066 134.98 365.053 135.597 365.053 136.402L365.012 136.885C365.308 136.563 365.523 136.268 365.658 136C365.792 135.731 365.9 135.517 365.981 135.356C366.034 135.275 366.088 135.168 366.142 135.034C366.223 134.873 366.303 134.725 366.384 134.591V134.631C367.083 133.451 367.742 132.498 368.36 131.774C369.14 132.042 369.92 132.176 370.7 132.176C371.13 132.176 371.803 132.15 372.717 132.096H372.919C373.188 132.069 373.672 132.056 374.371 132.056C374.935 132.056 375.379 132.069 375.702 132.096C375.003 133.169 374.156 134.377 373.161 135.718C372.193 137.033 371.601 137.824 371.386 138.093C371.359 138.119 371.184 138.334 370.861 138.736L368.885 141.312C369.019 141.554 369.154 141.782 369.288 141.996C369.45 142.184 369.584 142.359 369.692 142.52C369.961 143.003 370.243 143.445 370.539 143.848Z" fill="#BD4F6C"/>
<path d="M168.885 174.465C168.831 174.572 168.764 175.417 168.683 177C168.602 178.583 168.562 180.193 168.562 181.83C168.562 183.493 168.602 184.889 168.683 186.015C168.764 186.74 168.979 187.451 169.329 188.148C169.678 188.819 170.095 189.275 170.579 189.517C171.52 189.571 172.233 189.141 172.717 188.229H172.677C172.919 187.719 173.04 186.955 173.04 185.935C173.04 185.13 173.093 184.5 173.201 184.043C173.873 184.151 174.519 184.204 175.137 184.204L176.993 184.164C177.961 184.164 178.875 184.271 179.736 184.486C180.058 185.425 180.22 186.404 180.22 187.424C180.22 188.953 179.83 190.402 179.05 191.771C178.297 193.139 177.248 194.252 175.904 195.111C174.559 195.97 173.066 196.426 171.426 196.479C170.942 196.56 170.377 196.6 169.732 196.6C167.634 196.6 165.792 196.131 164.206 195.191C162.619 194.252 161.732 192.844 161.543 190.966C161.409 188.283 161.342 185.398 161.342 182.313C161.342 179.764 161.355 177.671 161.382 176.034L161.422 174.223C161.396 173.821 161.422 173.365 161.503 172.855C161.611 172.318 161.745 171.849 161.906 171.446C162.148 170.829 162.458 170.212 162.834 169.595C163.238 168.978 163.654 168.468 164.085 168.066C164.649 167.61 165.483 167.221 166.586 166.899C167.634 166.577 168.723 166.416 169.853 166.416C171.682 166.416 173.403 166.845 175.016 167.704C176.63 168.535 177.92 169.689 178.888 171.165C179.857 172.614 180.341 174.197 180.341 175.914C180.341 176.933 180.152 177.953 179.776 178.972C178.646 179.214 177.705 179.335 176.952 179.335C175.93 179.335 174.519 179.16 172.717 178.811L172.596 177.282C172.542 176.048 172.381 175.122 172.112 174.505C171.87 173.861 171.332 173.553 170.498 173.579C170.471 173.579 170.431 173.593 170.377 173.62C170.35 173.62 170.297 173.62 170.216 173.62H170.256C169.423 173.754 168.965 174.036 168.885 174.465Z" fill="#BD4F6C"/>
<path d="M187.29 186.901C187.317 187.786 187.357 188.444 187.411 188.873C187.492 189.275 187.68 189.705 187.976 190.161C188.191 190.563 188.473 190.872 188.823 191.086C189.172 191.301 189.535 191.408 189.912 191.408C190.477 191.408 190.934 191.113 191.283 190.523C191.633 189.906 191.781 189.007 191.727 187.827C192.507 187.934 193.341 187.961 194.228 187.907L198.02 188.108C198.02 189.316 197.926 190.536 197.737 191.771C197.576 193.005 197.253 193.944 196.769 194.588C196.231 195.339 195.452 195.849 194.43 196.117C193.435 196.412 192.265 196.56 190.92 196.56C190.409 196.56 189.697 196.533 188.782 196.479C188.352 196.453 187.72 196.439 186.887 196.439C186.053 196.332 185.219 196.037 184.386 195.554C183.095 194.534 182.14 193.085 181.522 191.207C180.903 189.329 180.594 187.29 180.594 185.09C180.594 182.782 180.917 180.663 181.562 178.731C182.1 177.524 183.095 176.585 184.547 175.914C185.999 175.243 187.613 174.908 189.387 174.908C190.356 174.908 191.297 175.015 192.211 175.23C194.282 175.632 195.788 176.611 196.729 178.168C197.697 179.697 198.181 181.535 198.181 183.681C198.181 184.03 198.154 184.634 198.1 185.492C197.589 185.626 196.42 185.761 194.591 185.895C192.762 186.002 191.055 186.056 189.468 186.056H187.29V186.901ZM191.243 179.657C190.84 179.415 190.477 179.294 190.154 179.294C189.213 179.294 188.54 179.509 188.137 179.938C187.734 180.368 187.492 180.971 187.411 181.749C187.384 181.857 187.371 181.977 187.371 182.112C187.371 182.273 187.451 182.367 187.613 182.393C187.774 182.42 188.177 182.42 188.823 182.393H190.598L191.808 182.434H192.332C192.413 182.46 192.467 182.46 192.493 182.434C192.52 182.407 192.534 182.353 192.534 182.273V182.112C192.534 181.548 192.426 181.052 192.211 180.623C192.023 180.193 191.754 179.885 191.404 179.697L191.243 179.657Z" fill="#BD4F6C"/>
<path d="M205.738 177.161C205.765 177.161 205.765 177.161 205.738 177.161C205.738 177.135 205.751 177.121 205.778 177.121C206.423 176.692 207.163 176.356 207.997 176.115C208.857 175.847 209.704 175.713 210.538 175.713C212.313 175.713 213.684 176.142 214.652 177C215.405 177.671 215.782 179.885 215.782 183.641C215.782 184.741 215.755 186.418 215.701 188.672C215.647 190.603 215.62 191.985 215.62 192.817C215.62 193.729 215.647 194.749 215.701 195.876C214.222 196.09 212.77 196.171 211.345 196.117H209.449C209.395 195.312 209.368 193.756 209.368 191.449V189.436C209.368 188.122 209.341 187.169 209.287 186.579L209.247 186.337V186.056C209.193 185.304 209.126 184.714 209.045 184.285C208.992 183.856 208.817 183.453 208.521 183.078C208.252 182.702 207.822 182.514 207.23 182.514C206.8 182.514 206.41 182.702 206.06 183.078C205.711 183.453 205.523 184.017 205.496 184.768C205.469 185.17 205.455 185.787 205.455 186.619C205.455 187.29 205.482 188.269 205.536 189.557C205.59 190.899 205.617 191.905 205.617 192.576C205.617 193.783 205.563 194.856 205.455 195.795C204.729 195.983 204.138 196.09 203.68 196.117C203.25 196.171 202.766 196.184 202.228 196.157C201.986 196.131 201.596 196.117 201.059 196.117C200.44 196.117 199.835 196.144 199.243 196.198C199.243 192.978 199.23 190.59 199.203 189.034C199.149 185.546 199.122 182.903 199.122 181.105C199.122 179.791 199.149 177.926 199.203 175.511C200.064 175.619 200.736 175.672 201.22 175.672C201.677 175.672 202.121 175.645 202.551 175.592L203.237 175.511C203.828 175.458 204.285 175.431 204.608 175.431C205.254 175.431 205.603 175.525 205.657 175.713C205.711 176.034 205.738 176.504 205.738 177.121V177.161Z" fill="#BD4F6C"/>
<path d="M225.793 175.753C227.191 175.699 228.429 175.632 229.504 175.552L230.069 175.511C230.257 175.484 230.445 175.484 230.634 175.511C230.849 175.511 231.024 175.511 231.158 175.511H232.086C232.193 176.585 232.247 177.202 232.247 177.363C232.247 177.497 232.22 177.913 232.166 178.61L232.126 179.053L232.086 179.938C232.086 180.126 232.113 180.435 232.166 180.864H225.874C225.874 185.13 225.86 187.746 225.833 188.712C226.237 189.222 226.963 189.597 228.012 189.839C229.06 190.08 230.15 190.201 231.279 190.201L232.126 190.161V190.523L232.166 190.684V190.644C232.328 191.771 232.408 192.777 232.408 193.662C232.408 194.521 232.287 195.299 232.045 195.996C231.346 196.05 230.634 196.077 229.908 196.077C227.46 196.077 225.309 195.795 223.454 195.232C221.625 194.641 220.415 193.649 219.823 192.254C219.581 190.805 219.42 189.369 219.339 187.947C219.258 186.498 219.218 184.848 219.218 182.997V180.985C218.869 181.012 218.546 181.025 218.25 181.025C217.981 180.998 217.739 180.985 217.524 180.985H216.314L216.435 175.672C217.161 175.699 218.116 175.713 219.299 175.713L219.339 168.026C219.931 167.972 220.442 167.945 220.872 167.945C221.302 167.945 221.813 167.972 222.405 168.026L222.687 168.066C223.333 168.119 223.83 168.146 224.18 168.146C224.691 168.146 225.215 168.106 225.753 168.026V175.35L225.793 175.753Z" fill="#BD4F6C"/>
<path d="M238.972 186.901C238.999 187.786 239.039 188.444 239.093 188.873C239.174 189.275 239.362 189.705 239.658 190.161C239.873 190.563 240.155 190.872 240.505 191.086C240.854 191.301 241.218 191.408 241.594 191.408C242.159 191.408 242.616 191.113 242.965 190.523C243.315 189.906 243.463 189.007 243.409 187.827C244.189 187.934 245.023 187.961 245.91 187.907L249.702 188.108C249.702 189.316 249.608 190.536 249.419 191.771C249.258 193.005 248.935 193.944 248.451 194.588C247.914 195.339 247.134 195.849 246.112 196.117C245.117 196.412 243.947 196.56 242.602 196.56C242.091 196.56 241.379 196.533 240.465 196.479C240.034 196.453 239.402 196.439 238.569 196.439C237.735 196.332 236.901 196.037 236.068 195.554C234.777 194.534 233.822 193.085 233.204 191.207C232.585 189.329 232.276 187.29 232.276 185.09C232.276 182.782 232.599 180.663 233.244 178.731C233.782 177.524 234.777 176.585 236.229 175.914C237.681 175.243 239.295 174.908 241.07 174.908C242.038 174.908 242.979 175.015 243.893 175.23C245.964 175.632 247.47 176.611 248.411 178.168C249.379 179.697 249.863 181.535 249.863 183.681C249.863 184.03 249.836 184.634 249.782 185.492C249.272 185.626 248.102 185.761 246.273 185.895C244.444 186.002 242.737 186.056 241.15 186.056H238.972V186.901ZM242.925 179.657C242.522 179.415 242.159 179.294 241.836 179.294C240.895 179.294 240.223 179.509 239.819 179.938C239.416 180.368 239.174 180.971 239.093 181.749C239.066 181.857 239.053 181.977 239.053 182.112C239.053 182.273 239.133 182.367 239.295 182.393C239.456 182.42 239.859 182.42 240.505 182.393H242.28L243.49 182.434H244.014C244.095 182.46 244.149 182.46 244.176 182.434C244.202 182.407 244.216 182.353 244.216 182.273V182.112C244.216 181.548 244.108 181.052 243.893 180.623C243.705 180.193 243.436 179.885 243.086 179.697L242.925 179.657Z" fill="#BD4F6C"/>
<path d="M257.42 177.161C257.447 177.161 257.447 177.161 257.42 177.161C257.42 177.135 257.433 177.121 257.46 177.121C258.105 176.692 258.845 176.356 259.679 176.115C260.539 175.847 261.386 175.713 262.22 175.713C263.995 175.713 265.366 176.142 266.334 177C267.087 177.671 267.464 179.885 267.464 183.641C267.464 184.741 267.437 186.418 267.383 188.672C267.329 190.603 267.302 191.985 267.302 192.817C267.302 193.729 267.329 194.749 267.383 195.876C265.904 196.09 264.452 196.171 263.027 196.117H261.131C261.077 195.312 261.05 193.756 261.05 191.449V189.436C261.05 188.122 261.023 187.169 260.969 186.579L260.929 186.337V186.056C260.875 185.304 260.808 184.714 260.727 184.285C260.674 183.856 260.499 183.453 260.203 183.078C259.934 182.702 259.504 182.514 258.912 182.514C258.482 182.514 258.092 182.702 257.742 183.078C257.393 183.453 257.205 184.017 257.178 184.768C257.151 185.17 257.137 185.787 257.137 186.619C257.137 187.29 257.164 188.269 257.218 189.557C257.272 190.899 257.299 191.905 257.299 192.576C257.299 193.783 257.245 194.856 257.137 195.795C256.411 195.983 255.82 196.09 255.363 196.117C254.932 196.171 254.448 196.184 253.91 196.157C253.668 196.131 253.278 196.117 252.741 196.117C252.122 196.117 251.517 196.144 250.925 196.198C250.925 192.978 250.912 190.59 250.885 189.034C250.831 185.546 250.804 182.903 250.804 181.105C250.804 179.791 250.831 177.926 250.885 175.511C251.746 175.619 252.418 175.672 252.902 175.672C253.359 175.672 253.803 175.645 254.233 175.592L254.919 175.511C255.51 175.458 255.968 175.431 256.29 175.431C256.936 175.431 257.285 175.525 257.339 175.713C257.393 176.034 257.42 176.504 257.42 177.121V177.161Z" fill="#BD4F6C"/>
<path d="M275.579 177.161C275.606 177.161 275.606 177.161 275.579 177.161C275.579 177.135 275.593 177.121 275.62 177.121C276.265 176.692 277.005 176.356 277.838 176.115C278.699 175.847 279.546 175.713 280.38 175.713C282.154 175.713 283.526 176.142 284.494 177C285.247 177.671 285.623 179.885 285.623 183.641C285.623 184.741 285.596 186.418 285.543 188.672C285.489 190.603 285.462 191.985 285.462 192.817C285.462 193.729 285.489 194.749 285.543 195.876C284.064 196.09 282.612 196.171 281.186 196.117H279.29C279.237 195.312 279.21 193.756 279.21 191.449V189.436C279.21 188.122 279.183 187.169 279.129 186.579L279.089 186.337V186.056C279.035 185.304 278.968 184.714 278.887 184.285C278.833 183.856 278.658 183.453 278.363 183.078C278.094 182.702 277.663 182.514 277.072 182.514C276.642 182.514 276.252 182.702 275.902 183.078C275.552 183.453 275.364 184.017 275.337 184.768C275.31 185.17 275.297 185.787 275.297 186.619C275.297 187.29 275.324 188.269 275.378 189.557C275.431 190.899 275.458 191.905 275.458 192.576C275.458 193.783 275.405 194.856 275.297 195.795C274.571 195.983 273.979 196.09 273.522 196.117C273.092 196.171 272.608 196.184 272.07 196.157C271.828 196.131 271.438 196.117 270.9 196.117C270.282 196.117 269.677 196.144 269.085 196.198C269.085 192.978 269.072 190.59 269.045 189.034C268.991 185.546 268.964 182.903 268.964 181.105C268.964 179.791 268.991 177.926 269.045 175.511C269.905 175.619 270.578 175.672 271.062 175.672C271.519 175.672 271.962 175.645 272.393 175.592L273.078 175.511C273.67 175.458 274.127 175.431 274.45 175.431C275.095 175.431 275.445 175.525 275.499 175.713C275.553 176.034 275.579 176.504 275.579 177.121V177.161Z" fill="#BD4F6C"/>
<path d="M293.82 166.738C293.82 167.462 293.833 168.066 293.86 168.549C293.86 168.817 293.887 169.3 293.941 169.998L294.021 172.573C293.887 172.734 293.672 172.815 293.376 172.815C293.188 172.815 292.932 172.801 292.61 172.775C292.287 172.721 292.018 172.694 291.803 172.694C291.48 172.694 290.969 172.667 290.27 172.614C290.001 172.587 289.544 172.573 288.899 172.573C288.199 172.573 287.662 172.587 287.285 172.614C287.285 172.05 287.258 171.312 287.204 170.4L287.164 169.756C287.11 168.576 287.097 167.529 287.124 166.617L293.82 166.738ZM293.981 175.592C293.981 176.987 293.954 179.026 293.9 181.709L293.86 183.963C293.806 186.431 293.779 188.283 293.779 189.517C293.779 191.824 293.833 193.85 293.941 195.594C293.806 195.782 293.524 195.902 293.094 195.956C292.69 196.037 292.126 196.077 291.399 196.077C290.566 196.077 289.988 196.063 289.665 196.037C288.616 195.983 287.729 196.063 287.003 196.278C287.137 194.48 287.204 192.669 287.204 190.845C287.204 189.718 287.178 188.055 287.124 185.854C287.07 184.03 287.043 182.447 287.043 181.105C287.043 179.12 287.124 177.202 287.285 175.35C287.662 175.297 287.984 175.27 288.253 175.27C288.495 175.27 288.683 175.283 288.818 175.31C290.485 175.391 291.789 175.417 292.731 175.391L293.981 175.592Z" fill="#BD4F6C"/>
<path d="M312.941 175.592C312.941 175.726 312.954 175.954 312.981 176.276C313.035 176.598 313.062 176.893 313.062 177.161C313.035 177.859 313.022 178.905 313.022 180.301C313.022 182.179 313.035 183.587 313.062 184.526V186.941L313.102 189.356C313.102 190.939 313.062 192.562 312.981 194.226V194.628C312.981 195.057 312.927 195.393 312.82 195.634C312.712 195.849 312.43 195.996 311.973 196.077H306.85C306.231 195.889 305.922 195.527 305.922 194.99V194.709C305.25 195.138 304.51 195.487 303.704 195.755C302.897 195.996 302.117 196.117 301.364 196.117C299.939 196.117 298.729 195.54 297.734 194.387C296.766 193.233 296.04 191.811 295.555 190.121C295.071 188.403 294.829 186.74 294.829 185.13C294.829 183.359 295.152 181.763 295.798 180.341C296.443 178.892 297.33 177.752 298.46 176.92C299.589 176.088 300.84 175.659 302.211 175.632C303.045 175.632 303.825 175.699 304.551 175.833C305.277 175.967 305.734 176.128 305.922 176.316C305.922 176.182 305.895 176.008 305.841 175.793C305.788 175.578 305.801 175.417 305.882 175.31C305.936 175.256 306.124 175.23 306.447 175.23C306.931 175.23 307.563 175.27 308.342 175.35C309.149 175.404 309.66 175.444 309.875 175.471L312.416 175.592H312.941ZM301.001 185.935C301.001 187.115 301.27 188.108 301.808 188.913C302.346 189.691 303.072 190.08 303.986 190.08C304.578 190.08 305.008 189.919 305.277 189.597C305.546 189.275 305.707 188.846 305.761 188.309C305.841 187.773 305.882 186.968 305.882 185.895V184.848C305.882 183.695 305.855 182.917 305.801 182.514C305.774 182.085 305.653 181.803 305.438 181.669C305.25 181.508 304.9 181.427 304.389 181.427C303.529 181.427 302.83 181.669 302.292 182.152C301.754 182.608 301.404 183.171 301.243 183.842C301.082 184.379 301.001 185.076 301.001 185.935Z" fill="#BD4F6C"/>
<path d="M321.435 173.66V174.827L321.395 178.771C321.341 182.688 321.314 185.613 321.314 187.545C321.314 191.167 321.368 193.85 321.476 195.594C321.341 195.782 321.059 195.902 320.629 195.956C320.225 196.037 319.66 196.077 318.934 196.077C318.101 196.077 317.523 196.063 317.2 196.037C316.151 195.983 315.264 196.063 314.538 196.278C314.726 193.702 314.82 191.314 314.82 189.114C314.82 187.505 314.766 185.09 314.659 181.87C314.551 178.382 314.497 175.753 314.497 173.982C314.497 171.299 314.618 168.763 314.86 166.375L321.516 166.496L321.435 173.66Z" fill="#BD4F6C"/>
<path d="M350.367 176.115C350.367 176.625 350.354 176.987 350.327 177.202C350.139 178.731 349.547 180.14 348.552 181.427C347.557 182.715 346.32 183.735 344.841 184.486C343.362 185.211 341.802 185.573 340.162 185.573C340.081 185.573 339.974 185.586 339.839 185.613C339.705 185.613 339.543 185.6 339.355 185.573C339.382 185.895 339.382 186.217 339.355 186.539C339.355 186.861 339.355 187.156 339.355 187.424V195.594L338.911 195.634C338.185 195.849 336.921 195.956 335.12 195.956C333.775 195.956 332.538 195.889 331.409 195.755C331.301 193.152 331.247 188.631 331.247 182.192V177.322C331.247 172.949 331.207 169.77 331.126 167.784C333.197 167.194 335.362 166.899 337.621 166.899C341.09 166.899 344.034 167.637 346.454 169.112C348.902 170.561 350.206 172.882 350.367 176.075V176.115ZM342.38 174.304C341.95 173.928 341.48 173.687 340.969 173.579C340.458 173.472 339.933 173.419 339.395 173.419C338.885 173.392 338.495 173.378 338.226 173.378C338.253 173.808 338.266 174.532 338.266 175.552V175.914C338.266 176.719 338.279 177.389 338.306 177.926C338.36 178.436 338.454 178.892 338.589 179.294H339.153C339.342 179.294 339.732 179.294 340.323 179.294C340.942 179.294 341.466 179.214 341.896 179.053C342.354 178.892 342.703 178.624 342.945 178.248C343.214 177.792 343.349 177.269 343.349 176.678C343.349 175.954 343.133 175.283 342.703 174.666L342.38 174.304Z" fill="#BD4F6C"/>
<path d="M367.656 175.592C367.656 175.726 367.67 175.954 367.697 176.276C367.75 176.598 367.777 176.893 367.777 177.161C367.75 177.859 367.737 178.905 367.737 180.301C367.737 182.179 367.75 183.587 367.777 184.526V186.941L367.818 189.356C367.818 190.939 367.777 192.562 367.697 194.226V194.628C367.697 195.057 367.643 195.393 367.535 195.634C367.428 195.849 367.145 195.996 366.688 196.077H361.565C360.947 195.889 360.637 195.527 360.637 194.99V194.709C359.965 195.138 359.226 195.487 358.419 195.755C357.612 195.996 356.832 196.117 356.079 196.117C354.654 196.117 353.444 195.54 352.449 194.387C351.481 193.233 350.755 191.811 350.271 190.121C349.787 188.403 349.545 186.74 349.545 185.13C349.545 183.359 349.867 181.763 350.513 180.341C351.158 178.892 352.046 177.752 353.175 176.92C354.305 176.088 355.555 175.659 356.926 175.632C357.76 175.632 358.54 175.699 359.266 175.833C359.992 175.967 360.449 176.128 360.637 176.316C360.637 176.182 360.611 176.008 360.557 175.793C360.503 175.578 360.516 175.417 360.597 175.31C360.651 175.256 360.839 175.23 361.162 175.23C361.646 175.23 362.278 175.27 363.058 175.35C363.864 175.404 364.375 175.444 364.591 175.471L367.132 175.592H367.656ZM355.716 185.935C355.716 187.115 355.985 188.108 356.523 188.913C357.061 189.691 357.787 190.08 358.701 190.08C359.293 190.08 359.723 189.919 359.992 189.597C360.261 189.275 360.422 188.846 360.476 188.309C360.557 187.773 360.597 186.968 360.597 185.895V184.848C360.597 183.695 360.57 182.917 360.516 182.514C360.49 182.085 360.369 181.803 360.153 181.669C359.965 181.508 359.616 181.427 359.105 181.427C358.244 181.427 357.545 181.669 357.007 182.152C356.469 182.608 356.12 183.171 355.958 183.842C355.797 184.379 355.716 185.076 355.716 185.935Z" fill="#BD4F6C"/>
<path d="M376.151 176.558C376.285 176.531 376.446 176.477 376.635 176.397C376.85 176.289 377.051 176.209 377.24 176.155C378.369 175.806 379.835 175.632 381.636 175.632C382.954 175.632 383.613 175.699 383.613 175.833L383.573 177.926L383.613 183.359L382.524 182.997L380.184 182.434C379.539 182.353 378.961 182.313 378.45 182.313C377.616 182.313 376.984 182.514 376.554 182.917C376.124 183.319 375.922 184.017 375.949 185.009C376.056 188.309 376.11 191.905 376.11 195.795C375.411 195.983 374.833 196.09 374.376 196.117C373.919 196.171 373.34 196.184 372.641 196.157C372.372 196.131 371.942 196.117 371.35 196.117C370.705 196.117 370.087 196.144 369.495 196.198C369.495 192.978 369.482 190.59 369.455 189.034C369.401 185.546 369.374 182.903 369.374 181.105C369.374 179.791 369.401 177.926 369.455 175.511C370.315 175.619 370.987 175.672 371.471 175.672C372.171 175.672 372.856 175.632 373.529 175.552C374.174 175.471 374.806 175.431 375.424 175.431C375.882 175.431 376.11 175.471 376.11 175.552L376.151 176.517V176.558Z" fill="#BD4F6C"/>
<path d="M396.447 186.619C398.733 190.161 400.561 193.3 401.933 196.037L399.513 196.117C398.437 196.171 397.59 196.198 396.971 196.198C395.761 196.198 394.874 196.131 394.309 195.996C394.148 195.728 393.717 194.937 393.018 193.622L392.494 192.616C392.198 192.106 392.05 191.824 392.05 191.771L391.082 189.879V190.966L391.122 192.254C391.122 193.863 391.028 195.138 390.84 196.077C390.517 196.05 389.616 196.037 388.137 196.037C387.331 196.09 386.658 196.117 386.121 196.117C385.583 196.117 384.991 196.063 384.346 195.956C384.238 193.166 384.184 190.013 384.184 186.498C384.184 184.432 384.211 181.36 384.265 177.282C384.319 173.15 384.346 169.528 384.346 166.416C385.448 166.416 386.215 166.402 386.645 166.375H387.653L388.702 166.335L390.074 166.416L391.042 166.456V176.356L391.001 177.322C390.974 177.752 390.961 178.369 390.961 179.174L390.921 179.657C391.216 179.335 391.432 179.04 391.566 178.771C391.701 178.503 391.808 178.288 391.889 178.127C391.943 178.047 391.996 177.939 392.05 177.805C392.131 177.644 392.211 177.497 392.292 177.363V177.403C392.991 176.222 393.65 175.27 394.269 174.545C395.048 174.814 395.828 174.948 396.608 174.948C397.038 174.948 397.711 174.921 398.625 174.867H398.827C399.096 174.841 399.58 174.827 400.279 174.827C400.844 174.827 401.287 174.841 401.61 174.867C400.911 175.941 400.064 177.148 399.069 178.489C398.101 179.804 397.509 180.596 397.294 180.864C397.267 180.891 397.092 181.105 396.77 181.508L394.793 184.084C394.927 184.325 395.062 184.553 395.196 184.768C395.358 184.956 395.492 185.13 395.6 185.291C395.869 185.774 396.151 186.217 396.447 186.619Z" fill="#BD4F6C"/>
<path d="M177.96 231.122C179.035 232.758 179.896 234.14 180.541 235.267C181.213 236.393 181.765 237.534 182.195 238.687H181.549C181.227 238.687 180.501 238.714 179.371 238.768C178.242 238.822 177.341 238.848 176.669 238.848C176.292 238.848 175.728 238.822 174.975 238.768L174.289 238.728C172.541 234.757 170.982 231.779 169.61 229.794V230.84C169.61 232.503 169.704 234.65 169.893 237.279V237.239C169.92 237.426 169.933 237.748 169.933 238.204C169.019 238.634 167.513 238.848 165.416 238.848L164.447 238.808H162.31C162.014 238.808 161.866 236.38 161.866 231.524C161.866 227.124 161.826 222.724 161.745 218.324C161.664 213.897 161.543 211.241 161.382 210.356L162.471 210.195C164.084 209.98 165.416 209.819 166.464 209.712C167.513 209.605 168.589 209.551 169.691 209.551C170.874 209.551 171.883 209.605 172.716 209.712C174.276 209.9 175.728 210.437 177.072 211.322C178.444 212.207 179.533 213.294 180.339 214.582C181.173 215.869 181.59 217.197 181.59 218.566C181.59 219.88 181.16 221.316 180.299 222.872C179.761 223.838 179.049 224.642 178.161 225.286C177.274 225.93 176.212 226.319 174.975 226.453C175.701 227.741 176.548 229.083 177.516 230.478C177.704 230.8 177.852 231.014 177.96 231.122ZM172.151 220.86C172.528 220.752 172.824 220.484 173.039 220.055C173.254 219.625 173.361 219.116 173.361 218.525C173.361 217.425 173.093 216.714 172.555 216.393C172.205 216.178 171.842 216.044 171.466 215.99C171.116 215.936 170.713 215.91 170.256 215.91L168.521 216.191C168.575 216.996 168.602 217.68 168.602 218.244C168.602 219.693 168.642 220.578 168.723 220.9C169.18 220.953 169.745 220.98 170.417 220.98C171.036 220.98 171.614 220.94 172.151 220.86Z" fill="#BD4F6C"/>
<path d="M189.282 217.721C189.417 217.747 189.901 217.761 190.734 217.761C190.896 217.734 191.232 217.721 191.743 217.721C192.065 217.721 192.294 217.734 192.428 217.761C193.37 217.814 194.257 218.002 195.091 218.324C195.951 218.619 196.637 219.022 197.148 219.532C197.927 220.149 198.438 221.114 198.68 222.429C198.922 223.744 199.043 225.273 199.043 227.017V228.345C198.963 230.625 198.828 232.544 198.64 234.1C198.452 235.656 198.129 236.702 197.672 237.239C197.134 237.99 196.354 238.513 195.333 238.808C194.338 239.103 193.168 239.251 191.823 239.251C191.313 239.251 190.6 239.224 189.686 239.17C188.825 239.117 188.166 239.09 187.709 239.09C186.284 238.822 185.034 238.218 183.958 237.279C183.125 236.474 182.546 235.468 182.224 234.261C181.901 233.026 181.74 231.645 181.74 230.116L181.699 225.528C181.619 224.803 181.699 223.757 181.941 222.389C182.21 221.021 182.479 220.242 182.748 220.055C183.044 219.303 183.81 218.727 185.047 218.324C186.311 217.922 187.723 217.721 189.282 217.721ZM188.435 225.85C188.408 226.118 188.382 226.494 188.355 226.977C188.328 227.433 188.314 227.781 188.314 228.023L188.274 228.828C188.274 229.498 188.247 230.236 188.193 231.041C188.22 231.631 188.449 232.114 188.879 232.49C189.309 232.865 189.793 233.053 190.331 233.053C190.869 233.053 191.407 232.933 191.944 232.691C192.106 232.611 192.307 232.168 192.549 231.363L192.59 231.162C192.751 229.82 192.832 228.841 192.832 228.224C192.832 227.58 192.778 227.003 192.67 226.494C192.536 225.796 192.267 225.246 191.864 224.844C191.487 224.441 191.003 224.24 190.412 224.24C190.304 224.24 190.089 224.267 189.766 224.32C189.094 224.535 188.704 224.83 188.597 225.206L188.435 225.85Z" fill="#BD4F6C"/>
<path d="M210.791 210.316C210.791 210.235 211.14 210.155 211.839 210.074C212.538 209.967 213.305 209.913 214.138 209.913C215.214 209.913 216.195 210.007 217.083 210.195V212.932C217.083 215.48 217.137 219.196 217.244 224.079C217.325 227.084 217.365 230.29 217.365 233.697C217.365 236.031 217.352 237.722 217.325 238.768H216.195L215.147 238.808C214.098 238.808 212.659 238.768 210.831 238.687C210.696 238.553 210.629 238.406 210.629 238.245L210.589 237.319L210.508 237.44C210.132 237.896 209.728 238.231 209.298 238.446C208.868 238.634 208.37 238.728 207.806 238.728C207.429 238.728 207.147 238.714 206.959 238.687H206.999C205.009 238.5 203.477 237.856 202.401 236.756C201.352 235.656 200.64 234.314 200.263 232.731C199.914 231.148 199.712 229.284 199.658 227.138C199.658 225.125 199.967 223.355 200.586 221.825C201.204 220.269 202.119 219.25 203.329 218.767C204.35 218.391 205.628 218.204 207.16 218.204C208.639 218.204 209.809 218.324 210.67 218.566L210.629 217.157C210.602 216.486 210.589 215.628 210.589 214.582C210.589 214.045 210.656 212.771 210.791 210.758V210.316ZM205.708 226.011C205.547 226.44 205.466 227.191 205.466 228.264C205.466 229.633 205.749 230.826 206.313 231.846C206.878 232.839 207.618 233.335 208.532 233.335C209.527 233.335 210.159 232.892 210.428 232.007C210.696 231.095 210.831 229.659 210.831 227.701C210.831 226.252 210.791 225.246 210.71 224.683C210.656 224.119 210.508 223.744 210.266 223.556C210.024 223.368 209.594 223.274 208.976 223.274C208.061 223.274 207.322 223.516 206.757 223.999C206.192 224.481 205.843 225.192 205.708 226.131V226.011Z" fill="#BD4F6C"/>
<path d="M225.508 219.934C225.535 219.934 225.535 219.934 225.508 219.934C225.508 219.907 225.522 219.894 225.549 219.894C226.194 219.464 226.934 219.129 227.767 218.888C228.628 218.619 229.475 218.485 230.308 218.485C232.083 218.485 233.454 218.914 234.422 219.773C235.175 220.444 235.552 222.657 235.552 226.413C235.552 227.513 235.525 229.19 235.471 231.444C235.417 233.375 235.39 234.757 235.39 235.589C235.39 236.501 235.417 237.52 235.471 238.647C233.992 238.862 232.54 238.942 231.115 238.889H229.219C229.165 238.084 229.138 236.528 229.138 234.22V232.208C229.138 230.894 229.112 229.941 229.058 229.351L229.017 229.109V228.828C228.964 228.077 228.896 227.486 228.816 227.057C228.762 226.628 228.587 226.225 228.291 225.85C228.023 225.474 227.592 225.286 227.001 225.286C226.57 225.286 226.181 225.474 225.831 225.85C225.481 226.225 225.293 226.789 225.266 227.54C225.239 227.942 225.226 228.559 225.226 229.391C225.226 230.062 225.253 231.041 225.307 232.329C225.36 233.67 225.387 234.676 225.387 235.347C225.387 236.554 225.334 237.628 225.226 238.567C224.5 238.754 223.908 238.862 223.451 238.889C223.021 238.942 222.537 238.956 221.999 238.929C221.757 238.902 221.367 238.889 220.83 238.889C220.211 238.889 219.606 238.915 219.014 238.969C219.014 235.75 219.001 233.362 218.974 231.806C218.92 228.318 218.893 225.675 218.893 223.878C218.893 222.563 218.92 220.699 218.974 218.284C219.835 218.391 220.507 218.445 220.991 218.445C221.448 218.445 221.892 218.418 222.322 218.364L223.008 218.284C223.599 218.23 224.056 218.204 224.379 218.204C225.024 218.204 225.374 218.297 225.428 218.485C225.481 218.807 225.508 219.277 225.508 219.894V219.934Z" fill="#BD4F6C"/>
<path d="M243.143 229.673C243.169 230.558 243.21 231.216 243.264 231.645C243.344 232.047 243.532 232.476 243.828 232.933C244.043 233.335 244.326 233.644 244.675 233.858C245.025 234.073 245.388 234.18 245.764 234.18C246.329 234.18 246.786 233.885 247.136 233.295C247.485 232.678 247.633 231.779 247.579 230.598C248.359 230.706 249.193 230.733 250.08 230.679L253.872 230.88C253.872 232.087 253.777 233.308 253.589 234.542C253.428 235.776 253.105 236.715 252.621 237.359C252.083 238.111 251.304 238.62 250.282 238.889C249.287 239.184 248.117 239.331 246.773 239.331C246.262 239.331 245.549 239.304 244.635 239.251C244.205 239.224 243.573 239.211 242.739 239.211C241.906 239.103 241.072 238.808 240.238 238.325C238.948 237.306 237.993 235.857 237.375 233.979C236.756 232.101 236.447 230.062 236.447 227.862C236.447 225.555 236.77 223.435 237.415 221.503C237.953 220.296 238.948 219.357 240.4 218.686C241.852 218.016 243.465 217.68 245.24 217.68C246.208 217.68 247.149 217.788 248.063 218.002C250.134 218.405 251.64 219.384 252.581 220.94C253.549 222.469 254.033 224.307 254.033 226.453C254.033 226.802 254.006 227.406 253.952 228.264C253.441 228.398 252.272 228.533 250.443 228.667C248.615 228.774 246.907 228.828 245.321 228.828H243.143V229.673ZM247.095 222.429C246.692 222.188 246.329 222.067 246.006 222.067C245.065 222.067 244.393 222.281 243.99 222.711C243.586 223.14 243.344 223.744 243.264 224.522C243.237 224.629 243.223 224.75 243.223 224.884C243.223 225.045 243.304 225.139 243.465 225.166C243.627 225.192 244.03 225.192 244.675 225.166H246.45L247.66 225.206H248.184C248.265 225.233 248.319 225.233 248.346 225.206C248.373 225.179 248.386 225.125 248.386 225.045V224.884C248.386 224.32 248.278 223.824 248.063 223.395C247.875 222.966 247.606 222.657 247.257 222.469L247.095 222.429Z" fill="#BD4F6C"/>
<path d="M260.35 218.405C260.619 219.371 260.915 220.927 261.237 223.073C261.345 223.583 261.479 224.347 261.641 225.367C262.179 228.184 262.582 230.075 262.851 231.041C262.985 230.826 263.12 230.156 263.254 229.029C263.415 227.902 263.577 226.695 263.738 225.407C264.007 223.046 264.236 221.262 264.424 220.055C264.639 218.821 264.854 218.244 265.069 218.324C265.93 218.324 266.588 218.311 267.046 218.284L269.183 218.244L272.128 218.324C271.805 219.585 271.375 221.396 270.837 223.757C270.514 225.206 270.219 226.44 269.95 227.459C270.03 227.164 269.761 228.211 269.143 230.598C268.363 233.872 267.543 236.528 266.683 238.567C265.849 240.606 264.478 242.35 262.568 243.798C260.686 245.247 258.091 245.971 254.784 245.971C254.165 245.971 253.533 245.945 252.888 245.891C252.565 244.898 252.404 243.798 252.404 242.591C252.404 241.759 252.485 240.954 252.646 240.176C253.614 240.176 254.246 240.19 254.542 240.217C254.838 240.243 255.254 240.257 255.792 240.257C257.217 240.257 257.93 239.573 257.93 238.204L257.89 237.681C257.137 233.523 255.779 227.862 253.816 220.699V220.739C253.601 220.202 253.359 219.344 253.09 218.163C253.896 218.297 254.636 218.364 255.308 218.364L258.091 218.324C258.925 218.324 259.503 218.351 259.826 218.405H260.35Z" fill="#BD4F6C"/>
<path d="M296.482 231.122C297.558 232.758 298.419 234.14 299.064 235.267C299.736 236.393 300.287 237.534 300.718 238.687H300.072C299.75 238.687 299.024 238.714 297.894 238.768C296.765 238.822 295.864 238.848 295.192 238.848C294.815 238.848 294.251 238.822 293.498 238.768L292.812 238.728C291.064 234.757 289.505 231.779 288.133 229.794V230.84C288.133 232.503 288.227 234.65 288.415 237.279V237.239C288.442 237.426 288.456 237.748 288.456 238.204C287.542 238.634 286.036 238.848 283.938 238.848L282.97 238.808H280.833C280.537 238.808 280.389 236.38 280.389 231.524C280.389 227.124 280.349 222.724 280.268 218.324C280.187 213.897 280.066 211.241 279.905 210.356L280.994 210.195C282.607 209.98 283.938 209.819 284.987 209.712C286.036 209.605 287.111 209.551 288.214 209.551C289.397 209.551 290.405 209.605 291.239 209.712C292.799 209.9 294.251 210.437 295.595 211.322C296.966 212.207 298.055 213.294 298.862 214.582C299.696 215.869 300.113 217.197 300.113 218.566C300.113 219.88 299.682 221.316 298.822 222.872C298.284 223.838 297.571 224.642 296.684 225.286C295.797 225.93 294.735 226.319 293.498 226.453C294.224 227.741 295.071 229.083 296.039 230.478C296.227 230.8 296.375 231.014 296.482 231.122ZM290.674 220.86C291.051 220.752 291.346 220.484 291.562 220.055C291.777 219.625 291.884 219.116 291.884 218.525C291.884 217.425 291.615 216.714 291.078 216.393C290.728 216.178 290.365 216.044 289.989 215.99C289.639 215.936 289.236 215.91 288.778 215.91L287.044 216.191C287.098 216.996 287.125 217.68 287.125 218.244C287.125 219.693 287.165 220.578 287.246 220.9C287.703 220.953 288.268 220.98 288.94 220.98C289.558 220.98 290.136 220.94 290.674 220.86Z" fill="#BD4F6C"/>
<path d="M306.559 229.673C306.586 230.558 306.627 231.216 306.68 231.645C306.761 232.047 306.949 232.476 307.245 232.933C307.46 233.335 307.743 233.644 308.092 233.858C308.442 234.073 308.805 234.18 309.181 234.18C309.746 234.18 310.203 233.885 310.553 233.295C310.902 232.678 311.05 231.779 310.996 230.598C311.776 230.706 312.61 230.733 313.497 230.679L317.289 230.88C317.289 232.087 317.194 233.308 317.006 234.542C316.845 235.776 316.522 236.715 316.038 237.359C315.5 238.111 314.721 238.62 313.699 238.889C312.704 239.184 311.534 239.331 310.19 239.331C309.679 239.331 308.966 239.304 308.052 239.251C307.622 239.224 306.99 239.211 306.156 239.211C305.323 239.103 304.489 238.808 303.655 238.325C302.365 237.306 301.41 235.857 300.792 233.979C300.173 232.101 299.864 230.062 299.864 227.862C299.864 225.555 300.187 223.435 300.832 221.503C301.37 220.296 302.365 219.357 303.817 218.686C305.269 218.016 306.882 217.68 308.657 217.68C309.625 217.68 310.566 217.788 311.48 218.002C313.551 218.405 315.057 219.384 315.998 220.94C316.966 222.469 317.45 224.307 317.45 226.453C317.45 226.802 317.423 227.406 317.369 228.264C316.858 228.398 315.689 228.533 313.86 228.667C312.032 228.774 310.324 228.828 308.738 228.828H306.559V229.673ZM310.512 222.429C310.109 222.188 309.746 222.067 309.423 222.067C308.482 222.067 307.81 222.281 307.407 222.711C307.003 223.14 306.761 223.744 306.68 224.522C306.654 224.629 306.64 224.75 306.64 224.884C306.64 225.045 306.721 225.139 306.882 225.166C307.044 225.192 307.447 225.192 308.092 225.166H309.867L311.077 225.206H311.601C311.682 225.233 311.736 225.233 311.763 225.206C311.79 225.179 311.803 225.125 311.803 225.045V224.884C311.803 224.32 311.695 223.824 311.48 223.395C311.292 222.966 311.023 222.657 310.674 222.469L310.512 222.429Z" fill="#BD4F6C"/>
<path d="M335.13 225.085C334.458 225.192 333.705 225.246 332.871 225.246C331.607 225.246 330.236 225.099 328.757 224.803C328.784 224.696 328.798 224.522 328.798 224.28C328.798 223.717 328.623 223.247 328.273 222.872C327.924 222.496 327.413 222.335 326.74 222.389C326.337 222.523 326.001 222.751 325.732 223.073C325.49 223.368 325.369 223.703 325.369 224.079C325.369 224.508 325.49 224.911 325.732 225.286C325.974 225.662 326.324 225.944 326.781 226.131H326.74C328.757 226.427 330.384 226.775 331.621 227.178C332.858 227.58 333.799 228.197 334.444 229.029C335.17 230.209 335.533 231.39 335.533 232.57C335.533 233.456 335.318 234.502 334.888 235.709C334.27 236.997 333.261 237.95 331.863 238.567C330.492 239.184 328.905 239.479 327.103 239.452C324.172 239.559 321.82 238.969 320.045 237.681C318.297 236.393 317.423 234.556 317.423 232.168C318.499 232.034 319.601 231.967 320.731 231.967L324.603 232.047C324.63 232.691 324.885 233.228 325.369 233.657C325.853 234.059 326.391 234.261 326.982 234.261C327.413 234.261 327.789 234.1 328.112 233.778C328.434 233.429 328.582 232.973 328.555 232.409C328.636 231.712 328.421 231.229 327.91 230.961C327.399 230.666 326.633 230.411 325.611 230.196L325.006 230.075C323.904 229.834 323.07 229.592 322.505 229.351C321.026 228.788 319.87 227.983 319.036 226.936C318.23 225.863 317.826 224.75 317.826 223.596C317.826 222.362 318.243 221.208 319.077 220.135C319.91 219.062 321.04 218.324 322.465 217.922C323.433 217.654 324.845 217.519 326.7 217.519C328.663 217.519 330.438 217.707 332.024 218.083C333.315 218.619 334.256 219.491 334.848 220.699C335.466 221.879 335.775 223.274 335.775 224.884L335.13 225.085Z" fill="#BD4F6C"/>
<path d="M342.64 229.673C342.667 230.558 342.707 231.216 342.761 231.645C342.842 232.047 343.03 232.476 343.326 232.933C343.541 233.335 343.823 233.644 344.173 233.858C344.523 234.073 344.886 234.18 345.262 234.18C345.827 234.18 346.284 233.885 346.633 233.295C346.983 232.678 347.131 231.779 347.077 230.598C347.857 230.706 348.69 230.733 349.578 230.679L353.369 230.88C353.369 232.087 353.275 233.308 353.087 234.542C352.926 235.776 352.603 236.715 352.119 237.359C351.581 238.111 350.801 238.62 349.779 238.889C348.785 239.184 347.615 239.331 346.27 239.331C345.759 239.331 345.047 239.304 344.133 239.251C343.702 239.224 343.07 239.211 342.237 239.211C341.403 239.103 340.57 238.808 339.736 238.325C338.445 237.306 337.491 235.857 336.872 233.979C336.254 232.101 335.945 230.062 335.945 227.862C335.945 225.555 336.267 223.435 336.913 221.503C337.45 220.296 338.445 219.357 339.897 218.686C341.349 218.016 342.963 217.68 344.738 217.68C345.706 217.68 346.647 217.788 347.561 218.002C349.632 218.405 351.137 219.384 352.079 220.94C353.047 222.469 353.531 224.307 353.531 226.453C353.531 226.802 353.504 227.406 353.45 228.264C352.939 228.398 351.769 228.533 349.941 228.667C348.112 228.774 346.405 228.828 344.818 228.828H342.64V229.673ZM346.593 222.429C346.19 222.188 345.827 222.067 345.504 222.067C344.563 222.067 343.891 222.281 343.487 222.711C343.084 223.14 342.842 223.744 342.761 224.522C342.734 224.629 342.721 224.75 342.721 224.884C342.721 225.045 342.802 225.139 342.963 225.166C343.124 225.192 343.528 225.192 344.173 225.166H345.948L347.158 225.206H347.682C347.763 225.233 347.817 225.233 347.843 225.206C347.87 225.179 347.884 225.125 347.884 225.045V224.884C347.884 224.32 347.776 223.824 347.561 223.395C347.373 222.966 347.104 222.657 346.754 222.469L346.593 222.429Z" fill="#BD4F6C"/>
<path d="M361.248 219.33C361.383 219.303 361.544 219.25 361.732 219.169C361.947 219.062 362.149 218.982 362.337 218.928C363.466 218.579 364.932 218.405 366.734 218.405C368.051 218.405 368.71 218.472 368.71 218.606L368.67 220.699L368.71 226.131L367.621 225.769L365.282 225.206C364.636 225.125 364.058 225.085 363.547 225.085C362.714 225.085 362.082 225.286 361.651 225.689C361.221 226.091 361.02 226.789 361.046 227.781C361.154 231.081 361.208 234.676 361.208 238.567C360.509 238.754 359.93 238.862 359.473 238.889C359.016 238.942 358.438 238.956 357.739 238.929C357.47 238.902 357.04 238.889 356.448 238.889C355.803 238.889 355.184 238.915 354.593 238.969C354.593 235.75 354.579 233.362 354.553 231.806C354.499 228.318 354.472 225.675 354.472 223.878C354.472 222.563 354.499 220.699 354.553 218.284C355.413 218.391 356.085 218.445 356.569 218.445C357.268 218.445 357.954 218.405 358.626 218.324C359.272 218.244 359.904 218.204 360.522 218.204C360.979 218.204 361.208 218.244 361.208 218.324L361.248 219.29V219.33Z" fill="#BD4F6C"/>
<path d="M377.227 230.357C377.496 229.096 377.779 227.58 378.074 225.809C378.693 222.375 379.284 219.921 379.849 218.445L381.906 218.405C382.928 218.351 383.721 218.324 384.286 218.324C385.2 218.324 385.913 218.351 386.424 218.405C385.805 220.122 385.254 221.933 384.77 223.838C384.286 225.742 383.721 228.197 383.076 231.202C382.323 234.636 381.731 237.158 381.301 238.768C380.36 238.929 379.204 239.009 377.832 239.009L372.589 238.929C371.298 231.095 369.846 224.173 368.233 218.163C368.932 218.297 369.712 218.364 370.572 218.364C371.137 218.364 371.567 218.351 371.863 218.324L373.234 218.284C373.799 218.284 374.431 218.324 375.13 218.405L375.977 223.314C376.434 226.346 376.851 228.694 377.227 230.357Z" fill="#BD4F6C"/>
<path d="M392.192 229.673C392.219 230.558 392.259 231.216 392.313 231.645C392.394 232.047 392.582 232.476 392.878 232.933C393.093 233.335 393.375 233.644 393.725 233.858C394.074 234.073 394.437 234.18 394.814 234.18C395.379 234.18 395.836 233.885 396.185 233.295C396.535 232.678 396.683 231.779 396.629 230.598C397.409 230.706 398.242 230.733 399.13 230.679L402.921 230.88C402.921 232.087 402.827 233.308 402.639 234.542C402.477 235.776 402.155 236.715 401.671 237.359C401.133 238.111 400.353 238.62 399.331 238.889C398.336 239.184 397.167 239.331 395.822 239.331C395.311 239.331 394.599 239.304 393.685 239.251C393.254 239.224 392.622 239.211 391.789 239.211C390.955 239.103 390.122 238.808 389.288 238.325C387.997 237.306 387.043 235.857 386.424 233.979C385.806 232.101 385.497 230.062 385.497 227.862C385.497 225.555 385.819 223.435 386.465 221.503C387.002 220.296 387.997 219.357 389.449 218.686C390.901 218.016 392.515 217.68 394.29 217.68C395.258 217.68 396.199 217.788 397.113 218.002C399.183 218.405 400.689 219.384 401.63 220.94C402.599 222.469 403.082 224.307 403.082 226.453C403.082 226.802 403.056 227.406 403.002 228.264C402.491 228.398 401.321 228.533 399.493 228.667C397.664 228.774 395.957 228.828 394.37 228.828H392.192V229.673ZM396.145 222.429C395.742 222.188 395.379 222.067 395.056 222.067C394.115 222.067 393.442 222.281 393.039 222.711C392.636 223.14 392.394 223.744 392.313 224.522C392.286 224.629 392.273 224.75 392.273 224.884C392.273 225.045 392.353 225.139 392.515 225.166C392.676 225.192 393.079 225.192 393.725 225.166H395.5L396.71 225.206H397.234C397.315 225.233 397.368 225.233 397.395 225.206C397.422 225.179 397.436 225.125 397.436 225.045V224.884C397.436 224.32 397.328 223.824 397.113 223.395C396.925 222.966 396.656 222.657 396.306 222.469L396.145 222.429Z" fill="#BD4F6C"/>
<path d="M191.577 258.719C192.84 260.704 193.674 262.703 194.077 264.715V264.675C194.293 265.346 194.427 266.217 194.481 267.291C194.427 268.095 194.4 268.699 194.4 269.102L194.36 269.745C194.36 269.933 194.333 270.564 194.279 271.637C194.225 272.71 194.091 273.77 193.876 274.816C193.365 276.319 192.652 277.794 191.738 279.243C190.851 280.665 189.788 282.14 188.552 283.67C186.293 283.723 184.437 283.75 182.985 283.75L180.081 283.79L176.935 283.831C176.451 280.316 176.209 275.889 176.209 270.55C176.209 268.216 176.223 266.472 176.249 265.319C176.276 264.272 176.29 262.475 176.29 259.926C176.29 259.282 176.263 258.316 176.209 257.029L176.169 255.821L176.451 255.781C177.876 255.405 179.53 255.218 181.412 255.218L182.461 255.258H183.55C183.9 255.285 184.437 255.298 185.163 255.298C185.889 255.298 186.427 255.285 186.777 255.258C187.772 255.526 188.726 256.009 189.641 256.707C190.555 257.377 191.281 258.155 191.819 259.041L191.577 258.719ZM187.906 269.866C187.906 269.383 187.852 268.914 187.745 268.458C187.53 267.331 187.274 266.419 186.978 265.721C186.683 264.997 186.226 264.527 185.607 264.313H185.688C185.042 264.259 184.558 264.232 184.236 264.232C183.698 264.232 183.348 264.259 183.187 264.313C183.241 265.278 183.268 266.191 183.268 267.049V268.095L183.227 269.182C183.2 269.799 183.187 270.725 183.187 271.959C183.187 273.139 183.174 274.038 183.147 274.655C183.55 274.816 183.832 274.897 183.994 274.897H184.518C184.948 274.897 185.258 274.856 185.446 274.776C185.876 274.669 186.36 274.186 186.898 273.327C187.57 272.308 187.906 271.154 187.906 269.866Z" fill="#BD4F6C"/>
<path d="M202.645 262.783C202.78 262.81 203.264 262.824 204.097 262.824C204.259 262.797 204.595 262.783 205.106 262.783C205.428 262.783 205.657 262.797 205.792 262.824C206.733 262.877 207.62 263.065 208.454 263.387C209.314 263.682 210 264.085 210.511 264.594C211.29 265.211 211.801 266.177 212.043 267.492C212.285 268.806 212.406 270.336 212.406 272.08V273.408C212.326 275.688 212.191 277.606 212.003 279.162C211.815 280.718 211.492 281.765 211.035 282.301C210.497 283.053 209.717 283.576 208.696 283.871C207.701 284.166 206.531 284.314 205.186 284.314C204.676 284.314 203.963 284.287 203.049 284.233C202.188 284.179 201.529 284.153 201.072 284.153C199.647 283.884 198.397 283.281 197.321 282.342C196.488 281.537 195.909 280.531 195.587 279.323C195.264 278.089 195.103 276.708 195.103 275.178L195.062 270.591C194.982 269.866 195.062 268.82 195.304 267.452C195.573 266.083 195.842 265.305 196.111 265.117C196.407 264.366 197.173 263.789 198.41 263.387C199.674 262.985 201.086 262.783 202.645 262.783ZM201.798 270.912C201.771 271.181 201.745 271.556 201.718 272.039C201.691 272.495 201.677 272.844 201.677 273.086L201.637 273.891C201.637 274.561 201.61 275.299 201.556 276.104C201.583 276.694 201.812 277.177 202.242 277.553C202.672 277.928 203.156 278.116 203.694 278.116C204.232 278.116 204.77 277.995 205.307 277.754C205.469 277.673 205.67 277.231 205.913 276.426L205.953 276.225C206.114 274.883 206.195 273.904 206.195 273.287C206.195 272.643 206.141 272.066 206.034 271.556C205.899 270.859 205.63 270.309 205.227 269.906C204.85 269.504 204.366 269.303 203.775 269.303C203.667 269.303 203.452 269.33 203.129 269.383C202.457 269.598 202.067 269.893 201.96 270.269L201.798 270.912Z" fill="#BD4F6C"/>
<path d="M220.979 275.42C221.248 274.159 221.531 272.643 221.826 270.872C222.445 267.438 223.037 264.983 223.601 263.508L225.658 263.467C226.68 263.414 227.473 263.387 228.038 263.387C228.952 263.387 229.665 263.414 230.176 263.467C229.557 265.185 229.006 266.995 228.522 268.9C228.038 270.805 227.473 273.26 226.828 276.265C226.075 279.699 225.483 282.221 225.053 283.831C224.112 283.992 222.956 284.072 221.584 284.072L216.341 283.992C215.05 276.158 213.598 269.236 211.985 263.226C212.684 263.36 213.464 263.427 214.324 263.427C214.889 263.427 215.319 263.414 215.615 263.387L216.986 263.347C217.551 263.347 218.183 263.387 218.882 263.467L219.729 268.377C220.186 271.409 220.603 273.756 220.979 275.42Z" fill="#BD4F6C"/>
<path d="M235.944 274.736C235.971 275.621 236.011 276.278 236.065 276.708C236.146 277.11 236.334 277.539 236.63 277.995C236.845 278.398 237.127 278.706 237.477 278.921C237.827 279.136 238.19 279.243 238.566 279.243C239.131 279.243 239.588 278.948 239.937 278.358C240.287 277.74 240.435 276.842 240.381 275.661C241.161 275.769 241.994 275.795 242.882 275.742L246.673 275.943C246.673 277.15 246.579 278.371 246.391 279.605C246.23 280.839 245.907 281.778 245.423 282.422C244.885 283.173 244.105 283.683 243.084 283.951C242.089 284.246 240.919 284.394 239.574 284.394C239.063 284.394 238.351 284.367 237.437 284.314C237.006 284.287 236.375 284.273 235.541 284.273C234.707 284.166 233.874 283.871 233.04 283.388C231.749 282.368 230.795 280.92 230.176 279.042C229.558 277.164 229.249 275.125 229.249 272.925C229.249 270.617 229.571 268.498 230.217 266.566C230.755 265.359 231.749 264.42 233.202 263.749C234.654 263.078 236.267 262.743 238.042 262.743C239.01 262.743 239.951 262.85 240.865 263.065C242.936 263.467 244.441 264.447 245.383 266.003C246.351 267.532 246.835 269.37 246.835 271.516C246.835 271.865 246.808 272.469 246.754 273.327C246.243 273.461 245.073 273.595 243.245 273.73C241.416 273.837 239.709 273.891 238.122 273.891H235.944V274.736ZM239.897 267.492C239.494 267.25 239.131 267.13 238.808 267.13C237.867 267.13 237.195 267.344 236.791 267.774C236.388 268.203 236.146 268.806 236.065 269.584C236.038 269.692 236.025 269.813 236.025 269.947C236.025 270.108 236.106 270.202 236.267 270.228C236.428 270.255 236.832 270.255 237.477 270.228H239.252L240.462 270.269H240.986C241.067 270.295 241.121 270.295 241.147 270.269C241.174 270.242 241.188 270.188 241.188 270.108V269.947C241.188 269.383 241.08 268.887 240.865 268.458C240.677 268.028 240.408 267.72 240.058 267.532L239.897 267.492Z" fill="#BD4F6C"/>
<path d="M254.552 264.393C254.687 264.366 254.848 264.313 255.036 264.232C255.251 264.125 255.453 264.044 255.641 263.991C256.771 263.642 258.236 263.467 260.038 263.467C261.355 263.467 262.014 263.535 262.014 263.669L261.974 265.761L262.014 271.194L260.925 270.832L258.586 270.269C257.94 270.188 257.362 270.148 256.851 270.148C256.018 270.148 255.386 270.349 254.955 270.752C254.525 271.154 254.324 271.852 254.35 272.844C254.458 276.144 254.512 279.739 254.512 283.629C253.813 283.817 253.235 283.925 252.777 283.951C252.32 284.005 251.742 284.018 251.043 283.992C250.774 283.965 250.344 283.951 249.752 283.951C249.107 283.951 248.488 283.978 247.897 284.032C247.897 280.812 247.883 278.425 247.857 276.869C247.803 273.381 247.776 270.738 247.776 268.941C247.776 267.626 247.803 265.761 247.857 263.347C248.717 263.454 249.389 263.508 249.873 263.508C250.572 263.508 251.258 263.467 251.93 263.387C252.576 263.307 253.208 263.266 253.826 263.266C254.283 263.266 254.512 263.307 254.512 263.387L254.552 264.353V264.393Z" fill="#BD4F6C"/>
<path d="M288.904 283.549C287.801 283.737 286.349 283.831 284.548 283.831C283.633 283.831 282.8 283.857 282.047 283.911C281.886 282.757 281.765 280.718 281.684 277.794C281.63 275.54 281.509 273.81 281.321 272.603L279.788 272.522C278.981 272.522 278.363 272.576 277.933 272.683C277.852 273.461 277.812 274.199 277.812 274.897C277.812 276.104 277.825 277.003 277.852 277.593V278.639L277.892 279.686C277.892 281.295 277.825 282.516 277.691 283.348C277.072 283.696 276.319 283.871 275.432 283.871C275.002 283.871 274.464 283.844 273.819 283.79L273.456 283.75C272.972 283.696 272.649 283.67 272.488 283.67L271.197 283.75C271.009 281.336 270.82 277.7 270.632 272.844C270.444 267.988 270.35 263.669 270.35 259.886C270.35 257.74 270.363 256.237 270.39 255.379L274.948 255.298C275.647 255.298 276.279 255.392 276.844 255.58C276.978 256.733 277.072 258.061 277.126 259.564L277.166 260.53C277.22 261.71 277.287 262.703 277.368 263.508C277.449 264.286 277.583 265.144 277.771 266.083L279.304 266.244C279.573 266.244 279.829 266.217 280.071 266.164C280.339 266.11 280.595 266.07 280.837 266.043H280.918C281.106 264.004 281.2 262.032 281.2 260.127C281.2 258.732 281.16 257.23 281.079 255.62C281.697 255.432 282.45 255.285 283.338 255.177C284.225 255.07 285.085 255.016 285.919 255.016C286.645 255.016 287.277 255.043 287.815 255.097L288.904 283.549Z" fill="#BD4F6C"/>
<path d="M296.407 274.736C296.434 275.621 296.474 276.278 296.528 276.708C296.609 277.11 296.797 277.539 297.093 277.995C297.308 278.398 297.59 278.706 297.94 278.921C298.289 279.136 298.652 279.243 299.029 279.243C299.593 279.243 300.051 278.948 300.4 278.358C300.75 277.74 300.898 276.842 300.844 275.661C301.624 275.769 302.457 275.795 303.345 275.742L307.136 275.943C307.136 277.15 307.042 278.371 306.854 279.605C306.692 280.839 306.37 281.778 305.886 282.422C305.348 283.173 304.568 283.683 303.546 283.951C302.551 284.246 301.382 284.394 300.037 284.394C299.526 284.394 298.814 284.367 297.899 284.314C297.469 284.287 296.837 284.273 296.004 284.273C295.17 284.166 294.337 283.871 293.503 283.388C292.212 282.368 291.258 280.92 290.639 279.042C290.021 277.164 289.711 275.125 289.711 272.925C289.711 270.617 290.034 268.498 290.679 266.566C291.217 265.359 292.212 264.42 293.664 263.749C295.116 263.078 296.73 262.743 298.504 262.743C299.472 262.743 300.414 262.85 301.328 263.065C303.398 263.467 304.904 264.447 305.845 266.003C306.813 267.532 307.297 269.37 307.297 271.516C307.297 271.865 307.271 272.469 307.217 273.327C306.706 273.461 305.536 273.595 303.708 273.73C301.879 273.837 300.172 273.891 298.585 273.891H296.407V274.736ZM300.36 267.492C299.956 267.25 299.593 267.13 299.271 267.13C298.33 267.13 297.657 267.344 297.254 267.774C296.851 268.203 296.609 268.806 296.528 269.584C296.501 269.692 296.488 269.813 296.488 269.947C296.488 270.108 296.568 270.202 296.73 270.228C296.891 270.255 297.294 270.255 297.94 270.228H299.714L300.925 270.269H301.449C301.53 270.295 301.583 270.295 301.61 270.269C301.637 270.242 301.651 270.188 301.651 270.108V269.947C301.651 269.383 301.543 268.887 301.328 268.458C301.14 268.028 300.871 267.72 300.521 267.532L300.36 267.492Z" fill="#BD4F6C"/>
<path d="M314.934 254.574C314.934 255.298 314.948 255.902 314.975 256.385C314.975 256.653 315.001 257.136 315.055 257.833L315.136 260.409C315.001 260.57 314.786 260.65 314.491 260.65C314.302 260.65 314.047 260.637 313.724 260.61C313.402 260.557 313.133 260.53 312.918 260.53C312.595 260.53 312.084 260.503 311.385 260.449C311.116 260.422 310.659 260.409 310.013 260.409C309.314 260.409 308.776 260.422 308.4 260.449C308.4 259.886 308.373 259.148 308.319 258.236L308.279 257.592C308.225 256.411 308.212 255.365 308.239 254.453L314.934 254.574ZM315.096 263.427C315.096 264.822 315.069 266.861 315.015 269.544L314.975 271.798C314.921 274.266 314.894 276.117 314.894 277.351C314.894 279.659 314.948 281.684 315.055 283.428C314.921 283.616 314.638 283.737 314.208 283.79C313.805 283.871 313.24 283.911 312.514 283.911C311.681 283.911 311.102 283.898 310.78 283.871C309.731 283.817 308.844 283.898 308.118 284.112C308.252 282.315 308.319 280.504 308.319 278.679C308.319 277.553 308.292 275.889 308.239 273.689C308.185 271.865 308.158 270.282 308.158 268.941C308.158 266.955 308.239 265.037 308.4 263.186C308.776 263.132 309.099 263.105 309.368 263.105C309.61 263.105 309.798 263.119 309.933 263.146C311.6 263.226 312.904 263.253 313.845 263.226L315.096 263.427Z" fill="#BD4F6C"/>
<path d="M333.691 263.387C333.799 266.499 333.853 270.215 333.853 274.534C333.853 278.693 333.785 282.315 333.651 285.4V286.567C333.651 287.131 333.624 287.587 333.57 287.935C333.516 288.284 333.382 288.646 333.167 289.022C332.495 290.068 331.755 290.793 330.948 291.195C330.142 291.598 329.268 291.839 328.327 291.92C328.058 291.973 327.695 292 327.238 292L326.27 291.96H325.302L324.051 291.92C322.707 291.92 321.47 291.624 320.34 291.034C319.211 290.444 318.283 289.626 317.557 288.579C317.369 288.257 317.221 287.828 317.114 287.292C317.006 286.782 316.952 286.299 316.952 285.843C316.952 285.601 316.966 285.427 316.993 285.32C317.692 285.025 318.619 284.877 319.776 284.877C320.529 284.877 321.725 284.984 323.365 285.199C323.365 285.896 323.54 286.446 323.89 286.849C324.266 287.278 324.697 287.493 325.181 287.493C325.53 287.493 325.88 287.318 326.229 286.97C326.579 286.621 326.821 286.178 326.955 285.642V285.521L326.996 285.279C327.023 285.172 327.036 284.796 327.036 284.153C327.009 284.045 326.996 283.844 326.996 283.549C326.377 283.737 325.396 283.857 324.051 283.911C323.648 283.911 323.339 283.925 323.123 283.951C321.779 283.951 320.569 283.75 319.493 283.348C318.445 282.945 317.692 282.261 317.235 281.295H317.275C316.898 280.544 316.616 279.793 316.428 279.042C316.267 278.29 316.146 277.445 316.065 276.506C316.065 274.145 316.186 272.106 316.428 270.389C316.697 268.672 317.369 267.143 318.445 265.802C319.52 264.433 321.161 263.655 323.365 263.467C324.979 263.467 326.175 263.763 326.955 264.353C326.955 263.95 327.023 263.655 327.157 263.467C328.098 263.36 329.053 263.307 330.021 263.307L330.706 263.347H331.392L332.441 263.387H333.691ZM326.431 278.72C326.646 278.639 326.807 278.411 326.915 278.036C327.023 277.633 327.117 277.097 327.197 276.426C327.197 273.555 327.036 271.422 326.713 270.027V270.067C326.552 269.638 326.31 269.33 325.987 269.142C325.691 268.927 325.355 268.82 324.979 268.82C324.71 268.82 324.428 268.887 324.132 269.021C323.836 269.128 323.594 269.276 323.406 269.464V269.423C322.599 270.309 322.102 271.369 321.913 272.603C321.86 272.871 321.833 273.273 321.833 273.81V274.494C321.833 275.862 322.196 276.989 322.922 277.875C323.486 278.572 324.253 278.921 325.221 278.921C325.651 278.921 326.054 278.854 326.431 278.72Z" fill="#BD4F6C"/>
<path d="M341.952 264.997C341.978 264.997 341.978 264.997 341.952 264.997C341.952 264.97 341.965 264.956 341.992 264.956C342.637 264.527 343.377 264.192 344.21 263.95C345.071 263.682 345.918 263.548 346.751 263.548C348.526 263.548 349.898 263.977 350.866 264.836C351.619 265.506 351.995 267.72 351.995 271.476C351.995 272.576 351.968 274.253 351.914 276.506C351.861 278.438 351.834 279.82 351.834 280.651C351.834 281.564 351.861 282.583 351.914 283.71C350.435 283.925 348.983 284.005 347.558 283.951H345.662C345.609 283.146 345.582 281.59 345.582 279.283V277.271L345.541 274.414C345.515 274.253 345.501 273.984 345.501 273.609C345.474 272.804 345.394 272.187 345.259 271.758C345.152 271.328 345.044 271.06 344.936 270.953C344.856 270.845 344.721 270.711 344.533 270.55C344.318 270.416 344.009 270.349 343.605 270.349C343.121 270.349 342.691 270.523 342.315 270.872C341.938 271.221 341.736 271.798 341.71 272.603C341.683 273.005 341.669 273.622 341.669 274.454C341.669 275.125 341.696 276.104 341.75 277.392C341.804 278.733 341.831 279.739 341.831 280.41C341.831 281.617 341.777 282.69 341.669 283.629C340.943 283.817 340.352 283.925 339.895 283.951C339.464 284.005 338.98 284.018 338.442 283.992C338.2 283.965 337.811 283.951 337.273 283.951C336.654 283.951 336.049 283.978 335.458 284.032V280.812L335.417 276.144C335.39 273.998 335.377 270.121 335.377 264.514C335.377 259.389 335.404 255.982 335.458 254.292C336.318 254.399 336.99 254.453 337.474 254.453C337.932 254.453 338.375 254.426 338.806 254.372L339.491 254.292C340.379 254.212 340.849 254.171 340.903 254.171C341.548 254.171 341.884 254.292 341.911 254.533C341.965 255.285 341.992 256.76 341.992 258.96L341.952 262.622V264.997Z" fill="#BD4F6C"/>
<path d="M362.008 263.588C363.406 263.535 364.643 263.467 365.719 263.387L366.283 263.347C366.471 263.32 366.66 263.32 366.848 263.347C367.063 263.347 367.238 263.347 367.372 263.347H368.3C368.408 264.42 368.461 265.037 368.461 265.198C368.461 265.332 368.434 265.748 368.381 266.445L368.34 266.888L368.3 267.774C368.3 267.961 368.327 268.27 368.381 268.699H362.088C362.088 272.965 362.075 275.581 362.048 276.547C362.451 277.056 363.177 277.432 364.226 277.673C365.275 277.915 366.364 278.036 367.493 278.036L368.34 277.995V278.358L368.381 278.518V278.478C368.542 279.605 368.623 280.611 368.623 281.497C368.623 282.355 368.502 283.133 368.26 283.831C367.561 283.884 366.848 283.911 366.122 283.911C363.675 283.911 361.524 283.629 359.668 283.066C357.84 282.476 356.63 281.483 356.038 280.088C355.796 278.639 355.635 277.204 355.554 275.782C355.474 274.333 355.433 272.683 355.433 270.832V268.82C355.084 268.847 354.761 268.86 354.465 268.86C354.196 268.833 353.954 268.82 353.739 268.82H352.529L352.65 263.508C353.376 263.535 354.331 263.548 355.514 263.548L355.554 255.861C356.146 255.808 356.657 255.781 357.087 255.781C357.517 255.781 358.028 255.808 358.62 255.861L358.902 255.902C359.547 255.955 360.045 255.982 360.394 255.982C360.905 255.982 361.43 255.942 361.967 255.861V263.186L362.008 263.588Z" fill="#BD4F6C"/>
<path d="M385.834 270.148C385.162 270.255 384.409 270.309 383.576 270.309C382.312 270.309 380.94 270.161 379.461 269.866C379.488 269.759 379.502 269.584 379.502 269.343C379.502 268.78 379.327 268.31 378.977 267.934C378.628 267.559 378.117 267.398 377.445 267.452C377.041 267.586 376.705 267.814 376.436 268.136C376.194 268.431 376.073 268.766 376.073 269.142C376.073 269.571 376.194 269.973 376.436 270.349C376.678 270.725 377.028 271.006 377.485 271.194H377.445C379.461 271.489 381.088 271.838 382.325 272.241C383.562 272.643 384.503 273.26 385.149 274.092C385.875 275.272 386.238 276.453 386.238 277.633C386.238 278.518 386.023 279.565 385.592 280.772C384.974 282.06 383.965 283.012 382.567 283.629C381.196 284.246 379.609 284.542 377.808 284.515C374.877 284.622 372.524 284.032 370.749 282.744C369.001 281.456 368.127 279.618 368.127 277.231C369.203 277.097 370.305 277.029 371.435 277.029L375.307 277.11C375.334 277.754 375.589 278.29 376.073 278.72C376.557 279.122 377.095 279.323 377.687 279.323C378.117 279.323 378.493 279.162 378.816 278.84C379.139 278.492 379.287 278.036 379.26 277.472C379.34 276.775 379.125 276.292 378.614 276.023C378.103 275.728 377.337 275.473 376.315 275.259L375.71 275.138C374.608 274.897 373.774 274.655 373.209 274.414C371.731 273.85 370.574 273.045 369.741 271.999C368.934 270.926 368.531 269.813 368.531 268.659C368.531 267.425 368.947 266.271 369.781 265.198C370.615 264.125 371.744 263.387 373.169 262.985C374.137 262.716 375.549 262.582 377.404 262.582C379.367 262.582 381.142 262.77 382.728 263.146C384.019 263.682 384.96 264.554 385.552 265.761C386.17 266.942 386.48 268.337 386.48 269.947L385.834 270.148Z" fill="#BD4F6C"/>
<path d="M114.916 65.5953C115.047 66.951 115.113 68.3286 115.113 69.7281L115.047 70.9089V72.0897C114.96 73.5329 114.916 75.654 114.916 78.4529C114.916 81.558 114.85 83.9196 114.719 85.5378L114.521 87.7026C114.302 91.245 113.404 94.2626 111.826 96.7555C111.168 97.6739 110.182 98.4829 108.867 99.1827C107.552 99.8824 106.106 100.451 104.528 100.888C102.906 101.369 100.999 101.61 98.8074 101.61C97.7992 101.61 97.0979 101.588 96.7034 101.544C94.5556 101.369 92.6269 100.91 90.9174 100.167C89.2518 99.3795 88.0245 98.2424 87.2355 96.7555C86.1835 94.7874 85.6137 92.3165 85.526 89.3426L85.3945 87.2434C85.3507 86.8935 85.3287 86.1719 85.3287 85.0786C85.1096 81.4924 85 78.0593 85 74.7793C85 72.7676 85.0657 70.7558 85.1972 68.7441C85.3287 66.5574 85.7013 64.4363 86.315 62.3809C86.9725 60.2816 87.9587 58.4448 89.2737 56.8704L90.7202 56.0832C93.5255 54.7275 96.5938 54.0496 99.9251 54.0496C102.029 54.0496 104.002 54.3339 105.843 54.9024C107.727 55.4272 109.371 56.2144 110.774 57.264C112.308 58.6635 113.316 60.0411 113.798 61.3968C114.324 62.7963 114.697 64.1958 114.916 65.5953ZM104.725 72.7457L104.462 69.3345C104.374 68.11 104.067 67.0385 103.541 66.1201C103.059 65.1579 102.424 64.4801 101.635 64.0865C101.284 63.9553 100.933 63.8897 100.583 63.8897C99.5306 63.8897 98.5005 64.2395 97.4924 64.9393C96.9664 65.3766 96.4404 66.0107 95.9144 66.8417C95.4322 67.6289 95.0597 68.438 94.7967 69.2689C94.3583 71.1932 94.1392 73.6423 94.1392 76.6161C94.1392 78.1031 94.1611 79.2183 94.2049 79.9618V79.8962C94.3802 80.7708 94.5117 81.9298 94.5994 83.373L94.6652 84.2914C94.8405 86.4781 95.0816 88.0962 95.3884 89.1458V89.0802C95.7829 89.9549 96.3527 90.6327 97.0979 91.1138C97.8869 91.5512 98.7197 91.7698 99.5964 91.7698C100.298 91.7698 100.999 91.6168 101.7 91.3106C102.446 90.9608 103.081 90.4797 103.607 89.8674C104.045 89.2989 104.308 88.8178 104.396 88.4242C104.528 88.0306 104.593 87.4183 104.593 86.5874C104.593 85.8439 104.615 85.2972 104.659 84.9474L104.725 84.0946L104.791 82.8482V81.9298L104.856 80.6834V77.5345L104.725 73.0737V72.7457Z" fill="#BD4F6C"/>
<path d="M147.751 56.1488C147.97 60.8283 148.08 65.1579 148.08 69.1377C148.08 76.7036 147.707 83.8322 146.962 90.5234C146.611 93.541 145.384 96.0776 143.28 98.1331C141.22 100.145 138.546 101.304 135.259 101.61H135.324C134.536 101.697 133.812 101.741 133.155 101.741C130.569 101.741 128.092 101.326 125.725 100.495C123.358 99.7075 121.386 98.4829 119.808 96.8211C118.273 95.1592 117.463 93.1256 117.375 90.7202C117.375 87.5277 117.419 82.7388 117.506 76.3537L117.572 72.0897C117.66 67.4539 117.704 64.0209 117.704 61.7905C117.704 58.904 117.682 56.783 117.638 55.4272H119.282L123.227 55.296C125.374 55.296 127.259 55.5365 128.881 56.0176C128.706 60.9158 128.618 64.6769 128.618 67.3009C128.618 73.6423 128.903 80.6615 129.473 88.3586V88.293C129.736 89.1677 130.13 89.8455 130.656 90.3266C131.182 90.7639 131.752 90.9826 132.366 90.9826C133.067 90.9826 133.725 90.6983 134.338 90.1298C134.952 89.5613 135.368 88.8397 135.587 87.965V88.0306C135.763 84.0071 135.894 77.6439 135.982 68.9409L136.048 64.7425C136.048 62.6433 136.092 59.7568 136.179 56.0832L137.56 55.8864C138.174 55.8864 139.006 55.8208 140.058 55.6896C141.856 55.5147 142.93 55.4491 143.28 55.4928C145.165 55.4928 146.48 55.7115 147.225 56.1488H147.751Z" fill="#BD4F6C"/>
<path d="M177.265 88.1618C179.018 90.8295 180.421 93.0818 181.473 94.9186C182.569 96.7555 183.467 98.6141 184.169 100.495H183.117C182.591 100.495 181.407 100.538 179.566 100.626C177.725 100.713 176.257 100.757 175.161 100.757C174.547 100.757 173.627 100.713 172.399 100.626L171.282 100.56C168.433 94.0877 165.89 89.2333 163.655 85.997V87.7026C163.655 90.4141 163.808 93.9128 164.115 98.1987V98.1331C164.159 98.4392 164.181 98.964 164.181 99.7075C162.69 100.407 160.236 100.757 156.817 100.757L155.239 100.691H151.754C151.272 100.691 151.031 96.7336 151.031 88.8178C151.031 81.6455 150.965 74.4732 150.834 67.3009C150.702 60.0848 150.505 55.7552 150.242 54.312L152.017 54.0496C154.647 53.6997 156.817 53.4373 158.526 53.2624C160.236 53.0875 161.989 53 163.786 53C165.715 53 167.359 53.0875 168.717 53.2624C171.26 53.5685 173.627 54.4432 175.818 55.8864C178.054 57.3296 179.829 59.1008 181.144 61.2C182.503 63.2993 183.182 65.4641 183.182 67.6945C183.182 69.8374 182.481 72.1772 181.078 74.7137C180.202 76.2881 179.04 77.6001 177.594 78.6497C176.147 79.6994 174.416 80.3335 172.399 80.5522C173.583 82.6514 174.964 84.838 176.542 87.1122C176.849 87.637 177.09 87.9869 177.265 88.1618ZM167.797 71.4337C168.411 71.2588 168.893 70.8214 169.243 70.1217C169.594 69.422 169.769 68.591 169.769 67.6289C169.769 65.8358 169.331 64.6769 168.454 64.1521C167.885 63.8022 167.293 63.5835 166.679 63.4961C166.109 63.4086 165.452 63.3649 164.707 63.3649L161.88 63.8241C161.967 65.1361 162.011 66.2513 162.011 67.1697C162.011 69.5313 162.077 70.9745 162.208 71.4993C162.953 71.5868 163.874 71.6305 164.97 71.6305C165.978 71.6305 166.92 71.5649 167.797 71.4337Z" fill="#BD4F6C"/>
<path d="M222.24 59.6912C224.3 62.9275 225.659 66.1857 226.316 69.4657V69.4001C226.667 70.4934 226.886 71.9148 226.974 73.6641C226.886 74.9761 226.842 75.9601 226.842 76.6161L226.776 77.6657C226.776 77.9719 226.732 78.9996 226.645 80.749C226.557 82.4983 226.338 84.2258 225.987 85.9314C225.154 88.3805 223.993 90.7858 222.503 93.1474C221.056 95.4653 219.325 97.8707 217.308 100.363C213.626 100.451 210.602 100.495 208.235 100.495L203.501 100.56L198.373 100.626C197.584 94.8968 197.189 87.6807 197.189 78.9778C197.189 75.1729 197.211 72.3302 197.255 70.4497C197.299 68.7441 197.321 65.8139 197.321 61.6593C197.321 60.6096 197.277 59.0352 197.189 56.936L197.123 54.968L197.584 54.9024C199.907 54.2901 202.602 53.984 205.671 53.984L207.38 54.0496H209.155C209.725 54.0933 210.602 54.1152 211.785 54.1152C212.969 54.1152 213.846 54.0933 214.415 54.0496C216.037 54.4869 217.593 55.2741 219.084 56.4112C220.574 57.5046 221.757 58.7728 222.634 60.216L222.24 59.6912ZM216.256 77.8625C216.256 77.0753 216.169 76.31 215.993 75.5665C215.643 73.7297 215.226 72.2428 214.744 71.1057C214.262 69.9249 213.517 69.1596 212.509 68.8097H212.64C211.588 68.7222 210.799 68.6785 210.273 68.6785C209.397 68.6785 208.827 68.7222 208.564 68.8097C208.651 70.3841 208.695 71.871 208.695 73.2705V74.9761L208.629 76.7473C208.586 77.7532 208.564 79.262 208.564 81.2738C208.564 83.198 208.542 84.6631 208.498 85.669C209.155 85.9314 209.616 86.0626 209.879 86.0626H210.733C211.435 86.0626 211.939 85.997 212.246 85.8658C212.947 85.6909 213.736 84.9036 214.613 83.5042C215.708 81.8423 216.256 79.9618 216.256 77.8625Z" fill="#BD4F6C"/>
<path d="M258.101 65.5953C258.232 66.951 258.298 68.3286 258.298 69.7281L258.232 70.9089V72.0897C258.145 73.5329 258.101 75.654 258.101 78.4529C258.101 81.558 258.035 83.9196 257.903 85.5378L257.706 87.7026C257.487 91.245 256.589 94.2626 255.011 96.7555C254.353 97.6739 253.367 98.4829 252.052 99.1827C250.737 99.8824 249.29 100.451 247.712 100.888C246.09 101.369 244.184 101.61 241.992 101.61C240.984 101.61 240.283 101.588 239.888 101.544C237.74 101.369 235.812 100.91 234.102 100.167C232.437 99.3795 231.209 98.2424 230.42 96.7555C229.368 94.7874 228.798 92.3165 228.711 89.3426L228.579 87.2434C228.535 86.8935 228.514 86.1719 228.514 85.0786C228.294 81.4924 228.185 78.0593 228.185 74.7793C228.185 72.7676 228.251 70.7558 228.382 68.7441C228.514 66.5574 228.886 64.4363 229.5 62.3809C230.157 60.2816 231.143 58.4448 232.458 56.8704L233.905 56.0832C236.71 54.7275 239.779 54.0496 243.11 54.0496C245.214 54.0496 247.186 54.3339 249.027 54.9024C250.912 55.4272 252.556 56.2144 253.959 57.264C255.493 58.6635 256.501 60.0411 256.983 61.3968C257.509 62.7963 257.882 64.1958 258.101 65.5953ZM247.91 72.7457L247.647 69.3345C247.559 68.11 247.252 67.0385 246.726 66.1201C246.244 65.1579 245.608 64.4801 244.819 64.0865C244.469 63.9553 244.118 63.8897 243.767 63.8897C242.715 63.8897 241.685 64.2395 240.677 64.9393C240.151 65.3766 239.625 66.0107 239.099 66.8417C238.617 67.6289 238.244 68.438 237.981 69.2689C237.543 71.1932 237.324 73.6423 237.324 76.6161C237.324 78.1031 237.346 79.2183 237.39 79.9618V79.8962C237.565 80.7708 237.697 81.9298 237.784 83.373L237.85 84.2914C238.025 86.4781 238.266 88.0962 238.573 89.1458V89.0802C238.968 89.9549 239.537 90.6327 240.283 91.1138C241.072 91.5512 241.904 91.7698 242.781 91.7698C243.482 91.7698 244.184 91.6168 244.885 91.3106C245.63 90.9608 246.266 90.4797 246.792 89.8674C247.23 89.2989 247.493 88.8178 247.581 88.4242C247.712 88.0306 247.778 87.4183 247.778 86.5874C247.778 85.8439 247.8 85.2972 247.844 84.9474L247.91 84.0946L247.975 82.8482V81.9298L248.041 80.6834V77.5345L247.91 73.0737V72.7457Z" fill="#BD4F6C"/>
<path d="M280.087 76.5505C281.972 76.5505 284.098 76.638 286.465 76.8129L288.569 76.9441L289.687 77.0097L289.818 78.3873C289.862 78.8684 289.95 79.918 290.081 81.5362C290.213 83.1106 290.278 84.4663 290.278 85.6034C290.278 87.8338 290.103 90.0423 289.752 92.229C289.446 94.197 288.679 95.8589 287.451 97.2147C286.224 98.5704 284.668 99.5981 282.783 100.298C279.583 101.26 276.624 101.741 273.907 101.741C271.803 101.741 269.896 101.413 268.187 100.757C264.724 99.2264 262.466 96.5587 261.414 92.7538C261.108 91.573 260.845 90.0423 260.625 88.1618C260.625 88.6429 260.384 84.7287 259.902 76.4193C259.902 75.0199 259.924 73.9047 259.968 73.0737C260.056 69.1377 260.275 66.2513 260.625 64.4145C261.239 60.9158 262.664 58.3355 264.899 56.6736C266.565 55.4491 268.844 54.6181 271.737 54.1808C272.745 54.0496 273.775 53.984 274.827 53.984C279.211 53.984 282.805 55.0992 285.61 57.3296C288.416 59.5163 289.818 62.6433 289.818 66.7105L289.687 68.8097V69.7281C289.38 69.7718 289.007 69.7937 288.569 69.7937C288.131 69.7937 287.736 69.7937 287.385 69.7937H284.229C282.564 69.7937 280.964 69.7062 279.43 69.5313C278.378 65.9451 277.194 64.1521 275.879 64.1521C275.66 64.1521 275.419 64.1302 275.156 64.0865C274.893 64.0427 274.652 64.0209 274.433 64.0209C273.731 64.0209 273.118 64.2833 272.592 64.8081C272.548 64.8518 272.395 65.3766 272.132 66.3825C271.299 69.1377 270.882 73.2049 270.882 78.5841C270.882 81.2519 270.97 83.4604 271.145 85.2098C271.452 88.1399 272.044 89.9986 272.921 90.7858C273.359 91.0482 273.71 91.2232 273.973 91.3106C274.455 91.3544 275.025 91.3325 275.682 91.245C276.383 91.1138 276.997 90.9389 277.523 90.7202C278.268 90.4141 278.75 89.7143 278.969 88.621C279.101 88.0962 279.232 87.4183 279.364 86.5874C279.495 85.7565 279.539 85.2535 279.495 85.0786H277.918C276.296 85.166 275.046 85.0349 274.17 84.685C274.082 83.7666 274.038 82.6295 274.038 81.2738V80.5522C274.038 80.3772 274.038 80.093 274.038 79.6994C274.082 79.262 274.038 78.4529 273.907 77.2721C274.257 77.2721 275.003 77.1847 276.142 77.0097C277.896 76.7036 279.211 76.5505 280.087 76.5505Z" fill="#BD4F6C"/>
<path d="M321.341 69.5969C319.5 69.903 317.681 70.0561 315.884 70.0561C313.736 70.0561 311.852 69.8156 310.23 69.3345C310.317 68.8972 310.361 68.591 310.361 68.4161C310.361 67.4102 309.989 66.5793 309.244 65.9233C308.498 65.2673 307.666 64.9393 306.745 64.9393C306.088 64.9393 305.496 65.1579 304.97 65.5953C304.488 65.9889 304.203 66.6011 304.115 67.4321C303.984 67.8257 303.918 68.1756 303.918 68.4817L303.984 69.0721C303.984 69.1596 303.984 69.2033 303.984 69.2033C304.29 70.1217 304.729 70.7558 305.299 71.1057C305.912 71.4556 306.635 71.6961 307.468 71.8273C309.66 72.1334 311.873 72.9425 314.109 74.2545C316.344 75.5665 318.142 77.0972 319.5 78.8465C320.333 79.9836 320.991 81.2519 321.473 82.6514C321.955 84.0071 322.196 85.341 322.196 86.653C322.196 88.9271 321.692 91.1357 320.684 93.2786C319.544 95.7277 317.791 97.6301 315.424 98.9859C313.057 100.342 310.471 101.019 307.666 101.019C304.816 101.019 302.033 100.473 299.315 99.3795C296.642 98.2424 294.472 96.6242 292.806 94.525C291.141 92.4258 290.395 89.9986 290.571 87.2434V86.653C291.842 86.4343 293.245 86.325 294.779 86.325C296.094 86.325 297.211 86.3469 298.132 86.3906C298.965 86.4343 300.455 86.4562 302.603 86.4562C302.647 87.7682 303.041 88.7959 303.786 89.5394C304.575 90.2829 305.474 90.6546 306.482 90.6546C307.359 90.6546 308.082 90.3703 308.652 89.8018C309.265 89.2333 309.572 88.4242 309.572 87.3746C309.572 86.981 309.55 86.6749 309.507 86.4562C309.287 84.838 308.52 83.701 307.205 83.045C305.89 82.389 304.115 81.8423 301.88 81.405L300.893 81.2082C299.009 80.8583 297.365 80.093 295.962 78.9121C294.384 77.3815 293.201 75.7415 292.412 73.9921C291.623 72.2428 291.228 70.4934 291.228 68.7441C291.228 65.9014 292.083 63.2337 293.792 60.7408C295.546 58.2043 297.803 56.3675 300.565 55.2304C302.274 54.5307 304.4 54.1808 306.942 54.1808C310.23 54.1808 313.232 54.7931 315.95 56.0176C317.966 57.0672 319.566 58.4448 320.75 60.1504C321.933 61.8561 322.525 63.8678 322.525 66.1857C322.525 67.0603 322.393 68.1974 322.13 69.5969H321.341Z" fill="#BD4F6C"/>
<path d="M366.942 95.6402C366.986 96.165 367.007 96.9304 367.007 97.9363C367.007 98.8547 366.92 99.5107 366.744 99.9043C366.613 100.254 366.394 100.473 366.087 100.56C365.78 100.648 365.254 100.691 364.509 100.691H364.049L362.997 100.626L361.287 100.691C358.57 100.779 354.559 100.823 349.255 100.823C344.214 100.823 340.204 100.801 337.223 100.757V99.2483C337.53 92.0322 337.683 84.7724 337.683 77.4689C337.683 75.326 337.639 71.6305 337.552 66.3825V62.3809C337.508 61.6374 337.486 60.3035 337.486 58.3792L337.42 54.1152C338.034 53.8965 338.889 53.7216 339.984 53.5904C341.08 53.4155 342.176 53.328 343.272 53.328C344.499 53.328 345.727 53.4155 346.954 53.5904C348.181 53.7653 349.167 54.0059 349.913 54.312C349.825 57.4608 349.781 59.9755 349.781 61.8561C349.781 64.4801 349.825 68.4161 349.913 73.6641C349.956 76.2881 349.978 80.1586 349.978 85.2754V89.5394C351.425 89.5394 353.2 89.605 355.304 89.7362L358.789 89.8674C360.63 89.9986 362.361 90.0642 363.983 90.0642C365.123 90.0642 366.131 90.0205 367.007 89.933C367.007 90.9389 366.986 91.5949 366.942 91.901V91.8354C366.854 93.0162 366.832 93.869 366.876 94.3938L366.942 95.6402Z" fill="#BD4F6C"/>
<path d="M396.919 65.5953C397.051 66.951 397.117 68.3286 397.117 69.7281L397.051 70.9089V72.0897C396.963 73.5329 396.919 75.654 396.919 78.4529C396.919 81.558 396.854 83.9196 396.722 85.5378L396.525 87.7026C396.306 91.245 395.407 94.2626 393.829 96.7555C393.172 97.6739 392.185 98.4829 390.87 99.1827C389.555 99.8824 388.109 100.451 386.531 100.888C384.909 101.369 383.002 101.61 380.811 101.61C379.803 101.61 379.101 101.588 378.707 101.544C376.559 101.369 374.63 100.91 372.921 100.167C371.255 99.3795 370.028 98.2424 369.239 96.7555C368.187 94.7874 367.617 92.3165 367.529 89.3426L367.398 87.2434C367.354 86.8935 367.332 86.1719 367.332 85.0786C367.113 81.4924 367.003 78.0593 367.003 74.7793C367.003 72.7676 367.069 70.7558 367.201 68.7441C367.332 66.5574 367.705 64.4363 368.318 62.3809C368.976 60.2816 369.962 58.4448 371.277 56.8704L372.724 56.0832C375.529 54.7275 378.597 54.0496 381.928 54.0496C384.032 54.0496 386.005 54.3339 387.846 54.9024C389.731 55.4272 391.374 56.2144 392.777 57.264C394.311 58.6635 395.319 60.0411 395.802 61.3968C396.328 62.7963 396.7 64.1958 396.919 65.5953ZM386.728 72.7457L386.465 69.3345C386.377 68.11 386.071 67.0385 385.545 66.1201C385.062 65.1579 384.427 64.4801 383.638 64.0865C383.287 63.9553 382.937 63.8897 382.586 63.8897C381.534 63.8897 380.504 64.2395 379.496 64.9393C378.97 65.3766 378.444 66.0107 377.918 66.8417C377.436 67.6289 377.063 68.438 376.8 69.2689C376.362 71.1932 376.143 73.6423 376.143 76.6161C376.143 78.1031 376.164 79.2183 376.208 79.9618V79.8962C376.384 80.7708 376.515 81.9298 376.603 83.373L376.668 84.2914C376.844 86.4781 377.085 88.0962 377.392 89.1458V89.0802C377.786 89.9549 378.356 90.6327 379.101 91.1138C379.89 91.5512 380.723 91.7698 381.6 91.7698C382.301 91.7698 383.002 91.6168 383.704 91.3106C384.449 90.9608 385.084 90.4797 385.61 89.8674C386.049 89.2989 386.312 88.8178 386.399 88.4242C386.531 88.0306 386.597 87.4183 386.597 86.5874C386.597 85.8439 386.619 85.2972 386.662 84.9474L386.728 84.0946L386.794 82.8482V81.9298L386.86 80.6834V77.5345L386.728 73.0737V72.7457Z" fill="#BD4F6C"/>
<path d="M427.793 55.1648C426.434 62.3809 424.9 69.4001 423.19 76.2225C421.481 83.045 419.333 91.1794 416.747 100.626C415.783 100.626 415.125 100.648 414.774 100.691L414.117 100.757C413.328 100.845 412.517 100.888 411.684 100.888C408.923 100.888 406.775 100.626 405.241 100.101C401.427 86.6749 398.863 71.871 397.548 55.6896C397.943 55.2523 398.753 54.9243 399.981 54.7056C401.208 54.4869 402.567 54.3776 404.057 54.3776C405.46 54.3776 407.038 54.5307 408.791 54.8368L409.186 60.6752C409.449 65.0049 409.734 68.766 410.04 71.9585C410.347 75.1073 410.786 78.2343 411.355 81.3394C411.881 78.934 412.692 74.5607 413.788 68.2193C415.103 60.4784 415.98 55.8646 416.418 54.3776C418.128 54.7275 420.078 54.9024 422.27 54.9024C424.461 54.9024 426.018 54.9899 426.938 55.1648H427.793Z" fill="#BD4F6C"/>
<path d="M458 94.525C458 96.7554 457.759 98.7453 457.277 100.495C455.348 100.495 452.499 100.538 448.729 100.626L440.116 100.691C436.215 100.691 432.314 100.56 428.413 100.298C428.457 98.8984 428.391 93.4536 428.216 83.9634C428.084 78.5841 428.018 74.4513 428.018 71.5649C428.018 65.5734 428.172 59.9974 428.479 54.8368L434.264 54.64C440.752 54.3776 445.705 54.2464 449.124 54.2464C452.061 54.2464 454.91 54.3557 457.671 54.5744C457.847 55.4928 457.934 56.5643 457.934 57.7888C457.934 58.4448 457.89 59.5163 457.803 61.0032C457.715 62.4027 457.671 63.4961 457.671 64.2833C455.041 64.8518 452.104 65.1361 448.861 65.1361L440.313 65.2017C440.094 67.2571 439.985 68.9628 439.985 70.3185C439.985 71.3681 440.116 72.2865 440.379 73.0737L444.719 72.5489C445.332 72.5489 446.253 72.5926 447.48 72.6801L448.335 72.7457C448.554 74.0577 448.664 75.4791 448.664 77.0097L448.532 82.2578C447.129 82.6514 445.245 82.8482 442.878 82.8482L441.168 82.7826C440.861 82.7826 440.664 82.8263 440.576 82.9138L440.313 86.325C440.313 88.1181 440.401 89.605 440.576 90.7858C442.856 90.7858 445.069 90.8514 447.217 90.9826C447.962 91.0264 448.883 91.0701 449.979 91.1138C451.074 91.1576 452.367 91.1794 453.858 91.1794L457.868 91.0482C457.956 93.06 458 94.2189 458 94.525Z" fill="#BD4F6C"/>
</g>
<defs>
<filter id="filter0_d_276_1790" x="0" y="0" width="543" height="337" filterUnits="userSpaceOnUse" color-interpolation-filters="sRGB">
<feFlood flood-opacity="0" result="BackgroundImageFix"/>
<feColorMatrix in="SourceAlpha" type="matrix" values="0 0 0 0 0 0 0 0 0 0 0 0 0 0 0 0 0 0 127 0" result="hardAlpha"/>
<feOffset dy="4"/>
<feGaussianBlur stdDeviation="2"/>
<feComposite in2="hardAlpha" operator="out"/>
<feColorMatrix type="matrix" values="0 0 0 0 0 0 0 0 0 0 0 0 0 0 0 0 0 0 0.25 0"/>
<feBlend mode="normal" in2="BackgroundImageFix" result="effect1_dropShadow_276_1790"/>
<feBlend mode="normal" in="SourceGraphic" in2="effect1_dropShadow_276_1790" result="shape"/>
</filter>
<filter id="filter1_d_276_1790" x="4" y="0" width="539" height="337" filterUnits="userSpaceOnUse" color-interpolation-filters="sRGB">
<feFlood flood-opacity="0" result="BackgroundImageFix"/>
<feColorMatrix in="SourceAlpha" type="matrix" values="0 0 0 0 0 0 0 0 0 0 0 0 0 0 0 0 0 0 127 0" result="hardAlpha"/>
<feOffset dx="4" dy="8"/>
<feComposite in2="hardAlpha" operator="out"/>
<feColorMatrix type="matrix" values="0 0 0 0 0.756863 0 0 0 0 0.388235 0 0 0 0 0.454902 0 0 0 1 0"/>
<feBlend mode="normal" in2="BackgroundImageFix" result="effect1_dropShadow_276_1790"/>
<feBlend mode="normal" in="SourceGraphic" in2="effect1_dropShadow_276_1790" result="shape"/>
</filter>
</defs>
</svg>
