<svg width="171" height="171" viewBox="0 0 171 171" fill="none" xmlns="http://www.w3.org/2000/svg">
<path d="M86.1531 29.0194C86.9012 43.861 84.5723 50.537 73.6846 49.4061C60.7738 48.065 52.9566 48.1436 51.7352 31.9566C50.6737 17.8886 54.4604 3.67536 65.2544 3.13128C76.0483 2.58721 84.0429 13.2016 86.1531 29.0194Z" fill="#F78F8F"/>
<path d="M126.412 42.6278C115.981 53.2121 105.092 59.6514 97.394 52.0652C89.6964 44.4789 91.9123 29.7488 102.343 19.1645C112.775 8.58024 125.699 7.69546 135.168 13.7361C142.866 21.3224 136.843 32.0436 126.412 42.6278Z" fill="#F78F8F"/>
<path d="M155.974 65.1525C147.516 77.3712 132.523 78.8592 125.034 73.6756C117.546 68.492 122.966 59.024 131.424 46.8054C139.882 34.5867 150.286 32.6502 157.774 37.8338C165.262 43.0174 164.432 52.9339 155.974 65.1525Z" fill="#F78F8F"/>
<ellipse cx="66.4671" cy="107.599" rx="52.8974" ry="40.6668" transform="rotate(32.5356 66.4671 107.599)" fill="#F78F8F"/>
<path d="M149.237 107.148C137.545 109.801 123.43 108.442 124.664 99.8107C127.727 88.2889 130.363 85.8782 142.055 83.2248C153.748 80.5714 160.821 82.0786 167.006 90.2019C173.192 98.3251 160.93 104.495 149.237 107.148Z" fill="#F78F8F"/>
<path d="M104.052 63.8918C86.9876 47.1959 66.3261 58.7075 44.2235 64.5792C63.0226 84.1977 115.082 111.413 115.196 109.671C111.192 83.5418 119.786 79.2867 104.052 63.8918Z" fill="#F78F8F"/>
</svg>
