<svg width="105" height="106" viewBox="0 0 105 106" fill="none" xmlns="http://www.w3.org/2000/svg">
<path d="M47.7075 29.0749C48.28 36.2968 47.2387 39.5826 41.9172 39.1841C35.607 38.7115 31.7988 38.8593 30.9767 30.9885C30.2624 24.148 31.9085 17.1688 37.1608 16.7524C42.413 16.3361 46.4576 21.3965 47.7075 29.0749Z" fill="#EC5D5D"/>
<path d="M67.5159 35.1421C62.5811 40.446 57.3649 43.7365 53.5075 40.1475C49.6501 36.5586 50.5235 29.3495 55.4583 24.0457C60.3931 18.7418 66.6791 18.1295 71.3779 20.9405C75.2353 24.5294 72.4507 29.8382 67.5159 35.1421Z" fill="#EC5D5D"/>
<path d="M82.238 45.7041C78.2875 51.7767 71.0021 52.7119 67.2805 50.2909C63.5588 47.8698 66.0671 43.1801 70.0176 37.1075C73.968 31.0348 79.0107 29.9453 82.7324 32.3664C86.454 34.7874 86.1884 39.6314 82.238 45.7041Z" fill="#EC5D5D"/>
<ellipse cx="39.2155" cy="67.6427" rx="25.7876" ry="19.8252" transform="rotate(30.8886 39.2155 67.6427)" fill="#EC5D5D"/>
<path d="M79.5431 66.2629C73.8825 67.7198 66.9854 67.2553 67.4657 63.0318C68.7966 57.3743 70.0475 56.1626 75.708 54.7058C81.3686 53.2489 84.8364 53.8843 87.9644 57.7561C91.0924 61.6279 85.2036 64.8061 79.5431 66.2629Z" fill="#EC5D5D"/>
<path d="M56.9178 45.8173C48.3685 37.9205 38.4614 43.8196 27.773 46.9906C37.2087 56.2873 62.9585 68.8201 62.9899 67.9694C60.6726 55.2927 64.8009 53.0988 56.9178 45.8173Z" fill="#EC5D5D"/>
</svg>
