<svg width="183" height="239" viewBox="0 0 183 239" fill="none" xmlns="http://www.w3.org/2000/svg">
<g filter="url(#filter0_d_276_1796)">
<path d="M46.8148 162.742C51.3416 149.757 59.3334 134.79 64.1283 128.163L124.921 123.212C148.558 130.317 162.611 179.959 167.845 199.978L49.2515 199.224C46.1791 191.574 42.8953 173.984 46.8148 162.742Z" fill="#D9A75D"/>
<path d="M153.07 81.4873C133.021 113.212 134.044 144.714 101.441 149.655C68.8385 154.596 68.7 144.772 39.7505 102.346C25.6226 81.6411 30.3644 11.0127 87.0728 12.2305C130.052 13.1532 140.456 29.2691 143.294 36.1319C153.513 60.8371 149.913 60.6568 153.07 81.4873Z" fill="url(#paint0_linear_276_1796)"/>
<path d="M3.38301 76.9649C1.74305 69.8209 22.0243 43.9934 34.5723 33.7971C49.1364 34.1098 44.5933 89.1052 37.3883 111.462C30.1833 133.818 5.43296 85.8949 3.38301 76.9649Z" fill="url(#paint1_linear_276_1796)"/>
<path d="M178.748 75.9523C180.798 68.8876 160.484 42.1885 147.661 31.4475C132.24 31.1164 134.616 86.2604 141.251 108.914C147.885 131.567 176.185 84.7832 178.748 75.9523Z" fill="url(#paint2_linear_276_1796)"/>
<path d="M49.6041 50.2182C51.4672 43.808 60.68 39.0434 68.8371 39.2186" stroke="black" stroke-width="3" stroke-linecap="round"/>
<path d="M133.246 47.5179C128.891 39.4053 121.805 35.67 113.959 36.6138" stroke="black" stroke-width="3" stroke-linecap="round"/>
<circle cx="67.0227" cy="55.9932" r="5.97068" transform="rotate(1.22988 67.0227 55.9932)" fill="black"/>
<circle cx="116.022" cy="54.6563" r="5.97068" transform="rotate(1.22988 116.022 54.6563)" fill="black"/>
<path d="M77.3317 76.5194L83.6115 65.1156C86.2349 60.0436 92.2396 61.4546 96.7637 61.5518C100.405 61.6301 105.633 70.0757 105.984 77.1346L77.3317 76.5194Z" fill="url(#paint3_linear_276_1796)"/>
<ellipse opacity="0.4" cx="94.6373" cy="104.96" rx="26.271" ry="19.7032" transform="rotate(1.22988 94.6373 104.96)" fill="#DBDBDB"/>
<path d="M114.239 109.912C104.35 125.466 83.218 117.607 75.3999 110.87L91.8118 97.4862C103.014 94.9397 114.239 109.912 114.239 109.912Z" fill="black"/>
<path d="M97.701 131.633C80.3391 134.105 82.6353 113.531 85.9537 102.935L93.8044 97.1777L102.224 100.914C107.951 110.124 115.063 129.161 97.701 131.633Z" fill="#F05B5B"/>
<path d="M96.2369 120.167C96.3658 120.412 96.6683 120.505 96.9125 120.376C97.1567 120.247 97.2502 119.945 97.1213 119.701L96.2369 120.167ZM94.2408 98.9602C94.0849 101.56 93.9953 105.729 94.2333 109.799C94.3523 111.834 94.5536 113.852 94.8718 115.641C95.1886 117.422 95.627 119.012 96.2369 120.167L97.1213 119.701C96.5835 118.682 96.1669 117.212 95.8564 115.466C95.5473 113.728 95.3492 111.752 95.2316 109.74C94.9963 105.718 95.0849 101.589 95.239 99.0201L94.2408 98.9602Z" fill="#CB4747"/>
<path d="M91.8924 93.746C98.4586 93.887 108.721 81.0814 104.155 78.8866C97.653 75.7611 85.0918 76.6854 79.6811 78.3613C72.8629 80.4732 87.1169 93.6435 91.8924 93.746Z" fill="black"/>
<path d="M91.8924 93.746C98.4586 93.887 108.721 81.0814 104.155 78.8866C97.653 75.7611 85.0918 76.6854 79.6811 78.3613C72.8629 80.4732 87.1169 93.6435 91.8924 93.746ZM91.8924 93.746C96.3321 100.211 113.831 112.251 126.919 103.455M93.6187 96.77C88.9056 103.039 79.8606 114.508 67.1616 105.158" stroke="black" stroke-width="4" stroke-linecap="round"/>
<path d="M77.2529 191.464C76.9839 203.992 67.4119 213.947 55.8733 213.699C44.3347 213.451 35.1988 203.095 35.4677 190.567C35.7367 178.039 45.3086 168.085 56.8473 168.332C68.3859 168.58 77.5218 178.937 77.2529 191.464Z" fill="#DCB273"/>
<path d="M77.2529 191.464C76.9839 203.992 67.4119 213.947 55.8733 213.699C44.3347 213.451 35.1988 203.095 35.4677 190.567C35.7367 178.039 45.3086 168.085 56.8473 168.332C68.3859 168.58 77.5218 178.937 77.2529 191.464Z" stroke="black"/>
<ellipse cx="53.1834" cy="199.905" rx="22.6886" ry="24.4798" transform="rotate(1.22988 53.1834 199.905)" fill="#F7C780"/>
<circle cx="38.511" cy="215.715" r="8.35895" transform="rotate(1.22988 38.511 215.715)" fill="#F7C780"/>
<circle cx="50.3215" cy="221.941" r="8.35895" transform="rotate(1.22988 50.3215 221.941)" fill="#F7C780"/>
<circle cx="64.6991" cy="219.86" r="8.35895" transform="rotate(1.22988 64.6991 219.86)" fill="#F7C780"/>
<circle cx="75.7002" cy="208.152" r="8.35895" transform="rotate(1.22988 75.7002 208.152)" fill="#F7C780"/>
<path d="M125.161 185.326C124.892 197.854 134.028 208.21 145.567 208.458C157.105 208.706 166.677 198.751 166.946 186.223C167.215 173.695 158.079 163.339 146.541 163.091C135.002 162.843 125.43 172.798 125.161 185.326Z" fill="#DCB273"/>
<path d="M125.161 185.326C124.892 197.854 134.028 208.21 145.567 208.458C157.105 208.706 166.677 198.751 166.946 186.223C167.215 173.695 158.079 163.339 146.541 163.091C135.002 162.843 125.43 172.798 125.161 185.326Z" stroke="black"/>
<ellipse cx="22.6886" cy="24.4798" rx="22.6886" ry="24.4798" transform="matrix(-0.99977 -0.0214638 -0.0214638 0.99977 176.882 168.52)" fill="#F7C780"/>
<circle cx="8.35895" cy="8.35895" r="8.35895" transform="matrix(-0.99977 -0.0214638 -0.0214638 0.99977 176.189 200.754)" fill="#F7C780"/>
<circle cx="8.35895" cy="8.35895" r="8.35895" transform="matrix(-0.99977 -0.0214638 -0.0214638 0.99977 164.123 206.467)" fill="#F7C780"/>
<circle cx="8.35895" cy="8.35895" r="8.35895" transform="matrix(-0.99977 -0.0214638 -0.0214638 0.99977 149.848 203.772)" fill="#F7C780"/>
<circle cx="8.35895" cy="8.35895" r="8.35895" transform="matrix(-0.99977 -0.0214638 -0.0214638 0.99977 139.359 191.603)" fill="#F7C780"/>
<circle cx="68.6628" cy="57.9153" r="1.7912" fill="#DBDBDB"/>
<circle cx="116.428" cy="56.7213" r="1.7912" fill="#DBDBDB"/>
</g>
<defs>
<filter id="filter0_d_276_1796" x="3.28938" y="12.215" width="179.603" height="226.085" filterUnits="userSpaceOnUse" color-interpolation-filters="sRGB">
<feFlood flood-opacity="0" result="BackgroundImageFix"/>
<feColorMatrix in="SourceAlpha" type="matrix" values="0 0 0 0 0 0 0 0 0 0 0 0 0 0 0 0 0 0 127 0" result="hardAlpha"/>
<feOffset dx="4" dy="8"/>
<feComposite in2="hardAlpha" operator="out"/>
<feColorMatrix type="matrix" values="0 0 0 0 0.741176 0 0 0 0 0.309804 0 0 0 0 0.423529 0 0 0 1 0"/>
<feBlend mode="normal" in2="BackgroundImageFix" result="effect1_dropShadow_276_1796"/>
<feBlend mode="normal" in="SourceGraphic" in2="effect1_dropShadow_276_1796" result="shape"/>
</filter>
<linearGradient id="paint0_linear_276_1796" x1="99.0883" y1="8.90527" x2="76.4036" y2="147.567" gradientUnits="userSpaceOnUse">
<stop stop-color="#F7B85B"/>
<stop offset="1" stop-color="#DAAD6B"/>
</linearGradient>
<linearGradient id="paint1_linear_276_1796" x1="23.9156" y1="61.0398" x2="22.711" y2="117.151" gradientUnits="userSpaceOnUse">
<stop stop-color="#F3B75E"/>
<stop offset="1" stop-color="#AD9470"/>
</linearGradient>
<linearGradient id="paint2_linear_276_1796" x1="157.743" y1="58.5382" x2="156.526" y2="115.247" gradientUnits="userSpaceOnUse">
<stop stop-color="#F4B85D"/>
<stop offset="1" stop-color="#AD9470"/>
</linearGradient>
<linearGradient id="paint3_linear_276_1796" x1="91.9913" y1="61.3068" x2="91.6581" y2="76.827" gradientUnits="userSpaceOnUse">
<stop stop-color="#EEB561"/>
<stop offset="1" stop-color="#D6A457"/>
</linearGradient>
</defs>
</svg>
