<svg width="619" height="627" viewBox="0 0 619 627" fill="none" xmlns="http://www.w3.org/2000/svg">
<g filter="url(#filter0_d_276_1736)">
<mask id="path-1-inside-1_276_1736" fill="white">
<path fill-rule="evenodd" clip-rule="evenodd" d="M508.156 438.982L508.162 438.99L260.611 618.977L179.466 507.372C179.331 507.189 179.197 507.005 179.062 506.82L81.5964 372.767C36.5594 310.824 50.2645 224.1 112.207 179.063C174.15 134.026 260.875 147.731 305.912 209.674L321.832 231.569L343.727 215.65C405.67 170.613 492.394 184.318 537.431 246.261C582.143 307.756 568.958 393.675 508.156 438.982Z"/>
</mask>
<path fill-rule="evenodd" clip-rule="evenodd" d="M508.156 438.982L508.162 438.99L260.611 618.977L179.466 507.372C179.331 507.189 179.197 507.005 179.062 506.82L81.5964 372.767C36.5594 310.824 50.2645 224.1 112.207 179.063C174.15 134.026 260.875 147.731 305.912 209.674L321.832 231.569L343.727 215.65C405.67 170.613 492.394 184.318 537.431 246.261C582.143 307.756 568.958 393.675 508.156 438.982Z" fill="#DDEDAA"/>
<path d="M508.156 438.982L506.364 436.576L503.986 438.348L505.73 440.746L508.156 438.982ZM508.162 438.99L509.926 441.416L512.353 439.652L510.589 437.226L508.162 438.99ZM260.611 618.977L258.184 620.741L259.948 623.168L262.375 621.404L260.611 618.977ZM179.466 507.372L181.892 505.608L181.888 505.602L181.884 505.596L179.466 507.372ZM179.062 506.82L176.636 508.584L179.062 506.82ZM81.5964 372.767L79.1699 374.531L81.5964 372.767ZM112.207 179.063L113.972 181.489L112.207 179.063ZM305.912 209.674L308.338 207.909L305.912 209.674ZM321.832 231.569L319.405 233.333L321.169 235.76L323.596 233.996L321.832 231.569ZM505.73 440.746L505.736 440.754L510.589 437.226L510.583 437.218L505.73 440.746ZM506.398 436.563L258.847 616.551L262.375 621.404L509.926 441.416L506.398 436.563ZM263.037 617.213L181.892 505.608L177.04 509.137L258.184 620.741L263.037 617.213ZM181.884 505.596C181.752 505.417 181.62 505.236 181.489 505.056L176.636 508.584C176.773 508.773 176.91 508.961 177.048 509.148L181.884 505.596ZM181.489 505.056L84.0228 371.003L79.1699 374.531L176.636 508.584L181.489 505.056ZM84.0228 371.003C39.9602 310.4 53.3687 225.552 113.972 181.489L110.443 176.636C47.1602 222.647 33.1586 311.248 79.1699 374.531L84.0228 371.003ZM113.972 181.489C174.575 137.426 259.423 150.835 303.485 211.438L308.338 207.909C262.327 144.626 173.726 130.625 110.443 176.636L113.972 181.489ZM303.485 211.438L319.405 233.333L324.258 229.805L308.338 207.909L303.485 211.438ZM323.596 233.996L345.491 218.076L341.963 213.223L320.067 229.143L323.596 233.996ZM345.491 218.076C406.094 174.014 490.942 187.422 535.005 248.025L539.858 244.497C493.846 181.214 405.246 167.212 341.963 213.223L345.491 218.076ZM535.005 248.025C578.749 308.19 565.85 392.251 506.364 436.576L509.949 441.387C572.067 395.1 585.537 307.322 539.858 244.497L535.005 248.025Z" fill="#BD4F6C" mask="url(#path-1-inside-1_276_1736)"/>
</g>
<defs>
<filter id="filter0_d_276_1736" x="55.0749" y="152.541" width="512.878" height="474.436" filterUnits="userSpaceOnUse" color-interpolation-filters="sRGB">
<feFlood flood-opacity="0" result="BackgroundImageFix"/>
<feColorMatrix in="SourceAlpha" type="matrix" values="0 0 0 0 0 0 0 0 0 0 0 0 0 0 0 0 0 0 127 0" result="hardAlpha"/>
<feOffset dx="4" dy="8"/>
<feComposite in2="hardAlpha" operator="out"/>
<feColorMatrix type="matrix" values="0 0 0 0 0.741176 0 0 0 0 0.309804 0 0 0 0 0.423529 0 0 0 1 0"/>
<feBlend mode="normal" in2="BackgroundImageFix" result="effect1_dropShadow_276_1736"/>
<feBlend mode="normal" in="SourceGraphic" in2="effect1_dropShadow_276_1736" result="shape"/>
</filter>
</defs>
</svg>
